<svg id="Layer_1" data-name="Layer 1" xmlns="http://www.w3.org/2000/svg" xmlns:xlink="http://www.w3.org/1999/xlink" viewBox="0 0 442 264"><defs><style>.cls-1{fill-rule:evenodd;fill:url(#radial-gradient);}.cls-2{fill:#452e66;}</style><radialGradient id="radial-gradient" cx="-76.11" cy="553.07" r="1" gradientTransform="matrix(-677.63, 0, 0, 1563.71, -51197.83, -864908.58)" gradientUnits="userSpaceOnUse"><stop offset="0" stop-color="#ebb9f2"/><stop offset="0.54" stop-color="#f6aaaa"/><stop offset="1" stop-color="#a566ff"/></radialGradient></defs><path class="cls-1" d="M12,264A12,12,0,0,1,0,252V91l0,0V12A12,12,0,0,1,12,0H335a12,12,0,0,1,12,12V75a12,12,0,0,0,12,12h28.15a12,12,0,0,1,12,12v62a12,12,0,0,0,12,12h18.31a12,12,0,0,1,12,12v67a12,12,0,0,1-12,12Z"/><path class="cls-2" d="M34.17,60.64v5.28q-1.32.12-4.5.12-4.44,0-6.36-1.44t-1.86-5.52V38.86H16.23V34.24h5.22V25.3h6.12v8.94h7v4.62h-7v18.6q0,2.1.78,2.7a4.83,4.83,0,0,0,2.82.6Z"/><path class="cls-2" d="M44.38,38.44a11.14,11.14,0,0,1,9.72-4.92,12,12,0,0,1,5.46,1.26,9.14,9.14,0,0,1,4,3.78,12.09,12.09,0,0,1,1.56,6.36v21H59V46.78q0-4.38-1.74-6.24A6.9,6.9,0,0,0,52,38.68a6.49,6.49,0,0,0-3.78,1.26,9.1,9.1,0,0,0-2.94,3.66,12.33,12.33,0,0,0-1.14,5.46V65.92H38V22.48h6.12v16Z"/><path class="cls-2" d="M98.51,56.68a15.17,15.17,0,0,1-4.8,7.08q-3.48,2.88-9.84,2.88a14.93,14.93,0,0,1-7.8-2,14.17,14.17,0,0,1-5.22-5.82A19.32,19.32,0,0,1,69,50.14a20,20,0,0,1,1.8-8.7A13.83,13.83,0,0,1,76,35.62a14.52,14.52,0,0,1,7.86-2.1,15,15,0,0,1,7.74,2,13,13,0,0,1,5.28,5.58,18,18,0,0,1,1.92,8.58q0,1.26-.06,1.92H75.17a11.5,11.5,0,0,0,2.46,7.26,7.81,7.81,0,0,0,6.24,2.82A8.48,8.48,0,0,0,89.51,60a9.85,9.85,0,0,0,2.82-4ZM83.81,38.5A7.61,7.61,0,0,0,77.87,41a10.48,10.48,0,0,0-2.58,5.94H92.51a10.34,10.34,0,0,0-2.64-6A7.85,7.85,0,0,0,83.81,38.5Z"/><path class="cls-2" d="M127.21,26.92a4.59,4.59,0,0,0-2.7.72q-1,.72-1,2.88v3.72h7v4.62h-7V65.92h-6.12V38.86h-5.22V34.24h5.22V29.92q0-8.16,8.88-8.16a26.55,26.55,0,0,1,4.92.42v5A32.41,32.41,0,0,0,127.21,26.92Z"/><path class="cls-2" d="M155.29,61.72a11.16,11.16,0,0,1-9.84,4.92,11.58,11.58,0,0,1-8-2.88q-3.24-2.88-3.24-8.52v-21h6.12V53.38q0,4.38,1.74,6.24a7.79,7.79,0,0,0,9.12.72A8,8,0,0,0,154.09,57a11.57,11.57,0,0,0,1.14-5.34V34.24h6.12V65.92h-5.82v-4.2Z"/><path class="cls-2" d="M182.06,60.64v5.28q-1.32.12-4.5.12-4.44,0-6.36-1.44t-1.86-5.52V38.86h-5.22V34.24h5.22V25.3h6.12v8.94h7v4.62h-7v18.6q0,2.1.78,2.7a4.83,4.83,0,0,0,2.82.6Z"/><path class="cls-2" d="M207,61.72a11.16,11.16,0,0,1-9.84,4.92,11.58,11.58,0,0,1-8-2.88q-3.24-2.88-3.24-8.52v-21H192V53.38q0,4.38,1.74,6.24a7.79,7.79,0,0,0,9.12.72A8,8,0,0,0,205.77,57a11.57,11.57,0,0,0,1.14-5.34V34.24H213V65.92h-5.82v-4.2Z"/><path class="cls-2" d="M223.66,39h.24a10.45,10.45,0,0,1,9.42-5.52,12.7,12.7,0,0,1,2.82.3V39.7a22.16,22.16,0,0,0-3.12-.24,9.18,9.18,0,0,0-6.6,2.34Q224,44.08,224,49.12v16.8h-6.12V34.24h5.82Z"/><path class="cls-2" d="M267.67,56.68a15.17,15.17,0,0,1-4.8,7.08q-3.48,2.88-9.84,2.88a14.93,14.93,0,0,1-7.8-2A14.17,14.17,0,0,1,240,58.78a19.32,19.32,0,0,1-1.86-8.64,20,20,0,0,1,1.8-8.7,13.83,13.83,0,0,1,5.16-5.82,14.52,14.52,0,0,1,7.86-2.1,15,15,0,0,1,7.74,2A13,13,0,0,1,266,41.08a18,18,0,0,1,1.92,8.58q0,1.26-.06,1.92H244.33a11.5,11.5,0,0,0,2.46,7.26A7.81,7.81,0,0,0,253,61.66,8.48,8.48,0,0,0,258.67,60a9.85,9.85,0,0,0,2.82-4ZM253,38.5A7.61,7.61,0,0,0,247,41a10.48,10.48,0,0,0-2.58,5.94h17.22a10.34,10.34,0,0,0-2.64-6A7.85,7.85,0,0,0,253,38.5Z"/><path class="cls-2" d="M289.65,34.24V65.92h-6.12V34.24Zm0-11.76v6.66h-6.12V22.48Z"/><path class="cls-2" d="M314.09,43.72a6.6,6.6,0,0,0-2.7-4.08,8,8,0,0,0-4.74-1.44,7.59,7.59,0,0,0-4.5,1.2,4,4,0,0,0-1.68,3.42,2.86,2.86,0,0,0,1.5,2.7,16.08,16.08,0,0,0,4.68,1.38l3.12.48a19.19,19.19,0,0,1,7.8,2.88q2.82,1.92,2.82,6.48a8.34,8.34,0,0,1-3.78,7.32A16.6,16.6,0,0,1,307,66.64a16,16,0,0,1-9.6-2.7,11.32,11.32,0,0,1-4.56-7.2l5.58-1.2a7.89,7.89,0,0,0,2.94,4.92A10,10,0,0,0,307.07,62a8.85,8.85,0,0,0,5.1-1.32,4.41,4.41,0,0,0,1.92-3.78A3.16,3.16,0,0,0,312.41,54a14.64,14.64,0,0,0-4.92-1.5l-3.24-.54a18.07,18.07,0,0,1-7.32-2.7q-2.7-1.92-2.7-6.36a7.84,7.84,0,0,1,1.56-4.8,10.58,10.58,0,0,1,4.44-3.36,16.7,16.7,0,0,1,6.48-1.2,15,15,0,0,1,6.18,1.26,11.79,11.79,0,0,1,4.56,3.3,9,9,0,0,1,2.22,4.44Z"/><path class="cls-2" d="M31.71,118.52a12.85,12.85,0,0,1,5.7,1.2A9.08,9.08,0,0,1,41.25,123h.24V107.48h6.12v43.44H41.79v-4.08h-.24a8.89,8.89,0,0,1-3.9,3.54,13.37,13.37,0,0,1-5.94,1.26,14,14,0,0,1-7.5-2,14.48,14.48,0,0,1-5.1-5.82,20,20,0,0,1-1.8-8.7,19.62,19.62,0,0,1,1.8-8.64,14,14,0,0,1,5.1-5.82A13.67,13.67,0,0,1,31.71,118.52Zm1,28.14a8.09,8.09,0,0,0,6.66-3.06q2.46-3.12,2.46-8.52t-2.46-8.46a8,8,0,0,0-6.66-3.12A8.2,8.2,0,0,0,26,126.62q-2.46,3.06-2.46,8.46T26,143.6A8.26,8.26,0,0,0,32.73,146.66Z"/><path class="cls-2" d="M81,141.68a15.17,15.17,0,0,1-4.8,7.08q-3.48,2.88-9.84,2.88a14.93,14.93,0,0,1-7.8-2,14.17,14.17,0,0,1-5.22-5.82,19.32,19.32,0,0,1-1.86-8.64,20,20,0,0,1,1.8-8.7,13.83,13.83,0,0,1,5.16-5.82,14.52,14.52,0,0,1,7.86-2.1,15,15,0,0,1,7.74,2,13,13,0,0,1,5.28,5.58,18,18,0,0,1,1.92,8.58q0,1.26-.06,1.92H57.65a11.5,11.5,0,0,0,2.46,7.26,7.81,7.81,0,0,0,6.24,2.82A8.48,8.48,0,0,0,72,145a9.85,9.85,0,0,0,2.82-4ZM66.29,123.5A7.61,7.61,0,0,0,60.35,126a10.48,10.48,0,0,0-2.58,5.94H75a10.34,10.34,0,0,0-2.64-6A7.85,7.85,0,0,0,66.29,123.5Z"/><path class="cls-2" d="M99.28,146.66q6.36,0,8.28-6.78l6.18.9a15.83,15.83,0,0,1-4.68,7.56q-3.48,3.3-9.78,3.3a15,15,0,0,1-7.86-2,14.17,14.17,0,0,1-5.22-5.82,19.46,19.46,0,0,1-1.86-8.7,19.08,19.08,0,0,1,1.86-8.64,13.69,13.69,0,0,1,5.22-5.82,14.83,14.83,0,0,1,7.92-2.1q6,0,9.24,2.94a15.32,15.32,0,0,1,4.5,6.12l-5.76,1.86a10.26,10.26,0,0,0-2.64-4.08,7.1,7.1,0,0,0-5.34-1.86,7.69,7.69,0,0,0-6.42,3.12q-2.34,3.06-2.34,8.46t2.34,8.46A7.63,7.63,0,0,0,99.28,146.66Z"/><path class="cls-2" d="M145.68,141.68a15.17,15.17,0,0,1-4.8,7.08q-3.48,2.88-9.84,2.88a14.93,14.93,0,0,1-7.8-2,14.17,14.17,0,0,1-5.22-5.82,19.32,19.32,0,0,1-1.86-8.64,20,20,0,0,1,1.8-8.7,13.83,13.83,0,0,1,5.16-5.82,14.52,14.52,0,0,1,7.86-2.1,15,15,0,0,1,7.74,2,13,13,0,0,1,5.28,5.58,18,18,0,0,1,1.92,8.58q0,1.26-.06,1.92H122.34a11.5,11.5,0,0,0,2.46,7.26,7.81,7.81,0,0,0,6.24,2.82,8.48,8.48,0,0,0,5.64-1.68,9.85,9.85,0,0,0,2.82-4ZM131,123.5A7.61,7.61,0,0,0,125,126a10.48,10.48,0,0,0-2.58,5.94h17.22a10.34,10.34,0,0,0-2.64-6A7.85,7.85,0,0,0,131,123.5Z"/><path class="cls-2" d="M156.05,123.44a10.79,10.79,0,0,1,4.26-3.72,12.81,12.81,0,0,1,5.58-1.2,12.17,12.17,0,0,1,5.52,1.26,9.42,9.42,0,0,1,4.14,3.78,11.89,11.89,0,0,1,1.56,6.36v21H171V131.78q0-4.38-1.74-6.24a6.9,6.9,0,0,0-5.28-1.86,7.05,7.05,0,0,0-3.84,1.14,8.39,8.39,0,0,0-2.94,3.36,12.11,12.11,0,0,0-1.08,5.34v17.4H150V119.24h5.82v4.2Z"/><path class="cls-2" d="M197.59,145.64v5.28q-1.32.12-4.5.12-4.44,0-6.36-1.44t-1.86-5.52V123.86h-5.22v-4.62h5.22V110.3H191v8.94h7v4.62h-7v18.6q0,2.1.78,2.7a4.83,4.83,0,0,0,2.82.6Z"/><path class="cls-2" d="M207.26,124h.23a10.45,10.45,0,0,1,9.42-5.52,12.86,12.86,0,0,1,2.83.3v5.88a22.27,22.27,0,0,0-3.12-.24A9.19,9.19,0,0,0,210,126.8c-1.63,1.52-2.46,4-2.46,7.32v16.8h-6.12V119.24h5.83Z"/><path class="cls-2" d="M243,150.92a3.54,3.54,0,0,1-.72-1.56,12.92,12.92,0,0,1-.24-2.64,8.94,8.94,0,0,1-4.5,3.72,16.5,16.5,0,0,1-6.18,1.2,12,12,0,0,1-5.22-1.14,10,10,0,0,1-3.84-3.3,9.16,9.16,0,0,1-1.38-5q0-4.86,3.36-7.14T234.42,132a17.75,17.75,0,0,0,5.94-1.26,2.61,2.61,0,0,0,1.62-2.4q0-4.74-6.66-4.74a8.34,8.34,0,0,0-4.68,1.38,7,7,0,0,0-2.94,4l-5.58-1.32a10.64,10.64,0,0,1,4.68-6.6,15.33,15.33,0,0,1,8.76-2.46q6.48,0,9.48,2.7a8.74,8.74,0,0,1,3.06,7v15.9q0,3,.12,4.44a7,7,0,0,0,.72,2.4Zm-1-16.32a5.67,5.67,0,0,1-2.82,1.2q-2.1.42-5.4.84a10.19,10.19,0,0,0-4.74,1.74,4.35,4.35,0,0,0-1.86,3.78,4.27,4.27,0,0,0,1.44,3.48,6.22,6.22,0,0,0,4,1.14,12.15,12.15,0,0,0,4.44-.84,8.3,8.3,0,0,0,3.54-2.76,7.68,7.68,0,0,0,1.44-4.74Z"/><path class="cls-2" d="M259.12,107.48v43.44H253V107.48Z"/><path class="cls-2" d="M270.55,119.24v31.68h-6.12V119.24Zm0-11.76v6.66h-6.12v-6.66Z"/><path class="cls-2" d="M274.29,145.34l17.64-20.7H275.19v-5.4h24.24v5.64l-17.64,20.76h17.64v5.28H274.29Z"/><path class="cls-2" d="M331,141.68a15.17,15.17,0,0,1-4.8,7.08q-3.48,2.88-9.84,2.88a14.93,14.93,0,0,1-7.8-2,14.17,14.17,0,0,1-5.22-5.82,19.32,19.32,0,0,1-1.86-8.64,20,20,0,0,1,1.8-8.7,13.83,13.83,0,0,1,5.16-5.82,14.52,14.52,0,0,1,7.86-2.1,15,15,0,0,1,7.74,2,13,13,0,0,1,5.28,5.58,18,18,0,0,1,1.92,8.58q0,1.26-.06,1.92H307.67a11.5,11.5,0,0,0,2.46,7.26,7.81,7.81,0,0,0,6.24,2.82A8.48,8.48,0,0,0,322,145a9.85,9.85,0,0,0,2.82-4Zm-14.7-18.18a7.61,7.61,0,0,0-5.94,2.46,10.48,10.48,0,0,0-2.58,5.94H325a10.34,10.34,0,0,0-2.64-6A7.85,7.85,0,0,0,316.31,123.5Z"/><path class="cls-2" d="M348.76,118.52a12.85,12.85,0,0,1,5.7,1.2A9.08,9.08,0,0,1,358.3,123h.24V107.48h6.12v43.44h-5.82v-4.08h-.24a8.89,8.89,0,0,1-3.9,3.54,13.37,13.37,0,0,1-5.94,1.26,14,14,0,0,1-7.5-2,14.48,14.48,0,0,1-5.1-5.82,20,20,0,0,1-1.8-8.7,19.62,19.62,0,0,1,1.8-8.64,14,14,0,0,1,5.1-5.82A13.67,13.67,0,0,1,348.76,118.52Zm1,28.14a8.09,8.09,0,0,0,6.66-3.06q2.46-3.12,2.46-8.52t-2.46-8.46a8,8,0,0,0-6.66-3.12,8.2,8.2,0,0,0-6.72,3.12q-2.46,3.06-2.46,8.46t2.46,8.52A8.26,8.26,0,0,0,349.78,146.66Z"/><path class="cls-2" d="M39.15,235.92a3.54,3.54,0,0,1-.72-1.56,12.92,12.92,0,0,1-.24-2.64,8.94,8.94,0,0,1-4.5,3.72,16.5,16.5,0,0,1-6.18,1.2,12,12,0,0,1-5.22-1.14,10,10,0,0,1-3.84-3.3,9.16,9.16,0,0,1-1.38-5q0-4.86,3.36-7.14T30.57,217a17.75,17.75,0,0,0,5.94-1.26,2.61,2.61,0,0,0,1.62-2.4q0-4.74-6.66-4.74a8.34,8.34,0,0,0-4.68,1.38,7,7,0,0,0-2.94,4l-5.58-1.32A10.64,10.64,0,0,1,23,206a15.33,15.33,0,0,1,8.76-2.46q6.48,0,9.48,2.7a8.74,8.74,0,0,1,3.06,7v15.9q0,3,.12,4.44a7,7,0,0,0,.72,2.4Zm-1-16.32a5.67,5.67,0,0,1-2.82,1.2q-2.1.42-5.4.84a10.19,10.19,0,0,0-4.74,1.74,4.35,4.35,0,0,0-1.86,3.78,4.27,4.27,0,0,0,1.44,3.48,6.22,6.22,0,0,0,4,1.14,12.15,12.15,0,0,0,4.44-.84,8.3,8.3,0,0,0,3.54-2.76,7.68,7.68,0,0,0,1.44-4.74Z"/><path class="cls-2" d="M55.09,208.44a10.79,10.79,0,0,1,4.26-3.72,12.81,12.81,0,0,1,5.58-1.2,12.17,12.17,0,0,1,5.52,1.26,9.42,9.42,0,0,1,4.14,3.78,11.89,11.89,0,0,1,1.56,6.36v21H70V216.78q0-4.38-1.74-6.24A6.9,6.9,0,0,0,63,208.68a7.05,7.05,0,0,0-3.84,1.14,8.39,8.39,0,0,0-2.94,3.36,12.11,12.11,0,0,0-1.08,5.34v17.4H49V204.24h5.82v4.2Z"/><path class="cls-2" d="M94.41,203.52a12.85,12.85,0,0,1,5.7,1.2A9.08,9.08,0,0,1,104,208h.24V192.48h6.12v43.44h-5.82v-4.08h-.24a8.89,8.89,0,0,1-3.9,3.54,13.37,13.37,0,0,1-5.94,1.26,14,14,0,0,1-7.5-2,14.48,14.48,0,0,1-5.1-5.82,20,20,0,0,1-1.8-8.7,19.62,19.62,0,0,1,1.8-8.64,14,14,0,0,1,5.1-5.82A13.67,13.67,0,0,1,94.41,203.52Zm1,28.14a8.09,8.09,0,0,0,6.66-3.06q2.46-3.12,2.46-8.52t-2.46-8.46a8,8,0,0,0-6.66-3.12,8.2,8.2,0,0,0-6.72,3.12q-2.46,3.06-2.46,8.46t2.46,8.52A8.26,8.26,0,0,0,95.43,231.66Z"/><path class="cls-2" d="M145.81,213.72a6.6,6.6,0,0,0-2.7-4.08,8,8,0,0,0-4.74-1.44,7.59,7.59,0,0,0-4.5,1.2,4,4,0,0,0-1.68,3.42,2.86,2.86,0,0,0,1.5,2.7,16.08,16.08,0,0,0,4.68,1.38l3.12.48a19.19,19.19,0,0,1,7.8,2.88q2.82,1.92,2.82,6.48a8.34,8.34,0,0,1-3.78,7.32,16.6,16.6,0,0,1-9.66,2.58,16,16,0,0,1-9.6-2.7,11.32,11.32,0,0,1-4.56-7.2l5.58-1.2a7.89,7.89,0,0,0,2.94,4.92,10,10,0,0,0,5.76,1.56,8.85,8.85,0,0,0,5.1-1.32,4.41,4.41,0,0,0,1.92-3.78,3.16,3.16,0,0,0-1.68-2.94,14.64,14.64,0,0,0-4.92-1.5l-3.24-.54a18.07,18.07,0,0,1-7.32-2.7q-2.7-1.92-2.7-6.36a7.84,7.84,0,0,1,1.56-4.8,10.58,10.58,0,0,1,4.44-3.36,16.7,16.7,0,0,1,6.48-1.2,15,15,0,0,1,6.18,1.26,11.79,11.79,0,0,1,4.56,3.3,9,9,0,0,1,2.22,4.44Z"/><path class="cls-2" d="M177.08,231.72a11.16,11.16,0,0,1-9.84,4.92,11.58,11.58,0,0,1-8-2.88q-3.24-2.88-3.24-8.52v-21h6.12v19.14q0,4.38,1.74,6.24a7.79,7.79,0,0,0,9.12.72,8,8,0,0,0,2.88-3.36,11.57,11.57,0,0,0,1.14-5.34v-17.4h6.12v31.68h-5.82v-4.2Z"/><path class="cls-2" d="M207.22,213.72a6.6,6.6,0,0,0-2.7-4.08,8,8,0,0,0-4.74-1.44,7.59,7.59,0,0,0-4.5,1.2,4,4,0,0,0-1.68,3.42,2.86,2.86,0,0,0,1.5,2.7,16.08,16.08,0,0,0,4.68,1.38l3.12.48a19.19,19.19,0,0,1,7.8,2.88q2.82,1.92,2.82,6.48a8.34,8.34,0,0,1-3.78,7.32,16.6,16.6,0,0,1-9.66,2.58,16,16,0,0,1-9.6-2.7,11.32,11.32,0,0,1-4.56-7.2l5.58-1.2a7.89,7.89,0,0,0,2.94,4.92A10,10,0,0,0,200.2,232a8.85,8.85,0,0,0,5.1-1.32,4.41,4.41,0,0,0,1.92-3.78,3.16,3.16,0,0,0-1.68-2.94,14.64,14.64,0,0,0-4.92-1.5l-3.24-.54a18.07,18.07,0,0,1-7.32-2.7q-2.7-1.92-2.7-6.36a7.84,7.84,0,0,1,1.56-4.8,10.58,10.58,0,0,1,4.44-3.36,16.7,16.7,0,0,1,6.48-1.2,15,15,0,0,1,6.18,1.26,11.79,11.79,0,0,1,4.56,3.3,9,9,0,0,1,2.22,4.44Z"/><path class="cls-2" d="M232.57,230.64v5.28q-1.32.12-4.5.12-4.44,0-6.36-1.44t-1.86-5.52V208.86h-5.22v-4.62h5.22V195.3H226v8.94h7v4.62h-7v18.6q0,2.1.78,2.7a4.83,4.83,0,0,0,2.82.6Z"/><path class="cls-2" d="M257.3,235.92a3.43,3.43,0,0,1-.72-1.56,12.87,12.87,0,0,1-.25-2.64,8.87,8.87,0,0,1-4.49,3.72,16.55,16.55,0,0,1-6.19,1.2,12,12,0,0,1-5.22-1.14,9.93,9.93,0,0,1-3.83-3.3,9.16,9.16,0,0,1-1.39-5c0-3.24,1.13-5.62,3.36-7.14s5.63-2.58,10.14-3.06a17.69,17.69,0,0,0,5.94-1.26,2.6,2.6,0,0,0,1.62-2.4q0-4.74-6.65-4.74a8.39,8.39,0,0,0-4.69,1.38,7,7,0,0,0-2.94,4l-5.58-1.32a10.66,10.66,0,0,1,4.69-6.6,15.32,15.32,0,0,1,8.75-2.46c4.33,0,7.48.9,9.48,2.7a8.71,8.71,0,0,1,3.06,7v15.9c0,2,0,3.48.13,4.44a7.27,7.27,0,0,0,.71,2.4Zm-1-16.32a5.58,5.58,0,0,1-2.81,1.2c-1.41.28-3.2.56-5.41.84a10.19,10.19,0,0,0-4.73,1.74,4.33,4.33,0,0,0-1.86,3.78,4.24,4.24,0,0,0,1.44,3.48,6.19,6.19,0,0,0,3.95,1.14,12.11,12.11,0,0,0,4.44-.84,8.33,8.33,0,0,0,3.55-2.76,7.73,7.73,0,0,0,1.43-4.74Z"/><path class="cls-2" d="M273.42,204.24v31.68H267.3V204.24Zm0-11.76v6.66H267.3v-6.66Z"/><path class="cls-2" d="M284.66,208.44a10.79,10.79,0,0,1,4.26-3.72,12.81,12.81,0,0,1,5.58-1.2,12.17,12.17,0,0,1,5.52,1.26,9.42,9.42,0,0,1,4.14,3.78,11.89,11.89,0,0,1,1.56,6.36v21H299.6V216.78q0-4.38-1.74-6.24a6.9,6.9,0,0,0-5.28-1.86,7.05,7.05,0,0,0-3.84,1.14,8.39,8.39,0,0,0-2.94,3.36,12.11,12.11,0,0,0-1.08,5.34v17.4H278.6V204.24h5.82v4.2Z"/><path class="cls-2" d="M331.42,235.92a3.54,3.54,0,0,1-.72-1.56,12.92,12.92,0,0,1-.24-2.64,8.94,8.94,0,0,1-4.5,3.72,16.5,16.5,0,0,1-6.18,1.2,12,12,0,0,1-5.22-1.14,10,10,0,0,1-3.84-3.3,9.16,9.16,0,0,1-1.38-5q0-4.86,3.36-7.14T322.84,217a17.75,17.75,0,0,0,5.94-1.26,2.61,2.61,0,0,0,1.62-2.4q0-4.74-6.66-4.74a8.34,8.34,0,0,0-4.68,1.38,7,7,0,0,0-2.94,4l-5.58-1.32a10.64,10.64,0,0,1,4.68-6.6,15.33,15.33,0,0,1,8.76-2.46q6.48,0,9.48,2.7a8.74,8.74,0,0,1,3.06,7v15.9q0,3,.12,4.44a7,7,0,0,0,.72,2.4Zm-1-16.32a5.67,5.67,0,0,1-2.82,1.2q-2.1.42-5.4.84a10.19,10.19,0,0,0-4.74,1.74,4.35,4.35,0,0,0-1.86,3.78,4.27,4.27,0,0,0,1.44,3.48,6.22,6.22,0,0,0,4,1.14,12.15,12.15,0,0,0,4.44-.84,8.3,8.3,0,0,0,3.54-2.76,7.68,7.68,0,0,0,1.44-4.74Z"/><path class="cls-2" d="M357.2,203.52a13.61,13.61,0,0,1,12.54,7.92,19.08,19.08,0,0,1,1.86,8.64,19.46,19.46,0,0,1-1.86,8.7,13.91,13.91,0,0,1-5.1,5.82,14.73,14.73,0,0,1-13.44.78,9,9,0,0,1-3.84-3.54h-.24v4.08H341.3V192.48h6.12V208h.24a9.15,9.15,0,0,1,3.78-3.24A13.24,13.24,0,0,1,357.2,203.52Zm-1.08,28.14a8.16,8.16,0,0,0,6.72-3.06q2.52-3.12,2.52-8.52t-2.52-8.46a8.73,8.73,0,0,0-13.38,0q-2.46,3.12-2.46,8.46t2.46,8.46A8.14,8.14,0,0,0,356.12,231.66Z"/><path class="cls-2" d="M381.93,192.48v43.44h-6.12V192.48Z"/><path class="cls-2" d="M415.68,226.68a15.17,15.17,0,0,1-4.8,7.08q-3.48,2.88-9.84,2.88a14.93,14.93,0,0,1-7.8-2,14.17,14.17,0,0,1-5.22-5.82,19.32,19.32,0,0,1-1.86-8.64,20,20,0,0,1,1.8-8.7,13.83,13.83,0,0,1,5.16-5.82,14.52,14.52,0,0,1,7.86-2.1,15,15,0,0,1,7.74,2,13,13,0,0,1,5.28,5.58,18,18,0,0,1,1.92,8.58q0,1.26-.06,1.92H392.34a11.5,11.5,0,0,0,2.46,7.26,7.81,7.81,0,0,0,6.24,2.82,8.48,8.48,0,0,0,5.64-1.68,9.85,9.85,0,0,0,2.82-4ZM401,208.5A7.61,7.61,0,0,0,395,211a10.48,10.48,0,0,0-2.58,5.94h17.22a10.34,10.34,0,0,0-2.64-6A7.85,7.85,0,0,0,401,208.5Z"/></svg>