<svg width="442" height="264" viewBox="0 0 442 264" fill="none" xmlns="http://www.w3.org/2000/svg">
<path fill-rule="evenodd" clip-rule="evenodd" d="M12.0317 264C5.40432 264 0.0317541 258.628 0.0317547 252L0.0317616 173L0.0319824 91.016C0.0319824 91.0071 0.0248229 91 0.0159912 91C0.0071595 91 -7.72161e-10 90.9928 0 90.984L6.905e-06 12C7.48439e-06 5.37258 5.37258 -5.79387e-07 12 0L335.032 2.82403e-05C341.659 2.88197e-05 347.032 5.37261 347.032 12V75.0003C347.032 81.6277 352.404 87.0003 359.032 87.0003H387.18C393.807 87.0003 399.18 92.3729 399.18 99.0003V161C399.18 167.628 404.553 173 411.18 173H429.489C436.116 173 441.489 178.373 441.489 185V252C441.489 258.628 436.116 264 429.489 264L12.0317 264Z" fill="url(#paint0_angular_344:25)"/>
<path d="M34.1705 60.6437V65.9237C33.2905 66.0037 31.7905 66.0437 29.6705 66.0437C26.7105 66.0437 24.5905 65.5637 23.3105 64.6037C22.0705 63.6437 21.4505 61.8037 21.4505 59.0837V38.8637H16.2305V34.2437H21.4505V25.3037H27.5705V34.2437H34.5305V38.8637H27.5705V57.4637C27.5705 58.8637 27.8305 59.7637 28.3505 60.1637C28.8705 60.5637 29.8105 60.7637 31.1705 60.7637L34.1705 60.6437Z" fill="#452E66"/>
<path d="M44.3766 38.4437C46.6566 35.1637 49.8966 33.5237 54.0966 33.5237C56.0566 33.5237 57.8766 33.9437 59.5566 34.7837C61.2366 35.5837 62.5766 36.8437 63.5766 38.5637C64.6166 40.2837 65.1366 42.4037 65.1366 44.9237V65.9237H59.0166V46.7837C59.0166 43.8637 58.4366 41.7837 57.2766 40.5437C56.1166 39.3037 54.3566 38.6837 51.9966 38.6837C50.6766 38.6837 49.4166 39.1037 48.2166 39.9437C47.0166 40.7837 46.0366 42.0037 45.2766 43.6037C44.5166 45.1637 44.1366 46.9837 44.1366 49.0637V65.9237H38.0166V22.4837H44.1366V38.4437H44.3766Z" fill="#452E66"/>
<path d="M98.5102 56.6837C97.6302 59.4437 96.0302 61.8037 93.7102 63.7637C91.3902 65.6837 88.1102 66.6437 83.8702 66.6437C80.9502 66.6437 78.3502 65.9637 76.0702 64.6037C73.8302 63.2037 72.0902 61.2637 70.8502 58.7837C69.6102 56.2637 68.9902 53.3837 68.9902 50.1437C68.9902 46.8637 69.5902 43.9637 70.7902 41.4437C72.0302 38.9237 73.7502 36.9837 75.9502 35.6237C78.1902 34.2237 80.8102 33.5237 83.8102 33.5237C86.7302 33.5237 89.3102 34.1837 91.5502 35.5037C93.8302 36.7837 95.5902 38.6437 96.8302 41.0837C98.1102 43.4837 98.7502 46.3437 98.7502 49.6637C98.7502 50.5037 98.7302 51.1437 98.6902 51.5837H75.1702C75.2502 54.5437 76.0702 56.9637 77.6302 58.8437C79.2302 60.7237 81.3102 61.6637 83.8702 61.6637C86.3102 61.6637 88.1902 61.1037 89.5102 59.9837C90.8302 58.8237 91.7702 57.4837 92.3302 55.9637L98.5102 56.6837ZM83.8102 38.5037C81.3302 38.5037 79.3502 39.3237 77.8702 40.9637C76.4302 42.5637 75.5702 44.5437 75.2902 46.9037H92.5102C92.2302 44.5037 91.3502 42.5037 89.8702 40.9037C88.3902 39.3037 86.3702 38.5037 83.8102 38.5037Z" fill="#452E66"/>
<path d="M127.207 26.9237C126.087 26.9237 125.187 27.1637 124.507 27.6437C123.867 28.1237 123.547 29.0837 123.547 30.5237V34.2437H130.507V38.8637H123.547V65.9237H117.427V38.8637H112.207V34.2437H117.427V29.9237C117.427 24.4837 120.387 21.7637 126.307 21.7637C128.107 21.7637 129.747 21.9037 131.227 22.1837V27.1637C129.947 27.0037 128.607 26.9237 127.207 26.9237Z" fill="#452E66"/>
<path d="M155.288 61.7237C153.048 65.0037 149.768 66.6437 145.448 66.6437C142.288 66.6437 139.627 65.6837 137.467 63.7637C135.307 61.8437 134.227 59.0037 134.227 55.2437V34.2437H140.347V53.3837C140.347 56.3037 140.927 58.3837 142.087 59.6237C143.247 60.8637 145.008 61.4837 147.368 61.4837C148.768 61.4837 150.048 61.1037 151.208 60.3437C152.408 59.5837 153.368 58.4637 154.088 56.9837C154.848 55.5037 155.228 53.7237 155.228 51.6437V34.2437H161.348V65.9237H155.528V61.7237H155.288Z" fill="#452E66"/>
<path d="M182.061 60.6437V65.9237C181.181 66.0037 179.681 66.0437 177.561 66.0437C174.601 66.0437 172.481 65.5637 171.201 64.6037C169.961 63.6437 169.341 61.8037 169.341 59.0837V38.8637H164.121V34.2437H169.341V25.3037H175.461V34.2437H182.421V38.8637H175.461V57.4637C175.461 58.8637 175.721 59.7637 176.241 60.1637C176.761 60.5637 177.701 60.7637 179.061 60.7637L182.061 60.6437Z" fill="#452E66"/>
<path d="M206.967 61.7237C204.727 65.0037 201.447 66.6437 197.127 66.6437C193.967 66.6437 191.307 65.6837 189.147 63.7637C186.987 61.8437 185.907 59.0037 185.907 55.2437V34.2437H192.027V53.3837C192.027 56.3037 192.607 58.3837 193.767 59.6237C194.927 60.8637 196.687 61.4837 199.047 61.4837C200.447 61.4837 201.727 61.1037 202.887 60.3437C204.087 59.5837 205.047 58.4637 205.767 56.9837C206.527 55.5037 206.907 53.7237 206.907 51.6437V34.2437H213.027V65.9237H207.207V61.7237H206.967Z" fill="#452E66"/>
<path d="M223.661 39.0437H223.901C224.741 37.4437 225.981 36.1237 227.621 35.0837C229.261 34.0437 231.161 33.5237 233.321 33.5237C234.321 33.5237 235.261 33.6237 236.141 33.8237V39.7037C235.021 39.5437 233.981 39.4637 233.021 39.4637C230.261 39.4637 228.061 40.2437 226.421 41.8037C224.781 43.3237 223.961 45.7637 223.961 49.1237V65.9237H217.841V34.2437H223.661V39.0437Z" fill="#452E66"/>
<path d="M267.67 56.6837C266.79 59.4437 265.19 61.8037 262.87 63.7637C260.55 65.6837 257.27 66.6437 253.03 66.6437C250.11 66.6437 247.51 65.9637 245.23 64.6037C242.99 63.2037 241.25 61.2637 240.01 58.7837C238.77 56.2637 238.15 53.3837 238.15 50.1437C238.15 46.8637 238.75 43.9637 239.95 41.4437C241.19 38.9237 242.91 36.9837 245.11 35.6237C247.35 34.2237 249.97 33.5237 252.97 33.5237C255.89 33.5237 258.47 34.1837 260.71 35.5037C262.99 36.7837 264.75 38.6437 265.99 41.0837C267.27 43.4837 267.91 46.3437 267.91 49.6637C267.91 50.5037 267.89 51.1437 267.85 51.5837H244.33C244.41 54.5437 245.23 56.9637 246.79 58.8437C248.39 60.7237 250.47 61.6637 253.03 61.6637C255.47 61.6637 257.35 61.1037 258.67 59.9837C259.99 58.8237 260.93 57.4837 261.49 55.9637L267.67 56.6837ZM252.97 38.5037C250.49 38.5037 248.51 39.3237 247.03 40.9637C245.59 42.5637 244.73 44.5437 244.45 46.9037H261.67C261.39 44.5037 260.51 42.5037 259.03 40.9037C257.55 39.3037 255.53 38.5037 252.97 38.5037Z" fill="#452E66"/>
<path d="M289.647 34.2437V65.9237H283.527V34.2437H289.647ZM289.647 22.4837V29.1437H283.527V22.4837H289.647Z" fill="#452E66"/>
<path d="M314.093 43.7237C313.653 41.9237 312.753 40.5637 311.393 39.6437C310.033 38.6837 308.453 38.2037 306.653 38.2037C304.773 38.2037 303.273 38.6037 302.153 39.4037C301.033 40.2037 300.473 41.3437 300.473 42.8237C300.473 44.0637 300.973 44.9637 301.973 45.5237C303.013 46.0837 304.573 46.5437 306.653 46.9037L309.773 47.3837C313.133 47.9837 315.733 48.9437 317.573 50.2637C319.453 51.5437 320.393 53.7037 320.393 56.7437C320.393 59.9037 319.133 62.3437 316.613 64.0637C314.133 65.7837 310.913 66.6437 306.953 66.6437C303.033 66.6437 299.833 65.7437 297.353 63.9437C294.873 62.1037 293.353 59.7037 292.793 56.7437L298.373 55.5437C298.853 57.7437 299.833 59.3837 301.313 60.4637C302.833 61.5037 304.753 62.0237 307.073 62.0237C309.193 62.0237 310.893 61.5837 312.173 60.7037C313.453 59.7837 314.093 58.5237 314.093 56.9237C314.093 55.6037 313.533 54.6237 312.413 53.9837C311.333 53.3437 309.693 52.8437 307.493 52.4837L304.253 51.9437C301.213 51.4237 298.773 50.5237 296.933 49.2437C295.133 47.9637 294.233 45.8437 294.233 42.8837C294.233 41.0837 294.753 39.4837 295.793 38.0837C296.873 36.6437 298.353 35.5237 300.233 34.7237C302.153 33.9237 304.313 33.5237 306.713 33.5237C308.953 33.5237 311.013 33.9437 312.893 34.7837C314.773 35.5837 316.293 36.6837 317.453 38.0837C318.653 39.4437 319.393 40.9237 319.673 42.5237L314.093 43.7237Z" fill="#452E66"/>
<path d="M31.7105 118.524C33.8705 118.524 35.7705 118.924 37.4105 119.724C39.0905 120.524 40.3705 121.604 41.2505 122.964H41.4905V107.484H47.6105V150.924H41.7905V146.844H41.5505C40.7105 148.324 39.4105 149.504 37.6505 150.384C35.9305 151.224 33.9505 151.644 31.7105 151.644C28.9105 151.644 26.4105 150.964 24.2105 149.604C22.0505 148.204 20.3505 146.264 19.1105 143.784C17.9105 141.264 17.3105 138.364 17.3105 135.084C17.3105 131.804 17.9105 128.924 19.1105 126.444C20.3505 123.924 22.0505 121.984 24.2105 120.624C26.4105 119.224 28.9105 118.524 31.7105 118.524ZM32.7305 146.664C35.5305 146.664 37.7505 145.644 39.3905 143.604C41.0305 141.524 41.8505 138.684 41.8505 135.084C41.8505 131.484 41.0305 128.664 39.3905 126.624C37.7505 124.544 35.5305 123.504 32.7305 123.504C29.9305 123.504 27.6905 124.544 26.0105 126.624C24.3705 128.664 23.5505 131.484 23.5505 135.084C23.5505 138.684 24.3705 141.524 26.0105 143.604C27.6905 145.644 29.9305 146.664 32.7305 146.664Z" fill="#452E66"/>
<path d="M80.9906 141.684C80.1106 144.444 78.5106 146.804 76.1906 148.764C73.8706 150.684 70.5906 151.644 66.3506 151.644C63.4306 151.644 60.8306 150.964 58.5506 149.604C56.3106 148.204 54.5706 146.264 53.3306 143.784C52.0906 141.264 51.4706 138.384 51.4706 135.144C51.4706 131.864 52.0706 128.964 53.2706 126.444C54.5106 123.924 56.2306 121.984 58.4306 120.624C60.6706 119.224 63.2906 118.524 66.2906 118.524C69.2106 118.524 71.7906 119.184 74.0306 120.504C76.3106 121.784 78.0706 123.644 79.3106 126.084C80.5906 128.484 81.2306 131.344 81.2306 134.664C81.2306 135.504 81.2106 136.144 81.1706 136.584H57.6506C57.7306 139.544 58.5506 141.964 60.1106 143.844C61.7106 145.724 63.7906 146.664 66.3506 146.664C68.7906 146.664 70.6706 146.104 71.9906 144.984C73.3106 143.824 74.2506 142.484 74.8106 140.964L80.9906 141.684ZM66.2906 123.504C63.8106 123.504 61.8306 124.324 60.3506 125.964C58.9106 127.564 58.0506 129.544 57.7706 131.904H74.9906C74.7106 129.504 73.8306 127.504 72.3506 125.904C70.8706 124.304 68.8506 123.504 66.2906 123.504Z" fill="#452E66"/>
<path d="M99.2817 146.664C103.522 146.664 106.282 144.404 107.562 139.884L113.742 140.784C112.982 143.624 111.422 146.144 109.062 148.344C106.742 150.544 103.482 151.644 99.2817 151.644C96.3217 151.644 93.7017 150.964 91.4217 149.604C89.1817 148.204 87.4417 146.264 86.2017 143.784C84.9617 141.264 84.3417 138.364 84.3417 135.084C84.3417 131.804 84.9617 128.924 86.2017 126.444C87.4417 123.924 89.1817 121.984 91.4217 120.624C93.7017 119.224 96.3417 118.524 99.3417 118.524C103.342 118.524 106.422 119.504 108.582 121.464C110.782 123.384 112.282 125.424 113.082 127.584L107.322 129.444C106.802 127.924 105.922 126.564 104.682 125.364C103.482 124.124 101.702 123.504 99.3417 123.504C96.6617 123.504 94.5217 124.544 92.9217 126.624C91.3617 128.664 90.5817 131.484 90.5817 135.084C90.5817 138.644 91.3617 141.464 92.9217 143.544C94.5217 145.624 96.6417 146.664 99.2817 146.664Z" fill="#452E66"/>
<path d="M145.678 141.684C144.798 144.444 143.198 146.804 140.878 148.764C138.558 150.684 135.278 151.644 131.038 151.644C128.118 151.644 125.518 150.964 123.238 149.604C120.998 148.204 119.258 146.264 118.018 143.784C116.778 141.264 116.158 138.384 116.158 135.144C116.158 131.864 116.758 128.964 117.958 126.444C119.198 123.924 120.918 121.984 123.118 120.624C125.358 119.224 127.978 118.524 130.978 118.524C133.898 118.524 136.478 119.184 138.718 120.504C140.998 121.784 142.758 123.644 143.998 126.084C145.278 128.484 145.918 131.344 145.918 134.664C145.918 135.504 145.898 136.144 145.858 136.584H122.338C122.418 139.544 123.238 141.964 124.798 143.844C126.398 145.724 128.478 146.664 131.038 146.664C133.478 146.664 135.358 146.104 136.678 144.984C137.998 143.824 138.938 142.484 139.498 140.964L145.678 141.684ZM130.978 123.504C128.498 123.504 126.518 124.324 125.038 125.964C123.598 127.564 122.738 129.544 122.458 131.904H139.678C139.398 129.504 138.518 127.504 137.038 125.904C135.558 124.304 133.538 123.504 130.978 123.504Z" fill="#452E66"/>
<path d="M156.049 123.444C157.209 121.764 158.629 120.524 160.309 119.724C161.989 118.924 163.849 118.524 165.889 118.524C167.889 118.524 169.729 118.944 171.409 119.784C173.129 120.584 174.509 121.844 175.549 123.564C176.589 125.244 177.109 127.364 177.109 129.924V150.924H170.989V131.784C170.989 128.864 170.409 126.784 169.249 125.544C168.089 124.304 166.329 123.684 163.969 123.684C162.609 123.684 161.329 124.064 160.129 124.824C158.929 125.584 157.949 126.704 157.189 128.184C156.469 129.664 156.109 131.444 156.109 133.524V150.924H149.989V119.244H155.809V123.444H156.049Z" fill="#452E66"/>
<path d="M197.588 145.644V150.924C196.708 151.004 195.208 151.044 193.088 151.044C190.128 151.044 188.008 150.564 186.728 149.604C185.488 148.644 184.868 146.804 184.868 144.084V123.864H179.648V119.244H184.868V110.304H190.988V119.244H197.948V123.864H190.988V142.464C190.988 143.864 191.248 144.764 191.768 145.164C192.288 145.564 193.228 145.764 194.588 145.764L197.588 145.644Z" fill="#452E66"/>
<path d="M207.255 124.044H207.495C208.335 122.444 209.575 121.124 211.215 120.084C212.855 119.044 214.755 118.524 216.915 118.524C217.915 118.524 218.855 118.624 219.735 118.824V124.704C218.615 124.544 217.575 124.464 216.615 124.464C213.855 124.464 211.655 125.244 210.015 126.804C208.375 128.324 207.555 130.764 207.555 134.124V150.924H201.435V119.244H207.255V124.044Z" fill="#452E66"/>
<path d="M242.998 150.924C242.718 150.644 242.478 150.124 242.278 149.364C242.118 148.604 242.038 147.724 242.038 146.724C241.078 148.364 239.578 149.604 237.538 150.444C235.538 151.244 233.478 151.644 231.358 151.644C229.478 151.644 227.738 151.264 226.138 150.504C224.538 149.704 223.258 148.604 222.298 147.204C221.378 145.764 220.918 144.084 220.918 142.164C220.918 138.924 222.038 136.544 224.278 135.024C226.518 133.464 229.898 132.444 234.418 131.964C237.338 131.684 239.318 131.264 240.358 130.704C241.438 130.144 241.978 129.344 241.978 128.304C241.978 125.144 239.758 123.564 235.318 123.564C233.598 123.564 232.038 124.024 230.638 124.944C229.238 125.824 228.258 127.144 227.698 128.904L222.118 127.584C222.798 124.784 224.358 122.584 226.798 120.984C229.238 119.344 232.158 118.524 235.558 118.524C239.878 118.524 243.038 119.424 245.038 121.224C247.078 122.984 248.098 125.304 248.098 128.184V144.084C248.098 146.084 248.138 147.564 248.218 148.524C248.338 149.444 248.578 150.244 248.938 150.924H242.998ZM241.978 134.604C241.538 135.084 240.598 135.484 239.158 135.804C237.758 136.084 235.958 136.364 233.758 136.644C231.878 136.884 230.298 137.464 229.018 138.384C227.778 139.264 227.158 140.524 227.158 142.164C227.158 143.684 227.638 144.844 228.598 145.644C229.558 146.404 230.878 146.784 232.558 146.784C234.078 146.784 235.558 146.504 236.998 145.944C238.438 145.344 239.618 144.424 240.538 143.184C241.498 141.904 241.978 140.324 241.978 138.444V134.604Z" fill="#452E66"/>
<path d="M259.12 107.484V150.924H253V107.484H259.12Z" fill="#452E66"/>
<path d="M270.546 119.244V150.924H264.426V119.244H270.546ZM270.546 107.484V114.144H264.426V107.484H270.546Z" fill="#452E66"/>
<path d="M274.291 145.344L291.931 124.644H275.191V119.244H299.431V124.884L281.791 145.644H299.431V150.924H274.291V145.344Z" fill="#452E66"/>
<path d="M331.01 141.684C330.13 144.444 328.53 146.804 326.21 148.764C323.89 150.684 320.61 151.644 316.37 151.644C313.45 151.644 310.85 150.964 308.57 149.604C306.33 148.204 304.59 146.264 303.35 143.784C302.11 141.264 301.49 138.384 301.49 135.144C301.49 131.864 302.09 128.964 303.29 126.444C304.53 123.924 306.25 121.984 308.45 120.624C310.69 119.224 313.31 118.524 316.31 118.524C319.23 118.524 321.81 119.184 324.05 120.504C326.33 121.784 328.09 123.644 329.33 126.084C330.61 128.484 331.25 131.344 331.25 134.664C331.25 135.504 331.23 136.144 331.19 136.584H307.67C307.75 139.544 308.57 141.964 310.13 143.844C311.73 145.724 313.81 146.664 316.37 146.664C318.81 146.664 320.69 146.104 322.01 144.984C323.33 143.824 324.27 142.484 324.83 140.964L331.01 141.684ZM316.31 123.504C313.83 123.504 311.85 124.324 310.37 125.964C308.93 127.564 308.07 129.544 307.79 131.904H325.01C324.73 129.504 323.85 127.504 322.37 125.904C320.89 124.304 318.87 123.504 316.31 123.504Z" fill="#452E66"/>
<path d="M348.761 118.524C350.921 118.524 352.821 118.924 354.461 119.724C356.141 120.524 357.421 121.604 358.301 122.964H358.541V107.484H364.661V150.924H358.841V146.844H358.601C357.761 148.324 356.461 149.504 354.701 150.384C352.981 151.224 351.001 151.644 348.761 151.644C345.961 151.644 343.461 150.964 341.261 149.604C339.101 148.204 337.401 146.264 336.161 143.784C334.961 141.264 334.361 138.364 334.361 135.084C334.361 131.804 334.961 128.924 336.161 126.444C337.401 123.924 339.101 121.984 341.261 120.624C343.461 119.224 345.961 118.524 348.761 118.524ZM349.781 146.664C352.581 146.664 354.801 145.644 356.441 143.604C358.081 141.524 358.901 138.684 358.901 135.084C358.901 131.484 358.081 128.664 356.441 126.624C354.801 124.544 352.581 123.504 349.781 123.504C346.981 123.504 344.741 124.544 343.061 126.624C341.421 128.664 340.601 131.484 340.601 135.084C340.601 138.684 341.421 141.524 343.061 143.604C344.741 145.644 346.981 146.664 349.781 146.664Z" fill="#452E66"/>
<path d="M39.1505 235.924C38.8705 235.644 38.6305 235.124 38.4305 234.364C38.2705 233.604 38.1905 232.724 38.1905 231.724C37.2305 233.364 35.7305 234.604 33.6905 235.444C31.6905 236.244 29.6305 236.644 27.5105 236.644C25.6305 236.644 23.8905 236.264 22.2905 235.504C20.6905 234.704 19.4105 233.604 18.4505 232.204C17.5305 230.764 17.0705 229.084 17.0705 227.164C17.0705 223.924 18.1905 221.544 20.4305 220.024C22.6705 218.464 26.0505 217.444 30.5705 216.964C33.4905 216.684 35.4705 216.264 36.5105 215.704C37.5905 215.144 38.1305 214.344 38.1305 213.304C38.1305 210.144 35.9105 208.564 31.4705 208.564C29.7505 208.564 28.1905 209.024 26.7905 209.944C25.3905 210.824 24.4105 212.144 23.8505 213.904L18.2705 212.584C18.9505 209.784 20.5105 207.584 22.9505 205.984C25.3905 204.344 28.3105 203.524 31.7105 203.524C36.0305 203.524 39.1905 204.424 41.1905 206.224C43.2305 207.984 44.2505 210.304 44.2505 213.184V229.084C44.2505 231.084 44.2905 232.564 44.3705 233.524C44.4905 234.444 44.7305 235.244 45.0905 235.924H39.1505ZM38.1305 219.604C37.6905 220.084 36.7505 220.484 35.3105 220.804C33.9105 221.084 32.1105 221.364 29.9105 221.644C28.0305 221.884 26.4505 222.464 25.1705 223.384C23.9305 224.264 23.3105 225.524 23.3105 227.164C23.3105 228.684 23.7905 229.844 24.7505 230.644C25.7105 231.404 27.0305 231.784 28.7105 231.784C30.2305 231.784 31.7105 231.504 33.1505 230.944C34.5905 230.344 35.7705 229.424 36.6905 228.184C37.6505 226.904 38.1305 225.324 38.1305 223.444V219.604Z" fill="#452E66"/>
<path d="M55.0922 208.444C56.2522 206.764 57.6722 205.524 59.3522 204.724C61.0322 203.924 62.8922 203.524 64.9322 203.524C66.9322 203.524 68.7722 203.944 70.4522 204.784C72.1722 205.584 73.5522 206.844 74.5922 208.564C75.6322 210.244 76.1522 212.364 76.1522 214.924V235.924H70.0322V216.784C70.0322 213.864 69.4522 211.784 68.2922 210.544C67.1322 209.304 65.3722 208.684 63.0122 208.684C61.6522 208.684 60.3722 209.064 59.1722 209.824C57.9722 210.584 56.9922 211.704 56.2322 213.184C55.5122 214.664 55.1522 216.444 55.1522 218.524V235.924H49.0322V204.244H54.8522V208.444H55.0922Z" fill="#452E66"/>
<path d="M94.4058 203.524C96.5658 203.524 98.4658 203.924 100.106 204.724C101.786 205.524 103.066 206.604 103.946 207.964H104.186V192.484H110.306V235.924H104.486V231.844H104.246C103.406 233.324 102.106 234.504 100.346 235.384C98.6258 236.224 96.6458 236.644 94.4058 236.644C91.6058 236.644 89.1058 235.964 86.9058 234.604C84.7458 233.204 83.0458 231.264 81.8058 228.784C80.6058 226.264 80.0058 223.364 80.0058 220.084C80.0058 216.804 80.6058 213.924 81.8058 211.444C83.0458 208.924 84.7458 206.984 86.9058 205.624C89.1058 204.224 91.6058 203.524 94.4058 203.524ZM95.4258 231.664C98.2258 231.664 100.446 230.644 102.086 228.604C103.726 226.524 104.546 223.684 104.546 220.084C104.546 216.484 103.726 213.664 102.086 211.624C100.446 209.544 98.2258 208.504 95.4258 208.504C92.6258 208.504 90.3858 209.544 88.7058 211.624C87.0658 213.664 86.2458 216.484 86.2458 220.084C86.2458 223.684 87.0658 226.524 88.7058 228.604C90.3858 230.644 92.6258 231.664 95.4258 231.664Z" fill="#452E66"/>
<path d="M145.812 213.724C145.372 211.924 144.472 210.564 143.112 209.644C141.752 208.684 140.172 208.204 138.372 208.204C136.492 208.204 134.992 208.604 133.872 209.404C132.752 210.204 132.192 211.344 132.192 212.824C132.192 214.064 132.692 214.964 133.692 215.524C134.732 216.084 136.292 216.544 138.372 216.904L141.492 217.384C144.852 217.984 147.452 218.944 149.292 220.264C151.172 221.544 152.112 223.704 152.112 226.744C152.112 229.904 150.852 232.344 148.332 234.064C145.852 235.784 142.632 236.644 138.672 236.644C134.752 236.644 131.552 235.744 129.072 233.944C126.592 232.104 125.072 229.704 124.512 226.744L130.092 225.544C130.572 227.744 131.552 229.384 133.032 230.464C134.552 231.504 136.472 232.024 138.792 232.024C140.912 232.024 142.612 231.584 143.892 230.704C145.172 229.784 145.812 228.524 145.812 226.924C145.812 225.604 145.252 224.624 144.132 223.984C143.052 223.344 141.412 222.844 139.212 222.484L135.972 221.944C132.932 221.424 130.492 220.524 128.652 219.244C126.852 217.964 125.952 215.844 125.952 212.884C125.952 211.084 126.472 209.484 127.512 208.084C128.592 206.644 130.072 205.524 131.952 204.724C133.872 203.924 136.032 203.524 138.432 203.524C140.672 203.524 142.732 203.944 144.612 204.784C146.492 205.584 148.012 206.684 149.172 208.084C150.372 209.444 151.112 210.924 151.392 212.524L145.812 213.724Z" fill="#452E66"/>
<path d="M177.084 231.724C174.844 235.004 171.564 236.644 167.244 236.644C164.084 236.644 161.424 235.684 159.264 233.764C157.104 231.844 156.024 229.004 156.024 225.244V204.244H162.144V223.384C162.144 226.304 162.724 228.384 163.884 229.624C165.044 230.864 166.804 231.484 169.164 231.484C170.564 231.484 171.844 231.104 173.004 230.344C174.204 229.584 175.164 228.464 175.884 226.984C176.644 225.504 177.024 223.724 177.024 221.644V204.244H183.144V235.924H177.324V231.724H177.084Z" fill="#452E66"/>
<path d="M207.218 213.724C206.778 211.924 205.878 210.564 204.518 209.644C203.158 208.684 201.578 208.204 199.778 208.204C197.898 208.204 196.398 208.604 195.278 209.404C194.158 210.204 193.598 211.344 193.598 212.824C193.598 214.064 194.098 214.964 195.098 215.524C196.138 216.084 197.698 216.544 199.778 216.904L202.898 217.384C206.258 217.984 208.858 218.944 210.698 220.264C212.578 221.544 213.518 223.704 213.518 226.744C213.518 229.904 212.258 232.344 209.738 234.064C207.258 235.784 204.038 236.644 200.078 236.644C196.158 236.644 192.958 235.744 190.478 233.944C187.998 232.104 186.478 229.704 185.918 226.744L191.498 225.544C191.978 227.744 192.958 229.384 194.438 230.464C195.958 231.504 197.878 232.024 200.198 232.024C202.318 232.024 204.018 231.584 205.298 230.704C206.578 229.784 207.218 228.524 207.218 226.924C207.218 225.604 206.658 224.624 205.538 223.984C204.458 223.344 202.818 222.844 200.618 222.484L197.378 221.944C194.338 221.424 191.898 220.524 190.058 219.244C188.258 217.964 187.358 215.844 187.358 212.884C187.358 211.084 187.878 209.484 188.918 208.084C189.998 206.644 191.478 205.524 193.358 204.724C195.278 203.924 197.438 203.524 199.838 203.524C202.078 203.524 204.138 203.944 206.018 204.784C207.898 205.584 209.418 206.684 210.578 208.084C211.778 209.444 212.518 210.924 212.798 212.524L207.218 213.724Z" fill="#452E66"/>
<path d="M232.569 230.644V235.924C231.689 236.004 230.189 236.044 228.069 236.044C225.109 236.044 222.989 235.564 221.709 234.604C220.469 233.644 219.849 231.804 219.849 229.084V208.864H214.629V204.244H219.849V195.304H225.969V204.244H232.929V208.864H225.969V227.464C225.969 228.864 226.229 229.764 226.749 230.164C227.269 230.564 228.209 230.764 229.569 230.764L232.569 230.644Z" fill="#452E66"/>
<path d="M257.295 235.924C257.015 235.644 256.775 235.124 256.575 234.364C256.415 233.604 256.335 232.724 256.335 231.724C255.375 233.364 253.875 234.604 251.835 235.444C249.835 236.244 247.775 236.644 245.655 236.644C243.775 236.644 242.035 236.264 240.435 235.504C238.835 234.704 237.555 233.604 236.595 232.204C235.675 230.764 235.215 229.084 235.215 227.164C235.215 223.924 236.335 221.544 238.575 220.024C240.815 218.464 244.195 217.444 248.715 216.964C251.635 216.684 253.615 216.264 254.655 215.704C255.735 215.144 256.275 214.344 256.275 213.304C256.275 210.144 254.055 208.564 249.615 208.564C247.895 208.564 246.335 209.024 244.935 209.944C243.535 210.824 242.555 212.144 241.995 213.904L236.415 212.584C237.095 209.784 238.655 207.584 241.095 205.984C243.535 204.344 246.455 203.524 249.855 203.524C254.175 203.524 257.335 204.424 259.335 206.224C261.375 207.984 262.395 210.304 262.395 213.184V229.084C262.395 231.084 262.435 232.564 262.515 233.524C262.635 234.444 262.875 235.244 263.235 235.924H257.295ZM256.275 219.604C255.835 220.084 254.895 220.484 253.455 220.804C252.055 221.084 250.255 221.364 248.055 221.644C246.175 221.884 244.595 222.464 243.315 223.384C242.075 224.264 241.455 225.524 241.455 227.164C241.455 228.684 241.935 229.844 242.895 230.644C243.855 231.404 245.175 231.784 246.855 231.784C248.375 231.784 249.855 231.504 251.295 230.944C252.735 230.344 253.915 229.424 254.835 228.184C255.795 226.904 256.275 225.324 256.275 223.444V219.604Z" fill="#452E66"/>
<path d="M273.417 204.244V235.924H267.297V204.244H273.417ZM273.417 192.484V199.144H267.297V192.484H273.417Z" fill="#452E66"/>
<path d="M284.662 208.444C285.822 206.764 287.242 205.524 288.922 204.724C290.602 203.924 292.463 203.524 294.503 203.524C296.503 203.524 298.342 203.944 300.022 204.784C301.742 205.584 303.122 206.844 304.162 208.564C305.202 210.244 305.723 212.364 305.723 214.924V235.924H299.602V216.784C299.602 213.864 299.022 211.784 297.862 210.544C296.702 209.304 294.942 208.684 292.582 208.684C291.222 208.684 289.942 209.064 288.742 209.824C287.542 210.584 286.562 211.704 285.802 213.184C285.082 214.664 284.723 216.444 284.723 218.524V235.924H278.602V204.244H284.422V208.444H284.662Z" fill="#452E66"/>
<path d="M331.416 235.924C331.136 235.644 330.896 235.124 330.696 234.364C330.536 233.604 330.456 232.724 330.456 231.724C329.496 233.364 327.996 234.604 325.956 235.444C323.956 236.244 321.896 236.644 319.776 236.644C317.896 236.644 316.156 236.264 314.556 235.504C312.956 234.704 311.676 233.604 310.716 232.204C309.796 230.764 309.336 229.084 309.336 227.164C309.336 223.924 310.456 221.544 312.696 220.024C314.936 218.464 318.316 217.444 322.836 216.964C325.756 216.684 327.736 216.264 328.776 215.704C329.856 215.144 330.396 214.344 330.396 213.304C330.396 210.144 328.176 208.564 323.736 208.564C322.016 208.564 320.456 209.024 319.056 209.944C317.656 210.824 316.676 212.144 316.116 213.904L310.536 212.584C311.216 209.784 312.776 207.584 315.216 205.984C317.656 204.344 320.576 203.524 323.976 203.524C328.296 203.524 331.456 204.424 333.456 206.224C335.496 207.984 336.516 210.304 336.516 213.184V229.084C336.516 231.084 336.556 232.564 336.636 233.524C336.756 234.444 336.996 235.244 337.356 235.924H331.416ZM330.396 219.604C329.956 220.084 329.016 220.484 327.576 220.804C326.176 221.084 324.376 221.364 322.176 221.644C320.296 221.884 318.716 222.464 317.436 223.384C316.196 224.264 315.576 225.524 315.576 227.164C315.576 228.684 316.056 229.844 317.016 230.644C317.976 231.404 319.296 231.784 320.976 231.784C322.496 231.784 323.976 231.504 325.416 230.944C326.856 230.344 328.036 229.424 328.956 228.184C329.916 226.904 330.396 225.324 330.396 223.444V219.604Z" fill="#452E66"/>
<path d="M357.198 203.524C359.998 203.524 362.478 204.224 364.638 205.624C366.838 206.984 368.538 208.924 369.738 211.444C370.978 213.924 371.598 216.804 371.598 220.084C371.598 223.364 370.978 226.264 369.738 228.784C368.538 231.264 366.838 233.204 364.638 234.604C362.478 235.964 359.998 236.644 357.198 236.644C354.958 236.644 352.958 236.224 351.198 235.384C349.478 234.504 348.198 233.324 347.358 231.844H347.118V235.924H341.298V192.484H347.418V207.964H347.658C348.538 206.604 349.798 205.524 351.438 204.724C353.118 203.924 355.038 203.524 357.198 203.524ZM356.118 231.664C358.958 231.664 361.198 230.644 362.838 228.604C364.518 226.524 365.358 223.684 365.358 220.084C365.358 216.484 364.518 213.664 362.838 211.624C361.198 209.544 358.958 208.504 356.118 208.504C353.358 208.504 351.138 209.544 349.458 211.624C347.818 213.704 346.998 216.524 346.998 220.084C346.998 223.644 347.818 226.464 349.458 228.544C351.138 230.624 353.358 231.664 356.118 231.664Z" fill="#452E66"/>
<path d="M381.932 192.484V235.924H375.812V192.484H381.932Z" fill="#452E66"/>
<path d="M415.678 226.684C414.798 229.444 413.198 231.804 410.878 233.764C408.558 235.684 405.278 236.644 401.038 236.644C398.118 236.644 395.518 235.964 393.238 234.604C390.998 233.204 389.258 231.264 388.018 228.784C386.778 226.264 386.158 223.384 386.158 220.144C386.158 216.864 386.758 213.964 387.958 211.444C389.198 208.924 390.918 206.984 393.118 205.624C395.358 204.224 397.978 203.524 400.978 203.524C403.898 203.524 406.478 204.184 408.718 205.504C410.998 206.784 412.758 208.644 413.998 211.084C415.278 213.484 415.918 216.344 415.918 219.664C415.918 220.504 415.898 221.144 415.858 221.584H392.338C392.418 224.544 393.238 226.964 394.798 228.844C396.398 230.724 398.478 231.664 401.038 231.664C403.478 231.664 405.358 231.104 406.678 229.984C407.998 228.824 408.938 227.484 409.498 225.964L415.678 226.684ZM400.978 208.504C398.498 208.504 396.518 209.324 395.038 210.964C393.598 212.564 392.738 214.544 392.458 216.904H409.678C409.398 214.504 408.518 212.504 407.038 210.904C405.558 209.304 403.538 208.504 400.978 208.504Z" fill="#452E66"/>
<defs>
<radialGradient id="paint0_angular_344:25" cx="0" cy="0" r="1" gradientUnits="userSpaceOnUse" gradientTransform="translate(377.673 -60.2435) rotate(-180) scale(677.625 1563.71)">
<stop stop-color="#EBB9F2"/>
<stop offset="0.541667" stop-color="#F6AAAA"/>
<stop offset="1" stop-color="#A566FF"/>
</radialGradient>
</defs>
</svg>
