<svg width="209" height="26" viewBox="0 0 209 26" fill="none" xmlns="http://www.w3.org/2000/svg">
<path d="M44.798 15.15H43.398C43.076 16.9 42.026 17.936 40.514 17.936C38.596 17.936 37.448 16.41 37.448 13.82C37.448 11.23 38.596 9.704 40.514 9.704C42.012 9.704 43.076 10.712 43.398 12.42H44.798C44.448 9.97 42.866 8.5 40.514 8.5C37.644 8.5 35.95 10.474 35.95 13.82C35.95 17.166 37.644 19.14 40.514 19.14C42.852 19.14 44.448 17.642 44.798 15.15ZM52.6758 16.032C52.1718 15.15 51.3318 14.66 50.4778 14.66V14.632C52.7458 14.632 54.0898 13.484 54.0898 11.524C54.0898 9.718 52.7178 8.64 50.4078 8.64H46.5998V19H48.0698V14.66H50.3098L52.7738 19H54.4258L52.6758 16.032ZM48.0698 13.54V9.802H50.5058C51.8078 9.802 52.5778 10.488 52.5778 11.636C52.5778 12.84 51.8218 13.54 50.5058 13.54H48.0698ZM62.6704 8.64L59.6744 14.898H59.6464L56.6224 8.64H54.9284L58.0784 15.038H59.4784L57.5604 19H59.1564L64.2664 8.64H62.6704ZM69.1214 8.64H65.4534V19H66.9234V14.982H69.1074C71.3754 14.982 72.7054 13.792 72.7054 11.804C72.7054 9.816 71.3754 8.64 69.1214 8.64ZM69.1914 13.806H66.9234V9.802H69.2054C70.4654 9.802 71.2074 10.544 71.2074 11.804C71.2074 13.064 70.4514 13.806 69.1914 13.806ZM81.1424 8.64H73.4004V9.802H76.5364V19H78.0064V9.802H81.1424V8.64ZM86.2884 19.14C89.1724 19.14 90.8804 17.166 90.8804 13.82C90.8804 10.474 89.1724 8.5 86.2884 8.5C83.3904 8.5 81.6824 10.474 81.6824 13.82C81.6824 17.166 83.3904 19.14 86.2884 19.14ZM86.2884 17.936C84.3284 17.936 83.1804 16.41 83.1804 13.82C83.1804 11.23 84.3284 9.704 86.2884 9.704C88.2204 9.704 89.3684 11.23 89.3684 13.82C89.3684 16.41 88.2204 17.936 86.2884 17.936ZM99.4667 19.14C102.043 19.14 103.569 17.964 103.569 15.976C103.569 13.61 101.553 13.302 99.7887 13.022C98.4027 12.812 97.1427 12.616 97.1427 11.398C97.1427 10.32 97.9827 9.704 99.4107 9.704C100.839 9.704 101.749 10.572 101.833 12.056H103.275C103.121 9.83 101.707 8.5 99.4667 8.5C97.0727 8.5 95.6587 9.564 95.6587 11.496C95.6587 13.68 97.5487 13.974 99.2427 14.24C100.699 14.464 102.071 14.674 102.071 16.102C102.071 17.264 101.119 17.936 99.4947 17.936C97.9267 17.936 96.9327 16.998 96.8207 15.416H95.3647C95.5327 17.768 97.0587 19.14 99.4667 19.14ZM111.716 15.486C111.716 17.026 110.792 17.936 109.252 17.936C107.698 17.936 106.788 17.026 106.788 15.486V8.64H105.332V15.402C105.332 17.74 106.774 19.14 109.21 19.14C111.66 19.14 113.102 17.74 113.102 15.402V8.64H111.716V15.486ZM118.922 19.14C121.498 19.14 123.024 17.964 123.024 15.976C123.024 13.61 121.008 13.302 119.244 13.022C117.858 12.812 116.598 12.616 116.598 11.398C116.598 10.32 117.438 9.704 118.866 9.704C120.294 9.704 121.204 10.572 121.288 12.056H122.73C122.576 9.83 121.162 8.5 118.922 8.5C116.528 8.5 115.114 9.564 115.114 11.496C115.114 13.68 117.004 13.974 118.698 14.24C120.154 14.464 121.526 14.674 121.526 16.102C121.526 17.264 120.574 17.936 118.95 17.936C117.382 17.936 116.388 16.998 116.276 15.416H114.82C114.988 17.768 116.514 19.14 118.922 19.14ZM131.373 8.64H123.631V9.802H126.767V19H128.237V9.802H131.373V8.64ZM138.756 19H140.338L136.922 8.64H134.332L130.888 19H132.386L133.198 16.396H137.944L138.756 19ZM133.562 15.22L135.564 8.78H135.592L137.58 15.22H133.562ZM141.756 19H143.226V8.64H141.756V19ZM152.244 8.64L152.286 18.86H152.258L148.268 8.64H145.748V19H147.162L147.106 8.78H147.134L151.124 19H153.63V8.64H152.244ZM162.915 19H164.497L161.081 8.64H158.491L155.047 19H156.545L157.357 16.396H162.103L162.915 19ZM157.721 15.22L159.723 8.78H159.751L161.739 15.22H157.721ZM170.282 13.162H170.086V13.134C171.836 13.134 172.872 12.336 172.872 10.992C172.872 9.508 171.822 8.64 170.03 8.64H165.914V19H170.128C172.354 19 173.656 17.894 173.656 16.018C173.656 14.226 172.41 13.162 170.282 13.162ZM171.36 11.482C171.36 12.532 170.688 13.134 169.554 13.134H167.384V9.802H169.554C170.688 9.802 171.36 10.432 171.36 11.482ZM170.198 17.838H167.384V14.226H170.198C171.416 14.226 172.144 14.898 172.144 16.018C172.144 17.152 171.416 17.838 170.198 17.838ZM175.498 19H176.968V8.64H175.498V19ZM180.96 17.796V8.64H179.49V19H185.65V17.796H180.96ZM187.174 19H188.644V8.64H187.174V19ZM197.9 8.64H190.158V9.802H193.294V19H194.764V9.802H197.9V8.64ZM206.088 8.64L203.092 14.898H203.064L200.04 8.64H198.346L201.496 15.038H202.896L200.978 19H202.574L207.684 8.64H206.088Z" fill="#A566FF"/>
<rect x="0.25" width="26" height="26" rx="13" fill="#A566FF"/>
<path d="M10.3257 11.4698L10.8207 11.5406L10.8207 11.5406L10.3257 11.4698ZM10.3157 11.5402L9.8207 11.4695L9.8207 11.4695L10.3157 11.5402ZM17.1742 11.4698L17.6692 11.3991L17.6692 11.3991L17.1742 11.4698ZM17.1843 11.5402L16.6893 11.6109L16.6893 11.6109L17.1843 11.5402ZM15.75 17.5V18C16.0261 18 16.25 17.7761 16.25 17.5H15.75ZM11.75 17.5H11.25C11.25 17.7761 11.4739 18 11.75 18V17.5ZM11.0055 14.1529L11.4009 13.8469L11.4009 13.8469L11.0055 14.1529ZM16.4945 14.1529L16.0991 13.8469L16.0991 13.8469L16.4945 14.1529ZM12.25 20H15.25V19H12.25V20ZM9.83075 11.3991L9.8207 11.4695L10.8106 11.6109L10.8207 11.5406L9.83075 11.3991ZM13.75 8C11.7798 8 10.1094 9.44872 9.83075 11.3991L10.8207 11.5406C11.0289 10.0828 12.2774 9 13.75 9V8ZM17.6692 11.3991C17.3906 9.44873 15.7202 8 13.75 8V9C15.2225 9 16.471 10.0828 16.6793 11.5406L17.6692 11.3991ZM17.6793 11.4695L17.6692 11.3991L16.6793 11.5406L16.6893 11.6109L17.6793 11.4695ZM16.8899 14.4589C17.5196 13.6454 17.8385 12.584 17.6793 11.4695L16.6893 11.6109C16.8085 12.4454 16.5709 13.2373 16.0991 13.8469L16.8899 14.4589ZM15.25 15.9013V17.5H16.25V15.9013H15.25ZM15.75 17H11.75V18H15.75V17ZM12.25 17.5V15.9013H11.25V17.5H12.25ZM9.8207 11.4695C9.66148 12.584 9.98042 13.6454 10.6101 14.459L11.4009 13.8469C10.9291 13.2373 10.6914 12.4454 10.8106 11.6109L9.8207 11.4695ZM12.25 15.9013C12.25 15.0775 11.8121 14.3781 11.4009 13.8469L10.6101 14.459C10.9935 14.9543 11.25 15.427 11.25 15.9013H12.25ZM16.0991 13.8469C15.6879 14.3781 15.25 15.0775 15.25 15.9013H16.25C16.25 15.427 16.5065 14.9542 16.8899 14.4589L16.0991 13.8469ZM13.25 5V7H14.25V5H13.25ZM6.25 13H8.25V12H6.25V13ZM19.25 13H21.25V12H19.25V13ZM9.60355 8.64645L8.10355 7.14645L7.39645 7.85355L8.89645 9.35355L9.60355 8.64645ZM18.6036 9.35355L20.1036 7.85355L19.3964 7.14645L17.8964 8.64645L18.6036 9.35355Z" fill="white"/>
</svg>
