<svg width="846" height="269" viewBox="0 0 846 269" fill="none" xmlns="http://www.w3.org/2000/svg">
<mask id="mask0_702:1562" style="mask-type:alpha" maskUnits="userSpaceOnUse" x="0" y="0" width="846" height="269">
<path fill-rule="evenodd" clip-rule="evenodd" d="M59.5459 12C59.5459 5.37258 64.9185 0 71.546 0H774.454C781.082 0 786.454 5.37258 786.454 12V75C786.454 81.6274 791.827 87 798.454 87H834C840.627 87 846 92.3726 846 99V166C846 172.627 840.627 178 834 178H646.781C640.153 178 634.781 183.373 634.781 190V257C634.781 263.627 629.408 269 622.781 269H223.219C216.592 269 211.219 263.627 211.219 257V190C211.219 183.373 205.846 178 199.219 178H12C5.37258 178 0 172.627 0 166V99C0 92.3726 5.37259 87 12 87H47.5459C54.1734 87 59.5459 81.6274 59.5459 75V12Z" fill="#C4C4C4"/>
</mask>
<g mask="url(#mask0_702:1562)">
<path d="M371.875 670C38.0189 670 -232.625 399.356 -232.625 65.5C-232.625 -268.356 38.0189 -539 371.875 -539L421.875 -539C755.731 -539 1026.38 -268.356 1026.38 65.5001C1026.38 399.356 755.731 670 421.875 670L371.875 670Z" fill="url(#paint0_angular_702:1562)"/>
<path d="M113.123 41.2201V46.6201H90.8635V60.3001H114.083V66.0001H84.2635V23.1601H114.083V28.6801H90.8635V41.2201H113.123Z" fill="#452E66"/>
<path d="M143.078 32.7001H142.838L134.798 66.0001H127.178L116.258 23.1601H123.038L130.898 57.3001H131.138L139.238 23.1601H146.558L154.658 57.3001H154.898L162.818 23.1601H169.658L158.618 66.0001H151.238L143.078 32.7001Z" fill="#452E66"/>
<path d="M215.304 60.3001V66.0001H182.784V60.3001L207.324 28.8601H184.224V23.1601H215.364V28.8601L191.004 60.3001H215.304Z" fill="#452E66"/>
<path d="M247.408 56.7601C246.528 59.5201 244.928 61.8801 242.608 63.8401C240.288 65.7601 237.008 66.7201 232.768 66.7201C229.848 66.7201 227.248 66.0401 224.968 64.6801C222.728 63.2801 220.988 61.3401 219.748 58.8601C218.508 56.3401 217.888 53.4601 217.888 50.2201C217.888 46.9401 218.488 44.0401 219.688 41.5201C220.928 39.0001 222.648 37.0601 224.848 35.7001C227.088 34.3001 229.708 33.6001 232.708 33.6001C235.628 33.6001 238.208 34.2601 240.448 35.5801C242.728 36.8601 244.488 38.7201 245.728 41.1601C247.008 43.5601 247.648 46.4201 247.648 49.7401C247.648 50.5801 247.628 51.2201 247.588 51.6601H224.068C224.148 54.6201 224.968 57.0401 226.528 58.9201C228.128 60.8001 230.208 61.7401 232.768 61.7401C235.208 61.7401 237.088 61.1801 238.408 60.0601C239.728 58.9001 240.668 57.5601 241.228 56.0401L247.408 56.7601ZM232.708 38.5801C230.228 38.5801 228.248 39.4001 226.768 41.0401C225.328 42.6401 224.468 44.6201 224.188 46.9801H241.408C241.128 44.5801 240.248 42.5801 238.768 40.9801C237.288 39.3801 235.268 38.5801 232.708 38.5801Z" fill="#452E66"/>
<path d="M257.539 39.1201H257.779C258.619 37.5201 259.859 36.2001 261.499 35.1601C263.139 34.1201 265.039 33.6001 267.199 33.6001C268.199 33.6001 269.139 33.7001 270.019 33.9001V39.7801C268.899 39.6201 267.859 39.5401 266.899 39.5401C264.139 39.5401 261.939 40.3201 260.299 41.8801C258.659 43.4001 257.839 45.8401 257.839 49.2001V66.0001H251.719V34.3201H257.539V39.1201Z" fill="#452E66"/>
<path d="M287.388 33.6001C290.468 33.6001 293.168 34.3001 295.488 35.7001C297.808 37.0601 299.588 39.0001 300.828 41.5201C302.108 44.0001 302.748 46.8801 302.748 50.1601C302.748 53.4401 302.108 56.3401 300.828 58.8601C299.588 61.3401 297.808 63.2801 295.488 64.6801C293.168 66.0401 290.468 66.7201 287.388 66.7201C284.308 66.7201 281.608 66.0401 279.288 64.6801C276.968 63.2801 275.168 61.3401 273.888 58.8601C272.648 56.3401 272.028 53.4401 272.028 50.1601C272.028 46.8801 272.648 44.0001 273.888 41.5201C275.168 39.0001 276.968 37.0601 279.288 35.7001C281.608 34.3001 284.308 33.6001 287.388 33.6001ZM287.388 61.7401C290.188 61.7401 292.388 60.7201 293.988 58.6801C295.628 56.6001 296.448 53.7601 296.448 50.1601C296.448 46.5601 295.628 43.7401 293.988 41.7001C292.388 39.6201 290.188 38.5801 287.388 38.5801C284.588 38.5801 282.368 39.6201 280.728 41.7001C279.088 43.7401 278.268 46.5601 278.268 50.1601C278.268 53.7601 279.088 56.6001 280.728 58.6801C282.368 60.7201 284.588 61.7401 287.388 61.7401Z" fill="#452E66"/>
<path d="M334.181 33.6001C336.981 33.6001 339.461 34.3001 341.621 35.7001C343.821 37.0601 345.521 39.0001 346.721 41.5201C347.961 44.0001 348.581 46.8801 348.581 50.1601C348.581 53.4401 347.961 56.3401 346.721 58.8601C345.521 61.3401 343.821 63.2801 341.621 64.6801C339.461 66.0401 336.981 66.7201 334.181 66.7201C331.941 66.7201 329.941 66.3001 328.181 65.4601C326.461 64.5801 325.181 63.4001 324.341 61.9201H324.101V66.0001H318.281V22.5601H324.401V38.0401H324.641C325.521 36.6801 326.781 35.6001 328.421 34.8001C330.101 34.0001 332.021 33.6001 334.181 33.6001ZM333.101 61.7401C335.941 61.7401 338.181 60.7201 339.821 58.6801C341.501 56.6001 342.341 53.7601 342.341 50.1601C342.341 46.5601 341.501 43.7401 339.821 41.7001C338.181 39.6201 335.941 38.5801 333.101 38.5801C330.341 38.5801 328.121 39.6201 326.441 41.7001C324.801 43.7801 323.981 46.6001 323.981 50.1601C323.981 53.7201 324.801 56.5401 326.441 58.6201C328.121 60.7001 330.341 61.7401 333.101 61.7401Z" fill="#452E66"/>
<path d="M358.496 39.1201H358.736C359.576 37.5201 360.816 36.2001 362.456 35.1601C364.096 34.1201 365.996 33.6001 368.156 33.6001C369.156 33.6001 370.096 33.7001 370.976 33.9001V39.7801C369.856 39.6201 368.816 39.5401 367.856 39.5401C365.096 39.5401 362.896 40.3201 361.256 41.8801C359.616 43.4001 358.796 45.8401 358.796 49.2001V66.0001H352.676V34.3201H358.496V39.1201Z" fill="#452E66"/>
<path d="M380.361 34.3201V66.0001H374.241V34.3201H380.361ZM380.361 22.5601V29.2201H374.241V22.5601H380.361Z" fill="#452E66"/>
<path d="M391.607 38.5201C392.767 36.8401 394.187 35.6001 395.867 34.8001C397.547 34.0001 399.407 33.6001 401.447 33.6001C403.447 33.6001 405.287 34.0201 406.967 34.8601C408.687 35.6601 410.067 36.9201 411.107 38.6401C412.147 40.3201 412.667 42.4401 412.667 45.0001V66.0001H406.547V46.8601C406.547 43.9401 405.967 41.8601 404.807 40.6201C403.647 39.3801 401.887 38.7601 399.527 38.7601C398.167 38.7601 396.887 39.1401 395.687 39.9001C394.487 40.6601 393.507 41.7801 392.747 43.2601C392.027 44.7401 391.667 46.5201 391.667 48.6001V66.0001H385.547V34.3201H391.367V38.5201H391.607Z" fill="#452E66"/>
<path d="M446.221 63.7801C446.221 68.5801 444.861 72.1001 442.141 74.3401C439.421 76.6201 435.841 77.7601 431.401 77.7601C427.841 77.7601 424.781 76.9401 422.221 75.3001C419.701 73.6601 417.961 71.1401 417.001 67.7401L422.881 66.4801C423.481 68.7201 424.481 70.3201 425.881 71.2801C427.321 72.2401 429.161 72.7201 431.401 72.7201C437.201 72.7201 440.101 69.6401 440.101 63.4801V60.3001H439.861C438.98 61.5401 437.741 62.5201 436.141 63.2401C434.54 63.9601 432.701 64.3201 430.621 64.3201C427.901 64.3201 425.461 63.6801 423.301 62.4001C421.181 61.1201 419.521 59.3201 418.32 57.0001C417.12 54.6801 416.521 52.0001 416.521 48.9601C416.521 45.9601 417.12 43.3001 418.32 40.9801C419.521 38.6201 421.181 36.8001 423.301 35.5201C425.461 34.2401 427.901 33.6001 430.621 33.6001C432.781 33.6001 434.701 34.0001 436.381 34.8001C438.061 35.5601 439.321 36.6201 440.161 37.9801H440.401V34.3201H446.221V63.7801ZM431.641 59.4601C434.32 59.4601 436.461 58.5001 438.061 56.5801C439.661 54.6601 440.461 52.1201 440.461 48.9601C440.461 45.8401 439.661 43.3401 438.061 41.4601C436.461 39.5401 434.32 38.5801 431.641 38.5801C428.961 38.5801 426.801 39.5401 425.161 41.4601C423.561 43.3401 422.76 45.8401 422.76 48.9601C422.76 52.0801 423.561 54.6201 425.161 56.5801C426.801 58.5001 428.961 59.4601 431.641 59.4601Z" fill="#452E66"/>
<path d="M470.256 43.8001C469.816 42.0001 468.916 40.6401 467.556 39.7201C466.196 38.7601 464.616 38.2801 462.816 38.2801C460.936 38.2801 459.436 38.6801 458.316 39.4801C457.196 40.2801 456.636 41.4201 456.636 42.9001C456.636 44.1401 457.136 45.0401 458.136 45.6001C459.176 46.1601 460.736 46.6201 462.816 46.9801L465.936 47.4601C469.296 48.0601 471.896 49.0201 473.736 50.3401C475.616 51.6201 476.556 53.7801 476.556 56.8201C476.556 59.9801 475.296 62.4201 472.776 64.1401C470.296 65.8601 467.076 66.7201 463.116 66.7201C459.196 66.7201 455.996 65.8201 453.516 64.0201C451.036 62.1801 449.516 59.7801 448.956 56.8201L454.536 55.6201C455.016 57.8201 455.996 59.4601 457.476 60.5401C458.996 61.5801 460.916 62.1001 463.236 62.1001C465.356 62.1001 467.056 61.6601 468.336 60.7801C469.616 59.8601 470.256 58.6001 470.256 57.0001C470.256 55.6801 469.696 54.7001 468.576 54.0601C467.496 53.4201 465.856 52.9201 463.656 52.5601L460.416 52.0201C457.376 51.5001 454.936 50.6001 453.096 49.3201C451.296 48.0401 450.396 45.9201 450.396 42.9601C450.396 41.1601 450.916 39.5601 451.956 38.1601C453.036 36.7201 454.516 35.6001 456.396 34.8001C458.316 34.0001 460.476 33.6001 462.876 33.6001C465.116 33.6001 467.176 34.0201 469.056 34.8601C470.936 35.6601 472.456 36.7601 473.616 38.1601C474.816 39.5201 475.556 41.0001 475.836 42.6001L470.256 43.8001Z" fill="#452E66"/>
<path d="M497.715 39.1201H497.955C498.795 37.5201 500.035 36.2001 501.675 35.1601C503.315 34.1201 505.215 33.6001 507.375 33.6001C508.375 33.6001 509.315 33.7001 510.195 33.9001V39.7801C509.075 39.6201 508.035 39.5401 507.075 39.5401C504.315 39.5401 502.115 40.3201 500.475 41.8801C498.835 43.4001 498.015 45.8401 498.015 49.2001V66.0001H491.895V34.3201H497.715V39.1201Z" fill="#452E66"/>
<path d="M541.724 56.7601C540.844 59.5201 539.244 61.8801 536.924 63.8401C534.604 65.7601 531.324 66.7201 527.084 66.7201C524.164 66.7201 521.564 66.0401 519.284 64.6801C517.044 63.2801 515.304 61.3401 514.064 58.8601C512.824 56.3401 512.204 53.4601 512.204 50.2201C512.204 46.9401 512.804 44.0401 514.004 41.5201C515.244 39.0001 516.964 37.0601 519.164 35.7001C521.404 34.3001 524.024 33.6001 527.024 33.6001C529.944 33.6001 532.524 34.2601 534.764 35.5801C537.044 36.8601 538.804 38.7201 540.044 41.1601C541.324 43.5601 541.964 46.4201 541.964 49.7401C541.964 50.5801 541.944 51.2201 541.904 51.6601H518.384C518.464 54.6201 519.284 57.0401 520.844 58.9201C522.444 60.8001 524.524 61.7401 527.084 61.7401C529.524 61.7401 531.404 61.1801 532.724 60.0601C534.044 58.9001 534.984 57.5601 535.544 56.0401L541.724 56.7601ZM527.024 38.5801C524.544 38.5801 522.564 39.4001 521.084 41.0401C519.644 42.6401 518.784 44.6201 518.504 46.9801H535.724C535.444 44.5801 534.564 42.5801 533.084 40.9801C531.604 39.3801 529.584 38.5801 527.024 38.5801Z" fill="#452E66"/>
<path d="M552.095 38.5201C553.255 36.8401 554.675 35.6001 556.355 34.8001C558.035 34.0001 559.895 33.6001 561.935 33.6001C563.935 33.6001 565.775 34.0201 567.455 34.8601C569.175 35.6601 570.555 36.9201 571.595 38.6401C572.635 40.3201 573.155 42.4401 573.155 45.0001V66.0001H567.035V46.8601C567.035 43.9401 566.455 41.8601 565.295 40.6201C564.135 39.3801 562.375 38.7601 560.015 38.7601C558.655 38.7601 557.375 39.1401 556.175 39.9001C554.975 40.6601 553.995 41.7801 553.235 43.2601C552.515 44.7401 552.155 46.5201 552.155 48.6001V66.0001H546.035V34.3201H551.855V38.5201H552.095Z" fill="#452E66"/>
<path d="M606.529 56.7601C605.649 59.5201 604.049 61.8801 601.729 63.8401C599.409 65.7601 596.129 66.7201 591.889 66.7201C588.969 66.7201 586.369 66.0401 584.089 64.6801C581.849 63.2801 580.109 61.3401 578.869 58.8601C577.629 56.3401 577.009 53.4601 577.009 50.2201C577.009 46.9401 577.609 44.0401 578.809 41.5201C580.049 39.0001 581.769 37.0601 583.969 35.7001C586.209 34.3001 588.829 33.6001 591.829 33.6001C594.749 33.6001 597.329 34.2601 599.569 35.5801C601.849 36.8601 603.609 38.7201 604.849 41.1601C606.129 43.5601 606.769 46.4201 606.769 49.7401C606.769 50.5801 606.749 51.2201 606.709 51.6601H583.189C583.269 54.6201 584.089 57.0401 585.649 58.9201C587.249 60.8001 589.329 61.7401 591.889 61.7401C594.329 61.7401 596.209 61.1801 597.529 60.0601C598.849 58.9001 599.789 57.5601 600.349 56.0401L606.529 56.7601ZM591.829 38.5801C589.349 38.5801 587.369 39.4001 585.889 41.0401C584.449 42.6401 583.589 44.6201 583.309 46.9801H600.529C600.249 44.5801 599.369 42.5801 597.889 40.9801C596.409 39.3801 594.389 38.5801 591.829 38.5801Z" fill="#452E66"/>
<path d="M644.543 66.0001H637.703L630.683 42.5401H630.443L623.363 66.0001H616.823L606.503 34.3201H613.223L620.183 58.5601H620.423L627.263 34.3201H634.284L641.123 58.5601H641.363L648.323 34.3201H654.803L644.543 66.0001Z" fill="#452E66"/>
<path d="M676.193 66.0001C675.913 65.7201 675.673 65.2001 675.473 64.4401C675.313 63.6801 675.233 62.8001 675.233 61.8001C674.273 63.4401 672.773 64.6801 670.733 65.5201C668.733 66.3201 666.673 66.7201 664.553 66.7201C662.673 66.7201 660.932 66.3401 659.333 65.5801C657.733 64.7801 656.453 63.6801 655.493 62.2801C654.573 60.8401 654.113 59.1601 654.113 57.2401C654.113 54.0001 655.233 51.6201 657.473 50.1001C659.713 48.5401 663.093 47.5201 667.613 47.0401C670.533 46.7601 672.513 46.3401 673.553 45.7801C674.633 45.2201 675.173 44.4201 675.173 43.3801C675.173 40.2201 672.953 38.6401 668.513 38.6401C666.793 38.6401 665.233 39.1001 663.833 40.0201C662.432 40.9001 661.453 42.2201 660.893 43.9801L655.313 42.6601C655.993 39.8601 657.553 37.6601 659.993 36.0601C662.433 34.4201 665.353 33.6001 668.753 33.6001C673.073 33.6001 676.233 34.5001 678.233 36.3001C680.273 38.0601 681.293 40.3801 681.293 43.2601V59.1601C681.293 61.1601 681.333 62.6401 681.413 63.6001C681.533 64.5201 681.773 65.3201 682.133 66.0001H676.193ZM675.173 49.6801C674.733 50.1601 673.793 50.5601 672.353 50.8801C670.953 51.1601 669.153 51.4401 666.953 51.7201C665.073 51.9601 663.493 52.5401 662.213 53.4601C660.973 54.3401 660.353 55.6001 660.353 57.2401C660.353 58.7601 660.833 59.9201 661.793 60.7201C662.753 61.4801 664.073 61.8601 665.753 61.8601C667.273 61.8601 668.753 61.5801 670.193 61.0201C671.633 60.4201 672.813 59.5001 673.733 58.2601C674.693 56.9801 675.173 55.4001 675.173 53.5201V49.6801Z" fill="#452E66"/>
<path d="M701.974 33.6001C704.774 33.6001 707.254 34.3001 709.414 35.7001C711.614 37.0601 713.314 39.0001 714.514 41.5201C715.754 44.0001 716.374 46.8801 716.374 50.1601C716.374 53.4401 715.754 56.3401 714.514 58.8601C713.314 61.3401 711.614 63.2801 709.414 64.6801C707.254 66.0401 704.774 66.7201 701.974 66.7201C699.734 66.7201 697.734 66.3001 695.974 65.4601C694.254 64.5801 692.974 63.4001 692.134 61.9201H691.894V66.0001H686.074V22.5601H692.194V38.0401H692.434C693.314 36.6801 694.574 35.6001 696.214 34.8001C697.894 34.0001 699.814 33.6001 701.974 33.6001ZM700.894 61.7401C703.734 61.7401 705.974 60.7201 707.614 58.6801C709.294 56.6001 710.134 53.7601 710.134 50.1601C710.134 46.5601 709.294 43.7401 707.614 41.7001C705.974 39.6201 703.734 38.5801 700.894 38.5801C698.134 38.5801 695.914 39.6201 694.234 41.7001C692.594 43.7801 691.774 46.6001 691.774 50.1601C691.774 53.7201 692.594 56.5401 694.234 58.6201C695.914 60.7001 698.134 61.7401 700.894 61.7401Z" fill="#452E66"/>
<path d="M726.709 22.5601V66.0001H720.589V22.5601H726.709Z" fill="#452E66"/>
<path d="M760.455 56.7601C759.575 59.5201 757.975 61.8801 755.655 63.8401C753.335 65.7601 750.055 66.7201 745.815 66.7201C742.895 66.7201 740.295 66.0401 738.015 64.6801C735.775 63.2801 734.035 61.3401 732.795 58.8601C731.555 56.3401 730.935 53.4601 730.935 50.2201C730.935 46.9401 731.535 44.0401 732.735 41.5201C733.975 39.0001 735.695 37.0601 737.895 35.7001C740.135 34.3001 742.755 33.6001 745.755 33.6001C748.675 33.6001 751.255 34.2601 753.495 35.5801C755.775 36.8601 757.535 38.7201 758.775 41.1601C760.055 43.5601 760.695 46.4201 760.695 49.7401C760.695 50.5801 760.675 51.2201 760.635 51.6601H737.115C737.195 54.6201 738.015 57.0401 739.575 58.9201C741.175 60.8001 743.255 61.7401 745.815 61.7401C748.255 61.7401 750.135 61.1801 751.455 60.0601C752.775 58.9001 753.715 57.5601 754.275 56.0401L760.455 56.7601ZM745.755 38.5801C743.275 38.5801 741.295 39.4001 739.815 41.0401C738.375 42.6401 737.515 44.6201 737.235 46.9801H754.455C754.175 44.5801 753.295 42.5801 751.815 40.9801C750.335 39.3801 748.315 38.5801 745.755 38.5801Z" fill="#452E66"/>
<path d="M109.683 141.76C108.803 144.52 107.203 146.88 104.883 148.84C102.563 150.76 99.2831 151.72 95.0431 151.72C92.1231 151.72 89.5231 151.04 87.2431 149.68C85.0031 148.28 83.2631 146.34 82.0231 143.86C80.7831 141.34 80.1631 138.46 80.1631 135.22C80.1631 131.94 80.7631 129.04 81.9631 126.52C83.2031 124 84.9231 122.06 87.1231 120.7C89.3631 119.3 91.9831 118.6 94.9831 118.6C97.9031 118.6 100.483 119.26 102.723 120.58C105.003 121.86 106.763 123.72 108.003 126.16C109.283 128.56 109.923 131.42 109.923 134.74C109.923 135.58 109.903 136.22 109.863 136.66H86.3431C86.4231 139.62 87.2431 142.04 88.8031 143.92C90.4031 145.8 92.4831 146.74 95.0431 146.74C97.4831 146.74 99.3631 146.18 100.683 145.06C102.003 143.9 102.943 142.56 103.503 141.04L109.683 141.76ZM94.9831 123.58C92.5031 123.58 90.5231 124.4 89.0431 126.04C87.6031 127.64 86.7431 129.62 86.4631 131.98H103.683C103.403 129.58 102.523 127.58 101.043 125.98C99.5631 124.38 97.5431 123.58 94.9831 123.58Z" fill="#452E66"/>
<path d="M120.054 123.52C121.214 121.84 122.634 120.6 124.314 119.8C125.994 119 127.854 118.6 129.894 118.6C131.894 118.6 133.734 119.02 135.414 119.86C137.134 120.66 138.514 121.92 139.554 123.64C140.594 125.32 141.114 127.44 141.114 130V151H134.994V131.86C134.994 128.94 134.414 126.86 133.254 125.62C132.094 124.38 130.334 123.76 127.974 123.76C126.614 123.76 125.334 124.14 124.134 124.9C122.934 125.66 121.954 126.78 121.194 128.26C120.474 129.74 120.114 131.52 120.114 133.6V151H113.994V119.32H119.814V123.52H120.054Z" fill="#452E66"/>
<path d="M174.488 141.76C173.608 144.52 172.008 146.88 169.688 148.84C167.368 150.76 164.088 151.72 159.848 151.72C156.928 151.72 154.328 151.04 152.048 149.68C149.808 148.28 148.068 146.34 146.828 143.86C145.588 141.34 144.968 138.46 144.968 135.22C144.968 131.94 145.568 129.04 146.768 126.52C148.008 124 149.728 122.06 151.928 120.7C154.168 119.3 156.788 118.6 159.788 118.6C162.708 118.6 165.288 119.26 167.528 120.58C169.808 121.86 171.568 123.72 172.808 126.16C174.088 128.56 174.728 131.42 174.728 134.74C174.728 135.58 174.708 136.22 174.668 136.66H151.148C151.228 139.62 152.048 142.04 153.608 143.92C155.208 145.8 157.288 146.74 159.848 146.74C162.288 146.74 164.168 146.18 165.488 145.06C166.808 143.9 167.748 142.56 168.308 141.04L174.488 141.76ZM159.788 123.58C157.308 123.58 155.328 124.4 153.848 126.04C152.408 127.64 151.548 129.62 151.268 131.98H168.488C168.208 129.58 167.328 127.58 165.848 125.98C164.368 124.38 162.348 123.58 159.788 123.58Z" fill="#452E66"/>
<path d="M184.619 124.12H184.859C185.699 122.52 186.939 121.2 188.579 120.16C190.219 119.12 192.119 118.6 194.279 118.6C195.279 118.6 196.219 118.7 197.099 118.9V124.78C195.979 124.62 194.939 124.54 193.979 124.54C191.219 124.54 189.019 125.32 187.379 126.88C185.739 128.4 184.919 130.84 184.919 134.2V151H178.799V119.32H184.619V124.12Z" fill="#452E66"/>
<path d="M228.808 148.78C228.808 153.58 227.448 157.1 224.728 159.34C222.008 161.62 218.428 162.76 213.988 162.76C210.428 162.76 207.368 161.94 204.808 160.3C202.288 158.66 200.548 156.14 199.588 152.74L205.468 151.48C206.068 153.72 207.068 155.32 208.468 156.28C209.908 157.24 211.748 157.72 213.988 157.72C219.788 157.72 222.688 154.64 222.688 148.48V145.3H222.448C221.568 146.54 220.328 147.52 218.728 148.24C217.128 148.96 215.288 149.32 213.208 149.32C210.488 149.32 208.048 148.68 205.888 147.4C203.768 146.12 202.108 144.32 200.908 142C199.708 139.68 199.108 137 199.108 133.96C199.108 130.96 199.708 128.3 200.908 125.98C202.108 123.62 203.768 121.8 205.888 120.52C208.048 119.24 210.488 118.6 213.208 118.6C215.368 118.6 217.288 119 218.968 119.8C220.648 120.56 221.908 121.62 222.748 122.98H222.988V119.32H228.808V148.78ZM214.228 144.46C216.908 144.46 219.048 143.5 220.648 141.58C222.248 139.66 223.048 137.12 223.048 133.96C223.048 130.84 222.248 128.34 220.648 126.46C219.048 124.54 216.908 123.58 214.228 123.58C211.548 123.58 209.388 124.54 207.748 126.46C206.148 128.34 205.348 130.84 205.348 133.96C205.348 137.08 206.148 139.62 207.748 141.58C209.388 143.5 211.548 144.46 214.228 144.46Z" fill="#452E66"/>
<path d="M249.844 151C248.604 154.28 247.384 156.76 246.184 158.44C244.984 160.16 243.744 161.3 242.464 161.86C241.184 162.46 239.664 162.76 237.904 162.76C236.224 162.76 234.984 162.7 234.184 162.58V157.18C234.304 157.18 234.584 157.22 235.024 157.3C235.504 157.42 236.184 157.48 237.064 157.48C238.664 157.48 239.864 157.08 240.664 156.28C241.464 155.48 242.344 153.98 243.304 151.78L243.784 150.58L231.064 119.32H237.664L246.604 143.32H246.844L255.244 119.32H261.844L249.844 151Z" fill="#452E66"/>
<path d="M291.672 151.72C289.512 151.72 287.592 151.34 285.912 150.58C284.272 149.78 283.012 148.7 282.132 147.34H281.892V162.04H275.772V119.32H281.592V123.4H281.832C282.712 121.88 284.012 120.7 285.732 119.86C287.452 119.02 289.432 118.6 291.672 118.6C294.472 118.6 296.952 119.3 299.112 120.7C301.312 122.06 303.012 124 304.212 126.52C305.452 129 306.072 131.88 306.072 135.16C306.072 138.44 305.452 141.34 304.212 143.86C303.012 146.34 301.312 148.28 299.112 149.68C296.952 151.04 294.472 151.72 291.672 151.72ZM290.592 123.58C287.832 123.58 285.612 124.62 283.932 126.7C282.292 128.78 281.472 131.6 281.472 135.16C281.472 138.72 282.292 141.54 283.932 143.62C285.612 145.7 287.832 146.74 290.592 146.74C293.432 146.74 295.672 145.72 297.312 143.68C298.992 141.6 299.832 138.76 299.832 135.16C299.832 131.56 298.992 128.74 297.312 126.7C295.672 124.62 293.432 123.58 290.592 123.58Z" fill="#452E66"/>
<path d="M331.226 146.8C328.986 150.08 325.706 151.72 321.386 151.72C318.226 151.72 315.566 150.76 313.406 148.84C311.246 146.92 310.166 144.08 310.166 140.32V119.32H316.286V138.46C316.286 141.38 316.866 143.46 318.026 144.7C319.186 145.94 320.946 146.56 323.306 146.56C324.706 146.56 325.986 146.18 327.146 145.42C328.346 144.66 329.306 143.54 330.026 142.06C330.786 140.58 331.166 138.8 331.166 136.72V119.32H337.286V151H331.466V146.8H331.226Z" fill="#452E66"/>
<path d="M347.92 124.12H348.16C349 122.52 350.24 121.2 351.88 120.16C353.52 119.12 355.42 118.6 357.58 118.6C358.58 118.6 359.52 118.7 360.4 118.9V124.78C359.28 124.62 358.24 124.54 357.28 124.54C354.52 124.54 352.32 125.32 350.68 126.88C349.04 128.4 348.22 130.84 348.22 134.2V151H342.1V119.32H347.92V124.12Z" fill="#452E66"/>
<path d="M377.349 146.74C381.589 146.74 384.349 144.48 385.629 139.96L391.809 140.86C391.049 143.7 389.489 146.22 387.129 148.42C384.809 150.62 381.549 151.72 377.349 151.72C374.389 151.72 371.769 151.04 369.489 149.68C367.249 148.28 365.509 146.34 364.269 143.86C363.029 141.34 362.409 138.44 362.409 135.16C362.409 131.88 363.029 129 364.269 126.52C365.509 124 367.249 122.06 369.489 120.7C371.769 119.3 374.409 118.6 377.409 118.6C381.409 118.6 384.489 119.58 386.649 121.54C388.849 123.46 390.349 125.5 391.149 127.66L385.389 129.52C384.869 128 383.989 126.64 382.749 125.44C381.549 124.2 379.769 123.58 377.409 123.58C374.729 123.58 372.589 124.62 370.989 126.7C369.429 128.74 368.649 131.56 368.649 135.16C368.649 138.72 369.429 141.54 370.989 143.62C372.589 145.7 374.709 146.74 377.349 146.74Z" fill="#452E66"/>
<path d="M401.546 123.52C403.826 120.24 407.066 118.6 411.266 118.6C413.226 118.6 415.046 119.02 416.726 119.86C418.406 120.66 419.746 121.92 420.746 123.64C421.786 125.36 422.306 127.48 422.306 130V151H416.186V131.86C416.186 128.94 415.606 126.86 414.446 125.62C413.286 124.38 411.526 123.76 409.166 123.76C407.846 123.76 406.586 124.18 405.386 125.02C404.186 125.86 403.206 127.08 402.446 128.68C401.686 130.24 401.306 132.06 401.306 134.14V151H395.186V107.56H401.306V123.52H401.546Z" fill="#452E66"/>
<path d="M447.999 151C447.719 150.72 447.479 150.2 447.279 149.44C447.119 148.68 447.039 147.8 447.039 146.8C446.079 148.44 444.579 149.68 442.539 150.52C440.539 151.32 438.479 151.72 436.359 151.72C434.479 151.72 432.739 151.34 431.139 150.58C429.539 149.78 428.259 148.68 427.299 147.28C426.379 145.84 425.919 144.16 425.919 142.24C425.919 139 427.039 136.62 429.279 135.1C431.519 133.54 434.899 132.52 439.419 132.04C442.339 131.76 444.319 131.34 445.359 130.78C446.439 130.22 446.979 129.42 446.979 128.38C446.979 125.22 444.759 123.64 440.319 123.64C438.599 123.64 437.039 124.1 435.639 125.02C434.239 125.9 433.259 127.22 432.699 128.98L427.119 127.66C427.799 124.86 429.359 122.66 431.799 121.06C434.239 119.42 437.159 118.6 440.559 118.6C444.879 118.6 448.039 119.5 450.039 121.3C452.079 123.06 453.099 125.38 453.099 128.26V144.16C453.099 146.16 453.139 147.64 453.219 148.6C453.339 149.52 453.579 150.32 453.939 151H447.999ZM446.979 134.68C446.539 135.16 445.599 135.56 444.159 135.88C442.759 136.16 440.959 136.44 438.759 136.72C436.879 136.96 435.299 137.54 434.019 138.46C432.779 139.34 432.159 140.6 432.159 142.24C432.159 143.76 432.639 144.92 433.599 145.72C434.559 146.48 435.879 146.86 437.559 146.86C439.079 146.86 440.559 146.58 441.999 146.02C443.439 145.42 444.619 144.5 445.539 143.26C446.499 141.98 446.979 140.4 446.979 138.52V134.68Z" fill="#452E66"/>
<path d="M477.141 128.8C476.701 127 475.801 125.64 474.441 124.72C473.081 123.76 471.501 123.28 469.701 123.28C467.821 123.28 466.321 123.68 465.201 124.48C464.081 125.28 463.521 126.42 463.521 127.9C463.521 129.14 464.021 130.04 465.021 130.6C466.061 131.16 467.621 131.62 469.701 131.98L472.821 132.46C476.181 133.06 478.781 134.02 480.621 135.34C482.501 136.62 483.441 138.78 483.441 141.82C483.441 144.98 482.181 147.42 479.661 149.14C477.181 150.86 473.961 151.72 470.001 151.72C466.081 151.72 462.881 150.82 460.401 149.02C457.921 147.18 456.401 144.78 455.841 141.82L461.421 140.62C461.901 142.82 462.881 144.46 464.361 145.54C465.881 146.58 467.801 147.1 470.121 147.1C472.241 147.1 473.941 146.66 475.221 145.78C476.501 144.86 477.141 143.6 477.141 142C477.141 140.68 476.581 139.7 475.461 139.06C474.381 138.42 472.741 137.92 470.541 137.56L467.301 137.02C464.261 136.5 461.821 135.6 459.981 134.32C458.181 133.04 457.281 130.92 457.281 127.96C457.281 126.16 457.801 124.56 458.841 123.16C459.921 121.72 461.401 120.6 463.281 119.8C465.201 119 467.361 118.6 469.761 118.6C472.001 118.6 474.061 119.02 475.941 119.86C477.821 120.66 479.341 121.76 480.501 123.16C481.701 124.52 482.441 126 482.721 127.6L477.141 128.8Z" fill="#452E66"/>
<path d="M493.594 119.32V151H487.474V119.32H493.594ZM493.594 107.56V114.22H487.474V107.56H493.594Z" fill="#452E66"/>
<path d="M504.839 123.52C505.999 121.84 507.419 120.6 509.099 119.8C510.779 119 512.639 118.6 514.679 118.6C516.679 118.6 518.519 119.02 520.199 119.86C521.919 120.66 523.299 121.92 524.339 123.64C525.379 125.32 525.899 127.44 525.899 130V151H519.779V131.86C519.779 128.94 519.199 126.86 518.039 125.62C516.879 124.38 515.119 123.76 512.759 123.76C511.399 123.76 510.119 124.14 508.919 124.9C507.719 125.66 506.739 126.78 505.979 128.26C505.259 129.74 504.899 131.52 504.899 133.6V151H498.779V119.32H504.599V123.52H504.839Z" fill="#452E66"/>
<path d="M559.453 148.78C559.453 153.58 558.093 157.1 555.373 159.34C552.653 161.62 549.073 162.76 544.633 162.76C541.073 162.76 538.013 161.94 535.453 160.3C532.933 158.66 531.193 156.14 530.233 152.74L536.113 151.48C536.713 153.72 537.713 155.32 539.113 156.28C540.553 157.24 542.393 157.72 544.633 157.72C550.433 157.72 553.333 154.64 553.333 148.48V145.3H553.093C552.213 146.54 550.973 147.52 549.373 148.24C547.773 148.96 545.933 149.32 543.853 149.32C541.133 149.32 538.693 148.68 536.533 147.4C534.413 146.12 532.753 144.32 531.553 142C530.353 139.68 529.753 137 529.753 133.96C529.753 130.96 530.353 128.3 531.553 125.98C532.753 123.62 534.413 121.8 536.533 120.52C538.693 119.24 541.133 118.6 543.853 118.6C546.013 118.6 547.933 119 549.613 119.8C551.293 120.56 552.553 121.62 553.393 122.98H553.633V119.32H559.453V148.78ZM544.873 144.46C547.553 144.46 549.693 143.5 551.293 141.58C552.893 139.66 553.693 137.12 553.693 133.96C553.693 130.84 552.893 128.34 551.293 126.46C549.693 124.54 547.553 123.58 544.873 123.58C542.193 123.58 540.033 124.54 538.393 126.46C536.793 128.34 535.993 130.84 535.993 133.96C535.993 137.08 536.793 139.62 538.393 141.58C540.033 143.5 542.193 144.46 544.873 144.46Z" fill="#452E66"/>
<path d="M581.894 119.32V151H575.774V119.32H581.894ZM581.894 107.56V114.22H575.774V107.56H581.894Z" fill="#452E66"/>
<path d="M593.14 123.52C594.3 121.84 595.72 120.6 597.4 119.8C599.08 119 600.94 118.6 602.98 118.6C604.98 118.6 606.82 119.02 608.5 119.86C610.22 120.66 611.6 121.92 612.64 123.64C613.68 125.32 614.2 127.44 614.2 130V151H608.08V131.86C608.08 128.94 607.5 126.86 606.34 125.62C605.18 124.38 603.42 123.76 601.06 123.76C599.7 123.76 598.42 124.14 597.22 124.9C596.02 125.66 595.04 126.78 594.28 128.26C593.56 129.74 593.2 131.52 593.2 133.6V151H587.08V119.32H592.9V123.52H593.14Z" fill="#452E66"/>
<path d="M634.679 145.72V151C633.799 151.08 632.299 151.12 630.179 151.12C627.219 151.12 625.099 150.64 623.819 149.68C622.579 148.72 621.959 146.88 621.959 144.16V123.94H616.739V119.32H621.959V110.38H628.079V119.32H635.039V123.94H628.079V142.54C628.079 143.94 628.339 144.84 628.859 145.24C629.379 145.64 630.319 145.84 631.679 145.84L634.679 145.72Z" fill="#452E66"/>
<path d="M652.222 118.6C655.302 118.6 658.002 119.3 660.322 120.7C662.642 122.06 664.422 124 665.662 126.52C666.942 129 667.582 131.88 667.582 135.16C667.582 138.44 666.942 141.34 665.662 143.86C664.422 146.34 662.642 148.28 660.322 149.68C658.002 151.04 655.302 151.72 652.222 151.72C649.142 151.72 646.442 151.04 644.122 149.68C641.802 148.28 640.002 146.34 638.722 143.86C637.482 141.34 636.862 138.44 636.862 135.16C636.862 131.88 637.482 129 638.722 126.52C640.002 124 641.802 122.06 644.122 120.7C646.442 119.3 649.142 118.6 652.222 118.6ZM652.222 146.74C655.022 146.74 657.222 145.72 658.822 143.68C660.462 141.6 661.282 138.76 661.282 135.16C661.282 131.56 660.462 128.74 658.822 126.7C657.222 124.62 655.022 123.58 652.222 123.58C649.422 123.58 647.202 124.62 645.562 126.7C643.922 128.74 643.102 131.56 643.102 135.16C643.102 138.76 643.922 141.6 645.562 143.68C647.202 145.72 649.422 146.74 652.222 146.74Z" fill="#452E66"/>
<path d="M699.015 145.72V151C698.135 151.08 696.635 151.12 694.515 151.12C691.555 151.12 689.435 150.64 688.155 149.68C686.915 148.72 686.295 146.88 686.295 144.16V123.94H681.075V119.32H686.295V110.38H692.415V119.32H699.375V123.94H692.415V142.54C692.415 143.94 692.675 144.84 693.195 145.24C693.715 145.64 694.655 145.84 696.015 145.84L699.015 145.72Z" fill="#452E66"/>
<path d="M709.221 123.52C711.501 120.24 714.741 118.6 718.941 118.6C720.901 118.6 722.721 119.02 724.401 119.86C726.081 120.66 727.421 121.92 728.421 123.64C729.461 125.36 729.981 127.48 729.981 130V151H723.861V131.86C723.861 128.94 723.281 126.86 722.121 125.62C720.961 124.38 719.201 123.76 716.841 123.76C715.521 123.76 714.261 124.18 713.061 125.02C711.861 125.86 710.881 127.08 710.121 128.68C709.361 130.24 708.981 132.06 708.981 134.14V151H702.861V107.56H708.981V123.52H709.221Z" fill="#452E66"/>
<path d="M763.355 141.76C762.475 144.52 760.875 146.88 758.555 148.84C756.235 150.76 752.955 151.72 748.715 151.72C745.795 151.72 743.195 151.04 740.915 149.68C738.675 148.28 736.935 146.34 735.695 143.86C734.455 141.34 733.835 138.46 733.835 135.22C733.835 131.94 734.435 129.04 735.635 126.52C736.875 124 738.595 122.06 740.795 120.7C743.035 119.3 745.655 118.6 748.655 118.6C751.575 118.6 754.155 119.26 756.395 120.58C758.675 121.86 760.435 123.72 761.675 126.16C762.955 128.56 763.595 131.42 763.595 134.74C763.595 135.58 763.575 136.22 763.535 136.66H740.015C740.095 139.62 740.915 142.04 742.475 143.92C744.075 145.8 746.155 146.74 748.715 146.74C751.155 146.74 753.035 146.18 754.355 145.06C755.675 143.9 756.615 142.56 757.175 141.04L763.355 141.76ZM748.655 123.58C746.175 123.58 744.195 124.4 742.715 126.04C741.275 127.64 740.415 129.62 740.135 131.98H757.355C757.075 129.58 756.195 127.58 754.715 125.98C753.235 124.38 751.215 123.58 748.655 123.58Z" fill="#452E66"/>
<path d="M295.044 236H266.424V234.08C266.424 231.16 266.984 228.66 268.104 226.58C269.224 224.46 270.524 222.78 272.004 221.54C273.484 220.26 275.264 218.96 277.344 217.64L283.104 213.98C284.784 212.86 286.164 211.66 287.244 210.38C288.324 209.06 288.864 207.46 288.864 205.58C288.864 203.14 288.204 201.3 286.884 200.06C285.564 198.82 283.664 198.2 281.184 198.2C278.704 198.2 276.704 199.02 275.184 200.66C273.704 202.3 272.804 204.58 272.484 207.5L266.424 206.9C266.704 204.02 267.544 201.54 268.944 199.46C270.344 197.38 272.104 195.82 274.224 194.78C276.344 193.7 278.664 193.16 281.184 193.16C283.744 193.16 286.084 193.6 288.204 194.48C290.324 195.36 292.024 196.72 293.304 198.56C294.584 200.4 295.224 202.66 295.224 205.34C295.224 207.58 294.784 209.52 293.904 211.16C293.024 212.76 291.984 214.06 290.784 215.06C289.584 216.02 288.104 217.04 286.344 218.12L285.024 218.96L279.804 222.38C277.524 223.86 275.864 225.3 274.824 226.7C273.824 228.1 273.264 229.38 273.144 230.54H295.044V236Z" fill="#452E66"/>
<path d="M312.994 236H306.934V203.84H298.534V199.64H299.794C302.194 199.64 304.034 199.12 305.314 198.08C306.634 197 307.454 195.62 307.774 193.94H312.994V236Z" fill="#452E66"/>
<path d="M338.977 213.8C338.537 212 337.637 210.64 336.277 209.72C334.917 208.76 333.337 208.28 331.537 208.28C329.657 208.28 328.157 208.68 327.037 209.48C325.917 210.28 325.357 211.42 325.357 212.9C325.357 214.14 325.857 215.04 326.857 215.6C327.897 216.16 329.457 216.62 331.537 216.98L334.657 217.46C338.017 218.06 340.617 219.02 342.457 220.34C344.337 221.62 345.277 223.78 345.277 226.82C345.277 229.98 344.017 232.42 341.497 234.14C339.017 235.86 335.797 236.72 331.837 236.72C327.917 236.72 324.717 235.82 322.237 234.02C319.757 232.18 318.237 229.78 317.677 226.82L323.257 225.62C323.737 227.82 324.717 229.46 326.197 230.54C327.717 231.58 329.637 232.1 331.957 232.1C334.077 232.1 335.777 231.66 337.057 230.78C338.337 229.86 338.977 228.6 338.977 227C338.977 225.68 338.417 224.7 337.297 224.06C336.217 223.42 334.577 222.92 332.377 222.56L329.137 222.02C326.097 221.5 323.657 220.6 321.817 219.32C320.017 218.04 319.117 215.92 319.117 212.96C319.117 211.16 319.637 209.56 320.677 208.16C321.757 206.72 323.237 205.6 325.117 204.8C327.037 204 329.197 203.6 331.597 203.6C333.837 203.6 335.897 204.02 337.777 204.86C339.657 205.66 341.177 206.76 342.337 208.16C343.537 209.52 344.277 211 344.557 212.6L338.977 213.8Z" fill="#452E66"/>
<path d="M364.328 230.72V236C363.448 236.08 361.948 236.12 359.828 236.12C356.868 236.12 354.748 235.64 353.468 234.68C352.228 233.72 351.608 231.88 351.608 229.16V208.94H346.388V204.32H351.608V195.38H357.728V204.32H364.688V208.94H357.728V227.54C357.728 228.94 357.988 229.84 358.508 230.24C359.028 230.64 359.968 230.84 361.328 230.84L364.328 230.72Z" fill="#452E66"/>
<path d="M393.58 231.74C397.82 231.74 400.58 229.48 401.86 224.96L408.04 225.86C407.28 228.7 405.72 231.22 403.36 233.42C401.04 235.62 397.78 236.72 393.58 236.72C390.62 236.72 388 236.04 385.72 234.68C383.48 233.28 381.74 231.34 380.5 228.86C379.26 226.34 378.64 223.44 378.64 220.16C378.64 216.88 379.26 214 380.5 211.52C381.74 209 383.48 207.06 385.72 205.7C388 204.3 390.64 203.6 393.64 203.6C397.64 203.6 400.72 204.58 402.88 206.54C405.08 208.46 406.58 210.5 407.38 212.66L401.62 214.52C401.1 213 400.22 211.64 398.98 210.44C397.78 209.2 396 208.58 393.64 208.58C390.96 208.58 388.82 209.62 387.22 211.7C385.66 213.74 384.88 216.56 384.88 220.16C384.88 223.72 385.66 226.54 387.22 228.62C388.82 230.7 390.94 231.74 393.58 231.74Z" fill="#452E66"/>
<path d="M439.976 226.76C439.096 229.52 437.496 231.88 435.176 233.84C432.856 235.76 429.576 236.72 425.336 236.72C422.416 236.72 419.816 236.04 417.536 234.68C415.296 233.28 413.556 231.34 412.316 228.86C411.076 226.34 410.456 223.46 410.456 220.22C410.456 216.94 411.056 214.04 412.256 211.52C413.496 209 415.216 207.06 417.416 205.7C419.656 204.3 422.276 203.6 425.276 203.6C428.196 203.6 430.776 204.26 433.016 205.58C435.296 206.86 437.056 208.72 438.296 211.16C439.576 213.56 440.216 216.42 440.216 219.74C440.216 220.58 440.196 221.22 440.156 221.66H416.636C416.716 224.62 417.536 227.04 419.096 228.92C420.696 230.8 422.776 231.74 425.336 231.74C427.776 231.74 429.656 231.18 430.976 230.06C432.296 228.9 433.236 227.56 433.796 226.04L439.976 226.76ZM425.276 208.58C422.796 208.58 420.816 209.4 419.336 211.04C417.896 212.64 417.036 214.62 416.756 216.98H433.976C433.696 214.58 432.816 212.58 431.336 210.98C429.856 209.38 427.836 208.58 425.276 208.58Z" fill="#452E66"/>
<path d="M450.347 208.52C451.507 206.84 452.927 205.6 454.607 204.8C456.287 204 458.147 203.6 460.187 203.6C462.187 203.6 464.027 204.02 465.707 204.86C467.427 205.66 468.807 206.92 469.847 208.64C470.887 210.32 471.407 212.44 471.407 215V236H465.287V216.86C465.287 213.94 464.707 211.86 463.547 210.62C462.387 209.38 460.627 208.76 458.267 208.76C456.907 208.76 455.627 209.14 454.427 209.9C453.227 210.66 452.247 211.78 451.487 213.26C450.767 214.74 450.407 216.52 450.407 218.6V236H444.287V204.32H450.107V208.52H450.347Z" fill="#452E66"/>
<path d="M491.886 230.72V236C491.006 236.08 489.506 236.12 487.386 236.12C484.426 236.12 482.306 235.64 481.026 234.68C479.786 233.72 479.166 231.88 479.166 229.16V208.94H473.946V204.32H479.166V195.38H485.286V204.32H492.246V208.94H485.286V227.54C485.286 228.94 485.546 229.84 486.066 230.24C486.586 230.64 487.526 230.84 488.886 230.84L491.886 230.72Z" fill="#452E66"/>
<path d="M516.792 231.8C514.552 235.08 511.272 236.72 506.952 236.72C503.792 236.72 501.132 235.76 498.972 233.84C496.812 231.92 495.732 229.08 495.732 225.32V204.32H501.852V223.46C501.852 226.38 502.432 228.46 503.592 229.7C504.752 230.94 506.512 231.56 508.872 231.56C510.272 231.56 511.552 231.18 512.712 230.42C513.912 229.66 514.872 228.54 515.592 227.06C516.352 225.58 516.732 223.8 516.732 221.72V204.32H522.852V236H517.032V231.8H516.792Z" fill="#452E66"/>
<path d="M533.486 209.12H533.726C534.566 207.52 535.806 206.2 537.446 205.16C539.086 204.12 540.986 203.6 543.146 203.6C544.146 203.6 545.086 203.7 545.966 203.9V209.78C544.846 209.62 543.806 209.54 542.846 209.54C540.086 209.54 537.886 210.32 536.246 211.88C534.606 213.4 533.786 215.84 533.786 219.2V236H527.666V204.32H533.486V209.12Z" fill="#452E66"/>
<path d="M566.543 236C565.303 239.28 564.083 241.76 562.883 243.44C561.683 245.16 560.443 246.3 559.163 246.86C557.883 247.46 556.363 247.76 554.603 247.76C552.923 247.76 551.683 247.7 550.883 247.58V242.18C551.003 242.18 551.283 242.22 551.723 242.3C552.203 242.42 552.883 242.48 553.763 242.48C555.363 242.48 556.563 242.08 557.363 241.28C558.163 240.48 559.043 238.98 560.003 236.78L560.483 235.58L547.763 204.32H554.363L563.303 228.32H563.543L571.943 204.32H578.543L566.543 236Z" fill="#452E66"/>
</g>
<defs>
<radialGradient id="paint0_angular_702:1562" cx="0" cy="0" r="1" gradientUnits="userSpaceOnUse" gradientTransform="translate(348.734 -62.7566) scale(677.625 1563.71)">
<stop stop-color="#EBB9F2"/>
<stop offset="0.541667" stop-color="#F6AAAA"/>
<stop offset="1" stop-color="#A566FF"/>
</radialGradient>
</defs>
</svg>
