<svg width="98" height="74" viewBox="0 0 98 74" fill="none" xmlns="http://www.w3.org/2000/svg">
<path d="M0.875 12.7209C0.875 5.81739 6.47144 0.220947 13.375 0.220947H85.375C92.2786 0.220947 97.875 5.81739 97.875 12.7209C97.875 19.6245 92.2786 25.2209 85.375 25.2209H13.375C6.47144 25.2209 0.875 19.6245 0.875 12.7209Z" fill="#D8F1A3"/>
<path d="M20.5542 11.5169V16.2209H19.3542V11.5169H17.5062V10.5089H22.4022V11.5169H20.5542ZM25.8937 14.1329H24.7337V16.2209H23.5337V10.5089H26.3177C26.9737 10.5089 27.483 10.6716 27.8457 10.9969C28.2083 11.3169 28.3897 11.7569 28.3897 12.3169C28.3897 12.7436 28.283 13.1036 28.0697 13.3969C27.8563 13.6903 27.5523 13.8983 27.1577 14.0209L28.5177 16.2209H27.1177L25.8937 14.1329ZM26.1337 13.1809C26.4697 13.1809 26.7257 13.1063 26.9017 12.9569C27.0777 12.8076 27.1657 12.5943 27.1657 12.3169C27.1657 12.0449 27.0777 11.8343 26.9017 11.6849C26.7257 11.5356 26.4697 11.4609 26.1337 11.4609H24.7337V13.1809H26.1337ZM30.8892 14.8609L30.4172 16.2209H29.1452L31.2812 10.5089H32.8572L34.9932 16.2209H33.6972L33.2252 14.8609H30.8892ZM32.0652 11.5329H32.0332L31.2012 13.9489H32.9132L32.0652 11.5329ZM40.8416 14.2689C40.7669 14.6369 40.6176 14.9809 40.3936 15.3009C40.1696 15.6156 39.8736 15.8689 39.5056 16.0609C39.1376 16.2529 38.7109 16.3489 38.2256 16.3489C37.6816 16.3489 37.1989 16.2289 36.7776 15.9889C36.3616 15.7489 36.0363 15.4049 35.8016 14.9569C35.5669 14.5036 35.4496 13.9703 35.4496 13.3569C35.4496 12.7489 35.5669 12.2209 35.8016 11.7729C36.0363 11.3196 36.3616 10.9756 36.7776 10.7409C37.1989 10.5009 37.6816 10.3809 38.2256 10.3809C38.6683 10.3809 39.0656 10.4636 39.4176 10.6289C39.7696 10.7943 40.0576 11.0103 40.2816 11.2769C40.5109 11.5383 40.6709 11.8209 40.7616 12.1249L39.5696 12.3089C39.4736 12.0263 39.3083 11.7969 39.0736 11.6209C38.8443 11.4396 38.5616 11.3489 38.2256 11.3489C37.7616 11.3489 37.3856 11.5223 37.0976 11.8689C36.8149 12.2103 36.6736 12.7063 36.6736 13.3569C36.6736 14.0183 36.8149 14.5223 37.0976 14.8689C37.3856 15.2103 37.7616 15.3809 38.2256 15.3809C38.6096 15.3809 38.9189 15.2663 39.1536 15.0369C39.3883 14.8023 39.5456 14.5009 39.6256 14.1329L40.8416 14.2689ZM46.0689 12.8289V13.7489H43.2449V15.2369H46.2049V16.2209H42.0449V10.5089H46.2049V11.4609H43.2449V12.8289H46.0689ZM48.8692 14.8609L48.3972 16.2209H47.1252L49.2612 10.5089H50.8372L52.9732 16.2209H51.6772L51.2052 14.8609H48.8692ZM50.0452 11.5329H50.0132L49.1812 13.9489H50.8932L50.0452 11.5329ZM56.7888 10.5089C57.3541 10.5089 57.7941 10.6503 58.1088 10.9329C58.4288 11.2103 58.5888 11.5836 58.5888 12.0529C58.5888 12.3143 58.5274 12.5409 58.4048 12.7329C58.2821 12.9196 58.1034 13.0663 57.8688 13.1729V13.2049C58.1568 13.3169 58.3808 13.4849 58.5408 13.7089C58.7008 13.9329 58.7808 14.2103 58.7808 14.5409C58.7808 15.0636 58.6154 15.4743 58.2848 15.7729C57.9541 16.0716 57.4928 16.2209 56.9008 16.2209H54.0368V10.5089H56.7888ZM56.5568 12.8689C56.8288 12.8689 57.0341 12.8076 57.1728 12.6849C57.3168 12.5569 57.3888 12.3809 57.3888 12.1569C57.3888 11.9276 57.3168 11.7516 57.1728 11.6289C57.0288 11.5009 56.8234 11.4369 56.5568 11.4369H55.2368V12.8689H56.5568ZM56.6608 15.2689C56.9541 15.2689 57.1754 15.2023 57.3248 15.0689C57.4794 14.9303 57.5568 14.7383 57.5568 14.4929C57.5568 14.2476 57.4794 14.0583 57.3248 13.9249C57.1754 13.7863 56.9541 13.7169 56.6608 13.7169H55.2368V15.2689H56.6608ZM59.9702 10.5089H61.1702V16.2209H59.9702V10.5089ZM62.638 10.5089H63.838V15.2129H66.846V16.2209H62.638V10.5089ZM68.0324 10.5089H69.2324V16.2209H68.0324V10.5089ZM73.4042 11.5169V16.2209H72.2042V11.5169H70.3562V10.5089H75.2522V11.5169H73.4042ZM79.2397 14.0369V16.2209H78.0397V14.0369L75.9837 10.5089H77.2957L78.6477 13.0049L80.0077 10.5089H81.2957L79.2397 14.0369Z" fill="#452E66"/>
<g opacity="0.8">
<path d="M4.445 45.0809C5.17167 45.0809 5.735 45.2643 6.135 45.6309C6.535 45.9976 6.735 46.5176 6.735 47.1909C6.735 47.8643 6.535 48.3843 6.135 48.7509C5.735 49.1176 5.17167 49.3009 4.445 49.3009H2.235V52.2209H1.535V45.0809H4.445ZM4.335 48.7009C4.88167 48.7009 5.29833 48.5776 5.585 48.3309C5.87167 48.0776 6.015 47.6976 6.015 47.1909C6.015 46.6843 5.87167 46.3076 5.585 46.0609C5.29833 45.8076 4.88167 45.6809 4.335 45.6809H2.235V48.7009H4.335ZM8.25711 47.9809H8.28711C8.42044 47.6276 8.64044 47.3543 8.94711 47.1609C9.26044 46.9609 9.62044 46.8609 10.0271 46.8609C10.1871 46.8609 10.3271 46.8743 10.4471 46.9009V47.5309C10.3071 47.5109 10.1538 47.5009 9.98711 47.5009C9.48044 47.5009 9.07044 47.6776 8.75711 48.0309C8.45044 48.3776 8.29711 48.8876 8.29711 49.5609V52.2209H7.63711V46.9809H8.25711V47.9809ZM13.2546 46.8609C13.7346 46.8609 14.1579 46.9743 14.5246 47.2009C14.8913 47.4209 15.1746 47.7376 15.3746 48.1509C15.5813 48.5643 15.6846 49.0476 15.6846 49.6009C15.6846 50.1543 15.5813 50.6376 15.3746 51.0509C15.1746 51.4643 14.8913 51.7843 14.5246 52.0109C14.1579 52.2309 13.7346 52.3409 13.2546 52.3409C12.7813 52.3409 12.3613 52.2309 11.9946 52.0109C11.6279 51.7843 11.3413 51.4643 11.1346 51.0509C10.9346 50.6376 10.8346 50.1543 10.8346 49.6009C10.8346 49.0476 10.9346 48.5643 11.1346 48.1509C11.3413 47.7376 11.6279 47.4209 11.9946 47.2009C12.3613 46.9743 12.7813 46.8609 13.2546 46.8609ZM13.2546 51.7809C13.7746 51.7809 14.1946 51.5876 14.5146 51.2009C14.8413 50.8076 15.0046 50.2743 15.0046 49.6009C15.0046 48.9276 14.8413 48.3943 14.5146 48.0009C14.1946 47.6076 13.7746 47.4109 13.2546 47.4109C12.7346 47.4109 12.3146 47.6076 11.9946 48.0009C11.6746 48.3943 11.5146 48.9276 11.5146 49.6009C11.5146 50.2743 11.6746 50.8076 11.9946 51.2009C12.3146 51.5876 12.7346 51.7809 13.2546 51.7809ZM16.261 53.6009C16.461 53.6009 16.5977 53.5509 16.671 53.4509C16.751 53.3576 16.791 53.1809 16.791 52.9209V46.9809H17.441V53.0209C17.441 53.4609 17.3543 53.7643 17.181 53.9309C17.0143 54.0976 16.7277 54.1809 16.321 54.1809C16.1543 54.1809 15.9643 54.1743 15.751 54.1609V53.5809C15.8977 53.5943 16.0677 53.6009 16.261 53.6009ZM17.471 44.9809V45.7909H16.761V44.9809H17.471ZM23.063 50.7609C22.9096 51.2076 22.6463 51.5843 22.273 51.8909C21.8996 52.1909 21.393 52.3409 20.753 52.3409C20.293 52.3409 19.8863 52.2309 19.533 52.0109C19.1796 51.7843 18.903 51.4643 18.703 51.0509C18.503 50.6309 18.403 50.1443 18.403 49.5909C18.403 49.0443 18.503 48.5643 18.703 48.1509C18.903 47.7376 19.1796 47.4209 19.533 47.2009C19.8863 46.9743 20.293 46.8609 20.753 46.8609C21.2196 46.8609 21.633 46.9776 21.993 47.2109C22.3596 47.4376 22.6396 47.7709 22.833 48.2109C23.033 48.6443 23.123 49.1609 23.103 49.7609H19.083C19.0963 50.3609 19.2563 50.8476 19.563 51.2209C19.8696 51.5943 20.2663 51.7809 20.753 51.7809C21.2063 51.7809 21.5663 51.6743 21.833 51.4609C22.0996 51.2409 22.2863 50.9776 22.393 50.6709L23.063 50.7609ZM20.753 47.4109C20.2796 47.4109 19.893 47.5843 19.593 47.9309C19.293 48.2709 19.1263 48.6976 19.093 49.2109H22.423C22.3896 48.6976 22.2196 48.2709 21.913 47.9309C21.613 47.5843 21.2263 47.4109 20.753 47.4109ZM26.2127 51.7809C26.986 51.7809 27.5227 51.3609 27.8227 50.5209L28.5027 50.6209C28.356 51.0809 28.096 51.4843 27.7227 51.8309C27.356 52.1709 26.8527 52.3409 26.2127 52.3409C25.746 52.3409 25.3327 52.2309 24.9727 52.0109C24.6127 51.7843 24.3327 51.4643 24.1327 51.0509C23.9327 50.6376 23.8327 50.1543 23.8327 49.6009C23.8327 49.0476 23.9327 48.5643 24.1327 48.1509C24.3393 47.7376 24.6227 47.4209 24.9827 47.2009C25.3493 46.9743 25.766 46.8609 26.2327 46.8609C26.8393 46.8609 27.3093 47.0109 27.6427 47.3109C27.9827 47.6109 28.226 47.9243 28.3727 48.2509L27.7427 48.4609C27.6027 48.1876 27.4227 47.9443 27.2027 47.7309C26.9893 47.5176 26.666 47.4109 26.2327 47.4109C25.7127 47.4109 25.296 47.6076 24.9827 48.0009C24.6693 48.3943 24.5127 48.9276 24.5127 49.6009C24.5127 50.2743 24.666 50.8076 24.9727 51.2009C25.286 51.5876 25.6993 51.7809 26.2127 51.7809ZM31.1266 51.6609C31.3532 51.6609 31.5399 51.6543 31.6866 51.6409V52.2209C31.4866 52.2343 31.2799 52.2409 31.0666 52.2409C30.7399 52.2409 30.4866 52.2076 30.3066 52.1409C30.1266 52.0676 29.9966 51.9476 29.9166 51.7809C29.8366 51.6143 29.7966 51.3809 29.7966 51.0809V47.5009H28.9066V46.9809H29.7966V45.4509H30.4466V46.9809H31.7166V47.5009H30.4466V50.9409C30.4466 51.2209 30.4932 51.4109 30.5866 51.5109C30.6799 51.6109 30.8599 51.6609 31.1266 51.6609ZM33.6285 47.3709V48.2909H32.7385V47.3709H33.6285ZM33.6285 51.3109V52.2209H32.7385V51.3109H33.6285ZM51.6964 50.9609V52.2209H45.9964V50.9609L49.7764 46.3409H46.2164V45.0809H51.7064V46.3409L47.9264 50.9609H51.6964ZM57.3116 50.6509C57.1849 51.1109 56.9116 51.5076 56.4916 51.8409C56.0716 52.1743 55.4816 52.3409 54.7216 52.3409C54.1816 52.3409 53.7116 52.2309 53.3116 52.0109C52.9116 51.7843 52.6049 51.4643 52.3916 51.0509C52.1782 50.6309 52.0716 50.1409 52.0716 49.5809C52.0716 49.0143 52.1749 48.5243 52.3816 48.1109C52.5949 47.6909 52.8982 47.3676 53.2916 47.1409C53.6916 46.9143 54.1649 46.8009 54.7116 46.8009C55.2382 46.8009 55.7016 46.9076 56.1016 47.1209C56.5016 47.3343 56.8116 47.6509 57.0316 48.0709C57.2516 48.4843 57.3616 48.9809 57.3616 49.5609C57.3616 49.6943 57.3582 49.7976 57.3516 49.8709H53.4916C53.5049 50.3176 53.6216 50.6776 53.8416 50.9509C54.0616 51.2176 54.3549 51.3509 54.7216 51.3509C55.0682 51.3509 55.3316 51.2709 55.5116 51.1109C55.6916 50.9443 55.8149 50.7509 55.8816 50.5309L57.3116 50.6509ZM54.7116 47.7809C54.3582 47.7809 54.0749 47.8943 53.8616 48.1209C53.6549 48.3476 53.5382 48.6309 53.5116 48.9709H55.9216C55.8949 48.6243 55.7749 48.3409 55.5616 48.1209C55.3549 47.8943 55.0716 47.7809 54.7116 47.7809ZM59.284 47.7409H59.324C59.4707 47.4543 59.6773 47.2276 59.944 47.0609C60.2173 46.8876 60.5407 46.8009 60.914 46.8009C61.0473 46.8009 61.1707 46.8176 61.284 46.8509V48.1509C61.244 48.1509 61.164 48.1443 61.044 48.1309C60.9307 48.1176 60.8273 48.1109 60.734 48.1109C59.8073 48.1109 59.344 48.5909 59.344 49.5509V52.2209H57.944V46.9309H59.284V47.7409ZM64.264 46.8009C64.8107 46.8009 65.2873 46.9143 65.694 47.1409C66.1007 47.3676 66.414 47.6909 66.634 48.1109C66.854 48.5309 66.964 49.0209 66.964 49.5809C66.964 50.1409 66.854 50.6309 66.634 51.0509C66.414 51.4643 66.1007 51.7843 65.694 52.0109C65.2873 52.2309 64.8107 52.3409 64.264 52.3409C63.7107 52.3409 63.2273 52.2309 62.814 52.0109C62.4073 51.7843 62.094 51.4643 61.874 51.0509C61.6607 50.6309 61.554 50.1409 61.554 49.5809C61.554 49.0143 61.6607 48.5243 61.874 48.1109C62.094 47.6909 62.4073 47.3676 62.814 47.1409C63.2273 46.9143 63.7107 46.8009 64.264 46.8009ZM64.264 51.2909C64.6573 51.2909 64.9673 51.1443 65.194 50.8509C65.4207 50.5576 65.534 50.1343 65.534 49.5809C65.534 49.0209 65.4207 48.5943 65.194 48.3009C64.9673 48.0009 64.6573 47.8509 64.264 47.8509C63.864 47.8509 63.5473 48.0009 63.314 48.3009C63.0873 48.5943 62.974 49.0209 62.974 49.5809C62.974 50.1343 63.0873 50.5576 63.314 50.8509C63.5473 51.1443 63.864 51.2909 64.264 51.2909Z" fill="white"/>
<path d="M7.485 68.0209C7.385 68.4276 7.20833 68.8109 6.955 69.1709C6.70167 69.5243 6.36833 69.8109 5.955 70.0309C5.54833 70.2509 5.07833 70.3609 4.545 70.3609C3.925 70.3609 3.37167 70.2109 2.885 69.9109C2.39833 69.6109 2.01833 69.1809 1.745 68.6209C1.47167 68.0609 1.335 67.4009 1.335 66.6409C1.335 65.8876 1.47167 65.2309 1.745 64.6709C2.01833 64.1109 2.39833 63.6843 2.885 63.3909C3.37167 63.0909 3.925 62.9409 4.545 62.9409C5.085 62.9409 5.54833 63.0476 5.935 63.2609C6.32833 63.4676 6.635 63.7109 6.855 63.9909C7.08167 64.2709 7.24833 64.5409 7.355 64.8009L6.655 64.9609C6.48833 64.5676 6.225 64.2343 5.865 63.9609C5.505 63.6809 5.065 63.5409 4.545 63.5409C4.05167 63.5409 3.61833 63.6643 3.245 63.9109C2.87167 64.1576 2.57833 64.5143 2.365 64.9809C2.15833 65.4476 2.055 66.0009 2.055 66.6409C2.055 67.2876 2.15833 67.8476 2.365 68.3209C2.57833 68.7876 2.87167 69.1443 3.245 69.3909C3.61833 69.6376 4.05167 69.7609 4.545 69.7609C5.11833 69.7609 5.59833 69.5876 5.985 69.2409C6.37167 68.8876 6.635 68.4443 6.775 67.9109L7.485 68.0209ZM10.6472 64.8609C11.1272 64.8609 11.5505 64.9743 11.9172 65.2009C12.2839 65.4209 12.5672 65.7376 12.7672 66.1509C12.9739 66.5643 13.0772 67.0476 13.0772 67.6009C13.0772 68.1543 12.9739 68.6376 12.7672 69.0509C12.5672 69.4643 12.2839 69.7843 11.9172 70.0109C11.5505 70.2309 11.1272 70.3409 10.6472 70.3409C10.1739 70.3409 9.75385 70.2309 9.38719 70.0109C9.02052 69.7843 8.73385 69.4643 8.52719 69.0509C8.32719 68.6376 8.22719 68.1543 8.22719 67.6009C8.22719 67.0476 8.32719 66.5643 8.52719 66.1509C8.73385 65.7376 9.02052 65.4209 9.38719 65.2009C9.75385 64.9743 10.1739 64.8609 10.6472 64.8609ZM10.6472 69.7809C11.1672 69.7809 11.5872 69.5876 11.9072 69.2009C12.2339 68.8076 12.3972 68.2743 12.3972 67.6009C12.3972 66.9276 12.2339 66.3943 11.9072 66.0009C11.5872 65.6076 11.1672 65.4109 10.6472 65.4109C10.1272 65.4109 9.70719 65.6076 9.38719 66.0009C9.06719 66.3943 8.90719 66.9276 8.90719 67.6009C8.90719 68.2743 9.06719 68.8076 9.38719 69.2009C9.70719 69.5876 10.1272 69.7809 10.6472 69.7809ZM17.5936 69.4209C17.4536 69.6809 17.2303 69.9009 16.9236 70.0809C16.6236 70.2543 16.2803 70.3409 15.8936 70.3409C15.3336 70.3409 14.8836 70.1809 14.5436 69.8609C14.2036 69.5409 14.0336 69.0843 14.0336 68.4909V64.9809H14.6936V68.2209C14.6936 68.7609 14.7969 69.1576 15.0036 69.4109C15.2169 69.6576 15.5536 69.7809 16.0136 69.7809C16.4536 69.7809 16.8236 69.6276 17.1236 69.3209C17.4303 69.0143 17.5836 68.5476 17.5836 67.9209V64.9809H18.2336V70.2209H17.6136V69.4209H17.5936ZM20.0449 65.7809C20.1783 65.5209 20.3983 65.3043 20.7049 65.1309C21.0116 64.9509 21.3549 64.8609 21.7349 64.8609C22.2949 64.8609 22.7449 65.0209 23.0849 65.3409C23.4249 65.6609 23.5949 66.1143 23.5949 66.7009V70.2209H22.9449V66.9809C22.9449 66.4409 22.8383 66.0476 22.6249 65.8009C22.4183 65.5476 22.0816 65.4209 21.6149 65.4209C21.1749 65.4209 20.8049 65.5743 20.5049 65.8809C20.2049 66.1809 20.0549 66.6443 20.0549 67.2709V70.2209H19.3949V64.9809H20.0149V65.7809H20.0449ZM26.4781 69.6609C26.7048 69.6609 26.8915 69.6543 27.0381 69.6409V70.2209C26.8381 70.2343 26.6315 70.2409 26.4181 70.2409C26.0915 70.2409 25.8381 70.2076 25.6581 70.1409C25.4781 70.0676 25.3481 69.9476 25.2681 69.7809C25.1881 69.6143 25.1481 69.3809 25.1481 69.0809V65.5009H24.2581V64.9809H25.1481V63.4509H25.7981V64.9809H27.0681V65.5009H25.7981V68.9409C25.7981 69.2209 25.8448 69.4109 25.9381 69.5109C26.0315 69.6109 26.2115 69.6609 26.4781 69.6609ZM28.5501 65.9809H28.5801C28.7134 65.6276 28.9334 65.3543 29.2401 65.1609C29.5534 64.9609 29.9134 64.8609 30.3201 64.8609C30.4801 64.8609 30.6201 64.8743 30.7401 64.9009V65.5309C30.6001 65.5109 30.4467 65.5009 30.2801 65.5009C29.7734 65.5009 29.3634 65.6776 29.0501 66.0309C28.7434 66.3776 28.5901 66.8876 28.5901 67.5609V70.2209H27.9301V64.9809H28.5501V65.9809ZM33.8208 70.2209C33.5941 70.7876 33.3841 71.2109 33.1908 71.4909C33.0041 71.7776 32.8208 71.9643 32.6408 72.0509C32.4674 72.1376 32.2641 72.1809 32.0308 72.1809C31.8774 72.1809 31.7574 72.1709 31.6708 72.1509C31.5841 72.1376 31.5341 72.1309 31.5208 72.1309V71.5509C31.5341 71.5509 31.5774 71.5576 31.6508 71.5709C31.7241 71.5909 31.8174 71.6009 31.9308 71.6009C32.0974 71.6009 32.2374 71.5743 32.3508 71.5209C32.4708 71.4676 32.5874 71.3609 32.7008 71.2009C32.8141 71.0409 32.9341 70.8009 33.0608 70.4809L33.1808 70.1809L31.0508 64.9809H31.7908L33.4908 69.3909H33.5208L35.1808 64.9809H35.9008L33.8208 70.2209ZM37.6324 65.3709V66.2909H36.7424V65.3709H37.6324ZM37.6324 69.3109V70.2209H36.7424V69.3109H37.6324ZM50.0874 70.2209V69.3809C49.5741 70.0476 48.8408 70.3809 47.8874 70.3809C47.2008 70.3809 46.5908 70.2276 46.0574 69.9209C45.5308 69.6143 45.1174 69.1809 44.8174 68.6209C44.5174 68.0543 44.3674 67.3943 44.3674 66.6409C44.3674 65.8876 44.5141 65.2309 44.8074 64.6709C45.1074 64.1109 45.5241 63.6809 46.0574 63.3809C46.5908 63.0743 47.2008 62.9209 47.8874 62.9209C48.6808 62.9209 49.3608 63.1209 49.9274 63.5209C50.5008 63.9209 50.9008 64.4609 51.1274 65.1409L49.6174 65.3209C49.4641 64.9409 49.2408 64.6476 48.9474 64.4409C48.6541 64.2343 48.3008 64.1309 47.8874 64.1309C47.2874 64.1309 46.8041 64.3476 46.4374 64.7809C46.0774 65.2143 45.8974 65.8343 45.8974 66.6409C45.8974 67.4609 46.0774 68.0876 46.4374 68.5209C46.7974 68.9543 47.2808 69.1709 47.8874 69.1709C48.3874 69.1709 48.8041 69.0243 49.1374 68.7309C49.4774 68.4376 49.6874 68.0609 49.7674 67.6009H48.0074V66.4709H51.1574V70.2209H50.0874ZM53.2895 62.9809V70.2209H51.8895V62.9809H53.2895ZM56.5687 64.8009C57.1153 64.8009 57.592 64.9143 57.9987 65.1409C58.4053 65.3676 58.7187 65.6909 58.9387 66.1109C59.1587 66.5309 59.2687 67.0209 59.2687 67.5809C59.2687 68.1409 59.1587 68.6309 58.9387 69.0509C58.7187 69.4643 58.4053 69.7843 57.9987 70.0109C57.592 70.2309 57.1153 70.3409 56.5687 70.3409C56.0153 70.3409 55.532 70.2309 55.1187 70.0109C54.712 69.7843 54.3987 69.4643 54.1787 69.0509C53.9653 68.6309 53.8587 68.1409 53.8587 67.5809C53.8587 67.0143 53.9653 66.5243 54.1787 66.1109C54.3987 65.6909 54.712 65.3676 55.1187 65.1409C55.532 64.9143 56.0153 64.8009 56.5687 64.8009ZM56.5687 69.2909C56.962 69.2909 57.272 69.1443 57.4987 68.8509C57.7253 68.5576 57.8387 68.1343 57.8387 67.5809C57.8387 67.0209 57.7253 66.5943 57.4987 66.3009C57.272 66.0009 56.962 65.8509 56.5687 65.8509C56.1687 65.8509 55.852 66.0009 55.6187 66.3009C55.392 66.5943 55.2787 67.0209 55.2787 67.5809C55.2787 68.1343 55.392 68.5576 55.6187 68.8509C55.852 69.1443 56.1687 69.2909 56.5687 69.2909ZM62.8585 64.8009C63.2985 64.8009 63.6918 64.9143 64.0385 65.1409C64.3918 65.3676 64.6685 65.6943 64.8685 66.1209C65.0685 66.5409 65.1685 67.0276 65.1685 67.5809C65.1685 68.1343 65.0685 68.6209 64.8685 69.0409C64.6685 69.4543 64.3918 69.7743 64.0385 70.0009C63.6852 70.2276 63.2852 70.3409 62.8385 70.3409C62.4718 70.3409 62.1452 70.2743 61.8585 70.1409C61.5785 70.0076 61.3652 69.8043 61.2185 69.5309H61.1785V70.2209H59.8385V62.9809H61.2385V65.5409H61.2785C61.4252 65.3076 61.6352 65.1276 61.9085 65.0009C62.1818 64.8676 62.4985 64.8009 62.8585 64.8009ZM62.4485 69.2709C62.8485 69.2709 63.1618 69.1276 63.3885 68.8409C63.6218 68.5476 63.7385 68.1276 63.7385 67.5809C63.7385 67.0276 63.6218 66.6043 63.3885 66.3109C63.1618 66.0176 62.8485 65.8709 62.4485 65.8709C62.0485 65.8709 61.7318 66.0209 61.4985 66.3209C61.2718 66.6143 61.1585 67.0343 61.1585 67.5809C61.1585 68.1276 61.2718 68.5476 61.4985 68.8409C61.7318 69.1276 62.0485 69.2709 62.4485 69.2709ZM69.2367 70.2209C69.1901 70.1676 69.1534 70.0776 69.1267 69.9509C69.1001 69.8176 69.0867 69.6609 69.0867 69.4809C68.9401 69.7543 68.7034 69.9676 68.3767 70.1209C68.0567 70.2676 67.7101 70.3409 67.3367 70.3409C67.0234 70.3409 66.7301 70.2776 66.4567 70.1509C66.1901 70.0243 65.9734 69.8443 65.8067 69.6109C65.6467 69.3709 65.5667 69.0909 65.5667 68.7709C65.5667 68.2309 65.7501 67.8309 66.1167 67.5709C66.4834 67.3109 67.0334 67.1376 67.7667 67.0509C68.2734 66.9843 68.6167 66.9109 68.7967 66.8309C68.9834 66.7443 69.0767 66.6176 69.0767 66.4509C69.0767 66.2509 69.0001 66.0943 68.8467 65.9809C68.6934 65.8609 68.4634 65.8009 68.1567 65.8009C67.9034 65.8009 67.6767 65.8676 67.4767 66.0009C67.2834 66.1343 67.1467 66.3309 67.0667 66.5909L65.7767 66.3909C65.8901 65.8976 66.1634 65.5109 66.5967 65.2309C67.0301 64.9443 67.5601 64.8009 68.1867 64.8009C68.9534 64.8009 69.5267 64.9543 69.9067 65.2609C70.2867 65.5676 70.4767 65.9843 70.4767 66.5109V69.1609C70.4767 69.4676 70.4834 69.6976 70.4967 69.8509C70.5167 69.9976 70.5567 70.1209 70.6167 70.2209H69.2367ZM69.0767 67.6109C68.9967 67.6776 68.8601 67.7343 68.6667 67.7809C68.4801 67.8209 68.2334 67.8609 67.9267 67.9009C67.6467 67.9476 67.4201 68.0376 67.2467 68.1709C67.0801 68.2976 66.9967 68.4776 66.9967 68.7109C66.9967 68.9243 67.0634 69.0909 67.1967 69.2109C67.3367 69.3243 67.5267 69.3809 67.7667 69.3809C67.9734 69.3809 68.1767 69.3376 68.3767 69.2509C68.5767 69.1643 68.7434 69.0309 68.8767 68.8509C69.0101 68.6643 69.0767 68.4343 69.0767 68.1609V67.6109ZM72.5669 62.9809V70.2209H71.1669V62.9809H72.5669Z" fill="white"/>
</g>
</svg>
