<svg id="Layer_1" data-name="Layer 1" xmlns="http://www.w3.org/2000/svg" xmlns:xlink="http://www.w3.org/1999/xlink" viewBox="0 0 449 252"><defs><style>.cls-1{fill-rule:evenodd;fill:url(#radial-gradient);}.cls-2{fill:#452e66;}</style><radialGradient id="radial-gradient" cx="-73.11" cy="547.08" r="1" gradientTransform="matrix(-677.63, 0, 0, 1563.71, -49145.95, -855532.13)" gradientUnits="userSpaceOnUse"><stop offset="0" stop-color="#ebb9f2"/><stop offset="0.54" stop-color="#f6aaaa"/><stop offset="1" stop-color="#a566ff"/></radialGradient></defs><path class="cls-1" d="M12,252A12,12,0,0,1,0,240V12A12,12,0,0,1,12,0H349a12,12,0,0,1,12,12V75a12,12,0,0,0,12,12h64a12,12,0,0,1,12,12v67a12,12,0,0,1-12,12H227a12,12,0,0,0-12,12v50a12,12,0,0,1-12,12Z" transform="translate(0 0)"/><path class="cls-2" d="M36,39.65a6.06,6.06,0,0,0-2.48-3.74,7.33,7.33,0,0,0-4.34-1.32A7,7,0,0,0,25,35.69a3.61,3.61,0,0,0-1.54,3.13,2.62,2.62,0,0,0,1.38,2.48,14.8,14.8,0,0,0,4.29,1.26L32,43a17.61,17.61,0,0,1,7.15,2.64q2.58,1.77,2.58,5.94a7.63,7.63,0,0,1-3.46,6.71,15.23,15.23,0,0,1-8.86,2.37,14.62,14.62,0,0,1-8.8-2.48,10.34,10.34,0,0,1-4.18-6.6l5.12-1.1A7.2,7.2,0,0,0,24.25,55a9.08,9.08,0,0,0,5.28,1.43,8.12,8.12,0,0,0,4.68-1.21A4,4,0,0,0,36,51.75a2.92,2.92,0,0,0-1.54-2.7,13.64,13.64,0,0,0-4.51-1.37l-3-.5a16.46,16.46,0,0,1-6.71-2.47c-1.65-1.17-2.48-3.12-2.48-5.83a7.2,7.2,0,0,1,1.43-4.4,9.69,9.69,0,0,1,4.07-3.08,15.37,15.37,0,0,1,5.94-1.1,13.78,13.78,0,0,1,5.67,1.15,11,11,0,0,1,4.18,3,8.27,8.27,0,0,1,2,4.07Z" transform="translate(0 0)"/><path class="cls-2" d="M64.63,56.15a10.22,10.22,0,0,1-9,4.51A10.61,10.61,0,0,1,48.3,58q-3-2.64-3-7.81V31h5.61V48.5q0,4,1.59,5.72a6.33,6.33,0,0,0,4.84,1.71,6.24,6.24,0,0,0,3.52-1,7.26,7.26,0,0,0,2.64-3.08,10.51,10.51,0,0,0,1-4.89V31h5.61V60H64.85V56.15Z" transform="translate(0 0)"/><path class="cls-2" d="M92.25,39.65a6,6,0,0,0-2.47-3.74,7.37,7.37,0,0,0-4.35-1.32,7,7,0,0,0-4.12,1.1,3.61,3.61,0,0,0-1.54,3.13,2.63,2.63,0,0,0,1.37,2.48,15,15,0,0,0,4.29,1.26l2.86.44a17.55,17.55,0,0,1,7.15,2.64Q98,47.41,98,51.58a7.64,7.64,0,0,1-3.47,6.71,15.17,15.17,0,0,1-8.85,2.37,14.62,14.62,0,0,1-8.8-2.48,10.34,10.34,0,0,1-4.18-6.6l5.11-1.1A7.21,7.21,0,0,0,80.54,55a9.08,9.08,0,0,0,5.28,1.43,8.07,8.07,0,0,0,4.67-1.21,4,4,0,0,0,1.76-3.46,2.9,2.9,0,0,0-1.54-2.7,13.57,13.57,0,0,0-4.51-1.37l-3-.5a16.58,16.58,0,0,1-6.71-2.47c-1.65-1.17-2.47-3.12-2.47-5.83a7.2,7.2,0,0,1,1.43-4.4,9.69,9.69,0,0,1,4.07-3.08,15.37,15.37,0,0,1,5.94-1.1,13.7,13.7,0,0,1,5.66,1.15,10.84,10.84,0,0,1,4.18,3,8.28,8.28,0,0,1,2,4.07Z" transform="translate(0 0)"/><path class="cls-2" d="M115.49,55.16V60c-.8.07-2.18.11-4.12.11q-4.08,0-5.83-1.32t-1.71-5.06V35.19H99.05V31h4.78v-8.2h5.61V31h6.38v4.23h-6.38V52.24c0,1.29.24,2.11.72,2.48a4.4,4.4,0,0,0,2.58.55Z" transform="translate(0 0)"/><path class="cls-2" d="M138.16,60a3.17,3.17,0,0,1-.66-1.43,11.61,11.61,0,0,1-.22-2.42,8.22,8.22,0,0,1-4.13,3.41,15.16,15.16,0,0,1-5.66,1.1,11,11,0,0,1-4.79-1,9.17,9.17,0,0,1-3.52-3A8.42,8.42,0,0,1,117.92,52c0-3,1-5.15,3.08-6.55s5.15-2.36,9.29-2.8a16.15,16.15,0,0,0,5.45-1.16,2.38,2.38,0,0,0,1.48-2.2q0-4.34-6.1-4.34a7.65,7.65,0,0,0-4.29,1.26,6.43,6.43,0,0,0-2.7,3.63L119,38.6a9.76,9.76,0,0,1,4.29-6.05,14.06,14.06,0,0,1,8-2.25q5.94,0,8.69,2.47a8,8,0,0,1,2.8,6.38V53.73c0,1.83,0,3.19.11,4.07a6.46,6.46,0,0,0,.66,2.2Zm-.94-15a5.13,5.13,0,0,1-2.58,1.1c-1.29.26-2.93.51-4.95.77a9.4,9.4,0,0,0-4.35,1.59,4,4,0,0,0-1.7,3.47A3.92,3.92,0,0,0,125,55.16a5.68,5.68,0,0,0,3.63,1,11,11,0,0,0,4.07-.77,7.55,7.55,0,0,0,3.24-2.53,7,7,0,0,0,1.32-4.34Z" transform="translate(0 0)"/><path class="cls-2" d="M152.94,31V60h-5.61V31Zm0-10.78v6.1h-5.61v-6.1Z" transform="translate(0 0)"/><path class="cls-2" d="M163.24,34.81a9.92,9.92,0,0,1,3.91-3.41,11.8,11.8,0,0,1,5.11-1.1,11.1,11.1,0,0,1,5.06,1.15,8.64,8.64,0,0,1,3.8,3.47,10.92,10.92,0,0,1,1.43,5.83V60h-5.61V42.45q0-4-1.59-5.72a6.36,6.36,0,0,0-4.84-1.7,6.51,6.51,0,0,0-3.52,1,7.72,7.72,0,0,0-2.7,3.08,11.12,11.12,0,0,0-1,4.9V60h-5.61V31H163v3.85Z" transform="translate(0 0)"/><path class="cls-2" d="M206.1,60a3.4,3.4,0,0,1-.66-1.43,12.33,12.33,0,0,1-.22-2.42,8.2,8.2,0,0,1-4.12,3.41,15.21,15.21,0,0,1-5.67,1.1,10.93,10.93,0,0,1-4.78-1,9.09,9.09,0,0,1-3.52-3A8.34,8.34,0,0,1,185.86,52q0-4.45,3.08-6.55c2.06-1.43,5.15-2.36,9.3-2.8a16.14,16.14,0,0,0,5.44-1.16,2.39,2.39,0,0,0,1.49-2.2q0-4.34-6.11-4.34a7.7,7.7,0,0,0-4.29,1.26,6.41,6.41,0,0,0-2.69,3.63L187,38.6a9.84,9.84,0,0,1,4.29-6.05,14.1,14.1,0,0,1,8-2.25q5.94,0,8.69,2.47a8,8,0,0,1,2.81,6.38V53.73c0,1.83,0,3.19.11,4.07a6.46,6.46,0,0,0,.66,2.2Zm-.93-15a5.22,5.22,0,0,1-2.59,1.1c-1.28.26-2.93.51-5,.77a9.36,9.36,0,0,0-4.34,1.59A4,4,0,0,0,191.58,52a3.92,3.92,0,0,0,1.32,3.19,5.68,5.68,0,0,0,3.63,1,11,11,0,0,0,4.07-.77,7.64,7.64,0,0,0,3.25-2.53,7,7,0,0,0,1.32-4.34Z" transform="translate(0 0)"/><path class="cls-2" d="M229.74,30.3a12.44,12.44,0,0,1,11.49,7.26,17.43,17.43,0,0,1,1.71,7.92,17.77,17.77,0,0,1-1.71,8,12.74,12.74,0,0,1-4.67,5.34,13.48,13.48,0,0,1-12.32.71,8.11,8.11,0,0,1-3.52-3.24h-.22V60h-5.34V20.18h5.61V34.37H221a8.33,8.33,0,0,1,3.47-3A12.19,12.19,0,0,1,229.74,30.3Zm-1,25.79a7.49,7.49,0,0,0,6.16-2.8,12.09,12.09,0,0,0,2.31-7.81q0-4.95-2.31-7.76a8,8,0,0,0-12.27,0,12.24,12.24,0,0,0-2.25,7.76,12.19,12.19,0,0,0,2.25,7.75A7.46,7.46,0,0,0,228.75,56.09Z" transform="translate(0 0)"/><path class="cls-2" d="M252.41,31V60H246.8V31Zm0-10.78v6.1H246.8v-6.1Z" transform="translate(0 0)"/><path class="cls-2" d="M262.88,20.18V60h-5.61V20.18Z" transform="translate(0 0)"/><path class="cls-2" d="M273.36,31V60h-5.61V31Zm0-10.78v6.1h-5.61v-6.1Z" transform="translate(0 0)"/><path class="cls-2" d="M292.68,55.16V60c-.8.07-2.18.11-4.12.11-2.71,0-4.66-.44-5.83-1.32S281,56.22,281,53.73V35.19h-4.78V31H281v-8.2h5.62V31H293v4.23h-6.38V52.24c0,1.29.23,2.11.71,2.48a4.4,4.4,0,0,0,2.58.55Z" transform="translate(0 0)"/><path class="cls-2" d="M311.12,60a31,31,0,0,1-3.36,6.82A8.61,8.61,0,0,1,304.35,70a9.77,9.77,0,0,1-4.18.83,25.09,25.09,0,0,1-3.41-.17v-5a6.55,6.55,0,0,1,.77.11,8.08,8.08,0,0,0,1.87.17,4.49,4.49,0,0,0,3.3-1.1,14.21,14.21,0,0,0,2.42-4.13l.44-1.1L293.9,31H300l8.2,22h.22l7.7-22h6.05Z" transform="translate(0 0)"/><path class="cls-2" d="M325,41.74h16.61v5.11H325Z" transform="translate(0 0)"/><path class="cls-2" d="M30.19,102.25a4.18,4.18,0,0,0-2.47.66,3.15,3.15,0,0,0-.88,2.64V109h6.38v4.23H26.84V138H21.23V113.19H16.44V109h4.79v-4q0-7.48,8.14-7.48a25,25,0,0,1,4.51.38v4.57A29.28,29.28,0,0,0,30.19,102.25Z" transform="translate(0 0)"/><path class="cls-2" d="M48.11,108.3a14.09,14.09,0,0,1,7.42,1.92,12.38,12.38,0,0,1,4.9,5.34,17.06,17.06,0,0,1,1.76,7.92,17.43,17.43,0,0,1-1.76,8,12.75,12.75,0,0,1-4.9,5.33,14.35,14.35,0,0,1-7.42,1.87,14.39,14.39,0,0,1-7.43-1.87,13.2,13.2,0,0,1-5-5.33,17.94,17.94,0,0,1-1.7-8,17.56,17.56,0,0,1,1.7-7.92,12.8,12.8,0,0,1,5-5.34A14.13,14.13,0,0,1,48.11,108.3Zm0,25.8a7.28,7.28,0,0,0,6-2.81,12.32,12.32,0,0,0,2.25-7.81c0-3.3-.75-5.88-2.25-7.76a7.24,7.24,0,0,0-6-2.86A7.4,7.4,0,0,0,42,115.72c-1.5,1.88-2.25,4.46-2.25,7.76A12.32,12.32,0,0,0,42,131.29,7.44,7.44,0,0,0,48.11,134.1Z" transform="translate(0 0)"/><path class="cls-2" d="M78.77,134.1q5.82,0,7.59-6.22l5.66.83a14.37,14.37,0,0,1-4.29,6.92q-3.18,3-9,3a13.76,13.76,0,0,1-7.21-1.87,13,13,0,0,1-4.78-5.33,17.81,17.81,0,0,1-1.71-8,17.43,17.43,0,0,1,1.71-7.92,12.55,12.55,0,0,1,4.78-5.34,13.62,13.62,0,0,1,7.26-1.92q5.5,0,8.47,2.7a14,14,0,0,1,4.13,5.61l-5.28,1.7a9.53,9.53,0,0,0-2.42-3.74,6.5,6.5,0,0,0-4.9-1.71,7.06,7.06,0,0,0-5.88,2.86c-1.43,1.88-2.15,4.46-2.15,7.76a12.67,12.67,0,0,0,2.15,7.76A7,7,0,0,0,78.77,134.1Z" transform="translate(0 0)"/><path class="cls-2" d="M114.42,134.15a10.22,10.22,0,0,1-9,4.51A10.59,10.59,0,0,1,98.09,136q-3-2.64-3-7.81V109h5.61V126.5q0,4,1.59,5.73a6.36,6.36,0,0,0,4.84,1.7,6.27,6.27,0,0,0,3.52-1.05,7.26,7.26,0,0,0,2.64-3.08,10.51,10.51,0,0,0,1.05-4.89V109H120v29h-5.34v-3.85Z" transform="translate(0 0)"/><path class="cls-2" d="M142,117.65a6,6,0,0,0-2.47-3.74,7.33,7.33,0,0,0-4.34-1.32,7,7,0,0,0-4.13,1.1,3.61,3.61,0,0,0-1.54,3.13,2.63,2.63,0,0,0,1.37,2.48,14.94,14.94,0,0,0,4.3,1.27l2.86.43a17.81,17.81,0,0,1,7.15,2.64q2.58,1.77,2.58,6a7.64,7.64,0,0,1-3.47,6.7,15.17,15.17,0,0,1-8.85,2.37,14.55,14.55,0,0,1-8.8-2.48,10.34,10.34,0,0,1-4.18-6.59l5.12-1.1a7.13,7.13,0,0,0,2.69,4.5,9.08,9.08,0,0,0,5.28,1.44,8.12,8.12,0,0,0,4.68-1.22,4,4,0,0,0,1.75-3.46,2.89,2.89,0,0,0-1.53-2.69,13.45,13.45,0,0,0-4.52-1.38l-3-.5a16.47,16.47,0,0,1-6.7-2.47c-1.65-1.17-2.48-3.12-2.48-5.83a7.2,7.2,0,0,1,1.43-4.4,9.69,9.69,0,0,1,4.07-3.08,15.37,15.37,0,0,1,5.94-1.1,13.63,13.63,0,0,1,5.67,1.16,10.76,10.76,0,0,1,4.17,3,8.2,8.2,0,0,1,2,4.07Z" transform="translate(0 0)"/><path class="cls-2" d="M177.59,129.53a14,14,0,0,1-4.4,6.49q-3.19,2.64-9,2.64a13.65,13.65,0,0,1-7.15-1.87,13,13,0,0,1-4.79-5.33,17.7,17.7,0,0,1-1.7-7.92,18.35,18.35,0,0,1,1.65-8,12.64,12.64,0,0,1,4.73-5.34,13.31,13.31,0,0,1,7.2-1.92,13.74,13.74,0,0,1,7.1,1.81,11.93,11.93,0,0,1,4.84,5.12,16.54,16.54,0,0,1,1.76,7.87c0,.76,0,1.35-.06,1.76H156.19a10.51,10.51,0,0,0,2.26,6.65,7.16,7.16,0,0,0,5.72,2.59,7.77,7.77,0,0,0,5.17-1.55,9,9,0,0,0,2.58-3.68Zm-13.48-16.67a7,7,0,0,0-5.44,2.26,9.64,9.64,0,0,0-2.37,5.45h15.79a9.5,9.5,0,0,0-2.42-5.5A7.2,7.2,0,0,0,164.11,112.86Z" transform="translate(0 0)"/><path class="cls-2" d="M193.86,108.3a11.79,11.79,0,0,1,5.22,1.1,8.24,8.24,0,0,1,3.52,3h.22V98.18h5.61V138H203.1v-3.74h-.22a8.13,8.13,0,0,1-3.58,3.25,12.36,12.36,0,0,1-5.44,1.15,12.79,12.79,0,0,1-6.88-1.87,13.27,13.27,0,0,1-4.67-5.33,18.35,18.35,0,0,1-1.65-8,18,18,0,0,1,1.65-7.92,12.85,12.85,0,0,1,4.67-5.34A12.57,12.57,0,0,1,193.86,108.3Zm.93,25.8a7.42,7.42,0,0,0,6.11-2.81,12.32,12.32,0,0,0,2.25-7.81c0-3.3-.75-5.88-2.25-7.76a7.38,7.38,0,0,0-6.11-2.86,7.54,7.54,0,0,0-6.16,2.86c-1.5,1.88-2.25,4.46-2.25,7.76a12.32,12.32,0,0,0,2.25,7.81A7.59,7.59,0,0,0,194.79,134.1Z" transform="translate(0 0)"/><path class="cls-2" d="M237.9,108.3a12.28,12.28,0,0,1,6.82,1.92,12.41,12.41,0,0,1,4.68,5.34,17.56,17.56,0,0,1,1.7,7.92,17.94,17.94,0,0,1-1.7,8,12.79,12.79,0,0,1-4.68,5.33,12.49,12.49,0,0,1-6.82,1.87,12.76,12.76,0,0,1-5.5-1.15,8.19,8.19,0,0,1-3.52-3.25h-.22V138h-5.34V98.18h5.61v14.19h.22a8.39,8.39,0,0,1,3.47-3A12.19,12.19,0,0,1,237.9,108.3Zm-1,25.8a7.48,7.48,0,0,0,6.16-2.81,12.09,12.09,0,0,0,2.31-7.81c0-3.3-.77-5.88-2.31-7.76a8,8,0,0,0-12.27,0,12.24,12.24,0,0,0-2.25,7.76,12.24,12.24,0,0,0,2.25,7.76A7.5,7.5,0,0,0,236.91,134.1Z" transform="translate(0 0)"/><path class="cls-2" d="M274.16,134.15a10.22,10.22,0,0,1-9,4.51,10.62,10.62,0,0,1-7.32-2.64q-3-2.64-3-7.81V109h5.61V126.5q0,4,1.6,5.73a6.33,6.33,0,0,0,4.84,1.7,6.27,6.27,0,0,0,3.52-1.05,7.26,7.26,0,0,0,2.64-3.08,10.51,10.51,0,0,0,1-4.89V109h5.61v29h-5.33v-3.85Z" transform="translate(0 0)"/><path class="cls-2" d="M301.78,117.65a6,6,0,0,0-2.47-3.74,7.37,7.37,0,0,0-4.35-1.32,7,7,0,0,0-4.12,1.1,3.61,3.61,0,0,0-1.54,3.13,2.62,2.62,0,0,0,1.37,2.48,14.76,14.76,0,0,0,4.29,1.27l2.86.43a17.75,17.75,0,0,1,7.15,2.64c1.72,1.18,2.59,3.16,2.59,6a7.64,7.64,0,0,1-3.47,6.7,15.17,15.17,0,0,1-8.85,2.37,14.53,14.53,0,0,1-8.8-2.48,10.3,10.3,0,0,1-4.18-6.59l5.11-1.1a7.19,7.19,0,0,0,2.7,4.5,9.08,9.08,0,0,0,5.28,1.44,8.07,8.07,0,0,0,4.67-1.22,4,4,0,0,0,1.76-3.46,2.88,2.88,0,0,0-1.54-2.69,13.31,13.31,0,0,0-4.51-1.38l-3-.5a16.52,16.52,0,0,1-6.71-2.47c-1.65-1.17-2.47-3.12-2.47-5.83a7.14,7.14,0,0,1,1.43-4.4,9.63,9.63,0,0,1,4.07-3.08,15.37,15.37,0,0,1,5.94-1.1,13.55,13.55,0,0,1,5.66,1.16,10.8,10.8,0,0,1,4.18,3,8.28,8.28,0,0,1,2,4.07Z" transform="translate(0 0)"/><path class="cls-2" d="M316.86,109v29h-5.61V109Zm0-10.78v6.11h-5.61V98.18Z" transform="translate(0 0)"/><path class="cls-2" d="M327.17,112.81a9.86,9.86,0,0,1,3.91-3.41,11.77,11.77,0,0,1,5.11-1.1,11,11,0,0,1,5.06,1.16,8.61,8.61,0,0,1,3.8,3.46,10.92,10.92,0,0,1,1.43,5.83V138h-5.61V120.46c0-2.68-.54-4.59-1.6-5.72a6.31,6.31,0,0,0-4.84-1.71,6.51,6.51,0,0,0-3.52,1,7.7,7.7,0,0,0-2.69,3.08,11.12,11.12,0,0,0-1,4.9v16h-5.61V109H327v3.85Z" transform="translate(0 0)"/><path class="cls-2" d="M377.07,129.53a13.92,13.92,0,0,1-4.4,6.49c-2.13,1.76-5.13,2.64-9,2.64a13.65,13.65,0,0,1-7.15-1.87,13,13,0,0,1-4.79-5.33,17.83,17.83,0,0,1-1.7-7.92,18.35,18.35,0,0,1,1.65-8,12.71,12.71,0,0,1,4.73-5.34,13.31,13.31,0,0,1,7.2-1.92,13.71,13.71,0,0,1,7.1,1.81,11.93,11.93,0,0,1,4.84,5.12,16.54,16.54,0,0,1,1.76,7.87c0,.76,0,1.35-.06,1.76H355.67a10.57,10.57,0,0,0,2.26,6.65,7.16,7.16,0,0,0,5.72,2.59,7.75,7.75,0,0,0,5.17-1.55,9,9,0,0,0,2.58-3.68Zm-13.48-16.67a7,7,0,0,0-5.44,2.26,9.64,9.64,0,0,0-2.37,5.45h15.79a9.43,9.43,0,0,0-2.42-5.5A7.2,7.2,0,0,0,363.59,112.86Z" transform="translate(0 0)"/><path class="cls-2" d="M398.67,117.65a6,6,0,0,0-2.47-3.74,7.33,7.33,0,0,0-4.34-1.32,7,7,0,0,0-4.13,1.1,3.61,3.61,0,0,0-1.54,3.13,2.62,2.62,0,0,0,1.38,2.48,14.76,14.76,0,0,0,4.29,1.27l2.85.43a17.64,17.64,0,0,1,7.15,2.64q2.59,1.77,2.59,6a7.61,7.61,0,0,1-3.47,6.7,15.17,15.17,0,0,1-8.85,2.37,14.55,14.55,0,0,1-8.8-2.48,10.34,10.34,0,0,1-4.18-6.59l5.12-1.1A7.13,7.13,0,0,0,387,133a9.08,9.08,0,0,0,5.28,1.44,8.12,8.12,0,0,0,4.68-1.22,4,4,0,0,0,1.75-3.46,2.89,2.89,0,0,0-1.53-2.69,13.45,13.45,0,0,0-4.52-1.38l-3-.5a16.47,16.47,0,0,1-6.7-2.47c-1.65-1.17-2.48-3.12-2.48-5.83a7.2,7.2,0,0,1,1.43-4.4A9.69,9.69,0,0,1,386,109.4a15.37,15.37,0,0,1,5.94-1.1,13.63,13.63,0,0,1,5.67,1.16,10.87,10.87,0,0,1,4.18,3,8.27,8.27,0,0,1,2,4.07Z" transform="translate(0 0)"/><path class="cls-2" d="M425.69,117.65a6,6,0,0,0-2.47-3.74,7.37,7.37,0,0,0-4.35-1.32,7,7,0,0,0-4.12,1.1,3.61,3.61,0,0,0-1.54,3.13,2.63,2.63,0,0,0,1.37,2.48,14.86,14.86,0,0,0,4.29,1.27l2.86.43a17.7,17.7,0,0,1,7.15,2.64q2.6,1.77,2.59,6a7.64,7.64,0,0,1-3.47,6.7,15.17,15.17,0,0,1-8.85,2.37,14.53,14.53,0,0,1-8.8-2.48,10.3,10.3,0,0,1-4.18-6.59l5.11-1.1A7.19,7.19,0,0,0,414,133a9.08,9.08,0,0,0,5.28,1.44,8.07,8.07,0,0,0,4.67-1.22,4,4,0,0,0,1.76-3.46,2.88,2.88,0,0,0-1.54-2.69,13.31,13.31,0,0,0-4.51-1.38l-3-.5a16.58,16.58,0,0,1-6.71-2.47c-1.65-1.17-2.47-3.12-2.47-5.83a7.14,7.14,0,0,1,1.43-4.4A9.63,9.63,0,0,1,413,109.4a15.37,15.37,0,0,1,5.94-1.1,13.55,13.55,0,0,1,5.66,1.16,10.72,10.72,0,0,1,4.18,3,8.28,8.28,0,0,1,2,4.07Z" transform="translate(0 0)"/><path class="cls-2" d="M50.49,186.3a9.94,9.94,0,0,1,4.73,1.16,8.44,8.44,0,0,1,3.63,3.46,11.51,11.51,0,0,1,1.37,5.83V216H54.61V198.46q0-4-1.48-5.67a6.1,6.1,0,0,0-7.7-.72A7.49,7.49,0,0,0,43,195.15a11.23,11.23,0,0,0-.94,4.84v16H36.46V198.46q0-4-1.48-5.67A5.52,5.52,0,0,0,30.52,191a5.55,5.55,0,0,0-3.24,1,7.49,7.49,0,0,0-2.42,3.08,11.58,11.58,0,0,0-.94,4.9V216H18.31V187h5.34v3.91h.22a10.06,10.06,0,0,1,3.74-3.47,10.44,10.44,0,0,1,4.73-1.1,10.3,10.3,0,0,1,4.95,1.21,7.8,7.8,0,0,1,3.46,3.58A13.23,13.23,0,0,1,45,187.51,11.76,11.76,0,0,1,50.49,186.3Z" transform="translate(0 0)"/><path class="cls-2" d="M77.81,186.3a14,14,0,0,1,7.42,1.93,12.3,12.3,0,0,1,4.9,5.33,17.06,17.06,0,0,1,1.76,7.92,17.43,17.43,0,0,1-1.76,8,12.75,12.75,0,0,1-4.9,5.33,15.68,15.68,0,0,1-14.85,0,13.2,13.2,0,0,1-4.95-5.33,17.94,17.94,0,0,1-1.7-8,17.56,17.56,0,0,1,1.7-7.92,12.71,12.71,0,0,1,4.95-5.33A14.07,14.07,0,0,1,77.81,186.3Zm0,25.8a7.27,7.27,0,0,0,6-2.81,12.32,12.32,0,0,0,2.25-7.81q0-4.95-2.25-7.75a7.2,7.2,0,0,0-6-2.86,7.37,7.37,0,0,0-6.11,2.86q-2.25,2.81-2.25,7.75a12.32,12.32,0,0,0,2.25,7.81A7.44,7.44,0,0,0,77.81,212.1Z" transform="translate(0 0)"/><path class="cls-2" d="M108,186.3a11.84,11.84,0,0,1,5.23,1.1,8.3,8.3,0,0,1,3.52,3h.22V176.18h5.61V216h-5.34v-3.74H117a8.16,8.16,0,0,1-3.57,3.25,12.41,12.41,0,0,1-5.45,1.15,12.78,12.78,0,0,1-6.87-1.87,13.29,13.29,0,0,1-4.68-5.33,18.35,18.35,0,0,1-1.65-8,18,18,0,0,1,1.65-7.92,12.78,12.78,0,0,1,4.68-5.33A12.49,12.49,0,0,1,108,186.3Zm.94,25.8a7.41,7.41,0,0,0,6.1-2.81,12.26,12.26,0,0,0,2.26-7.81q0-4.95-2.26-7.75a7.34,7.34,0,0,0-6.1-2.86,7.5,7.5,0,0,0-6.16,2.86c-1.5,1.87-2.26,4.45-2.26,7.75a12.32,12.32,0,0,0,2.26,7.81A7.58,7.58,0,0,0,108.91,212.1Z" transform="translate(0 0)"/><path class="cls-2" d="M153.15,207.53a14,14,0,0,1-4.4,6.49q-3.19,2.64-9,2.64a13.65,13.65,0,0,1-7.15-1.87,13,13,0,0,1-4.79-5.33,17.8,17.8,0,0,1-1.7-7.92,18.35,18.35,0,0,1,1.65-8,12.55,12.55,0,0,1,4.73-5.33,13.23,13.23,0,0,1,7.2-1.93,13.64,13.64,0,0,1,7.1,1.82,11.85,11.85,0,0,1,4.84,5.11,16.54,16.54,0,0,1,1.76,7.87c0,.77,0,1.35-.06,1.75H131.75a10.58,10.58,0,0,0,2.26,6.66,7.16,7.16,0,0,0,5.72,2.59,7.77,7.77,0,0,0,5.17-1.55,9,9,0,0,0,2.58-3.68Zm-13.48-16.66a7,7,0,0,0-5.44,2.25,9.64,9.64,0,0,0-2.37,5.45h15.79a9.52,9.52,0,0,0-2.42-5.5A7.19,7.19,0,0,0,139.67,190.87Z" transform="translate(0 0)"/><path class="cls-2" d="M162.82,176.18V216h-5.61V176.18Z" transform="translate(0 0)"/><path class="cls-2" d="M185.23,195.65a6.06,6.06,0,0,0-2.48-3.74,7.31,7.31,0,0,0-4.34-1.32,7,7,0,0,0-4.13,1.1,3.63,3.63,0,0,0-1.54,3.13,2.62,2.62,0,0,0,1.38,2.48,14.76,14.76,0,0,0,4.29,1.27l2.86.44a17.32,17.32,0,0,1,7.15,2.64q2.58,1.75,2.58,5.94a7.63,7.63,0,0,1-3.46,6.7,15.23,15.23,0,0,1-8.86,2.37,14.57,14.57,0,0,1-8.8-2.48,10.38,10.38,0,0,1-4.18-6.59l5.12-1.1a7.22,7.22,0,0,0,2.69,4.5,9.13,9.13,0,0,0,5.28,1.44,8.1,8.1,0,0,0,4.68-1.22,4,4,0,0,0,1.76-3.46,2.92,2.92,0,0,0-1.54-2.7,13.57,13.57,0,0,0-4.51-1.37l-3-.5a16.46,16.46,0,0,1-6.71-2.47c-1.65-1.17-2.48-3.12-2.48-5.83a7.2,7.2,0,0,1,1.43-4.4,9.69,9.69,0,0,1,4.07-3.08,15.37,15.37,0,0,1,5.94-1.1,13.6,13.6,0,0,1,5.67,1.16,10.87,10.87,0,0,1,4.18,3,8.18,8.18,0,0,1,2,4.07Z" transform="translate(0 0)"/></svg>