<svg width="537" height="96" viewBox="0 0 537 96" fill="none" xmlns="http://www.w3.org/2000/svg">
<line opacity="0.2" x1="0.703125" y1="26.5869" x2="121.703" y2="26.5869" stroke="white"/>
<path d="M169.596 30.472L167.182 37H163.136L172.656 12.724H177.382L186.868 37H182.788L180.374 30.472H169.596ZM175.036 16.124H174.9L170.752 27.344H179.218L175.036 16.124ZM191.868 21.428C192.525 20.476 193.33 19.7733 194.282 19.32C195.234 18.8667 196.288 18.64 197.444 18.64C198.577 18.64 199.62 18.878 200.572 19.354C201.547 19.8073 202.329 20.5213 202.918 21.496C203.507 22.448 203.802 23.6493 203.802 25.1V37H200.334V26.154C200.334 24.4993 200.005 23.3207 199.348 22.618C198.691 21.9153 197.693 21.564 196.356 21.564C195.585 21.564 194.86 21.7793 194.18 22.21C193.5 22.6407 192.945 23.2753 192.514 24.114C192.106 24.9527 191.902 25.9613 191.902 27.14V37H188.434V19.048H191.732V21.428H191.868ZM214.146 18.64C215.37 18.64 216.446 18.8667 217.376 19.32C218.328 19.7733 219.053 20.3853 219.552 21.156H219.688V12.384H223.156V37H219.858V34.688H219.722C219.246 35.5267 218.509 36.1953 217.512 36.694C216.537 37.17 215.415 37.408 214.146 37.408C212.559 37.408 211.142 37.0227 209.896 36.252C208.672 35.4587 207.708 34.3593 207.006 32.954C206.326 31.526 205.986 29.8827 205.986 28.024C205.986 26.1653 206.326 24.5333 207.006 23.128C207.708 21.7 208.672 20.6007 209.896 19.83C211.142 19.0367 212.559 18.64 214.146 18.64ZM214.724 34.586C216.31 34.586 217.568 34.008 218.498 32.852C219.427 31.6733 219.892 30.064 219.892 28.024C219.892 25.984 219.427 24.386 218.498 23.23C217.568 22.0513 216.31 21.462 214.724 21.462C213.137 21.462 211.868 22.0513 210.916 23.23C209.986 24.386 209.522 25.984 209.522 28.024C209.522 30.064 209.986 31.6733 210.916 32.852C211.868 34.008 213.137 34.586 214.724 34.586ZM240.284 34.586C242.686 34.586 244.25 33.3053 244.976 30.744L248.478 31.254C248.047 32.8633 247.163 34.2913 245.826 35.538C244.511 36.7847 242.664 37.408 240.284 37.408C238.606 37.408 237.122 37.0227 235.83 36.252C234.56 35.4587 233.574 34.3593 232.872 32.954C232.169 31.526 231.818 29.8827 231.818 28.024C231.818 26.1653 232.169 24.5333 232.872 23.128C233.574 21.7 234.56 20.6007 235.83 19.83C237.122 19.0367 238.618 18.64 240.318 18.64C242.584 18.64 244.33 19.1953 245.554 20.306C246.8 21.394 247.65 22.55 248.104 23.774L244.84 24.828C244.545 23.9667 244.046 23.196 243.344 22.516C242.664 21.8133 241.655 21.462 240.318 21.462C238.799 21.462 237.586 22.0513 236.68 23.23C235.796 24.386 235.354 25.984 235.354 28.024C235.354 30.0413 235.796 31.6393 236.68 32.818C237.586 33.9967 238.788 34.586 240.284 34.586ZM266.575 31.764C266.076 33.328 265.17 34.6653 263.855 35.776C262.54 36.864 260.682 37.408 258.279 37.408C256.624 37.408 255.151 37.0227 253.859 36.252C252.59 35.4587 251.604 34.3593 250.901 32.954C250.198 31.526 249.847 29.894 249.847 28.058C249.847 26.1993 250.187 24.556 250.867 23.128C251.57 21.7 252.544 20.6007 253.791 19.83C255.06 19.0367 256.545 18.64 258.245 18.64C259.9 18.64 261.362 19.014 262.631 19.762C263.923 20.4873 264.92 21.5413 265.623 22.924C266.348 24.284 266.711 25.9047 266.711 27.786C266.711 28.262 266.7 28.6247 266.677 28.874H253.349C253.394 30.5513 253.859 31.9227 254.743 32.988C255.65 34.0533 256.828 34.586 258.279 34.586C259.662 34.586 260.727 34.2687 261.475 33.634C262.223 32.9767 262.756 32.2173 263.073 31.356L266.575 31.764ZM258.245 21.462C256.84 21.462 255.718 21.9267 254.879 22.856C254.063 23.7627 253.576 24.8847 253.417 26.222H263.175C263.016 24.862 262.518 23.7287 261.679 22.822C260.84 21.9153 259.696 21.462 258.245 21.462ZM272.316 21.768H272.452C272.928 20.8613 273.631 20.1133 274.56 19.524C275.489 18.9347 276.566 18.64 277.79 18.64C278.357 18.64 278.889 18.6967 279.388 18.81V22.142C278.753 22.0513 278.164 22.006 277.62 22.006C276.056 22.006 274.809 22.448 273.88 23.332C272.951 24.1933 272.486 25.576 272.486 27.48V37H269.018V19.048H272.316V21.768ZM290.512 34.008V37C290.014 37.0453 289.164 37.068 287.962 37.068C286.285 37.068 285.084 36.796 284.358 36.252C283.656 35.708 283.304 34.6653 283.304 33.124V21.666H280.346V19.048H283.304V13.982H286.772V19.048H290.716V21.666H286.772V32.206C286.772 32.9993 286.92 33.5093 287.214 33.736C287.509 33.9627 288.042 34.076 288.812 34.076L290.512 34.008ZM296.228 19.048V37H292.76V19.048H296.228ZM296.228 12.384V16.158H292.76V12.384H296.228ZM306.51 14.9C305.876 14.9 305.366 15.036 304.98 15.308C304.618 15.58 304.436 16.124 304.436 16.94V19.048H308.38V21.666H304.436V37H300.968V21.666H298.01V19.048H300.968V16.6C300.968 13.5173 302.646 11.976 306 11.976C307.02 11.976 307.95 12.0553 308.788 12.214V15.036C308.063 14.9453 307.304 14.9 306.51 14.9ZM319.703 37C319 38.8587 318.309 40.264 317.629 41.216C316.949 42.1907 316.246 42.8367 315.521 43.154C314.795 43.494 313.934 43.664 312.937 43.664C311.985 43.664 311.282 43.63 310.829 43.562V40.502C310.897 40.502 311.055 40.5247 311.305 40.57C311.577 40.638 311.962 40.672 312.461 40.672C313.367 40.672 314.047 40.4453 314.501 39.992C314.954 39.5387 315.453 38.6887 315.997 37.442L316.269 36.762L309.061 19.048H312.801L317.867 32.648H318.003L322.763 19.048H326.503L319.703 37ZM331.456 19.048V37H327.988V19.048H331.456ZM331.456 12.384V16.158H327.988V12.384H331.456ZM337.829 21.428C338.486 20.476 339.291 19.7733 340.243 19.32C341.195 18.8667 342.249 18.64 343.405 18.64C344.538 18.64 345.581 18.878 346.533 19.354C347.507 19.8073 348.289 20.5213 348.879 21.496C349.468 22.448 349.763 23.6493 349.763 25.1V37H346.295V26.154C346.295 24.4993 345.966 23.3207 345.309 22.618C344.651 21.9153 343.654 21.564 342.317 21.564C341.546 21.564 340.821 21.7793 340.141 22.21C339.461 22.6407 338.905 23.2753 338.475 24.114C338.067 24.9527 337.863 25.9613 337.863 27.14V37H334.395V19.048H337.693V21.428H337.829ZM368.777 35.742C368.777 38.462 368.006 40.4567 366.465 41.726C364.923 43.018 362.895 43.664 360.379 43.664C358.361 43.664 356.627 43.1993 355.177 42.27C353.749 41.3407 352.763 39.9127 352.219 37.986L355.55 37.272C355.89 38.5413 356.457 39.448 357.251 39.992C358.067 40.536 359.109 40.808 360.379 40.808C363.665 40.808 365.309 39.0627 365.309 35.572V33.77H365.173C364.674 34.4727 363.971 35.028 363.065 35.436C362.158 35.844 361.115 36.048 359.937 36.048C358.395 36.048 357.013 35.6853 355.789 34.96C354.587 34.2347 353.647 33.2147 352.967 31.9C352.287 30.5853 351.947 29.0667 351.947 27.344C351.947 25.644 352.287 24.1367 352.967 22.822C353.647 21.4847 354.587 20.4533 355.789 19.728C357.013 19.0027 358.395 18.64 359.937 18.64C361.161 18.64 362.249 18.8667 363.201 19.32C364.153 19.7507 364.867 20.3513 365.343 21.122H365.479V19.048H368.777V35.742ZM360.515 33.294C362.033 33.294 363.246 32.75 364.153 31.662C365.059 30.574 365.513 29.1347 365.513 27.344C365.513 25.576 365.059 24.1593 364.153 23.094C363.246 22.006 362.033 21.462 360.515 21.462C358.996 21.462 357.772 22.006 356.843 23.094C355.936 24.1593 355.483 25.576 355.483 27.344C355.483 29.112 355.936 30.5513 356.843 31.662C357.772 32.75 358.996 33.294 360.515 33.294ZM394.141 31.764C393.643 33.328 392.736 34.6653 391.421 35.776C390.107 36.864 388.248 37.408 385.845 37.408C384.191 37.408 382.717 37.0227 381.425 36.252C380.156 35.4587 379.17 34.3593 378.467 32.954C377.765 31.526 377.413 29.894 377.413 28.058C377.413 26.1993 377.753 24.556 378.433 23.128C379.136 21.7 380.111 20.6007 381.357 19.83C382.627 19.0367 384.111 18.64 385.811 18.64C387.466 18.64 388.928 19.014 390.197 19.762C391.489 20.4873 392.487 21.5413 393.189 22.924C393.915 24.284 394.277 25.9047 394.277 27.786C394.277 28.262 394.266 28.6247 394.243 28.874H380.915C380.961 30.5513 381.425 31.9227 382.309 32.988C383.216 34.0533 384.395 34.586 385.845 34.586C387.228 34.586 388.293 34.2687 389.041 33.634C389.789 32.9767 390.322 32.2173 390.639 31.356L394.141 31.764ZM385.811 21.462C384.406 21.462 383.284 21.9267 382.445 22.856C381.629 23.7627 381.142 24.8847 380.983 26.222H390.741C390.583 24.862 390.084 23.7287 389.245 22.822C388.407 21.9153 387.262 21.462 385.811 21.462ZM408.416 37C408.258 36.8413 408.122 36.5467 408.008 36.116C407.918 35.6853 407.872 35.1867 407.872 34.62C407.328 35.5493 406.478 36.252 405.322 36.728C404.189 37.1813 403.022 37.408 401.82 37.408C400.755 37.408 399.769 37.1927 398.862 36.762C397.956 36.3087 397.23 35.6853 396.686 34.892C396.165 34.076 395.904 33.124 395.904 32.036C395.904 30.2 396.539 28.8513 397.808 27.99C399.078 27.106 400.993 26.528 403.554 26.256C405.209 26.0973 406.331 25.8593 406.92 25.542C407.532 25.2247 407.838 24.7713 407.838 24.182C407.838 22.3913 406.58 21.496 404.064 21.496C403.09 21.496 402.206 21.7567 401.412 22.278C400.619 22.7767 400.064 23.5247 399.746 24.522L396.584 23.774C396.97 22.1873 397.854 20.9407 399.236 20.034C400.619 19.1047 402.274 18.64 404.2 18.64C406.648 18.64 408.439 19.15 409.572 20.17C410.728 21.1673 411.306 22.482 411.306 24.114V33.124C411.306 34.2573 411.329 35.096 411.374 35.64C411.442 36.1613 411.578 36.6147 411.782 37H408.416ZM407.838 27.752C407.589 28.024 407.056 28.2507 406.24 28.432C405.447 28.5907 404.427 28.7493 403.18 28.908C402.115 29.044 401.22 29.3727 400.494 29.894C399.792 30.3927 399.44 31.1067 399.44 32.036C399.44 32.8973 399.712 33.5547 400.256 34.008C400.8 34.4387 401.548 34.654 402.5 34.654C403.362 34.654 404.2 34.4953 405.016 34.178C405.832 33.838 406.501 33.3167 407.022 32.614C407.566 31.8887 407.838 30.9933 407.838 29.928V27.752ZM421.938 34.586C424.341 34.586 425.905 33.3053 426.63 30.744L430.132 31.254C429.701 32.8633 428.817 34.2913 427.48 35.538C426.165 36.7847 424.318 37.408 421.938 37.408C420.261 37.408 418.776 37.0227 417.484 36.252C416.215 35.4587 415.229 34.3593 414.526 32.954C413.823 31.526 413.472 29.8827 413.472 28.024C413.472 26.1653 413.823 24.5333 414.526 23.128C415.229 21.7 416.215 20.6007 417.484 19.83C418.776 19.0367 420.272 18.64 421.972 18.64C424.239 18.64 425.984 19.1953 427.208 20.306C428.455 21.394 429.305 22.55 429.758 23.774L426.494 24.828C426.199 23.9667 425.701 23.196 424.998 22.516C424.318 21.8133 423.309 21.462 421.972 21.462C420.453 21.462 419.241 22.0513 418.334 23.23C417.45 24.386 417.008 25.984 417.008 28.024C417.008 30.0413 417.45 31.6393 418.334 32.818C419.241 33.9967 420.442 34.586 421.938 34.586ZM435.649 21.428C436.941 19.5693 438.777 18.64 441.157 18.64C442.268 18.64 443.299 18.878 444.251 19.354C445.203 19.8073 445.963 20.5213 446.529 21.496C447.119 22.4707 447.413 23.672 447.413 25.1V37H443.945V26.154C443.945 24.4993 443.617 23.3207 442.959 22.618C442.302 21.9153 441.305 21.564 439.967 21.564C439.219 21.564 438.505 21.802 437.825 22.278C437.145 22.754 436.59 23.4453 436.159 24.352C435.729 25.236 435.513 26.2673 435.513 27.446V37H432.045V12.384H435.513V21.428H435.649ZM468.55 34.62C467.28 36.4787 465.422 37.408 462.974 37.408C461.183 37.408 459.676 36.864 458.452 35.776C457.228 34.688 456.616 33.0787 456.616 30.948V19.048H460.084V29.894C460.084 31.5487 460.412 32.7273 461.07 33.43C461.727 34.1327 462.724 34.484 464.062 34.484C464.855 34.484 465.58 34.2687 466.238 33.838C466.918 33.4073 467.462 32.7727 467.87 31.934C468.3 31.0953 468.516 30.0867 468.516 28.908V19.048H471.984V37H468.686V34.62H468.55ZM478.145 21.428C478.803 20.476 479.607 19.7733 480.559 19.32C481.511 18.8667 482.565 18.64 483.721 18.64C484.855 18.64 485.897 18.878 486.849 19.354C487.824 19.8073 488.606 20.5213 489.195 21.496C489.785 22.448 490.079 23.6493 490.079 25.1V37H486.611V26.154C486.611 24.4993 486.283 23.3207 485.625 22.618C484.968 21.9153 483.971 21.564 482.633 21.564C481.863 21.564 481.137 21.7793 480.457 22.21C479.777 22.6407 479.222 23.2753 478.791 24.114C478.383 24.9527 478.179 25.9613 478.179 27.14V37H474.711V19.048H478.009V21.428H478.145ZM496.343 19.048V37H492.875V19.048H496.343ZM496.343 12.384V16.158H492.875V12.384H496.343ZM508.292 34.008V37C507.793 37.0453 506.943 37.068 505.742 37.068C504.064 37.068 502.863 36.796 502.138 36.252C501.435 35.708 501.084 34.6653 501.084 33.124V21.666H498.126V19.048H501.084V13.982H504.552V19.048H508.496V21.666H504.552V32.206C504.552 32.9993 504.699 33.5093 504.994 33.736C505.288 33.9627 505.821 34.076 506.592 34.076L508.292 34.008ZM168.134 74.018C168.134 77.1233 168.587 79.798 169.494 82.042C170.423 84.2633 171.693 86.2693 173.302 88.06L171.908 89.488C169.641 87.4933 167.839 85.2833 166.502 82.858C165.187 80.41 164.53 77.4633 164.53 74.018C164.53 70.5727 165.187 67.6487 166.502 65.246C167.839 62.8207 169.641 60.5993 171.908 58.582L173.302 59.976C171.693 61.812 170.423 63.8407 169.494 66.062C168.587 68.2607 168.134 70.9127 168.134 74.018ZM198.793 85H195.189V66.028H195.053L188.253 85H185.261L178.461 66.028H178.325V85H174.857V60.724H180.297L186.757 79.492H186.893L193.353 60.724H198.793V85ZM215.756 66.13H215.62L211.064 85H206.746L200.558 60.724H204.4L208.854 80.07H208.99L213.58 60.724H217.728L222.318 80.07H222.454L226.942 60.724H230.818L224.562 85H220.38L215.756 66.13ZM235.733 69.428C237.025 67.5693 238.861 66.64 241.241 66.64C242.352 66.64 243.383 66.878 244.335 67.354C245.287 67.8073 246.047 68.5213 246.613 69.496C247.203 70.4707 247.497 71.672 247.497 73.1V85H244.029V74.154C244.029 72.4993 243.701 71.3207 243.043 70.618C242.386 69.9153 241.389 69.564 240.051 69.564C239.303 69.564 238.589 69.802 237.909 70.278C237.229 70.754 236.674 71.4453 236.243 72.352C235.813 73.236 235.597 74.2673 235.597 75.446V85H232.129V60.384H235.597V69.428H235.733ZM253.965 74.018C253.965 70.9127 253.5 68.2607 252.571 66.062C251.664 63.8407 250.406 61.812 248.797 59.976L250.225 58.582C252.492 60.5993 254.282 62.8207 255.597 65.246C256.912 67.6487 257.569 70.5727 257.569 74.018C257.569 77.4633 256.9 80.3987 255.563 82.824C254.248 85.2493 252.469 87.4707 250.225 89.488L248.797 88.06C250.406 86.2693 251.664 84.2633 252.571 82.042C253.5 79.798 253.965 77.1233 253.965 74.018ZM275.651 66.64C277.396 66.64 278.926 67.0367 280.241 67.83C281.555 68.6007 282.564 69.7 283.267 71.128C283.992 72.5333 284.355 74.1653 284.355 76.024C284.355 77.8827 283.992 79.526 283.267 80.954C282.564 82.3593 281.555 83.4587 280.241 84.252C278.926 85.0227 277.396 85.408 275.651 85.408C273.905 85.408 272.375 85.0227 271.06 84.252C269.746 83.4587 268.726 82.3593 268.001 80.954C267.298 79.526 266.947 77.8827 266.947 76.024C266.947 74.1653 267.298 72.5333 268.001 71.128C268.726 69.7 269.746 68.6007 271.06 67.83C272.375 67.0367 273.905 66.64 275.651 66.64ZM275.651 82.586C277.237 82.586 278.484 82.008 279.391 80.852C280.32 79.6733 280.785 78.064 280.785 76.024C280.785 73.984 280.32 72.386 279.391 71.23C278.484 70.0513 277.237 69.462 275.651 69.462C274.064 69.462 272.806 70.0513 271.877 71.23C270.947 72.386 270.483 73.984 270.483 76.024C270.483 78.064 270.947 79.6733 271.877 80.852C272.806 82.008 274.064 82.586 275.651 82.586ZM293.428 62.9C292.794 62.9 292.284 63.036 291.898 63.308C291.536 63.58 291.354 64.124 291.354 64.94V67.048H295.298V69.666H291.354V85H287.886V69.666H284.928V67.048H287.886V64.6C287.886 61.5173 289.564 59.976 292.918 59.976C293.938 59.976 294.868 60.0553 295.706 60.214V63.036C294.981 62.9453 294.222 62.9 293.428 62.9ZM311.803 82.586C314.206 82.586 315.77 81.3053 316.495 78.744L319.997 79.254C319.566 80.8633 318.682 82.2913 317.345 83.538C316.03 84.7847 314.183 85.408 311.803 85.408C310.126 85.408 308.641 85.0227 307.349 84.252C306.08 83.4587 305.094 82.3593 304.391 80.954C303.688 79.526 303.337 77.8827 303.337 76.024C303.337 74.1653 303.688 72.5333 304.391 71.128C305.094 69.7 306.08 68.6007 307.349 67.83C308.641 67.0367 310.137 66.64 311.837 66.64C314.104 66.64 315.849 67.1953 317.073 68.306C318.32 69.394 319.17 70.55 319.623 71.774L316.359 72.828C316.064 71.9667 315.566 71.196 314.863 70.516C314.183 69.8133 313.174 69.462 311.837 69.462C310.318 69.462 309.106 70.0513 308.199 71.23C307.315 72.386 306.873 73.984 306.873 76.024C306.873 78.0413 307.315 79.6393 308.199 80.818C309.106 81.9967 310.307 82.586 311.803 82.586ZM325.446 60.384V85H321.978V60.384H325.446ZM344.569 79.764C344.07 81.328 343.164 82.6653 341.849 83.776C340.534 84.864 338.676 85.408 336.273 85.408C334.618 85.408 333.145 85.0227 331.853 84.252C330.584 83.4587 329.598 82.3593 328.895 80.954C328.192 79.526 327.841 77.894 327.841 76.058C327.841 74.1993 328.181 72.556 328.861 71.128C329.564 69.7 330.538 68.6007 331.785 67.83C333.054 67.0367 334.539 66.64 336.239 66.64C337.894 66.64 339.356 67.014 340.625 67.762C341.917 68.4873 342.914 69.5413 343.617 70.924C344.342 72.284 344.705 73.9047 344.705 75.786C344.705 76.262 344.694 76.6247 344.671 76.874H331.343C331.388 78.5513 331.853 79.9227 332.737 80.988C333.644 82.0533 334.822 82.586 336.273 82.586C337.656 82.586 338.721 82.2687 339.469 81.634C340.217 80.9767 340.75 80.2173 341.067 79.356L344.569 79.764ZM336.239 69.462C334.834 69.462 333.712 69.9267 332.873 70.856C332.057 71.7627 331.57 72.8847 331.411 74.222H341.169C341.01 72.862 340.512 71.7287 339.673 70.822C338.834 69.9153 337.69 69.462 336.239 69.462ZM358.844 85C358.685 84.8413 358.549 84.5467 358.436 84.116C358.345 83.6853 358.3 83.1867 358.3 82.62C357.756 83.5493 356.906 84.252 355.75 84.728C354.617 85.1813 353.449 85.408 352.248 85.408C351.183 85.408 350.197 85.1927 349.29 84.762C348.383 84.3087 347.658 83.6853 347.114 82.892C346.593 82.076 346.332 81.124 346.332 80.036C346.332 78.2 346.967 76.8513 348.236 75.99C349.505 75.106 351.421 74.528 353.982 74.256C355.637 74.0973 356.759 73.8593 357.348 73.542C357.96 73.2247 358.266 72.7713 358.266 72.182C358.266 70.3913 357.008 69.496 354.492 69.496C353.517 69.496 352.633 69.7567 351.84 70.278C351.047 70.7767 350.491 71.5247 350.174 72.522L347.012 71.774C347.397 70.1873 348.281 68.9407 349.664 68.034C351.047 67.1047 352.701 66.64 354.628 66.64C357.076 66.64 358.867 67.15 360 68.17C361.156 69.1673 361.734 70.482 361.734 72.114V81.124C361.734 82.2573 361.757 83.096 361.802 83.64C361.87 84.1613 362.006 84.6147 362.21 85H358.844ZM358.266 75.752C358.017 76.024 357.484 76.2507 356.668 76.432C355.875 76.5907 354.855 76.7493 353.608 76.908C352.543 77.044 351.647 77.3727 350.922 77.894C350.219 78.3927 349.868 79.1067 349.868 80.036C349.868 80.8973 350.14 81.5547 350.684 82.008C351.228 82.4387 351.976 82.654 352.928 82.654C353.789 82.654 354.628 82.4953 355.444 82.178C356.26 81.838 356.929 81.3167 357.45 80.614C357.994 79.8887 358.266 78.9933 358.266 77.928V75.752ZM367.878 69.428C368.535 68.476 369.34 67.7733 370.292 67.32C371.244 66.8667 372.298 66.64 373.454 66.64C374.587 66.64 375.63 66.878 376.582 67.354C377.556 67.8073 378.338 68.5213 378.928 69.496C379.517 70.448 379.812 71.6493 379.812 73.1V85H376.344V74.154C376.344 72.4993 376.015 71.3207 375.358 70.618C374.7 69.9153 373.703 69.564 372.366 69.564C371.595 69.564 370.87 69.7793 370.19 70.21C369.51 70.6407 368.954 71.2753 368.524 72.114C368.116 72.9527 367.912 73.9613 367.912 75.14V85H364.444V67.048H367.742V69.428H367.878ZM405.198 79.764C404.699 81.328 403.793 82.6653 402.478 83.776C401.163 84.864 399.305 85.408 396.902 85.408C395.247 85.408 393.774 85.0227 392.482 84.252C391.213 83.4587 390.227 82.3593 389.524 80.954C388.821 79.526 388.47 77.894 388.47 76.058C388.47 74.1993 388.81 72.556 389.49 71.128C390.193 69.7 391.167 68.6007 392.414 67.83C393.683 67.0367 395.168 66.64 396.868 66.64C398.523 66.64 399.985 67.014 401.254 67.762C402.546 68.4873 403.543 69.5413 404.246 70.924C404.971 72.284 405.334 73.9047 405.334 75.786C405.334 76.262 405.323 76.6247 405.3 76.874H391.972C392.017 78.5513 392.482 79.9227 393.366 80.988C394.273 82.0533 395.451 82.586 396.902 82.586C398.285 82.586 399.35 82.2687 400.098 81.634C400.846 80.9767 401.379 80.2173 401.696 79.356L405.198 79.764ZM396.868 69.462C395.463 69.462 394.341 69.9267 393.502 70.856C392.686 71.7627 392.199 72.8847 392.04 74.222H401.798C401.639 72.862 401.141 71.7287 400.302 70.822C399.463 69.9153 398.319 69.462 396.868 69.462ZM411.177 60.384V85H407.709V60.384H411.177ZM430.3 79.764C429.801 81.328 428.894 82.6653 427.58 83.776C426.265 84.864 424.406 85.408 422.004 85.408C420.349 85.408 418.876 85.0227 417.584 84.252C416.314 83.4587 415.328 82.3593 414.626 80.954C413.923 79.526 413.572 77.894 413.572 76.058C413.572 74.1993 413.912 72.556 414.592 71.128C415.294 69.7 416.269 68.6007 417.516 67.83C418.785 67.0367 420.27 66.64 421.97 66.64C423.624 66.64 425.086 67.014 426.356 67.762C427.648 68.4873 428.645 69.5413 429.348 70.924C430.073 72.284 430.436 73.9047 430.436 75.786C430.436 76.262 430.424 76.6247 430.402 76.874H417.074C417.119 78.5513 417.584 79.9227 418.468 80.988C419.374 82.0533 420.553 82.586 422.004 82.586C423.386 82.586 424.452 82.2687 425.2 81.634C425.948 80.9767 426.48 80.2173 426.798 79.356L430.3 79.764ZM421.97 69.462C420.564 69.462 419.442 69.9267 418.604 70.856C417.788 71.7627 417.3 72.8847 417.142 74.222H426.9C426.741 72.862 426.242 71.7287 425.404 70.822C424.565 69.9153 423.42 69.462 421.97 69.462ZM440.664 82.586C443.067 82.586 444.631 81.3053 445.356 78.744L448.858 79.254C448.428 80.8633 447.544 82.2913 446.206 83.538C444.892 84.7847 443.044 85.408 440.664 85.408C438.987 85.408 437.502 85.0227 436.21 84.252C434.941 83.4587 433.955 82.3593 433.252 80.954C432.55 79.526 432.198 77.8827 432.198 76.024C432.198 74.1653 432.55 72.5333 433.252 71.128C433.955 69.7 434.941 68.6007 436.21 67.83C437.502 67.0367 438.998 66.64 440.698 66.64C442.965 66.64 444.71 67.1953 445.934 68.306C447.181 69.394 448.031 70.55 448.484 71.774L445.22 72.828C444.926 71.9667 444.427 71.196 443.724 70.516C443.044 69.8133 442.036 69.462 440.698 69.462C439.18 69.462 437.967 70.0513 437.06 71.23C436.176 72.386 435.734 73.984 435.734 76.024C435.734 78.0413 436.176 79.6393 437.06 80.818C437.967 81.9967 439.168 82.586 440.664 82.586ZM459.782 82.008V85C459.283 85.0453 458.433 85.068 457.232 85.068C455.554 85.068 454.353 84.796 453.628 84.252C452.925 83.708 452.574 82.6653 452.574 81.124V69.666H449.616V67.048H452.574V61.982H456.042V67.048H459.986V69.666H456.042V80.206C456.042 80.9993 456.189 81.5093 456.484 81.736C456.778 81.9627 457.311 82.076 458.082 82.076L459.782 82.008ZM465.259 69.768H465.395C465.871 68.8613 466.574 68.1133 467.503 67.524C468.433 66.9347 469.509 66.64 470.733 66.64C471.3 66.64 471.833 66.6967 472.331 66.81V70.142C471.697 70.0513 471.107 70.006 470.563 70.006C468.999 70.006 467.753 70.448 466.823 71.332C465.894 72.1933 465.429 73.576 465.429 75.48V85H461.961V67.048H465.259V69.768ZM477.65 67.048V85H474.182V67.048H477.65ZM477.65 60.384V64.158H474.182V60.384H477.65ZM488.51 82.586C490.913 82.586 492.477 81.3053 493.202 78.744L496.704 79.254C496.273 80.8633 495.389 82.2913 494.052 83.538C492.737 84.7847 490.89 85.408 488.51 85.408C486.833 85.408 485.348 85.0227 484.056 84.252C482.787 83.4587 481.801 82.3593 481.098 80.954C480.395 79.526 480.044 77.8827 480.044 76.024C480.044 74.1653 480.395 72.5333 481.098 71.128C481.801 69.7 482.787 68.6007 484.056 67.83C485.348 67.0367 486.844 66.64 488.544 66.64C490.811 66.64 492.556 67.1953 493.78 68.306C495.027 69.394 495.877 70.55 496.33 71.774L493.066 72.828C492.771 71.9667 492.273 71.196 491.57 70.516C490.89 69.8133 489.881 69.462 488.544 69.462C487.025 69.462 485.813 70.0513 484.906 71.23C484.022 72.386 483.58 73.984 483.58 76.024C483.58 78.0413 484.022 79.6393 484.906 80.818C485.813 81.9967 487.014 82.586 488.51 82.586ZM502.153 67.048V85H498.685V67.048H502.153ZM502.153 60.384V64.158H498.685V60.384H502.153ZM514.102 82.008V85C513.603 85.0453 512.753 85.068 511.552 85.068C509.875 85.068 508.673 84.796 507.948 84.252C507.245 83.708 506.894 82.6653 506.894 81.124V69.666H503.936V67.048H506.894V61.982H510.362V67.048H514.306V69.666H510.362V80.206C510.362 80.9993 510.509 81.5093 510.804 81.736C511.099 81.9627 511.631 82.076 512.402 82.076L514.102 82.008ZM525.496 85C524.793 86.8587 524.102 88.264 523.422 89.216C522.742 90.1907 522.039 90.8367 521.314 91.154C520.588 91.494 519.727 91.664 518.73 91.664C517.778 91.664 517.075 91.63 516.622 91.562V88.502C516.69 88.502 516.848 88.5247 517.098 88.57C517.37 88.638 517.755 88.672 518.254 88.672C519.16 88.672 519.84 88.4453 520.294 87.992C520.747 87.5387 521.246 86.6887 521.79 85.442L522.062 84.762L514.854 67.048H518.594L523.66 80.648H523.796L528.556 67.048H532.296L525.496 85Z" fill="white"/>
<rect width="17" height="17" rx="8.5" transform="matrix(-1 0 0 1 129.375 18.0869)" fill="#A566FF"/>
</svg>
