<svg id="Layer_1" data-name="Layer 1" xmlns="http://www.w3.org/2000/svg" xmlns:xlink="http://www.w3.org/1999/xlink" viewBox="0 0 611.93 958.55"><defs><style>.cls-1{fill:#c4c4c4;}.cls-2{fill-rule:evenodd;fill:url(#radial-gradient);}.cls-3{fill:#452e66;}.cls-4{mask:url(#mask);}.cls-5{fill:#f6aaaa;}.cls-6{fill:#92eaea;}.cls-7{fill:#dce5ed;}.cls-8{fill:#a566ff;}</style><radialGradient id="radial-gradient" cx="11.98" cy="916.94" r="1" gradientTransform="matrix(677.63, 0, 0, -1563.71, -7548.14, 1433847.01)" gradientUnits="userSpaceOnUse"><stop offset="0" stop-color="#ebb9f2"/><stop offset="0.54" stop-color="#f6aaaa"/><stop offset="1" stop-color="#a566ff"/></radialGradient><mask id="mask" x="-6.49" y="366.35" width="620" height="604" maskUnits="userSpaceOnUse"><g transform="translate(-6.49 -22.56)"><g id="mask0_352:3543" data-name="mask0 352:3543"><rect class="cls-1" y="388.91" width="620" height="604"/></g></g></mask></defs><path class="cls-2" d="M565,84.91a12,12,0,0,1,12,12v154a12,12,0,0,1-12,12H68a12,12,0,0,1-12-12v-67a12,12,0,0,1,12-12H267a12,12,0,0,0,12-12v-63a12,12,0,0,1,12-12Z" transform="translate(-6.49 -22.56)"/><path class="cls-3" d="M95.18,32.7h-.24L86.9,66H79.28L68.36,23.16h6.78L83,57.3h.24l8.1-34.14h7.32l8.1,34.14H107l7.92-34.14h6.84L110.72,66h-7.38Zm35.72,1.62V66h-6.12V34.32Zm0-11.76v6.66h-6.12V22.56ZM152,60.72V66q-1.32.12-4.5.12-4.44,0-6.36-1.44t-1.86-5.52V38.94h-5.22V34.32h5.22V25.38h6.12v8.94h7v4.62h-7v18.6q0,2.1.78,2.7a4.83,4.83,0,0,0,2.82.6Zm10.2-22.2a11.14,11.14,0,0,1,9.72-4.92,12,12,0,0,1,5.46,1.26,9.14,9.14,0,0,1,4,3.78A12.09,12.09,0,0,1,183,45V66h-6.12V46.86q0-4.38-1.74-6.24a6.9,6.9,0,0,0-5.28-1.86A6.49,6.49,0,0,0,166,40a9.1,9.1,0,0,0-2.94,3.66A12.33,12.33,0,0,0,162,49.14V66h-6.12V22.56H162v16Zm66.1,2.7v5.4H206V60.3h23.22V66H199.43V23.16h29.82v5.52H206V41.22Zm30-8.52H258L250,66h-7.62L231.43,23.16h6.78l7.86,34.14h.24l8.1-34.14h7.32l8.1,34.14h.24L278,23.16h6.84L273.79,66h-7.38Zm72.22,27.6V66H298V60.3l24.54-31.44h-23.1v-5.7h31.14v5.7L306.17,60.3Zm32.11-3.54a15.17,15.17,0,0,1-4.8,7.08q-3.48,2.88-9.84,2.88a14.93,14.93,0,0,1-7.8-2,14.17,14.17,0,0,1-5.22-5.82,19.32,19.32,0,0,1-1.86-8.64,20,20,0,0,1,1.8-8.7A13.83,13.83,0,0,1,340,35.7a14.52,14.52,0,0,1,7.86-2.1,15,15,0,0,1,7.74,2,13,13,0,0,1,5.28,5.58,18,18,0,0,1,1.92,8.58q0,1.26-.06,1.92H339.24a11.5,11.5,0,0,0,2.46,7.26,7.81,7.81,0,0,0,6.24,2.82,8.48,8.48,0,0,0,5.64-1.68,9.85,9.85,0,0,0,2.82-4Zm-14.7-18.18A7.61,7.61,0,0,0,341.94,41,10.48,10.48,0,0,0,339.36,47h17.22a10.34,10.34,0,0,0-2.64-6A7.85,7.85,0,0,0,347.88,38.58Zm24.83.54H373a10.45,10.45,0,0,1,9.42-5.52,12.7,12.7,0,0,1,2.82.3v5.88a22.16,22.16,0,0,0-3.12-.24,9.18,9.18,0,0,0-6.6,2.34Q373,44.16,373,49.2V66h-6.12V34.32h5.82Zm29.85-5.52a15.37,15.37,0,0,1,8.1,2.1A13.46,13.46,0,0,1,416,41.52a18.58,18.58,0,0,1,1.92,8.64,19,19,0,0,1-1.92,8.7,13.91,13.91,0,0,1-5.34,5.82,17.1,17.1,0,0,1-16.2,0,14.32,14.32,0,0,1-5.4-5.82,19.46,19.46,0,0,1-1.86-8.7,19.08,19.08,0,0,1,1.86-8.64,13.83,13.83,0,0,1,5.4-5.82A15.37,15.37,0,0,1,402.56,33.6Zm0,28.14a7.93,7.93,0,0,0,6.6-3.06q2.46-3.12,2.46-8.52t-2.46-8.46a7.87,7.87,0,0,0-6.6-3.12,8,8,0,0,0-6.66,3.12q-2.46,3.06-2.46,8.46t2.46,8.52A8.09,8.09,0,0,0,402.56,61.74Zm27.26,2.82q0,4.68-1.8,7.26a6.13,6.13,0,0,1-5.34,2.64v-3.3a2.66,2.66,0,0,0,2.4-1.32A7.76,7.76,0,0,0,425.8,66h-3.42V58.56h7.44Zm32.71-3.84V66q-1.32.12-4.5.12-4.44,0-6.36-1.44t-1.86-5.52V38.94h-5.22V34.32h5.22V25.38h6.12v8.94h7v4.62h-7v18.6q0,2.1.78,2.7a4.83,4.83,0,0,0,2.82.6Zm10.21-22.2a11.14,11.14,0,0,1,9.72-4.92,12,12,0,0,1,5.46,1.26,9.14,9.14,0,0,1,4,3.78A12.09,12.09,0,0,1,493.5,45V66h-6.12V46.86q0-4.38-1.74-6.24a6.9,6.9,0,0,0-5.28-1.86A6.49,6.49,0,0,0,476.58,40a9.1,9.1,0,0,0-2.94,3.66,12.33,12.33,0,0,0-1.14,5.46V66h-6.12V22.56h6.12v16Zm54.13,18.24a15.17,15.17,0,0,1-4.8,7.08q-3.48,2.88-9.84,2.88a14.93,14.93,0,0,1-7.8-2,14.17,14.17,0,0,1-5.22-5.82,19.32,19.32,0,0,1-1.86-8.64,20,20,0,0,1,1.8-8.7,13.83,13.83,0,0,1,5.16-5.82,14.52,14.52,0,0,1,7.86-2.1,15,15,0,0,1,7.74,2,13,13,0,0,1,5.28,5.58,18,18,0,0,1,1.92,8.58q0,1.26-.06,1.92H503.53A11.5,11.5,0,0,0,506,58.92a7.81,7.81,0,0,0,6.24,2.82,8.48,8.48,0,0,0,5.64-1.68,9.85,9.85,0,0,0,2.82-4Zm-14.7-18.18A7.61,7.61,0,0,0,506.23,41,10.48,10.48,0,0,0,503.65,47h17.22a10.34,10.34,0,0,0-2.64-6A7.85,7.85,0,0,0,512.17,38.58ZM545.63,66A33.72,33.72,0,0,1,542,73.44a9.44,9.44,0,0,1-3.72,3.42,10.66,10.66,0,0,1-4.56.9,27.62,27.62,0,0,1-3.72-.18v-5.4a6.48,6.48,0,0,1,.84.12,8.89,8.89,0,0,0,2,.18,4.89,4.89,0,0,0,3.6-1.2,15.48,15.48,0,0,0,2.64-4.5l.48-1.2L526.85,34.32h6.6l8.94,24h.24l8.4-24h6.6ZM91.4,151a3.54,3.54,0,0,1-.72-1.56,12.92,12.92,0,0,1-.24-2.64,8.94,8.94,0,0,1-4.5,3.72,16.5,16.5,0,0,1-6.18,1.2,12,12,0,0,1-5.22-1.14,10,10,0,0,1-3.84-3.3,9.16,9.16,0,0,1-1.38-5q0-4.86,3.36-7.14T82.82,132a17.75,17.75,0,0,0,5.94-1.26,2.61,2.61,0,0,0,1.62-2.4q0-4.74-6.66-4.74A8.34,8.34,0,0,0,79,125a7,7,0,0,0-2.94,4l-5.58-1.32a10.64,10.64,0,0,1,4.68-6.6A15.33,15.33,0,0,1,84,118.6q6.48,0,9.48,2.7a8.74,8.74,0,0,1,3.06,7v15.9q0,3,.12,4.44a7,7,0,0,0,.72,2.4Zm-1-16.32a5.67,5.67,0,0,1-2.82,1.2q-2.1.42-5.4.84a10.19,10.19,0,0,0-4.74,1.74,4.35,4.35,0,0,0-1.86,3.78A4.27,4.27,0,0,0,77,145.72a6.22,6.22,0,0,0,4,1.14A12.15,12.15,0,0,0,85.4,146a8.3,8.3,0,0,0,3.54-2.76,7.68,7.68,0,0,0,1.44-4.74Zm16.72-10.56h.24a10.45,10.45,0,0,1,9.42-5.52,12.7,12.7,0,0,1,2.82.3v5.88a22.16,22.16,0,0,0-3.12-.24,9.18,9.18,0,0,0-6.6,2.34q-2.46,2.28-2.46,7.32V151h-6.12V119.32h5.82Zm44,17.64a15.17,15.17,0,0,1-4.8,7.08q-3.48,2.88-9.84,2.88a14.93,14.93,0,0,1-7.8-2,14.17,14.17,0,0,1-5.22-5.82,19.32,19.32,0,0,1-1.86-8.64,20,20,0,0,1,1.8-8.7,13.83,13.83,0,0,1,5.16-5.82,14.52,14.52,0,0,1,7.86-2.1,15,15,0,0,1,7.74,2,13,13,0,0,1,5.28,5.58,18,18,0,0,1,1.92,8.58q0,1.26-.06,1.92H127.77a11.5,11.5,0,0,0,2.46,7.26,7.81,7.81,0,0,0,6.24,2.82,8.48,8.48,0,0,0,5.64-1.68,9.85,9.85,0,0,0,2.82-4Zm-14.7-18.18a7.61,7.61,0,0,0-5.94,2.46,10.48,10.48,0,0,0-2.58,5.94h17.22a10.34,10.34,0,0,0-2.64-6A7.85,7.85,0,0,0,136.41,123.58ZM187.73,151a3.54,3.54,0,0,1-.72-1.56,12.92,12.92,0,0,1-.24-2.64,8.94,8.94,0,0,1-4.5,3.72,16.5,16.5,0,0,1-6.18,1.2,12,12,0,0,1-5.22-1.14,10,10,0,0,1-3.84-3.3,9.16,9.16,0,0,1-1.38-5q0-4.86,3.36-7.14T179.15,132a17.75,17.75,0,0,0,5.94-1.26,2.61,2.61,0,0,0,1.62-2.4q0-4.74-6.66-4.74a8.34,8.34,0,0,0-4.68,1.38,7,7,0,0,0-2.94,4l-5.58-1.32a10.64,10.64,0,0,1,4.68-6.6,15.33,15.33,0,0,1,8.76-2.46q6.48,0,9.48,2.7a8.74,8.74,0,0,1,3.06,7v15.9q0,3,.12,4.44a7,7,0,0,0,.72,2.4Zm-1-16.32a5.67,5.67,0,0,1-2.82,1.2q-2.1.42-5.4.84a10.19,10.19,0,0,0-4.74,1.74,4.35,4.35,0,0,0-1.86,3.78,4.27,4.27,0,0,0,1.44,3.48,6.22,6.22,0,0,0,4,1.14,12.15,12.15,0,0,0,4.44-.84,8.3,8.3,0,0,0,3.54-2.76,7.68,7.68,0,0,0,1.44-4.74Zm26.8-16.08a13.61,13.61,0,0,1,12.54,7.92,19.08,19.08,0,0,1,1.86,8.64,19.46,19.46,0,0,1-1.86,8.7,13.91,13.91,0,0,1-5.1,5.82,14.73,14.73,0,0,1-13.44.78,9,9,0,0,1-3.84-3.54h-.24V151h-5.82V107.56h6.12V123H204a9.15,9.15,0,0,1,3.78-3.24A13.24,13.24,0,0,1,213.51,118.6Zm-1.08,28.14a8.16,8.16,0,0,0,6.72-3.06q2.52-3.12,2.52-8.52t-2.52-8.46a8.73,8.73,0,0,0-13.38,0q-2.46,3.12-2.46,8.46t2.46,8.46A8.14,8.14,0,0,0,212.43,146.74Zm25.81-39.18V151h-6.12V107.56ZM272,141.76a15.17,15.17,0,0,1-4.8,7.08q-3.48,2.88-9.84,2.88a14.93,14.93,0,0,1-7.8-2,14.17,14.17,0,0,1-5.22-5.82,19.32,19.32,0,0,1-1.86-8.64,20,20,0,0,1,1.8-8.7,13.83,13.83,0,0,1,5.16-5.82,14.52,14.52,0,0,1,7.86-2.1,15,15,0,0,1,7.74,2,13,13,0,0,1,5.28,5.58,18,18,0,0,1,1.92,8.58q0,1.26-.06,1.92H248.65a11.5,11.5,0,0,0,2.46,7.26,7.81,7.81,0,0,0,6.24,2.82,8.48,8.48,0,0,0,5.64-1.68,9.85,9.85,0,0,0,2.82-4Zm-14.7-18.18a7.61,7.61,0,0,0-5.94,2.46,10.48,10.48,0,0,0-2.58,5.94H266a10.34,10.34,0,0,0-2.64-6A7.85,7.85,0,0,0,257.29,123.58Zm46.34,22.14V151q-1.32.12-4.5.12-4.44,0-6.36-1.44t-1.86-5.52V123.94h-5.22v-4.62h5.22v-8.94H297v8.94h7v4.62h-7v18.6q0,2.1.78,2.7a4.83,4.83,0,0,0,2.82.6Zm17.54-27.12a15.37,15.37,0,0,1,8.1,2.1,13.46,13.46,0,0,1,5.34,5.82,18.58,18.58,0,0,1,1.92,8.64,19,19,0,0,1-1.92,8.7,13.91,13.91,0,0,1-5.34,5.82,17.1,17.1,0,0,1-16.2,0,14.32,14.32,0,0,1-5.4-5.82,19.46,19.46,0,0,1-1.86-8.7,19.08,19.08,0,0,1,1.86-8.64,13.83,13.83,0,0,1,5.4-5.82A15.37,15.37,0,0,1,321.17,118.6Zm0,28.14a7.93,7.93,0,0,0,6.6-3.06q2.46-3.12,2.46-8.52t-2.46-8.46a7.87,7.87,0,0,0-6.6-3.12,8,8,0,0,0-6.66,3.12q-2.46,3.06-2.46,8.46t2.46,8.52A8.09,8.09,0,0,0,321.17,146.74Zm46.79-1V151q-1.32.12-4.5.12-4.44,0-6.36-1.44t-1.86-5.52V123.94H350v-4.62h5.22v-8.94h6.12v8.94h7v4.62h-7v18.6q0,2.1.78,2.7a4.83,4.83,0,0,0,2.82.6Zm17.55-27.12a15.37,15.37,0,0,1,8.1,2.1,13.46,13.46,0,0,1,5.34,5.82,18.58,18.58,0,0,1,1.92,8.64,19,19,0,0,1-1.92,8.7,13.91,13.91,0,0,1-5.34,5.82,17.1,17.1,0,0,1-16.2,0,14.32,14.32,0,0,1-5.4-5.82,19.46,19.46,0,0,1-1.86-8.7,19.08,19.08,0,0,1,1.86-8.64,13.83,13.83,0,0,1,5.4-5.82A15.37,15.37,0,0,1,385.51,118.6Zm0,28.14a7.93,7.93,0,0,0,6.6-3.06q2.46-3.12,2.46-8.52t-2.46-8.46a7.87,7.87,0,0,0-6.6-3.12,8,8,0,0,0-6.66,3.12q-2.46,3.06-2.46,8.46t2.46,8.52A8.09,8.09,0,0,0,385.51,146.74ZM411.09,151H405V107.56h6.12V132.1L424,119.32h7.68l-12.42,12.12L433.05,151h-7.32l-10.8-15.54-3.84,3.66Zm49.69-9.24a15.17,15.17,0,0,1-4.8,7.08q-3.48,2.88-9.84,2.88a14.93,14.93,0,0,1-7.8-2,14.17,14.17,0,0,1-5.22-5.82,19.32,19.32,0,0,1-1.86-8.64,20,20,0,0,1,1.8-8.7,13.83,13.83,0,0,1,5.16-5.82,14.52,14.52,0,0,1,7.86-2.1,15,15,0,0,1,7.74,2,13,13,0,0,1,5.28,5.58,18,18,0,0,1,1.92,8.58q0,1.26-.06,1.92H437.44a11.5,11.5,0,0,0,2.46,7.26,7.81,7.81,0,0,0,6.24,2.82,8.48,8.48,0,0,0,5.64-1.68,9.85,9.85,0,0,0,2.82-4Zm-14.7-18.18a7.61,7.61,0,0,0-5.94,2.46,10.48,10.48,0,0,0-2.58,5.94h17.22a10.34,10.34,0,0,0-2.64-6A7.85,7.85,0,0,0,446.08,123.58Zm25.07-.06a10.79,10.79,0,0,1,4.26-3.72,12.81,12.81,0,0,1,5.58-1.2,12.17,12.17,0,0,1,5.52,1.26,9.42,9.42,0,0,1,4.14,3.78,11.89,11.89,0,0,1,1.56,6.36v21h-6.12V131.86q0-4.38-1.74-6.24a6.9,6.9,0,0,0-5.28-1.86,7.05,7.05,0,0,0-3.84,1.14,8.39,8.39,0,0,0-2.94,3.36,12.11,12.11,0,0,0-1.08,5.34V151h-6.12V119.32h5.82v4.2Zm32.11-4.2V151h-6.12V119.32Zm0-11.76v6.66h-6.12v-6.66ZM507,145.42l17.64-20.7H507.91v-5.4h24.24V125l-17.64,20.76h17.64V151H507Zm56.72-3.66a15.17,15.17,0,0,1-4.8,7.08q-3.48,2.88-9.84,2.88a14.93,14.93,0,0,1-7.8-2,14.17,14.17,0,0,1-5.22-5.82,19.32,19.32,0,0,1-1.86-8.64,20,20,0,0,1,1.8-8.7,13.83,13.83,0,0,1,5.16-5.82,14.52,14.52,0,0,1,7.86-2.1,15,15,0,0,1,7.74,2,13,13,0,0,1,5.28,5.58,18,18,0,0,1,1.92,8.58q0,1.26-.06,1.92H540.39a11.5,11.5,0,0,0,2.46,7.26,7.81,7.81,0,0,0,6.24,2.82,8.48,8.48,0,0,0,5.64-1.68,9.85,9.85,0,0,0,2.82-4ZM549,123.58a7.61,7.61,0,0,0-5.94,2.46,10.48,10.48,0,0,0-2.58,5.94h17.22a10.34,10.34,0,0,0-2.64-6A7.85,7.85,0,0,0,549,123.58ZM76.34,209.12h.24A10.45,10.45,0,0,1,86,203.6a12.7,12.7,0,0,1,2.82.3v5.88a22.16,22.16,0,0,0-3.12-.24,9.18,9.18,0,0,0-6.6,2.34q-2.46,2.28-2.46,7.32V236H70.52V204.32h5.82Zm44,17.64a15.17,15.17,0,0,1-4.8,7.08q-3.48,2.88-9.84,2.88a14.93,14.93,0,0,1-7.8-2,14.17,14.17,0,0,1-5.22-5.82,19.32,19.32,0,0,1-1.86-8.64,20,20,0,0,1,1.8-8.7,13.83,13.83,0,0,1,5.16-5.82,14.52,14.52,0,0,1,7.86-2.1,15,15,0,0,1,7.74,2,13,13,0,0,1,5.28,5.58,18,18,0,0,1,1.92,8.58q0,1.26-.06,1.92H97a11.5,11.5,0,0,0,2.46,7.26,7.81,7.81,0,0,0,6.24,2.82,8.48,8.48,0,0,0,5.64-1.68,9.85,9.85,0,0,0,2.82-4Zm-14.7-18.18A7.61,7.61,0,0,0,99.71,211,10.48,10.48,0,0,0,97.13,217h17.22a10.34,10.34,0,0,0-2.64-6A7.85,7.85,0,0,0,105.65,208.58Zm25.07-.06A10.79,10.79,0,0,1,135,204.8a12.81,12.81,0,0,1,5.58-1.2,12.17,12.17,0,0,1,5.52,1.26,9.42,9.42,0,0,1,4.14,3.78,11.89,11.89,0,0,1,1.56,6.36v21h-6.12V216.86q0-4.38-1.74-6.24a6.9,6.9,0,0,0-5.28-1.86,7.05,7.05,0,0,0-3.84,1.14,8.39,8.39,0,0,0-2.94,3.36,12.11,12.11,0,0,0-1.08,5.34V236h-6.12V204.32h5.82v4.2Zm54.43,18.24a15.17,15.17,0,0,1-4.8,7.08q-3.48,2.88-9.84,2.88a14.93,14.93,0,0,1-7.8-2,14.17,14.17,0,0,1-5.22-5.82,19.32,19.32,0,0,1-1.86-8.64,20,20,0,0,1,1.8-8.7,13.83,13.83,0,0,1,5.16-5.82,14.52,14.52,0,0,1,7.86-2.1,15,15,0,0,1,7.74,2,13,13,0,0,1,5.28,5.58,18,18,0,0,1,1.92,8.58q0,1.26-.06,1.92H161.81a11.5,11.5,0,0,0,2.46,7.26,7.81,7.81,0,0,0,6.24,2.82,8.48,8.48,0,0,0,5.64-1.68,9.85,9.85,0,0,0,2.82-4Zm-14.7-18.18a7.61,7.61,0,0,0-5.94,2.46,10.48,10.48,0,0,0-2.58,5.94h17.22a10.34,10.34,0,0,0-2.64-6A7.85,7.85,0,0,0,170.45,208.58ZM223.17,236h-6.84l-7-23.46h-.24L202,236h-6.54l-10.32-31.68h6.72l7,24.24h.24l6.84-24.24h7l6.84,24.24H220l7-24.24h6.48Zm31.65,0a3.54,3.54,0,0,1-.72-1.56,12.92,12.92,0,0,1-.24-2.64,8.94,8.94,0,0,1-4.5,3.72,16.5,16.5,0,0,1-6.18,1.2,12,12,0,0,1-5.22-1.14,10,10,0,0,1-3.84-3.3,9.16,9.16,0,0,1-1.38-5q0-4.86,3.36-7.14T246.24,217a17.75,17.75,0,0,0,5.94-1.26,2.61,2.61,0,0,0,1.62-2.4q0-4.74-6.66-4.74a8.34,8.34,0,0,0-4.68,1.38,7,7,0,0,0-2.94,4l-5.58-1.32a10.64,10.64,0,0,1,4.68-6.6,15.33,15.33,0,0,1,8.76-2.46q6.48,0,9.48,2.7a8.74,8.74,0,0,1,3.06,7v15.9q0,3,.12,4.44a7,7,0,0,0,.72,2.4Zm-1-16.32a5.67,5.67,0,0,1-2.82,1.2q-2.1.42-5.4.84a10.19,10.19,0,0,0-4.74,1.74,4.35,4.35,0,0,0-1.86,3.78,4.27,4.27,0,0,0,1.44,3.48,6.22,6.22,0,0,0,4,1.14,12.15,12.15,0,0,0,4.44-.84,8.3,8.3,0,0,0,3.54-2.76,7.68,7.68,0,0,0,1.44-4.74Zm26.8-16.08a13.61,13.61,0,0,1,12.54,7.92,19.08,19.08,0,0,1,1.86,8.64,19.46,19.46,0,0,1-1.86,8.7,13.91,13.91,0,0,1-5.1,5.82,14.73,14.73,0,0,1-13.44.78,9,9,0,0,1-3.84-3.54h-.24V236H264.7V192.56h6.12V208h.24a9.15,9.15,0,0,1,3.78-3.24A13.24,13.24,0,0,1,280.6,203.6Zm-1.08,28.14a8.16,8.16,0,0,0,6.72-3.06q2.52-3.12,2.52-8.52t-2.52-8.46a8.73,8.73,0,0,0-13.38,0q-2.46,3.12-2.46,8.46t2.46,8.46A8.14,8.14,0,0,0,279.52,231.74Zm25.81-39.18V236h-6.12V192.56Zm33.75,34.2a15.17,15.17,0,0,1-4.8,7.08q-3.48,2.88-9.84,2.88a14.93,14.93,0,0,1-7.8-2,14.17,14.17,0,0,1-5.22-5.82,19.32,19.32,0,0,1-1.86-8.64,20,20,0,0,1,1.8-8.7,13.83,13.83,0,0,1,5.16-5.82,14.52,14.52,0,0,1,7.86-2.1,15,15,0,0,1,7.74,2,13,13,0,0,1,5.28,5.58,18,18,0,0,1,1.92,8.58q0,1.26-.06,1.92H315.74a11.5,11.5,0,0,0,2.46,7.26,7.81,7.81,0,0,0,6.24,2.82,8.48,8.48,0,0,0,5.64-1.68,9.85,9.85,0,0,0,2.82-4Zm-14.7-18.18a7.61,7.61,0,0,0-5.94,2.46,10.48,10.48,0,0,0-2.58,5.94h17.22a10.34,10.34,0,0,0-2.64-6A7.85,7.85,0,0,0,324.38,208.58Zm59,18.18a15.17,15.17,0,0,1-4.8,7.08q-3.48,2.88-9.84,2.88a14.93,14.93,0,0,1-7.8-2,14.17,14.17,0,0,1-5.22-5.82,19.32,19.32,0,0,1-1.86-8.64,20,20,0,0,1,1.8-8.7,13.83,13.83,0,0,1,5.16-5.82,14.52,14.52,0,0,1,7.86-2.1,15,15,0,0,1,7.74,2,13,13,0,0,1,5.28,5.58,18,18,0,0,1,1.92,8.58q0,1.26-.06,1.92H360a11.5,11.5,0,0,0,2.46,7.26,7.81,7.81,0,0,0,6.24,2.82,8.48,8.48,0,0,0,5.64-1.68,9.85,9.85,0,0,0,2.82-4Zm-14.7-18.18a7.61,7.61,0,0,0-5.94,2.46,10.48,10.48,0,0,0-2.58,5.94h17.22a10.34,10.34,0,0,0-2.64-6A7.85,7.85,0,0,0,368.68,208.58Zm25.07-.06A10.79,10.79,0,0,1,398,204.8a12.81,12.81,0,0,1,5.58-1.2,12.17,12.17,0,0,1,5.52,1.26,9.42,9.42,0,0,1,4.14,3.78,11.89,11.89,0,0,1,1.56,6.36v21h-6.12V216.86q0-4.38-1.74-6.24a6.9,6.9,0,0,0-5.28-1.86,7.05,7.05,0,0,0-3.84,1.14,8.39,8.39,0,0,0-2.94,3.36,12.11,12.11,0,0,0-1.08,5.34V236h-6.12V204.32h5.82v4.2Zm54.43,18.24a15.17,15.17,0,0,1-4.8,7.08q-3.48,2.88-9.84,2.88a14.93,14.93,0,0,1-7.8-2,14.17,14.17,0,0,1-5.22-5.82,19.32,19.32,0,0,1-1.86-8.64,20,20,0,0,1,1.8-8.7,13.83,13.83,0,0,1,5.16-5.82,14.52,14.52,0,0,1,7.86-2.1,15,15,0,0,1,7.74,2,13,13,0,0,1,5.28,5.58,18,18,0,0,1,1.92,8.58q0,1.26-.06,1.92H424.84a11.5,11.5,0,0,0,2.46,7.26,7.81,7.81,0,0,0,6.24,2.82,8.48,8.48,0,0,0,5.64-1.68,9.85,9.85,0,0,0,2.82-4Zm-14.7-18.18a7.61,7.61,0,0,0-5.94,2.46A10.48,10.48,0,0,0,425,217h17.22a10.34,10.34,0,0,0-2.64-6A7.85,7.85,0,0,0,433.48,208.58Zm24.83.54h.24A10.45,10.45,0,0,1,468,203.6a12.7,12.7,0,0,1,2.82.3v5.88a22.16,22.16,0,0,0-3.12-.24,9.18,9.18,0,0,0-6.6,2.34q-2.46,2.28-2.46,7.32V236h-6.12V204.32h5.82Zm44.19,24.66q0,7.2-4.08,10.56t-10.74,3.42a16.65,16.65,0,0,1-9.18-2.46,12.72,12.72,0,0,1-5.22-7.56l5.88-1.26a8.07,8.07,0,0,0,3,4.8,9.76,9.76,0,0,0,5.52,1.44q8.7,0,8.7-9.24V230.3h-.24a8.92,8.92,0,0,1-3.72,2.94,13.33,13.33,0,0,1-5.52,1.08,14.08,14.08,0,0,1-7.32-1.92,13.28,13.28,0,0,1-5-5.4,18.72,18.72,0,0,1,0-16,13.19,13.19,0,0,1,5-5.46,14.08,14.08,0,0,1,7.32-1.92,13.24,13.24,0,0,1,5.76,1.2,8.31,8.31,0,0,1,3.78,3.18h.24v-3.66h5.82Zm-14.58-4.32a7.93,7.93,0,0,0,6.42-2.88,11.52,11.52,0,0,0,2.4-7.62,11.18,11.18,0,0,0-2.4-7.5,7.93,7.93,0,0,0-6.42-2.88,8.11,8.11,0,0,0-6.48,2.88A11.18,11.18,0,0,0,479,219a11.66,11.66,0,0,0,2.4,7.62A8.11,8.11,0,0,0,487.92,229.46ZM523.54,236a33.72,33.72,0,0,1-3.66,7.44,9.44,9.44,0,0,1-3.72,3.42,10.66,10.66,0,0,1-4.56.9,27.62,27.62,0,0,1-3.72-.18v-5.4a6.48,6.48,0,0,1,.84.12,8.89,8.89,0,0,0,2,.18,4.89,4.89,0,0,0,3.6-1.2,15.48,15.48,0,0,0,2.64-4.5l.48-1.2-12.72-31.26h6.6l8.94,24h.24l8.4-24h6.6ZM86.42,321.72a13.84,13.84,0,0,1-5.76-1.14,9.15,9.15,0,0,1-3.78-3.24h-.24V332H70.52V289.32h5.82v4.08h.24a8.85,8.85,0,0,1,3.9-3.54A13.85,13.85,0,0,1,99,296.52a19.08,19.08,0,0,1,1.86,8.64,19.46,19.46,0,0,1-1.86,8.7,13.91,13.91,0,0,1-5.1,5.82A13.67,13.67,0,0,1,86.42,321.72Zm-1.08-28.14a8.14,8.14,0,0,0-6.66,3.12q-2.46,3.12-2.46,8.46t2.46,8.46a8.79,8.79,0,0,0,13.38.06q2.52-3.12,2.52-8.52t-2.52-8.46A8.1,8.1,0,0,0,85.34,293.58Zm25.4.54H111a10.45,10.45,0,0,1,9.42-5.52,12.7,12.7,0,0,1,2.82.3v5.88a21.91,21.91,0,0,0-3.11-.24,9.16,9.16,0,0,0-6.6,2.34Q111,299.16,111,304.2V321h-6.12V289.32h5.82Zm29.84-5.52a15.37,15.37,0,0,1,8.1,2.1,13.46,13.46,0,0,1,5.34,5.82,18.58,18.58,0,0,1,1.92,8.64,19,19,0,0,1-1.92,8.7,13.91,13.91,0,0,1-5.34,5.82,17.1,17.1,0,0,1-16.2,0,14.32,14.32,0,0,1-5.4-5.82,19.46,19.46,0,0,1-1.86-8.7,19.08,19.08,0,0,1,1.86-8.64,13.83,13.83,0,0,1,5.4-5.82A15.37,15.37,0,0,1,140.58,288.6Zm0,28.14a7.93,7.93,0,0,0,6.6-3.06q2.46-3.12,2.46-8.52t-2.46-8.46a7.87,7.87,0,0,0-6.6-3.12,8,8,0,0,0-6.66,3.12q-2.46,3.06-2.46,8.46t2.46,8.52A8.09,8.09,0,0,0,140.58,316.74Zm32.91-28.14a12.85,12.85,0,0,1,5.7,1.2A9.08,9.08,0,0,1,183,293h.24V277.56h6.12V321h-5.82v-4.08h-.24a8.89,8.89,0,0,1-3.9,3.54,13.37,13.37,0,0,1-5.94,1.26,14,14,0,0,1-7.5-2,14.48,14.48,0,0,1-5.1-5.82,20,20,0,0,1-1.8-8.7,19.62,19.62,0,0,1,1.8-8.64,14,14,0,0,1,5.1-5.82A13.67,13.67,0,0,1,173.49,288.6Zm1,28.14a8.09,8.09,0,0,0,6.66-3.06q2.46-3.12,2.46-8.52t-2.46-8.46a8,8,0,0,0-6.66-3.12,8.2,8.2,0,0,0-6.72,3.12q-2.46,3.06-2.46,8.46t2.46,8.52A8.26,8.26,0,0,0,174.51,316.74Zm40.76.06a11.16,11.16,0,0,1-9.84,4.92,11.58,11.58,0,0,1-8-2.88q-3.24-2.88-3.24-8.52v-21h6.12v19.14q0,4.38,1.74,6.24a7.79,7.79,0,0,0,9.12.72,8,8,0,0,0,2.88-3.36,11.57,11.57,0,0,0,1.14-5.34v-17.4h6.12V321h-5.82v-4.2Zm24.85-.06c4.25,0,7-2.26,8.28-6.78l6.19.9a15.93,15.93,0,0,1-4.69,7.56c-2.31,2.2-5.58,3.3-9.78,3.3a15,15,0,0,1-7.86-2,14.24,14.24,0,0,1-5.22-5.82,19.46,19.46,0,0,1-1.86-8.7,19.08,19.08,0,0,1,1.86-8.64,13.76,13.76,0,0,1,5.22-5.82,14.83,14.83,0,0,1,7.92-2.1q6,0,9.25,2.94a15.52,15.52,0,0,1,4.5,6.12l-5.77,1.86a10.15,10.15,0,0,0-2.64-4.08,7.1,7.1,0,0,0-5.34-1.86,7.71,7.71,0,0,0-6.42,3.12q-2.32,3.06-2.33,8.46t2.33,8.46A7.66,7.66,0,0,0,240.12,316.74Zm33.74-1V321q-1.32.12-4.5.12-4.44,0-6.36-1.44t-1.86-5.52V293.94h-5.22v-4.62h5.22v-8.94h6.12v8.94h7v4.62h-7v18.6q0,2.1.78,2.7a4.83,4.83,0,0,0,2.82.6ZM284,289.32V321h-6.12V289.32Zm0-11.76v6.66h-6.12v-6.66Zm19.58,11a15.37,15.37,0,0,1,8.1,2.1,13.46,13.46,0,0,1,5.34,5.82,18.58,18.58,0,0,1,1.92,8.64,19,19,0,0,1-1.92,8.7,13.91,13.91,0,0,1-5.34,5.82,17.1,17.1,0,0,1-16.2,0,14.32,14.32,0,0,1-5.4-5.82,19.46,19.46,0,0,1-1.86-8.7,19.08,19.08,0,0,1,1.86-8.64,13.83,13.83,0,0,1,5.4-5.82A15.37,15.37,0,0,1,303.53,288.6Zm0,28.14a7.93,7.93,0,0,0,6.6-3.06q2.46-3.12,2.46-8.52t-2.46-8.46a7.87,7.87,0,0,0-6.6-3.12,8,8,0,0,0-6.66,3.12q-2.46,3.06-2.46,8.46t2.46,8.52A8.09,8.09,0,0,0,303.53,316.74Zm25.53-23.22a10.79,10.79,0,0,1,4.26-3.72,12.81,12.81,0,0,1,5.58-1.2,12.17,12.17,0,0,1,5.52,1.26,9.42,9.42,0,0,1,4.14,3.78,11.89,11.89,0,0,1,1.56,6.36v21H344V301.86q0-4.38-1.74-6.24a6.9,6.9,0,0,0-5.28-1.86,7.05,7.05,0,0,0-3.84,1.14,8.39,8.39,0,0,0-2.94,3.36,12.11,12.11,0,0,0-1.08,5.34V321H323V289.32h5.82v4.2Z" transform="translate(-6.49 -22.56)"/><g class="cls-4"><path class="cls-5" d="M164.73,978a3.7,3.7,0,1,0-4.23,3.07A3.71,3.71,0,0,0,164.73,978Z" transform="translate(-6.49 -22.56)"/><path class="cls-6" d="M180.61,961.74a3.38,3.38,0,1,0-3.86,2.8A3.37,3.37,0,0,0,180.61,961.74Z" transform="translate(-6.49 -22.56)"/><path class="cls-7" d="M82.4,916.92a3.47,3.47,0,1,0-4,2.89A3.47,3.47,0,0,0,82.4,916.92Z" transform="translate(-6.49 -22.56)"/><path class="cls-5" d="M213.1,916.92a3.47,3.47,0,1,0-4,2.89A3.46,3.46,0,0,0,213.1,916.92Z" transform="translate(-6.49 -22.56)"/><path class="cls-7" d="M34.34,901.28a3.45,3.45,0,1,0-3.94,2.86A3.45,3.45,0,0,0,34.34,901.28Z" transform="translate(-6.49 -22.56)"/><path class="cls-5" d="M50.4,901.26a3.47,3.47,0,1,0-4,2.89A3.48,3.48,0,0,0,50.4,901.26Z" transform="translate(-6.49 -22.56)"/><path class="cls-7" d="M66.43,901.25a3.49,3.49,0,1,0-4,2.9A3.48,3.48,0,0,0,66.43,901.25Z" transform="translate(-6.49 -22.56)"/><path class="cls-7" d="M82.25,901.31a3.4,3.4,0,1,0-3.89,2.83A3.4,3.4,0,0,0,82.25,901.31Z" transform="translate(-6.49 -22.56)"/><path class="cls-7" d="M148.5,900.76a3.67,3.67,0,1,0-4.2,3A3.67,3.67,0,0,0,148.5,900.76Z" transform="translate(-6.49 -22.56)"/><path class="cls-7" d="M164.53,900.72a3.5,3.5,0,1,0-4,2.91A3.51,3.51,0,0,0,164.53,900.72Z" transform="translate(-6.49 -22.56)"/><path class="cls-7" d="M180.68,900.72a3.45,3.45,0,1,0-4,2.88A3.45,3.45,0,0,0,180.68,900.72Z" transform="translate(-6.49 -22.56)"/><path class="cls-7" d="M196.87,900.72a3.44,3.44,0,1,0-3.94,2.86A3.44,3.44,0,0,0,196.87,900.72Z" transform="translate(-6.49 -22.56)"/><path class="cls-7" d="M311.19,880.91a4.38,4.38,0,1,0-5,3.64A4.38,4.38,0,0,0,311.19,880.91Z" transform="translate(-6.49 -22.56)"/><path class="cls-7" d="M13.36,884.27a3.45,3.45,0,1,0-3.95,2.87A3.44,3.44,0,0,0,13.36,884.27Z" transform="translate(-6.49 -22.56)"/><path class="cls-7" d="M29.36,884.27a3.45,3.45,0,1,0-3.95,2.87A3.44,3.44,0,0,0,29.36,884.27Z" transform="translate(-6.49 -22.56)"/><path class="cls-7" d="M45.37,884.27a3.46,3.46,0,1,0-4,2.87A3.45,3.45,0,0,0,45.37,884.27Z" transform="translate(-6.49 -22.56)"/><path class="cls-7" d="M61.31,884.29a3.43,3.43,0,1,0-3.92,2.85A3.44,3.44,0,0,0,61.31,884.29Z" transform="translate(-6.49 -22.56)"/><path class="cls-7" d="M82.66,884.52a6.06,6.06,0,1,0-6.93,5A6.06,6.06,0,0,0,82.66,884.52Z" transform="translate(-6.49 -22.56)"/><path class="cls-7" d="M148.29,884.52a3.45,3.45,0,1,0-3.95,2.87A3.44,3.44,0,0,0,148.29,884.52Z" transform="translate(-6.49 -22.56)"/><path class="cls-7" d="M164.49,864.56a3.45,3.45,0,1,0-4,2.87A3.45,3.45,0,0,0,164.49,864.56Z" transform="translate(-6.49 -22.56)"/><path class="cls-7" d="M180.68,884.52a3.45,3.45,0,1,0-4,2.87A3.44,3.44,0,0,0,180.68,884.52Z" transform="translate(-6.49 -22.56)"/><path class="cls-7" d="M196.88,884.52a3.45,3.45,0,1,0-3.95,2.87A3.44,3.44,0,0,0,196.88,884.52Z" transform="translate(-6.49 -22.56)"/><path class="cls-7" d="M15.28,848.37a3.46,3.46,0,1,0-3.95,2.87A3.46,3.46,0,0,0,15.28,848.37Z" transform="translate(-6.49 -22.56)"/><path class="cls-7" d="M31.49,848.37a3.46,3.46,0,1,0-4,2.87A3.47,3.47,0,0,0,31.49,848.37Z" transform="translate(-6.49 -22.56)"/><path class="cls-7" d="M47.72,848.37a3.49,3.49,0,1,0-4,2.9A3.49,3.49,0,0,0,47.72,848.37Z" transform="translate(-6.49 -22.56)"/><path class="cls-7" d="M63.88,848.37a3.46,3.46,0,1,0-4,2.87A3.47,3.47,0,0,0,63.88,848.37Z" transform="translate(-6.49 -22.56)"/><path class="cls-7" d="M80.08,848.37a3.46,3.46,0,1,0-4,2.87A3.46,3.46,0,0,0,80.08,848.37Z" transform="translate(-6.49 -22.56)"/><path class="cls-7" d="M148.29,848.37a3.45,3.45,0,1,0-3.95,2.87A3.45,3.45,0,0,0,148.29,848.37Z" transform="translate(-6.49 -22.56)"/><path class="cls-7" d="M164.49,848.37a3.45,3.45,0,1,0-4,2.87A3.45,3.45,0,0,0,164.49,848.37Z" transform="translate(-6.49 -22.56)"/><path class="cls-7" d="M196.88,848.37a3.45,3.45,0,1,0-3.95,2.87A3.45,3.45,0,0,0,196.88,848.37Z" transform="translate(-6.49 -22.56)"/><path class="cls-7" d="M213.1,848.36a3.48,3.48,0,1,0-4,2.9A3.47,3.47,0,0,0,213.1,848.36Z" transform="translate(-6.49 -22.56)"/><path class="cls-7" d="M229.12,848.34a3.3,3.3,0,1,0-3.77,2.74A3.29,3.29,0,0,0,229.12,848.34Z" transform="translate(-6.49 -22.56)"/><path class="cls-7" d="M245.4,848.35a3.37,3.37,0,1,0-3.86,2.81A3.36,3.36,0,0,0,245.4,848.35Z" transform="translate(-6.49 -22.56)"/><path class="cls-7" d="M262.36,848.48a4.15,4.15,0,1,0-4.75,3.45A4.16,4.16,0,0,0,262.36,848.48Z" transform="translate(-6.49 -22.56)"/><path class="cls-7" d="M15.28,832.17A3.46,3.46,0,1,0,11.33,835,3.46,3.46,0,0,0,15.28,832.17Z" transform="translate(-6.49 -22.56)"/><path class="cls-7" d="M31.42,832.16A3.39,3.39,0,1,0,27.54,835,3.39,3.39,0,0,0,31.42,832.16Z" transform="translate(-6.49 -22.56)"/><path class="cls-7" d="M64.64,832.28a4.23,4.23,0,1,0-4.84,3.52A4.23,4.23,0,0,0,64.64,832.28Z" transform="translate(-6.49 -22.56)"/><path class="cls-7" d="M148.29,832.17a3.45,3.45,0,1,0-3.95,2.87A3.45,3.45,0,0,0,148.29,832.17Z" transform="translate(-6.49 -22.56)"/><path class="cls-7" d="M164.49,832.17a3.45,3.45,0,1,0-4,2.87A3.45,3.45,0,0,0,164.49,832.17Z" transform="translate(-6.49 -22.56)"/><path class="cls-7" d="M180.68,832.17a3.45,3.45,0,1,0-4,2.87A3.45,3.45,0,0,0,180.68,832.17Z" transform="translate(-6.49 -22.56)"/><path class="cls-7" d="M196.88,832.17a3.45,3.45,0,1,0-3.95,2.87A3.45,3.45,0,0,0,196.88,832.17Z" transform="translate(-6.49 -22.56)"/><path class="cls-7" d="M213.09,832.17a3.46,3.46,0,1,0-4,2.87A3.47,3.47,0,0,0,213.09,832.17Z" transform="translate(-6.49 -22.56)"/><path class="cls-7" d="M229.29,832.17a3.46,3.46,0,1,0-4,2.87A3.47,3.47,0,0,0,229.29,832.17Z" transform="translate(-6.49 -22.56)"/><path class="cls-7" d="M245.48,832.17a3.46,3.46,0,1,0-4,2.87A3.46,3.46,0,0,0,245.48,832.17Z" transform="translate(-6.49 -22.56)"/><path class="cls-7" d="M261.68,832.17a3.46,3.46,0,1,0-4,2.87A3.46,3.46,0,0,0,261.68,832.17Z" transform="translate(-6.49 -22.56)"/><path class="cls-7" d="M277.83,832.16a3.42,3.42,0,1,0-3.91,2.84A3.41,3.41,0,0,0,277.83,832.16Z" transform="translate(-6.49 -22.56)"/><path class="cls-7" d="M313.6,832.69a6.82,6.82,0,1,0-7.81,5.67A6.82,6.82,0,0,0,313.6,832.69Z" transform="translate(-6.49 -22.56)"/><path class="cls-7" d="M15.29,816a3.46,3.46,0,1,0-4,2.87A3.45,3.45,0,0,0,15.29,816Z" transform="translate(-6.49 -22.56)"/><path class="cls-7" d="M80,816a3.42,3.42,0,1,0-3.91,2.84A3.42,3.42,0,0,0,80,816Z" transform="translate(-6.49 -22.56)"/><path class="cls-7" d="M96.31,816a3.49,3.49,0,1,0-4,2.91A3.5,3.5,0,0,0,96.31,816Z" transform="translate(-6.49 -22.56)"/><path class="cls-7" d="M112.48,816a3.47,3.47,0,1,0-4,2.89A3.47,3.47,0,0,0,112.48,816Z" transform="translate(-6.49 -22.56)"/><path class="cls-7" d="M128.7,816a3.48,3.48,0,1,0-4,2.9A3.49,3.49,0,0,0,128.7,816Z" transform="translate(-6.49 -22.56)"/><path class="cls-7" d="M164.49,816a3.45,3.45,0,1,0-4,2.87A3.44,3.44,0,0,0,164.49,816Z" transform="translate(-6.49 -22.56)"/><path class="cls-7" d="M180.68,816a3.45,3.45,0,1,0-4,2.87A3.44,3.44,0,0,0,180.68,816Z" transform="translate(-6.49 -22.56)"/><path class="cls-7" d="M196.88,816a3.45,3.45,0,1,0-3.95,2.87A3.44,3.44,0,0,0,196.88,816Z" transform="translate(-6.49 -22.56)"/><path class="cls-7" d="M229.29,816a3.46,3.46,0,1,0-4,2.87A3.45,3.45,0,0,0,229.29,816Z" transform="translate(-6.49 -22.56)"/><path class="cls-7" d="M245.47,816a3.45,3.45,0,1,0-3.95,2.87A3.44,3.44,0,0,0,245.47,816Z" transform="translate(-6.49 -22.56)"/><path class="cls-7" d="M261.68,816a3.46,3.46,0,1,0-4,2.87A3.45,3.45,0,0,0,261.68,816Z" transform="translate(-6.49 -22.56)"/><path class="cls-7" d="M277.88,816a3.46,3.46,0,1,0-4,2.87A3.45,3.45,0,0,0,277.88,816Z" transform="translate(-6.49 -22.56)"/><path class="cls-7" d="M294.07,816a3.46,3.46,0,1,0-4,2.87A3.45,3.45,0,0,0,294.07,816Z" transform="translate(-6.49 -22.56)"/><path class="cls-7" d="M15.3,799.77a3.47,3.47,0,1,0-4,2.89A3.47,3.47,0,0,0,15.3,799.77Z" transform="translate(-6.49 -22.56)"/><path class="cls-7" d="M47.69,799.77a3.46,3.46,0,1,0-4,2.87A3.45,3.45,0,0,0,47.69,799.77Z" transform="translate(-6.49 -22.56)"/><path class="cls-7" d="M63.88,799.77a3.46,3.46,0,1,0-4,2.87A3.46,3.46,0,0,0,63.88,799.77Z" transform="translate(-6.49 -22.56)"/><path class="cls-7" d="M80.07,799.77a3.45,3.45,0,1,0-3.95,2.87A3.44,3.44,0,0,0,80.07,799.77Z" transform="translate(-6.49 -22.56)"/><path class="cls-7" d="M96.27,799.77a3.45,3.45,0,1,0-4,2.87A3.44,3.44,0,0,0,96.27,799.77Z" transform="translate(-6.49 -22.56)"/><path class="cls-7" d="M112.48,799.77a3.46,3.46,0,1,0-4,2.87A3.45,3.45,0,0,0,112.48,799.77Z" transform="translate(-6.49 -22.56)"/><path class="cls-7" d="M128.67,799.77a3.46,3.46,0,1,0-4,2.87A3.45,3.45,0,0,0,128.67,799.77Z" transform="translate(-6.49 -22.56)"/><path class="cls-7" d="M148.29,799.77a3.45,3.45,0,1,0-3.95,2.87A3.44,3.44,0,0,0,148.29,799.77Z" transform="translate(-6.49 -22.56)"/><path class="cls-7" d="M164.49,799.77a3.45,3.45,0,1,0-4,2.87A3.44,3.44,0,0,0,164.49,799.77Z" transform="translate(-6.49 -22.56)"/><path class="cls-7" d="M180.68,799.77a3.45,3.45,0,1,0-4,2.87A3.44,3.44,0,0,0,180.68,799.77Z" transform="translate(-6.49 -22.56)"/><path class="cls-7" d="M213.09,799.77a3.46,3.46,0,1,0-4,2.87A3.46,3.46,0,0,0,213.09,799.77Z" transform="translate(-6.49 -22.56)"/><path class="cls-7" d="M229.29,799.77a3.46,3.46,0,1,0-4,2.87A3.46,3.46,0,0,0,229.29,799.77Z" transform="translate(-6.49 -22.56)"/><path class="cls-7" d="M245.47,799.77a3.45,3.45,0,1,0-3.95,2.87A3.44,3.44,0,0,0,245.47,799.77Z" transform="translate(-6.49 -22.56)"/><path class="cls-7" d="M277.88,799.77a3.46,3.46,0,1,0-4,2.87A3.46,3.46,0,0,0,277.88,799.77Z" transform="translate(-6.49 -22.56)"/><path class="cls-7" d="M294.07,799.77a3.46,3.46,0,1,0-4,2.87A3.45,3.45,0,0,0,294.07,799.77Z" transform="translate(-6.49 -22.56)"/><path class="cls-7" d="M15.29,783.58a3.46,3.46,0,1,0-4,2.87A3.47,3.47,0,0,0,15.29,783.58Z" transform="translate(-6.49 -22.56)"/><path class="cls-7" d="M31.49,783.58a3.46,3.46,0,1,0-4,2.87A3.46,3.46,0,0,0,31.49,783.58Z" transform="translate(-6.49 -22.56)"/><path class="cls-7" d="M47.69,783.58a3.46,3.46,0,1,0-4,2.87A3.46,3.46,0,0,0,47.69,783.58Z" transform="translate(-6.49 -22.56)"/><path class="cls-7" d="M63.88,783.58a3.46,3.46,0,1,0-4,2.87A3.47,3.47,0,0,0,63.88,783.58Z" transform="translate(-6.49 -22.56)"/><path class="cls-7" d="M80.07,783.58a3.45,3.45,0,1,0-3.95,2.87A3.45,3.45,0,0,0,80.07,783.58Z" transform="translate(-6.49 -22.56)"/><path class="cls-7" d="M96.27,783.58a3.45,3.45,0,1,0-4,2.87A3.45,3.45,0,0,0,96.27,783.58Z" transform="translate(-6.49 -22.56)"/><path class="cls-7" d="M112.48,783.58a3.46,3.46,0,1,0-4,2.87A3.46,3.46,0,0,0,112.48,783.58Z" transform="translate(-6.49 -22.56)"/><path class="cls-7" d="M128.67,783.58a3.46,3.46,0,1,0-4,2.87A3.46,3.46,0,0,0,128.67,783.58Z" transform="translate(-6.49 -22.56)"/><path class="cls-7" d="M148.29,783.58a3.45,3.45,0,1,0-3.95,2.87A3.45,3.45,0,0,0,148.29,783.58Z" transform="translate(-6.49 -22.56)"/><path class="cls-7" d="M180.68,783.58a3.45,3.45,0,1,0-4,2.87A3.45,3.45,0,0,0,180.68,783.58Z" transform="translate(-6.49 -22.56)"/><path class="cls-7" d="M196.88,783.58a3.45,3.45,0,1,0-3.95,2.87A3.45,3.45,0,0,0,196.88,783.58Z" transform="translate(-6.49 -22.56)"/><path class="cls-7" d="M213.09,783.58a3.46,3.46,0,1,0-4,2.87A3.47,3.47,0,0,0,213.09,783.58Z" transform="translate(-6.49 -22.56)"/><path class="cls-7" d="M229.29,783.58a3.46,3.46,0,1,0-4,2.87A3.47,3.47,0,0,0,229.29,783.58Z" transform="translate(-6.49 -22.56)"/><path class="cls-7" d="M245.47,783.58a3.45,3.45,0,1,0-3.95,2.87A3.45,3.45,0,0,0,245.47,783.58Z" transform="translate(-6.49 -22.56)"/><path class="cls-7" d="M261.68,783.58a3.46,3.46,0,1,0-4,2.87A3.46,3.46,0,0,0,261.68,783.58Z" transform="translate(-6.49 -22.56)"/><path class="cls-7" d="M277.85,783.57a3.43,3.43,0,1,0-3.93,2.85A3.43,3.43,0,0,0,277.85,783.57Z" transform="translate(-6.49 -22.56)"/><path class="cls-7" d="M294.07,783.58a3.46,3.46,0,1,0-4,2.87A3.46,3.46,0,0,0,294.07,783.58Z" transform="translate(-6.49 -22.56)"/><path class="cls-7" d="M15.29,767.38a3.46,3.46,0,1,0-4,2.87A3.47,3.47,0,0,0,15.29,767.38Z" transform="translate(-6.49 -22.56)"/><path class="cls-7" d="M31.49,767.38a3.46,3.46,0,1,0-4,2.87A3.46,3.46,0,0,0,31.49,767.38Z" transform="translate(-6.49 -22.56)"/><path class="cls-7" d="M47.69,767.38a3.46,3.46,0,1,0-4,2.87A3.46,3.46,0,0,0,47.69,767.38Z" transform="translate(-6.49 -22.56)"/><path class="cls-7" d="M63.88,767.38a3.46,3.46,0,1,0-4,2.87A3.47,3.47,0,0,0,63.88,767.38Z" transform="translate(-6.49 -22.56)"/><path class="cls-7" d="M96.27,767.38a3.45,3.45,0,1,0-4,2.87A3.45,3.45,0,0,0,96.27,767.38Z" transform="translate(-6.49 -22.56)"/><path class="cls-7" d="M112.48,767.38a3.46,3.46,0,1,0-4,2.87A3.46,3.46,0,0,0,112.48,767.38Z" transform="translate(-6.49 -22.56)"/><path class="cls-7" d="M128.67,767.38a3.46,3.46,0,1,0-4,2.87A3.46,3.46,0,0,0,128.67,767.38Z" transform="translate(-6.49 -22.56)"/><path class="cls-7" d="M148.29,767.38a3.45,3.45,0,1,0-3.95,2.87A3.45,3.45,0,0,0,148.29,767.38Z" transform="translate(-6.49 -22.56)"/><path class="cls-7" d="M164.49,767.38a3.45,3.45,0,1,0-4,2.87A3.45,3.45,0,0,0,164.49,767.38Z" transform="translate(-6.49 -22.56)"/><path class="cls-7" d="M180.68,767.38a3.45,3.45,0,1,0-4,2.87A3.45,3.45,0,0,0,180.68,767.38Z" transform="translate(-6.49 -22.56)"/><path class="cls-7" d="M196.88,767.38a3.45,3.45,0,1,0-3.95,2.87A3.45,3.45,0,0,0,196.88,767.38Z" transform="translate(-6.49 -22.56)"/><path class="cls-7" d="M213.09,767.38a3.46,3.46,0,1,0-4,2.87A3.47,3.47,0,0,0,213.09,767.38Z" transform="translate(-6.49 -22.56)"/><path class="cls-7" d="M229.29,767.38a3.46,3.46,0,1,0-4,2.87A3.47,3.47,0,0,0,229.29,767.38Z" transform="translate(-6.49 -22.56)"/><path class="cls-7" d="M261.68,767.38a3.46,3.46,0,1,0-4,2.87A3.46,3.46,0,0,0,261.68,767.38Z" transform="translate(-6.49 -22.56)"/><path class="cls-7" d="M277.88,767.38a3.46,3.46,0,1,0-4,2.87A3.47,3.47,0,0,0,277.88,767.38Z" transform="translate(-6.49 -22.56)"/><path class="cls-7" d="M293.86,767.34a3.24,3.24,0,1,0-3.71,2.69A3.24,3.24,0,0,0,293.86,767.34Z" transform="translate(-6.49 -22.56)"/><path class="cls-7" d="M376.25,767.56a4.65,4.65,0,1,0-5.32,3.87A4.66,4.66,0,0,0,376.25,767.56Z" transform="translate(-6.49 -22.56)"/><path class="cls-7" d="M392.24,767.53a4.45,4.45,0,1,0-5.09,3.69A4.45,4.45,0,0,0,392.24,767.53Z" transform="translate(-6.49 -22.56)"/><path class="cls-7" d="M15.29,751.18a3.46,3.46,0,1,0-4,2.87A3.47,3.47,0,0,0,15.29,751.18Z" transform="translate(-6.49 -22.56)"/><path class="cls-7" d="M31.49,751.18a3.46,3.46,0,1,0-4,2.87A3.46,3.46,0,0,0,31.49,751.18Z" transform="translate(-6.49 -22.56)"/><path class="cls-7" d="M63.88,751.18a3.46,3.46,0,1,0-4,2.87A3.47,3.47,0,0,0,63.88,751.18Z" transform="translate(-6.49 -22.56)"/><path class="cls-7" d="M80.07,751.18a3.45,3.45,0,1,0-3.95,2.87A3.45,3.45,0,0,0,80.07,751.18Z" transform="translate(-6.49 -22.56)"/><path class="cls-7" d="M96.27,751.18a3.45,3.45,0,1,0-4,2.87A3.45,3.45,0,0,0,96.27,751.18Z" transform="translate(-6.49 -22.56)"/><path class="cls-7" d="M128.67,751.18a3.46,3.46,0,1,0-4,2.87A3.46,3.46,0,0,0,128.67,751.18Z" transform="translate(-6.49 -22.56)"/><path class="cls-7" d="M148.29,751.18a3.45,3.45,0,1,0-3.95,2.87A3.45,3.45,0,0,0,148.29,751.18Z" transform="translate(-6.49 -22.56)"/><path class="cls-7" d="M164.49,751.18a3.45,3.45,0,1,0-4,2.87A3.45,3.45,0,0,0,164.49,751.18Z" transform="translate(-6.49 -22.56)"/><path class="cls-7" d="M196.88,751.18a3.45,3.45,0,1,0-3.95,2.87A3.45,3.45,0,0,0,196.88,751.18Z" transform="translate(-6.49 -22.56)"/><path class="cls-7" d="M213.09,751.18a3.46,3.46,0,1,0-4,2.87A3.47,3.47,0,0,0,213.09,751.18Z" transform="translate(-6.49 -22.56)"/><path class="cls-7" d="M229.29,751.18a3.46,3.46,0,1,0-4,2.87A3.47,3.47,0,0,0,229.29,751.18Z" transform="translate(-6.49 -22.56)"/><path class="cls-7" d="M245.47,751.18a3.45,3.45,0,1,0-3.95,2.87A3.45,3.45,0,0,0,245.47,751.18Z" transform="translate(-6.49 -22.56)"/><path class="cls-7" d="M261.68,751.18a3.46,3.46,0,1,0-4,2.87A3.46,3.46,0,0,0,261.68,751.18Z" transform="translate(-6.49 -22.56)"/><path class="cls-7" d="M277.88,751.18a3.47,3.47,0,1,0-4,2.88A3.47,3.47,0,0,0,277.88,751.18Z" transform="translate(-6.49 -22.56)"/><path class="cls-7" d="M359.7,751.31a4.3,4.3,0,1,0-4.92,3.58A4.31,4.31,0,0,0,359.7,751.31Z" transform="translate(-6.49 -22.56)"/><path class="cls-7" d="M407.92,751.25a3.92,3.92,0,1,0-4.49,3.26A3.92,3.92,0,0,0,407.92,751.25Z" transform="translate(-6.49 -22.56)"/><path class="cls-7" d="M423.65,751.18a3.45,3.45,0,1,0-3.95,2.87A3.45,3.45,0,0,0,423.65,751.18Z" transform="translate(-6.49 -22.56)"/><path class="cls-7" d="M15.28,735a3.46,3.46,0,1,0-3.95,2.87A3.46,3.46,0,0,0,15.28,735Z" transform="translate(-6.49 -22.56)"/><path class="cls-7" d="M31.49,735a3.46,3.46,0,1,0-4,2.87A3.46,3.46,0,0,0,31.49,735Z" transform="translate(-6.49 -22.56)"/><path class="cls-7" d="M47.69,735a3.46,3.46,0,1,0-4,2.87A3.46,3.46,0,0,0,47.69,735Z" transform="translate(-6.49 -22.56)"/><path class="cls-7" d="M63.88,735a3.46,3.46,0,1,0-4,2.87A3.46,3.46,0,0,0,63.88,735Z" transform="translate(-6.49 -22.56)"/><path class="cls-7" d="M80.07,735a3.45,3.45,0,1,0-3.95,2.87A3.45,3.45,0,0,0,80.07,735Z" transform="translate(-6.49 -22.56)"/><path class="cls-7" d="M96.27,735a3.45,3.45,0,1,0-4,2.87A3.45,3.45,0,0,0,96.27,735Z" transform="translate(-6.49 -22.56)"/><path class="cls-7" d="M112.48,735a3.46,3.46,0,1,0-4,2.87A3.46,3.46,0,0,0,112.48,735Z" transform="translate(-6.49 -22.56)"/><path class="cls-7" d="M128.67,735a3.46,3.46,0,1,0-4,2.87A3.46,3.46,0,0,0,128.67,735Z" transform="translate(-6.49 -22.56)"/><path class="cls-7" d="M148.29,735a3.45,3.45,0,1,0-3.95,2.87A3.45,3.45,0,0,0,148.29,735Z" transform="translate(-6.49 -22.56)"/><path class="cls-7" d="M180.68,735a3.45,3.45,0,1,0-4,2.87A3.45,3.45,0,0,0,180.68,735Z" transform="translate(-6.49 -22.56)"/><path class="cls-7" d="M196.88,735a3.45,3.45,0,1,0-3.95,2.87A3.45,3.45,0,0,0,196.88,735Z" transform="translate(-6.49 -22.56)"/><path class="cls-7" d="M213.09,735a3.46,3.46,0,1,0-4,2.87A3.46,3.46,0,0,0,213.09,735Z" transform="translate(-6.49 -22.56)"/><path class="cls-7" d="M245.47,735a3.45,3.45,0,1,0-3.95,2.87A3.45,3.45,0,0,0,245.47,735Z" transform="translate(-6.49 -22.56)"/><path class="cls-7" d="M261.68,735a3.46,3.46,0,1,0-4,2.87A3.46,3.46,0,0,0,261.68,735Z" transform="translate(-6.49 -22.56)"/><path class="cls-7" d="M277.86,735a3.44,3.44,0,1,0-3.94,2.86A3.44,3.44,0,0,0,277.86,735Z" transform="translate(-6.49 -22.56)"/><path class="cls-7" d="M342.73,735a3.52,3.52,0,1,0-4,2.93A3.53,3.53,0,0,0,342.73,735Z" transform="translate(-6.49 -22.56)"/><path class="cls-7" d="M426.82,735.48A6.66,6.66,0,1,0,419.2,741,6.65,6.65,0,0,0,426.82,735.48Z" transform="translate(-6.49 -22.56)"/><path class="cls-7" d="M15.28,718.78a3.46,3.46,0,1,0-3.95,2.88A3.46,3.46,0,0,0,15.28,718.78Z" transform="translate(-6.49 -22.56)"/><path class="cls-7" d="M47.69,718.78a3.46,3.46,0,1,0-4,2.88A3.46,3.46,0,0,0,47.69,718.78Z" transform="translate(-6.49 -22.56)"/><path class="cls-7" d="M63.88,718.78a3.46,3.46,0,1,0-4,2.88A3.46,3.46,0,0,0,63.88,718.78Z" transform="translate(-6.49 -22.56)"/><path class="cls-7" d="M96.27,718.78a3.45,3.45,0,1,0-4,2.88A3.45,3.45,0,0,0,96.27,718.78Z" transform="translate(-6.49 -22.56)"/><path class="cls-7" d="M112.48,718.78a3.46,3.46,0,1,0-4,2.88A3.46,3.46,0,0,0,112.48,718.78Z" transform="translate(-6.49 -22.56)"/><path class="cls-7" d="M148.29,718.78a3.45,3.45,0,1,0-3.95,2.88A3.45,3.45,0,0,0,148.29,718.78Z" transform="translate(-6.49 -22.56)"/><path class="cls-7" d="M164.49,718.78a3.45,3.45,0,1,0-4,2.88A3.45,3.45,0,0,0,164.49,718.78Z" transform="translate(-6.49 -22.56)"/><path class="cls-7" d="M180.68,718.78a3.45,3.45,0,1,0-4,2.88A3.45,3.45,0,0,0,180.68,718.78Z" transform="translate(-6.49 -22.56)"/><path class="cls-7" d="M196.88,718.78a3.45,3.45,0,1,0-3.95,2.88A3.45,3.45,0,0,0,196.88,718.78Z" transform="translate(-6.49 -22.56)"/><path class="cls-7" d="M213.09,718.78a3.46,3.46,0,1,0-4,2.88A3.46,3.46,0,0,0,213.09,718.78Z" transform="translate(-6.49 -22.56)"/><path class="cls-7" d="M229.29,718.78a3.46,3.46,0,1,0-4,2.88A3.46,3.46,0,0,0,229.29,718.78Z" transform="translate(-6.49 -22.56)"/><path class="cls-7" d="M245.47,718.78a3.45,3.45,0,1,0-3.95,2.88A3.45,3.45,0,0,0,245.47,718.78Z" transform="translate(-6.49 -22.56)"/><path class="cls-7" d="M277.88,718.78a3.46,3.46,0,1,0-4,2.88A3.46,3.46,0,0,0,277.88,718.78Z" transform="translate(-6.49 -22.56)"/><path class="cls-7" d="M294.07,718.78a3.46,3.46,0,1,0-4,2.88A3.46,3.46,0,0,0,294.07,718.78Z" transform="translate(-6.49 -22.56)"/><path class="cls-7" d="M310.53,718.83a3.71,3.71,0,1,0-4.25,3.08A3.71,3.71,0,0,0,310.53,718.83Z" transform="translate(-6.49 -22.56)"/><path class="cls-7" d="M326.6,718.8a3.59,3.59,0,1,0-4.11,3A3.6,3.6,0,0,0,326.6,718.8Z" transform="translate(-6.49 -22.56)"/><path class="cls-7" d="M342.69,718.79a3.48,3.48,0,1,0-4,2.89A3.48,3.48,0,0,0,342.69,718.79Z" transform="translate(-6.49 -22.56)"/><path class="cls-7" d="M361.05,719.13a5.66,5.66,0,1,0-6.48,4.71A5.66,5.66,0,0,0,361.05,719.13Z" transform="translate(-6.49 -22.56)"/><path class="cls-7" d="M15.28,702.59a3.46,3.46,0,1,0-3.95,2.87A3.45,3.45,0,0,0,15.28,702.59Z" transform="translate(-6.49 -22.56)"/><path class="cls-7" d="M31.49,702.59a3.46,3.46,0,1,0-4,2.87A3.46,3.46,0,0,0,31.49,702.59Z" transform="translate(-6.49 -22.56)"/><path class="cls-7" d="M47.69,702.59a3.46,3.46,0,1,0-4,2.87A3.45,3.45,0,0,0,47.69,702.59Z" transform="translate(-6.49 -22.56)"/><path class="cls-7" d="M63.88,702.59a3.46,3.46,0,1,0-4,2.87A3.46,3.46,0,0,0,63.88,702.59Z" transform="translate(-6.49 -22.56)"/><path class="cls-7" d="M80.07,702.59a3.45,3.45,0,1,0-3.95,2.87A3.44,3.44,0,0,0,80.07,702.59Z" transform="translate(-6.49 -22.56)"/><path class="cls-7" d="M96.27,702.59a3.45,3.45,0,1,0-4,2.87A3.44,3.44,0,0,0,96.27,702.59Z" transform="translate(-6.49 -22.56)"/><path class="cls-7" d="M112.48,702.59a3.46,3.46,0,1,0-4,2.87A3.45,3.45,0,0,0,112.48,702.59Z" transform="translate(-6.49 -22.56)"/><path class="cls-7" d="M128.67,702.59a3.46,3.46,0,1,0-4,2.87A3.45,3.45,0,0,0,128.67,702.59Z" transform="translate(-6.49 -22.56)"/><path class="cls-7" d="M148.29,702.59a3.45,3.45,0,1,0-3.95,2.87A3.44,3.44,0,0,0,148.29,702.59Z" transform="translate(-6.49 -22.56)"/><path class="cls-7" d="M164.49,702.59a3.45,3.45,0,1,0-4,2.87A3.44,3.44,0,0,0,164.49,702.59Z" transform="translate(-6.49 -22.56)"/><path class="cls-7" d="M180.68,702.59a3.45,3.45,0,1,0-4,2.87A3.44,3.44,0,0,0,180.68,702.59Z" transform="translate(-6.49 -22.56)"/><path class="cls-7" d="M213.09,702.59a3.46,3.46,0,1,0-4,2.87A3.46,3.46,0,0,0,213.09,702.59Z" transform="translate(-6.49 -22.56)"/><path class="cls-7" d="M229.29,702.59a3.46,3.46,0,1,0-4,2.87A3.46,3.46,0,0,0,229.29,702.59Z" transform="translate(-6.49 -22.56)"/><path class="cls-7" d="M245.47,702.59a3.45,3.45,0,1,0-3.95,2.87A3.44,3.44,0,0,0,245.47,702.59Z" transform="translate(-6.49 -22.56)"/><path class="cls-7" d="M261.68,702.59a3.46,3.46,0,1,0-4,2.87A3.45,3.45,0,0,0,261.68,702.59Z" transform="translate(-6.49 -22.56)"/><path class="cls-7" d="M277.88,702.59a3.46,3.46,0,1,0-4,2.87A3.46,3.46,0,0,0,277.88,702.59Z" transform="translate(-6.49 -22.56)"/><path class="cls-7" d="M294.07,702.59a3.46,3.46,0,1,0-4,2.87A3.45,3.45,0,0,0,294.07,702.59Z" transform="translate(-6.49 -22.56)"/><path class="cls-7" d="M310.28,702.59a3.47,3.47,0,1,0-4,2.88A3.46,3.46,0,0,0,310.28,702.59Z" transform="translate(-6.49 -22.56)"/><path class="cls-7" d="M326.46,702.58a3.44,3.44,0,1,0-3.94,2.86A3.45,3.45,0,0,0,326.46,702.58Z" transform="translate(-6.49 -22.56)"/><path class="cls-7" d="M342.66,702.58a3.44,3.44,0,1,0-3.94,2.86A3.45,3.45,0,0,0,342.66,702.58Z" transform="translate(-6.49 -22.56)"/><path class="cls-7" d="M358.91,702.59a3.51,3.51,0,1,0-4,2.92A3.51,3.51,0,0,0,358.91,702.59Z" transform="translate(-6.49 -22.56)"/><path class="cls-7" d="M440.17,702.64a3.78,3.78,0,1,0-4.32,3.14A3.77,3.77,0,0,0,440.17,702.64Z" transform="translate(-6.49 -22.56)"/><path class="cls-7" d="M458.15,702.91a5.59,5.59,0,1,0-6.39,4.65A5.6,5.6,0,0,0,458.15,702.91Z" transform="translate(-6.49 -22.56)"/><path class="cls-7" d="M15.28,686.38a3.46,3.46,0,1,0-3.95,2.88A3.46,3.46,0,0,0,15.28,686.38Z" transform="translate(-6.49 -22.56)"/><path class="cls-7" d="M47.69,686.38a3.46,3.46,0,1,0-4,2.88A3.46,3.46,0,0,0,47.69,686.38Z" transform="translate(-6.49 -22.56)"/><path class="cls-7" d="M63.88,686.38a3.46,3.46,0,1,0-4,2.88A3.46,3.46,0,0,0,63.88,686.38Z" transform="translate(-6.49 -22.56)"/><path class="cls-7" d="M80.07,686.38a3.45,3.45,0,1,0-3.95,2.88A3.45,3.45,0,0,0,80.07,686.38Z" transform="translate(-6.49 -22.56)"/><path class="cls-7" d="M112.48,686.38a3.46,3.46,0,1,0-4,2.88A3.46,3.46,0,0,0,112.48,686.38Z" transform="translate(-6.49 -22.56)"/><path class="cls-7" d="M128.67,686.38a3.46,3.46,0,1,0-4,2.88A3.46,3.46,0,0,0,128.67,686.38Z" transform="translate(-6.49 -22.56)"/><path class="cls-7" d="M148.29,686.38a3.45,3.45,0,1,0-3.95,2.88A3.45,3.45,0,0,0,148.29,686.38Z" transform="translate(-6.49 -22.56)"/><path class="cls-7" d="M164.49,686.38a3.45,3.45,0,1,0-4,2.88A3.45,3.45,0,0,0,164.49,686.38Z" transform="translate(-6.49 -22.56)"/><path class="cls-7" d="M196.88,686.38a3.45,3.45,0,1,0-3.95,2.88A3.45,3.45,0,0,0,196.88,686.38Z" transform="translate(-6.49 -22.56)"/><path class="cls-7" d="M213.09,686.38a3.46,3.46,0,1,0-4,2.88A3.46,3.46,0,0,0,213.09,686.38Z" transform="translate(-6.49 -22.56)"/><path class="cls-7" d="M229.29,686.38a3.46,3.46,0,1,0-4,2.88A3.46,3.46,0,0,0,229.29,686.38Z" transform="translate(-6.49 -22.56)"/><path class="cls-7" d="M261.68,686.38a3.46,3.46,0,1,0-4,2.88A3.46,3.46,0,0,0,261.68,686.38Z" transform="translate(-6.49 -22.56)"/><path class="cls-7" d="M277.88,686.38a3.46,3.46,0,1,0-4,2.88A3.46,3.46,0,0,0,277.88,686.38Z" transform="translate(-6.49 -22.56)"/><path class="cls-7" d="M294.07,686.38a3.46,3.46,0,1,0-4,2.88A3.46,3.46,0,0,0,294.07,686.38Z" transform="translate(-6.49 -22.56)"/><path class="cls-7" d="M326.47,686.38a3.46,3.46,0,1,0-4,2.88A3.46,3.46,0,0,0,326.47,686.38Z" transform="translate(-6.49 -22.56)"/><path class="cls-7" d="M342.67,686.38a3.45,3.45,0,1,0-3.95,2.88A3.46,3.46,0,0,0,342.67,686.38Z" transform="translate(-6.49 -22.56)"/><path class="cls-7" d="M358.86,686.38a3.45,3.45,0,1,0-3.95,2.88A3.45,3.45,0,0,0,358.86,686.38Z" transform="translate(-6.49 -22.56)"/><path class="cls-7" d="M375.06,686.38a3.45,3.45,0,1,0-3.95,2.88A3.45,3.45,0,0,0,375.06,686.38Z" transform="translate(-6.49 -22.56)"/><path class="cls-7" d="M391.28,686.39a3.47,3.47,0,1,0-4,2.88A3.46,3.46,0,0,0,391.28,686.39Z" transform="translate(-6.49 -22.56)"/><path class="cls-8" d="M410.31,686.84a6.34,6.34,0,1,0-7.25,5.27A6.35,6.35,0,0,0,410.31,686.84Z" transform="translate(-6.49 -22.56)"/><path class="cls-7" d="M15.28,670.19a3.46,3.46,0,1,0-3.95,2.87A3.46,3.46,0,0,0,15.28,670.19Z" transform="translate(-6.49 -22.56)"/><path class="cls-7" d="M31.49,670.19a3.46,3.46,0,1,0-4,2.87A3.47,3.47,0,0,0,31.49,670.19Z" transform="translate(-6.49 -22.56)"/><path class="cls-7" d="M47.69,670.19a3.46,3.46,0,1,0-4,2.87A3.46,3.46,0,0,0,47.69,670.19Z" transform="translate(-6.49 -22.56)"/><path class="cls-7" d="M80.07,670.19a3.45,3.45,0,1,0-3.95,2.87A3.45,3.45,0,0,0,80.07,670.19Z" transform="translate(-6.49 -22.56)"/><path class="cls-7" d="M96.27,670.19a3.45,3.45,0,1,0-4,2.87A3.45,3.45,0,0,0,96.27,670.19Z" transform="translate(-6.49 -22.56)"/><path class="cls-7" d="M112.48,670.19a3.46,3.46,0,1,0-4,2.87A3.46,3.46,0,0,0,112.48,670.19Z" transform="translate(-6.49 -22.56)"/><path class="cls-7" d="M128.67,670.19a3.46,3.46,0,1,0-4,2.87A3.46,3.46,0,0,0,128.67,670.19Z" transform="translate(-6.49 -22.56)"/><path class="cls-7" d="M148.29,670.19a3.45,3.45,0,1,0-3.95,2.87A3.45,3.45,0,0,0,148.29,670.19Z" transform="translate(-6.49 -22.56)"/><path class="cls-7" d="M164.49,670.19a3.45,3.45,0,1,0-4,2.87A3.45,3.45,0,0,0,164.49,670.19Z" transform="translate(-6.49 -22.56)"/><path class="cls-7" d="M180.68,670.19a3.45,3.45,0,1,0-4,2.87A3.45,3.45,0,0,0,180.68,670.19Z" transform="translate(-6.49 -22.56)"/><path class="cls-7" d="M196.88,670.19a3.45,3.45,0,1,0-3.95,2.87A3.45,3.45,0,0,0,196.88,670.19Z" transform="translate(-6.49 -22.56)"/><path class="cls-7" d="M213.09,670.19a3.46,3.46,0,1,0-4,2.87A3.47,3.47,0,0,0,213.09,670.19Z" transform="translate(-6.49 -22.56)"/><path class="cls-7" d="M229.29,670.19a3.46,3.46,0,1,0-4,2.87A3.47,3.47,0,0,0,229.29,670.19Z" transform="translate(-6.49 -22.56)"/><path class="cls-7" d="M245.47,670.19a3.45,3.45,0,1,0-3.95,2.87A3.45,3.45,0,0,0,245.47,670.19Z" transform="translate(-6.49 -22.56)"/><path class="cls-7" d="M261.68,670.19a3.46,3.46,0,1,0-4,2.87A3.46,3.46,0,0,0,261.68,670.19Z" transform="translate(-6.49 -22.56)"/><path class="cls-7" d="M277.88,670.19a3.46,3.46,0,1,0-4,2.87A3.47,3.47,0,0,0,277.88,670.19Z" transform="translate(-6.49 -22.56)"/><path class="cls-7" d="M294.07,670.19a3.46,3.46,0,1,0-4,2.87A3.46,3.46,0,0,0,294.07,670.19Z" transform="translate(-6.49 -22.56)"/><path class="cls-7" d="M310.27,670.19a3.46,3.46,0,1,0-3.95,2.87A3.46,3.46,0,0,0,310.27,670.19Z" transform="translate(-6.49 -22.56)"/><path class="cls-5" d="M326.47,670.19a3.46,3.46,0,1,0-4,2.87A3.46,3.46,0,0,0,326.47,670.19Z" transform="translate(-6.49 -22.56)"/><path class="cls-7" d="M342.67,670.19a3.45,3.45,0,1,0-3.95,2.87A3.46,3.46,0,0,0,342.67,670.19Z" transform="translate(-6.49 -22.56)"/><path class="cls-7" d="M358.86,670.19a3.45,3.45,0,1,0-3.95,2.87A3.45,3.45,0,0,0,358.86,670.19Z" transform="translate(-6.49 -22.56)"/><path class="cls-7" d="M375.06,670.19a3.45,3.45,0,1,0-3.95,2.87A3.45,3.45,0,0,0,375.06,670.19Z" transform="translate(-6.49 -22.56)"/><path class="cls-7" d="M391.28,670.19a3.47,3.47,0,1,0-4,2.89A3.47,3.47,0,0,0,391.28,670.19Z" transform="translate(-6.49 -22.56)"/><path class="cls-7" d="M407.48,670.2a3.48,3.48,0,1,0-4,2.89A3.48,3.48,0,0,0,407.48,670.2Z" transform="translate(-6.49 -22.56)"/><path class="cls-7" d="M441.69,670.48a5.32,5.32,0,1,0-6.09,4.42A5.32,5.32,0,0,0,441.69,670.48Z" transform="translate(-6.49 -22.56)"/><path class="cls-7" d="M15.28,654a3.46,3.46,0,1,0-3.95,2.87A3.46,3.46,0,0,0,15.28,654Z" transform="translate(-6.49 -22.56)"/><path class="cls-7" d="M31.49,654a3.46,3.46,0,1,0-4,2.87A3.47,3.47,0,0,0,31.49,654Z" transform="translate(-6.49 -22.56)"/><path class="cls-7" d="M47.69,654a3.46,3.46,0,1,0-4,2.87A3.46,3.46,0,0,0,47.69,654Z" transform="translate(-6.49 -22.56)"/><path class="cls-7" d="M63.88,654a3.46,3.46,0,1,0-4,2.87A3.47,3.47,0,0,0,63.88,654Z" transform="translate(-6.49 -22.56)"/><path class="cls-7" d="M80.07,654a3.45,3.45,0,1,0-3.95,2.87A3.45,3.45,0,0,0,80.07,654Z" transform="translate(-6.49 -22.56)"/><path class="cls-7" d="M96.27,654a3.45,3.45,0,1,0-4,2.87A3.45,3.45,0,0,0,96.27,654Z" transform="translate(-6.49 -22.56)"/><path class="cls-7" d="M112.48,654a3.46,3.46,0,1,0-4,2.87A3.46,3.46,0,0,0,112.48,654Z" transform="translate(-6.49 -22.56)"/><path class="cls-7" d="M128.67,654a3.46,3.46,0,1,0-4,2.87A3.46,3.46,0,0,0,128.67,654Z" transform="translate(-6.49 -22.56)"/><path class="cls-7" d="M148.29,654a3.45,3.45,0,1,0-3.95,2.87A3.45,3.45,0,0,0,148.29,654Z" transform="translate(-6.49 -22.56)"/><path class="cls-7" d="M164.49,654a3.45,3.45,0,1,0-4,2.87A3.45,3.45,0,0,0,164.49,654Z" transform="translate(-6.49 -22.56)"/><path class="cls-7" d="M180.68,654a3.45,3.45,0,1,0-4,2.87A3.45,3.45,0,0,0,180.68,654Z" transform="translate(-6.49 -22.56)"/><path class="cls-7" d="M196.88,654a3.45,3.45,0,1,0-3.95,2.87A3.45,3.45,0,0,0,196.88,654Z" transform="translate(-6.49 -22.56)"/><path class="cls-7" d="M229.29,654a3.46,3.46,0,1,0-4,2.87A3.47,3.47,0,0,0,229.29,654Z" transform="translate(-6.49 -22.56)"/><path class="cls-7" d="M245.47,654a3.45,3.45,0,1,0-3.95,2.87A3.45,3.45,0,0,0,245.47,654Z" transform="translate(-6.49 -22.56)"/><path class="cls-7" d="M277.88,654a3.46,3.46,0,1,0-4,2.87A3.47,3.47,0,0,0,277.88,654Z" transform="translate(-6.49 -22.56)"/><path class="cls-7" d="M294.07,654a3.46,3.46,0,1,0-4,2.87A3.46,3.46,0,0,0,294.07,654Z" transform="translate(-6.49 -22.56)"/><path class="cls-7" d="M310.27,654a3.46,3.46,0,1,0-3.95,2.87A3.46,3.46,0,0,0,310.27,654Z" transform="translate(-6.49 -22.56)"/><path class="cls-7" d="M342.67,654a3.45,3.45,0,1,0-3.95,2.87A3.46,3.46,0,0,0,342.67,654Z" transform="translate(-6.49 -22.56)"/><path class="cls-7" d="M358.86,654a3.45,3.45,0,1,0-3.95,2.87A3.45,3.45,0,0,0,358.86,654Z" transform="translate(-6.49 -22.56)"/><path class="cls-7" d="M391.26,654a3.46,3.46,0,1,0-3.95,2.87A3.46,3.46,0,0,0,391.26,654Z" transform="translate(-6.49 -22.56)"/><path class="cls-8" d="M407.45,654a3.46,3.46,0,1,0-3.95,2.87A3.46,3.46,0,0,0,407.45,654Z" transform="translate(-6.49 -22.56)"/><path class="cls-7" d="M423.76,654a3.55,3.55,0,1,0-4.07,3A3.56,3.56,0,0,0,423.76,654Z" transform="translate(-6.49 -22.56)"/><path class="cls-7" d="M15.29,637.8a3.46,3.46,0,1,0-4,2.87A3.47,3.47,0,0,0,15.29,637.8Z" transform="translate(-6.49 -22.56)"/><path class="cls-7" d="M47.69,637.8a3.46,3.46,0,1,0-4,2.87A3.46,3.46,0,0,0,47.69,637.8Z" transform="translate(-6.49 -22.56)"/><path class="cls-7" d="M63.88,637.8a3.46,3.46,0,1,0-4,2.87A3.47,3.47,0,0,0,63.88,637.8Z" transform="translate(-6.49 -22.56)"/><path class="cls-7" d="M80.08,637.8a3.46,3.46,0,1,0-4,2.87A3.46,3.46,0,0,0,80.08,637.8Z" transform="translate(-6.49 -22.56)"/><path class="cls-7" d="M112.48,637.8a3.46,3.46,0,1,0-4,2.87A3.46,3.46,0,0,0,112.48,637.8Z" transform="translate(-6.49 -22.56)"/><path class="cls-7" d="M128.67,637.8a3.46,3.46,0,1,0-4,2.87A3.46,3.46,0,0,0,128.67,637.8Z" transform="translate(-6.49 -22.56)"/><path class="cls-7" d="M164.49,637.79a3.45,3.45,0,1,0-4,2.87A3.44,3.44,0,0,0,164.49,637.79Z" transform="translate(-6.49 -22.56)"/><path class="cls-7" d="M180.68,637.79a3.45,3.45,0,1,0-4,2.87A3.44,3.44,0,0,0,180.68,637.79Z" transform="translate(-6.49 -22.56)"/><path class="cls-7" d="M196.88,637.79a3.45,3.45,0,1,0-3.95,2.87A3.44,3.44,0,0,0,196.88,637.79Z" transform="translate(-6.49 -22.56)"/><path class="cls-7" d="M213.09,637.79a3.46,3.46,0,1,0-4,2.87A3.46,3.46,0,0,0,213.09,637.79Z" transform="translate(-6.49 -22.56)"/><path class="cls-7" d="M229.29,637.79a3.46,3.46,0,1,0-4,2.87A3.46,3.46,0,0,0,229.29,637.79Z" transform="translate(-6.49 -22.56)"/><path class="cls-7" d="M245.48,637.79a3.46,3.46,0,1,0-4,2.87A3.45,3.45,0,0,0,245.48,637.79Z" transform="translate(-6.49 -22.56)"/><path class="cls-7" d="M261.68,637.79a3.46,3.46,0,1,0-4,2.87A3.45,3.45,0,0,0,261.68,637.79Z" transform="translate(-6.49 -22.56)"/><path class="cls-7" d="M294.07,637.79a3.46,3.46,0,1,0-3.95,2.87A3.45,3.45,0,0,0,294.07,637.79Z" transform="translate(-6.49 -22.56)"/><path class="cls-7" d="M310.27,637.79a3.46,3.46,0,1,0-4,2.87A3.45,3.45,0,0,0,310.27,637.79Z" transform="translate(-6.49 -22.56)"/><path class="cls-5" d="M326.47,637.79a3.46,3.46,0,1,0-4,2.87A3.46,3.46,0,0,0,326.47,637.79Z" transform="translate(-6.49 -22.56)"/><path class="cls-7" d="M342.67,637.79a3.46,3.46,0,1,0-4,2.87A3.45,3.45,0,0,0,342.67,637.79Z" transform="translate(-6.49 -22.56)"/><path class="cls-7" d="M358.86,637.79a3.46,3.46,0,1,0-3.95,2.87A3.45,3.45,0,0,0,358.86,637.79Z" transform="translate(-6.49 -22.56)"/><path class="cls-8" d="M375.06,637.79a3.46,3.46,0,1,0-3.95,2.87A3.45,3.45,0,0,0,375.06,637.79Z" transform="translate(-6.49 -22.56)"/><path class="cls-7" d="M407.45,637.79a3.46,3.46,0,1,0-3.95,2.87A3.45,3.45,0,0,0,407.45,637.79Z" transform="translate(-6.49 -22.56)"/><path class="cls-7" d="M423.63,637.79a3.43,3.43,0,1,0-3.93,2.85A3.43,3.43,0,0,0,423.63,637.79Z" transform="translate(-6.49 -22.56)"/><path class="cls-7" d="M441.77,638.09a5.4,5.4,0,1,0-6.18,4.49A5.41,5.41,0,0,0,441.77,638.09Z" transform="translate(-6.49 -22.56)"/><path class="cls-7" d="M15.29,621.6a3.46,3.46,0,1,0-4,2.87A3.47,3.47,0,0,0,15.29,621.6Z" transform="translate(-6.49 -22.56)"/><path class="cls-7" d="M31.49,621.6a3.46,3.46,0,1,0-4,2.87A3.46,3.46,0,0,0,31.49,621.6Z" transform="translate(-6.49 -22.56)"/><path class="cls-7" d="M47.69,621.6a3.46,3.46,0,1,0-4,2.87A3.46,3.46,0,0,0,47.69,621.6Z" transform="translate(-6.49 -22.56)"/><path class="cls-7" d="M63.88,621.6a3.46,3.46,0,1,0-4,2.87A3.47,3.47,0,0,0,63.88,621.6Z" transform="translate(-6.49 -22.56)"/><path class="cls-7" d="M96.28,621.6a3.46,3.46,0,1,0-4,2.87A3.46,3.46,0,0,0,96.28,621.6Z" transform="translate(-6.49 -22.56)"/><path class="cls-7" d="M112.48,621.6a3.46,3.46,0,1,0-4,2.87A3.46,3.46,0,0,0,112.48,621.6Z" transform="translate(-6.49 -22.56)"/><path class="cls-7" d="M128.67,621.6a3.46,3.46,0,1,0-4,2.87A3.46,3.46,0,0,0,128.67,621.6Z" transform="translate(-6.49 -22.56)"/><path class="cls-7" d="M148.29,621.6a3.45,3.45,0,1,0-3.95,2.87A3.45,3.45,0,0,0,148.29,621.6Z" transform="translate(-6.49 -22.56)"/><path class="cls-7" d="M164.49,621.6a3.45,3.45,0,1,0-4,2.87A3.45,3.45,0,0,0,164.49,621.6Z" transform="translate(-6.49 -22.56)"/><path class="cls-7" d="M196.88,621.6a3.45,3.45,0,1,0-3.95,2.87A3.45,3.45,0,0,0,196.88,621.6Z" transform="translate(-6.49 -22.56)"/><path class="cls-7" d="M213.09,621.6a3.46,3.46,0,1,0-4,2.87A3.47,3.47,0,0,0,213.09,621.6Z" transform="translate(-6.49 -22.56)"/><path class="cls-7" d="M245.48,621.6a3.46,3.46,0,1,0-4,2.87A3.46,3.46,0,0,0,245.48,621.6Z" transform="translate(-6.49 -22.56)"/><path class="cls-7" d="M261.68,621.6a3.46,3.46,0,1,0-4,2.87A3.46,3.46,0,0,0,261.68,621.6Z" transform="translate(-6.49 -22.56)"/><path class="cls-7" d="M277.88,621.6a3.46,3.46,0,1,0-4,2.87A3.46,3.46,0,0,0,277.88,621.6Z" transform="translate(-6.49 -22.56)"/><path class="cls-7" d="M294.07,621.6a3.46,3.46,0,1,0-3.95,2.87A3.46,3.46,0,0,0,294.07,621.6Z" transform="translate(-6.49 -22.56)"/><path class="cls-8" d="M310.27,621.6a3.46,3.46,0,1,0-4,2.87A3.46,3.46,0,0,0,310.27,621.6Z" transform="translate(-6.49 -22.56)"/><path class="cls-7" d="M342.67,621.6a3.46,3.46,0,1,0-4,2.87A3.46,3.46,0,0,0,342.67,621.6Z" transform="translate(-6.49 -22.56)"/><path class="cls-7" d="M358.86,621.6a3.46,3.46,0,1,0-3.95,2.87A3.46,3.46,0,0,0,358.86,621.6Z" transform="translate(-6.49 -22.56)"/><path class="cls-7" d="M375.06,621.6a3.46,3.46,0,1,0-3.95,2.87A3.46,3.46,0,0,0,375.06,621.6Z" transform="translate(-6.49 -22.56)"/><path class="cls-7" d="M391.26,621.6a3.46,3.46,0,1,0-4,2.87A3.46,3.46,0,0,0,391.26,621.6Z" transform="translate(-6.49 -22.56)"/><path class="cls-7" d="M407.62,621.62a3.61,3.61,0,1,0-4.14,3A3.62,3.62,0,0,0,407.62,621.62Z" transform="translate(-6.49 -22.56)"/><path class="cls-7" d="M423.48,621.57a3.29,3.29,0,1,0-3.76,2.73A3.29,3.29,0,0,0,423.48,621.57Z" transform="translate(-6.49 -22.56)"/><path class="cls-7" d="M423.52,621.6a3.49,3.49,0,1,0-4,2.91A3.49,3.49,0,0,0,423.52,621.6Z" transform="translate(-6.49 -22.56)"/><path class="cls-7" d="M15.29,605.4a3.46,3.46,0,1,0-4,2.87A3.47,3.47,0,0,0,15.29,605.4Z" transform="translate(-6.49 -22.56)"/><path class="cls-7" d="M31.49,605.4a3.46,3.46,0,1,0-4,2.87A3.46,3.46,0,0,0,31.49,605.4Z" transform="translate(-6.49 -22.56)"/><path class="cls-7" d="M63.88,605.4a3.46,3.46,0,1,0-4,2.87A3.47,3.47,0,0,0,63.88,605.4Z" transform="translate(-6.49 -22.56)"/><path class="cls-7" d="M80.08,605.4a3.46,3.46,0,1,0-4,2.87A3.46,3.46,0,0,0,80.08,605.4Z" transform="translate(-6.49 -22.56)"/><path class="cls-7" d="M96.28,605.4a3.46,3.46,0,1,0-4,2.87A3.46,3.46,0,0,0,96.28,605.4Z" transform="translate(-6.49 -22.56)"/><path class="cls-7" d="M112.48,605.4a3.46,3.46,0,1,0-4,2.87A3.46,3.46,0,0,0,112.48,605.4Z" transform="translate(-6.49 -22.56)"/><path class="cls-7" d="M128.67,605.4a3.46,3.46,0,1,0-4,2.87A3.46,3.46,0,0,0,128.67,605.4Z" transform="translate(-6.49 -22.56)"/><path class="cls-7" d="M148.29,605.4a3.45,3.45,0,1,0-3.95,2.87A3.45,3.45,0,0,0,148.29,605.4Z" transform="translate(-6.49 -22.56)"/><path class="cls-7" d="M164.49,605.4a3.45,3.45,0,1,0-4,2.87A3.45,3.45,0,0,0,164.49,605.4Z" transform="translate(-6.49 -22.56)"/><path class="cls-7" d="M180.68,605.4a3.45,3.45,0,1,0-4,2.87A3.45,3.45,0,0,0,180.68,605.4Z" transform="translate(-6.49 -22.56)"/><path class="cls-7" d="M196.88,605.4a3.45,3.45,0,1,0-3.95,2.87A3.45,3.45,0,0,0,196.88,605.4Z" transform="translate(-6.49 -22.56)"/><path class="cls-7" d="M213.09,605.4a3.46,3.46,0,1,0-4,2.87A3.47,3.47,0,0,0,213.09,605.4Z" transform="translate(-6.49 -22.56)"/><path class="cls-7" d="M229.29,605.4a3.46,3.46,0,1,0-4,2.87A3.47,3.47,0,0,0,229.29,605.4Z" transform="translate(-6.49 -22.56)"/><path class="cls-7" d="M245.48,605.4a3.46,3.46,0,1,0-4,2.87A3.46,3.46,0,0,0,245.48,605.4Z" transform="translate(-6.49 -22.56)"/><path class="cls-7" d="M261.68,605.4a3.46,3.46,0,1,0-4,2.87A3.46,3.46,0,0,0,261.68,605.4Z" transform="translate(-6.49 -22.56)"/><path class="cls-7" d="M277.88,605.4a3.46,3.46,0,1,0-4,2.87A3.46,3.46,0,0,0,277.88,605.4Z" transform="translate(-6.49 -22.56)"/><path class="cls-7" d="M294.07,605.4a3.46,3.46,0,1,0-3.95,2.87A3.46,3.46,0,0,0,294.07,605.4Z" transform="translate(-6.49 -22.56)"/><path class="cls-7" d="M310.27,605.4a3.46,3.46,0,1,0-4,2.87A3.46,3.46,0,0,0,310.27,605.4Z" transform="translate(-6.49 -22.56)"/><path class="cls-8" d="M326.47,605.4a3.46,3.46,0,1,0-4,2.87A3.47,3.47,0,0,0,326.47,605.4Z" transform="translate(-6.49 -22.56)"/><path class="cls-7" d="M358.86,605.4a3.46,3.46,0,1,0-3.95,2.87A3.46,3.46,0,0,0,358.86,605.4Z" transform="translate(-6.49 -22.56)"/><path class="cls-7" d="M375.06,605.4a3.46,3.46,0,1,0-3.95,2.87A3.46,3.46,0,0,0,375.06,605.4Z" transform="translate(-6.49 -22.56)"/><path class="cls-7" d="M391.28,605.41a3.48,3.48,0,1,0-4,2.89A3.48,3.48,0,0,0,391.28,605.41Z" transform="translate(-6.49 -22.56)"/><path class="cls-7" d="M423.49,605.4a3.47,3.47,0,1,0-4,2.88A3.47,3.47,0,0,0,423.49,605.4Z" transform="translate(-6.49 -22.56)"/><path class="cls-7" d="M439.87,605.43a3.66,3.66,0,1,0-4.19,3A3.67,3.67,0,0,0,439.87,605.43Z" transform="translate(-6.49 -22.56)"/><path class="cls-7" d="M15.29,589.2a3.46,3.46,0,1,0-4,2.88A3.46,3.46,0,0,0,15.29,589.2Z" transform="translate(-6.49 -22.56)"/><path class="cls-7" d="M47.69,589.2a3.46,3.46,0,1,0-4,2.88A3.46,3.46,0,0,0,47.69,589.2Z" transform="translate(-6.49 -22.56)"/><path class="cls-7" d="M63.88,589.2a3.46,3.46,0,1,0-4,2.88A3.46,3.46,0,0,0,63.88,589.2Z" transform="translate(-6.49 -22.56)"/><path class="cls-7" d="M80.08,589.2a3.46,3.46,0,1,0-4,2.88A3.46,3.46,0,0,0,80.08,589.2Z" transform="translate(-6.49 -22.56)"/><path class="cls-7" d="M96.28,589.2a3.46,3.46,0,1,0-4,2.88A3.46,3.46,0,0,0,96.28,589.2Z" transform="translate(-6.49 -22.56)"/><path class="cls-7" d="M128.67,589.2a3.46,3.46,0,1,0-4,2.88A3.46,3.46,0,0,0,128.67,589.2Z" transform="translate(-6.49 -22.56)"/><path class="cls-7" d="M148.29,589.2a3.45,3.45,0,1,0-3.95,2.88A3.45,3.45,0,0,0,148.29,589.2Z" transform="translate(-6.49 -22.56)"/><path class="cls-7" d="M180.68,589.2a3.45,3.45,0,1,0-4,2.88A3.45,3.45,0,0,0,180.68,589.2Z" transform="translate(-6.49 -22.56)"/><path class="cls-7" d="M196.88,589.2a3.45,3.45,0,1,0-3.95,2.88A3.45,3.45,0,0,0,196.88,589.2Z" transform="translate(-6.49 -22.56)"/><path class="cls-7" d="M229.29,589.2a3.46,3.46,0,1,0-4,2.88A3.46,3.46,0,0,0,229.29,589.2Z" transform="translate(-6.49 -22.56)"/><path class="cls-7" d="M245.48,589.2a3.46,3.46,0,1,0-4,2.88A3.46,3.46,0,0,0,245.48,589.2Z" transform="translate(-6.49 -22.56)"/><path class="cls-7" d="M277.88,589.2a3.46,3.46,0,1,0-4,2.88A3.46,3.46,0,0,0,277.88,589.2Z" transform="translate(-6.49 -22.56)"/><path class="cls-7" d="M294.07,589.2a3.46,3.46,0,1,0-3.95,2.88A3.46,3.46,0,0,0,294.07,589.2Z" transform="translate(-6.49 -22.56)"/><path class="cls-7" d="M423.59,589.22a3.57,3.57,0,1,0-4.09,3A3.57,3.57,0,0,0,423.59,589.22Z" transform="translate(-6.49 -22.56)"/><path class="cls-7" d="M439.66,589.2a3.44,3.44,0,1,0-3.94,2.86A3.44,3.44,0,0,0,439.66,589.2Z" transform="translate(-6.49 -22.56)"/><path class="cls-7" d="M15.29,573a3.46,3.46,0,1,0-4,2.87A3.47,3.47,0,0,0,15.29,573Z" transform="translate(-6.49 -22.56)"/><path class="cls-7" d="M31.49,573a3.46,3.46,0,1,0-4,2.87A3.46,3.46,0,0,0,31.49,573Z" transform="translate(-6.49 -22.56)"/><path class="cls-7" d="M47.69,573a3.46,3.46,0,1,0-4,2.87A3.46,3.46,0,0,0,47.69,573Z" transform="translate(-6.49 -22.56)"/><path class="cls-7" d="M63.88,573a3.46,3.46,0,1,0-4,2.87A3.47,3.47,0,0,0,63.88,573Z" transform="translate(-6.49 -22.56)"/><path class="cls-7" d="M80.08,573a3.46,3.46,0,1,0-4,2.87A3.46,3.46,0,0,0,80.08,573Z" transform="translate(-6.49 -22.56)"/><path class="cls-7" d="M96.28,573a3.46,3.46,0,1,0-4,2.87A3.46,3.46,0,0,0,96.28,573Z" transform="translate(-6.49 -22.56)"/><path class="cls-7" d="M112.48,573a3.46,3.46,0,1,0-4,2.87A3.46,3.46,0,0,0,112.48,573Z" transform="translate(-6.49 -22.56)"/><path class="cls-7" d="M128.67,573a3.46,3.46,0,1,0-4,2.87A3.46,3.46,0,0,0,128.67,573Z" transform="translate(-6.49 -22.56)"/><path class="cls-7" d="M148.29,573a3.45,3.45,0,1,0-3.95,2.87A3.45,3.45,0,0,0,148.29,573Z" transform="translate(-6.49 -22.56)"/><path class="cls-7" d="M164.49,573a3.45,3.45,0,1,0-4,2.87A3.45,3.45,0,0,0,164.49,573Z" transform="translate(-6.49 -22.56)"/><path class="cls-7" d="M180.68,573a3.45,3.45,0,1,0-4,2.87A3.45,3.45,0,0,0,180.68,573Z" transform="translate(-6.49 -22.56)"/><path class="cls-7" d="M196.88,573a3.45,3.45,0,1,0-3.95,2.87A3.45,3.45,0,0,0,196.88,573Z" transform="translate(-6.49 -22.56)"/><path class="cls-7" d="M213.09,573a3.46,3.46,0,1,0-4,2.87A3.47,3.47,0,0,0,213.09,573Z" transform="translate(-6.49 -22.56)"/><path class="cls-7" d="M229.29,573a3.46,3.46,0,1,0-4,2.87A3.47,3.47,0,0,0,229.29,573Z" transform="translate(-6.49 -22.56)"/><path class="cls-7" d="M245.48,573a3.46,3.46,0,1,0-4,2.87A3.46,3.46,0,0,0,245.48,573Z" transform="translate(-6.49 -22.56)"/><path class="cls-7" d="M261.68,573a3.46,3.46,0,1,0-4,2.87A3.46,3.46,0,0,0,261.68,573Z" transform="translate(-6.49 -22.56)"/><path class="cls-7" d="M277.88,573a3.46,3.46,0,1,0-4,2.87A3.46,3.46,0,0,0,277.88,573Z" transform="translate(-6.49 -22.56)"/><path class="cls-7" d="M294.07,573a3.46,3.46,0,1,0-3.95,2.87A3.46,3.46,0,0,0,294.07,573Z" transform="translate(-6.49 -22.56)"/><path class="cls-7" d="M310,573a3.36,3.36,0,1,0-3.85,2.79A3.37,3.37,0,0,0,310,573Z" transform="translate(-6.49 -22.56)"/><path class="cls-7" d="M439.69,573a3.47,3.47,0,1,0-4,2.88A3.47,3.47,0,0,0,439.69,573Z" transform="translate(-6.49 -22.56)"/><path class="cls-7" d="M15.28,556.8a3.46,3.46,0,1,0-3.95,2.88A3.46,3.46,0,0,0,15.28,556.8Z" transform="translate(-6.49 -22.56)"/><path class="cls-7" d="M31.49,556.8a3.46,3.46,0,1,0-4,2.88A3.46,3.46,0,0,0,31.49,556.8Z" transform="translate(-6.49 -22.56)"/><path class="cls-7" d="M47.69,556.8a3.46,3.46,0,1,0-4,2.88A3.46,3.46,0,0,0,47.69,556.8Z" transform="translate(-6.49 -22.56)"/><path class="cls-7" d="M80.08,556.8a3.46,3.46,0,1,0-4,2.88A3.46,3.46,0,0,0,80.08,556.8Z" transform="translate(-6.49 -22.56)"/><path class="cls-7" d="M96.28,556.8a3.46,3.46,0,1,0-4,2.88A3.46,3.46,0,0,0,96.28,556.8Z" transform="translate(-6.49 -22.56)"/><path class="cls-7" d="M112.48,556.8a3.46,3.46,0,1,0-4,2.88A3.46,3.46,0,0,0,112.48,556.8Z" transform="translate(-6.49 -22.56)"/><path class="cls-7" d="M128.67,556.8a3.46,3.46,0,1,0-4,2.88A3.46,3.46,0,0,0,128.67,556.8Z" transform="translate(-6.49 -22.56)"/><path class="cls-7" d="M148.29,556.8a3.45,3.45,0,1,0-3.95,2.88A3.45,3.45,0,0,0,148.29,556.8Z" transform="translate(-6.49 -22.56)"/><path class="cls-7" d="M180.68,556.8a3.45,3.45,0,1,0-4,2.88A3.45,3.45,0,0,0,180.68,556.8Z" transform="translate(-6.49 -22.56)"/><path class="cls-7" d="M196.88,556.8a3.45,3.45,0,1,0-3.95,2.88A3.45,3.45,0,0,0,196.88,556.8Z" transform="translate(-6.49 -22.56)"/><path class="cls-7" d="M213.09,556.8a3.46,3.46,0,1,0-4,2.88A3.46,3.46,0,0,0,213.09,556.8Z" transform="translate(-6.49 -22.56)"/><path class="cls-7" d="M245.48,556.8a3.46,3.46,0,1,0-4,2.88A3.46,3.46,0,0,0,245.48,556.8Z" transform="translate(-6.49 -22.56)"/><path class="cls-7" d="M261.68,556.8a3.46,3.46,0,1,0-4,2.88A3.46,3.46,0,0,0,261.68,556.8Z" transform="translate(-6.49 -22.56)"/><path class="cls-7" d="M294.07,556.8a3.46,3.46,0,1,0-3.95,2.88A3.46,3.46,0,0,0,294.07,556.8Z" transform="translate(-6.49 -22.56)"/><path class="cls-7" d="M310.06,556.79a3.42,3.42,0,1,0-3.91,2.84A3.41,3.41,0,0,0,310.06,556.79Z" transform="translate(-6.49 -22.56)"/><path class="cls-7" d="M326.31,556.81a3.47,3.47,0,1,0-4,2.89A3.47,3.47,0,0,0,326.31,556.81Z" transform="translate(-6.49 -22.56)"/><path class="cls-7" d="M342.45,556.8a3.43,3.43,0,1,0-3.92,2.85A3.41,3.41,0,0,0,342.45,556.8Z" transform="translate(-6.49 -22.56)"/><path class="cls-8" d="M358.64,556.79a3.41,3.41,0,1,0-3.9,2.84A3.4,3.4,0,0,0,358.64,556.79Z" transform="translate(-6.49 -22.56)"/><path class="cls-7" d="M374.87,556.8a3.44,3.44,0,1,0-3.94,2.86A3.45,3.45,0,0,0,374.87,556.8Z" transform="translate(-6.49 -22.56)"/><path class="cls-7" d="M391.08,556.8a3.45,3.45,0,1,0-3.95,2.88A3.45,3.45,0,0,0,391.08,556.8Z" transform="translate(-6.49 -22.56)"/><path class="cls-7" d="M409.48,557.15a5.68,5.68,0,1,0-6.5,4.72A5.68,5.68,0,0,0,409.48,557.15Z" transform="translate(-6.49 -22.56)"/><path class="cls-8" d="M459.27,557.34a6.89,6.89,0,1,0-7.89,5.74A6.9,6.9,0,0,0,459.27,557.34Z" transform="translate(-6.49 -22.56)"/><path class="cls-7" d="M472.27,556.84a3.65,3.65,0,1,0-4.19,3A3.66,3.66,0,0,0,472.27,556.84Z" transform="translate(-6.49 -22.56)"/><path class="cls-7" d="M490.83,557.21a6,6,0,1,0-6.92,5A6,6,0,0,0,490.83,557.21Z" transform="translate(-6.49 -22.56)"/><path class="cls-7" d="M505.08,556.9a4.07,4.07,0,1,0-4.66,3.39A4.08,4.08,0,0,0,505.08,556.9Z" transform="translate(-6.49 -22.56)"/><path class="cls-7" d="M31.49,540.61a3.46,3.46,0,1,0-4,2.87A3.47,3.47,0,0,0,31.49,540.61Z" transform="translate(-6.49 -22.56)"/><path class="cls-7" d="M47.69,540.61a3.46,3.46,0,1,0-4,2.87A3.46,3.46,0,0,0,47.69,540.61Z" transform="translate(-6.49 -22.56)"/><path class="cls-7" d="M63.88,540.61a3.46,3.46,0,1,0-4,2.87A3.47,3.47,0,0,0,63.88,540.61Z" transform="translate(-6.49 -22.56)"/><path class="cls-7" d="M80.08,540.61a3.46,3.46,0,1,0-4,2.87A3.46,3.46,0,0,0,80.08,540.61Z" transform="translate(-6.49 -22.56)"/><path class="cls-7" d="M112.48,540.61a3.46,3.46,0,1,0-4,2.87A3.46,3.46,0,0,0,112.48,540.61Z" transform="translate(-6.49 -22.56)"/><path class="cls-7" d="M128.67,540.61a3.46,3.46,0,1,0-4,2.87A3.46,3.46,0,0,0,128.67,540.61Z" transform="translate(-6.49 -22.56)"/><path class="cls-7" d="M148.29,540.61a3.45,3.45,0,1,0-3.95,2.87A3.45,3.45,0,0,0,148.29,540.61Z" transform="translate(-6.49 -22.56)"/><path class="cls-7" d="M164.49,540.61a3.45,3.45,0,1,0-4,2.87A3.45,3.45,0,0,0,164.49,540.61Z" transform="translate(-6.49 -22.56)"/><path class="cls-7" d="M196.88,540.61a3.45,3.45,0,1,0-3.95,2.87A3.45,3.45,0,0,0,196.88,540.61Z" transform="translate(-6.49 -22.56)"/><path class="cls-7" d="M213.09,540.61a3.46,3.46,0,1,0-4,2.87A3.47,3.47,0,0,0,213.09,540.61Z" transform="translate(-6.49 -22.56)"/><path class="cls-7" d="M229.29,540.61a3.46,3.46,0,1,0-4,2.87A3.47,3.47,0,0,0,229.29,540.61Z" transform="translate(-6.49 -22.56)"/><path class="cls-7" d="M245.48,540.61a3.46,3.46,0,1,0-4,2.87A3.46,3.46,0,0,0,245.48,540.61Z" transform="translate(-6.49 -22.56)"/><path class="cls-7" d="M261.68,540.61a3.46,3.46,0,1,0-4,2.87A3.46,3.46,0,0,0,261.68,540.61Z" transform="translate(-6.49 -22.56)"/><path class="cls-7" d="M277.88,540.61a3.46,3.46,0,1,0-4,2.87A3.46,3.46,0,0,0,277.88,540.61Z" transform="translate(-6.49 -22.56)"/><path class="cls-7" d="M294.07,540.61a3.46,3.46,0,1,0-3.95,2.87A3.46,3.46,0,0,0,294.07,540.61Z" transform="translate(-6.49 -22.56)"/><path class="cls-7" d="M310.09,540.61a3.46,3.46,0,1,0-3.95,2.87A3.46,3.46,0,0,0,310.09,540.61Z" transform="translate(-6.49 -22.56)"/><path class="cls-8" d="M326.29,540.61a3.46,3.46,0,1,0-4,2.87A3.46,3.46,0,0,0,326.29,540.61Z" transform="translate(-6.49 -22.56)"/><path class="cls-7" d="M342.49,540.61a3.46,3.46,0,1,0-3.95,2.87A3.46,3.46,0,0,0,342.49,540.61Z" transform="translate(-6.49 -22.56)"/><path class="cls-7" d="M358.7,540.61a3.47,3.47,0,1,0-4,2.89A3.47,3.47,0,0,0,358.7,540.61Z" transform="translate(-6.49 -22.56)"/><path class="cls-7" d="M374.88,540.61a3.45,3.45,0,1,0-3.95,2.87A3.45,3.45,0,0,0,374.88,540.61Z" transform="translate(-6.49 -22.56)"/><path class="cls-7" d="M391.08,540.61a3.45,3.45,0,1,0-3.95,2.87A3.45,3.45,0,0,0,391.08,540.61Z" transform="translate(-6.49 -22.56)"/><path class="cls-7" d="M407.3,540.61a3.48,3.48,0,1,0-4,2.9A3.47,3.47,0,0,0,407.3,540.61Z" transform="translate(-6.49 -22.56)"/><path class="cls-7" d="M440.25,540.7a4,4,0,1,0-4.61,3.35A4,4,0,0,0,440.25,540.7Z" transform="translate(-6.49 -22.56)"/><path class="cls-7" d="M471.7,540.55a3.08,3.08,0,1,0-3.53,2.56A3.08,3.08,0,0,0,471.7,540.55Z" transform="translate(-6.49 -22.56)"/><path class="cls-7" d="M488.25,540.61a3.44,3.44,0,1,0-3.94,2.86A3.44,3.44,0,0,0,488.25,540.61Z" transform="translate(-6.49 -22.56)"/><path class="cls-7" d="M504.48,540.61a3.47,3.47,0,1,0-4,2.89A3.47,3.47,0,0,0,504.48,540.61Z" transform="translate(-6.49 -22.56)"/><path class="cls-6" d="M521,540.66a3.77,3.77,0,1,0-4.31,3.12A3.77,3.77,0,0,0,521,540.66Z" transform="translate(-6.49 -22.56)"/><path class="cls-7" d="M15.28,524.41a3.46,3.46,0,1,0-3.95,2.87A3.46,3.46,0,0,0,15.28,524.41Z" transform="translate(-6.49 -22.56)"/><path class="cls-7" d="M31.49,524.41a3.46,3.46,0,1,0-4,2.87A3.46,3.46,0,0,0,31.49,524.41Z" transform="translate(-6.49 -22.56)"/><path class="cls-7" d="M63.88,524.41a3.46,3.46,0,1,0-4,2.87A3.46,3.46,0,0,0,63.88,524.41Z" transform="translate(-6.49 -22.56)"/><path class="cls-7" d="M80.08,524.41a3.46,3.46,0,1,0-4,2.87A3.46,3.46,0,0,0,80.08,524.41Z" transform="translate(-6.49 -22.56)"/><path class="cls-7" d="M96.28,524.41a3.46,3.46,0,1,0-4,2.87A3.46,3.46,0,0,0,96.28,524.41Z" transform="translate(-6.49 -22.56)"/><path class="cls-7" d="M112.48,524.41a3.46,3.46,0,1,0-4,2.87A3.46,3.46,0,0,0,112.48,524.41Z" transform="translate(-6.49 -22.56)"/><path class="cls-7" d="M128.67,524.41a3.46,3.46,0,1,0-4,2.87A3.46,3.46,0,0,0,128.67,524.41Z" transform="translate(-6.49 -22.56)"/><path class="cls-7" d="M148.29,524.41a3.45,3.45,0,1,0-3.95,2.88A3.45,3.45,0,0,0,148.29,524.41Z" transform="translate(-6.49 -22.56)"/><path class="cls-7" d="M164.49,524.41a3.45,3.45,0,1,0-4,2.88A3.45,3.45,0,0,0,164.49,524.41Z" transform="translate(-6.49 -22.56)"/><path class="cls-7" d="M180.68,524.41a3.45,3.45,0,1,0-4,2.88A3.45,3.45,0,0,0,180.68,524.41Z" transform="translate(-6.49 -22.56)"/><path class="cls-7" d="M196.88,524.41a3.45,3.45,0,1,0-3.95,2.88A3.45,3.45,0,0,0,196.88,524.41Z" transform="translate(-6.49 -22.56)"/><path class="cls-7" d="M213.09,524.41a3.46,3.46,0,1,0-4,2.88A3.46,3.46,0,0,0,213.09,524.41Z" transform="translate(-6.49 -22.56)"/><path class="cls-7" d="M229.29,524.41a3.46,3.46,0,1,0-4,2.88A3.46,3.46,0,0,0,229.29,524.41Z" transform="translate(-6.49 -22.56)"/><path class="cls-5" d="M261.68,524.41a3.46,3.46,0,1,0-4,2.88A3.46,3.46,0,0,0,261.68,524.41Z" transform="translate(-6.49 -22.56)"/><path class="cls-7" d="M277.88,524.41a3.46,3.46,0,1,0-4,2.88A3.46,3.46,0,0,0,277.88,524.41Z" transform="translate(-6.49 -22.56)"/><path class="cls-6" d="M294.07,524.41a3.46,3.46,0,1,0-3.95,2.88A3.46,3.46,0,0,0,294.07,524.41Z" transform="translate(-6.49 -22.56)"/><path class="cls-7" d="M326.29,524.41a3.46,3.46,0,1,0-4,2.88A3.46,3.46,0,0,0,326.29,524.41Z" transform="translate(-6.49 -22.56)"/><path class="cls-7" d="M342.49,524.41a3.46,3.46,0,1,0-3.95,2.88A3.46,3.46,0,0,0,342.49,524.41Z" transform="translate(-6.49 -22.56)"/><path class="cls-7" d="M374.88,524.41a3.45,3.45,0,1,0-3.95,2.88A3.45,3.45,0,0,0,374.88,524.41Z" transform="translate(-6.49 -22.56)"/><path class="cls-7" d="M391.08,524.41a3.45,3.45,0,1,0-3.95,2.88A3.45,3.45,0,0,0,391.08,524.41Z" transform="translate(-6.49 -22.56)"/><path class="cls-7" d="M407.24,524.41a3.42,3.42,0,1,0-3.91,2.84A3.42,3.42,0,0,0,407.24,524.41Z" transform="translate(-6.49 -22.56)"/><path class="cls-7" d="M423.42,524.4a3.4,3.4,0,1,0-3.89,2.83A3.39,3.39,0,0,0,423.42,524.4Z" transform="translate(-6.49 -22.56)"/><path class="cls-7" d="M439.66,524.41a3.44,3.44,0,1,0-3.94,2.86A3.44,3.44,0,0,0,439.66,524.41Z" transform="translate(-6.49 -22.56)"/><path class="cls-7" d="M455.92,524.41a3.5,3.5,0,1,0-4,2.91A3.5,3.5,0,0,0,455.92,524.41Z" transform="translate(-6.49 -22.56)"/><path class="cls-7" d="M472.06,524.41a3.45,3.45,0,1,0-3.95,2.88A3.45,3.45,0,0,0,472.06,524.41Z" transform="translate(-6.49 -22.56)"/><path class="cls-7" d="M488.25,524.41a3.44,3.44,0,1,0-3.94,2.86A3.44,3.44,0,0,0,488.25,524.41Z" transform="translate(-6.49 -22.56)"/><path class="cls-7" d="M504.47,524.41a3.46,3.46,0,1,0-4,2.88A3.46,3.46,0,0,0,504.47,524.41Z" transform="translate(-6.49 -22.56)"/><path class="cls-7" d="M520.69,524.42a3.48,3.48,0,1,0-4,2.9A3.49,3.49,0,0,0,520.69,524.42Z" transform="translate(-6.49 -22.56)"/><path class="cls-5" d="M536.82,524.41a3.42,3.42,0,1,0-3.91,2.84A3.41,3.41,0,0,0,536.82,524.41Z" transform="translate(-6.49 -22.56)"/><path class="cls-7" d="M553.16,524.42a3.56,3.56,0,1,0-4.07,3A3.56,3.56,0,0,0,553.16,524.42Z" transform="translate(-6.49 -22.56)"/><path class="cls-7" d="M15.32,508.21a3.48,3.48,0,1,0-4,2.9A3.48,3.48,0,0,0,15.32,508.21Z" transform="translate(-6.49 -22.56)"/><path class="cls-7" d="M31.5,508.21a3.47,3.47,0,1,0-4,2.89A3.47,3.47,0,0,0,31.5,508.21Z" transform="translate(-6.49 -22.56)"/><path class="cls-7" d="M47.67,508.21a3.44,3.44,0,1,0-3.94,2.87A3.44,3.44,0,0,0,47.67,508.21Z" transform="translate(-6.49 -22.56)"/><path class="cls-7" d="M63.88,508.22a3.46,3.46,0,1,0-4,2.87A3.47,3.47,0,0,0,63.88,508.22Z" transform="translate(-6.49 -22.56)"/><path class="cls-7" d="M80.08,508.22a3.46,3.46,0,1,0-4,2.87A3.46,3.46,0,0,0,80.08,508.22Z" transform="translate(-6.49 -22.56)"/><path class="cls-7" d="M96.28,508.22a3.46,3.46,0,1,0-4,2.87A3.46,3.46,0,0,0,96.28,508.22Z" transform="translate(-6.49 -22.56)"/><path class="cls-7" d="M128.67,508.22a3.46,3.46,0,1,0-4,2.87A3.46,3.46,0,0,0,128.67,508.22Z" transform="translate(-6.49 -22.56)"/><path class="cls-7" d="M148.29,508.22a3.45,3.45,0,1,0-3.95,2.87A3.45,3.45,0,0,0,148.29,508.22Z" transform="translate(-6.49 -22.56)"/><path class="cls-7" d="M164.49,508.22a3.45,3.45,0,1,0-4,2.87A3.45,3.45,0,0,0,164.49,508.22Z" transform="translate(-6.49 -22.56)"/><path class="cls-7" d="M180.68,508.22a3.45,3.45,0,1,0-4,2.87A3.45,3.45,0,0,0,180.68,508.22Z" transform="translate(-6.49 -22.56)"/><path class="cls-7" d="M213.09,508.22a3.46,3.46,0,1,0-4,2.87A3.47,3.47,0,0,0,213.09,508.22Z" transform="translate(-6.49 -22.56)"/><path class="cls-7" d="M229.29,508.22a3.46,3.46,0,1,0-4,2.87A3.47,3.47,0,0,0,229.29,508.22Z" transform="translate(-6.49 -22.56)"/><path class="cls-7" d="M245.48,508.22a3.46,3.46,0,1,0-4,2.87A3.46,3.46,0,0,0,245.48,508.22Z" transform="translate(-6.49 -22.56)"/><path class="cls-7" d="M261.68,508.22a3.46,3.46,0,1,0-4,2.87A3.46,3.46,0,0,0,261.68,508.22Z" transform="translate(-6.49 -22.56)"/><path class="cls-7" d="M294.07,508.22a3.46,3.46,0,1,0-3.95,2.87A3.46,3.46,0,0,0,294.07,508.22Z" transform="translate(-6.49 -22.56)"/><path class="cls-7" d="M310.09,508.22a3.46,3.46,0,1,0-3.95,2.87A3.46,3.46,0,0,0,310.09,508.22Z" transform="translate(-6.49 -22.56)"/><path class="cls-6" d="M326.29,508.22a3.46,3.46,0,1,0-4,2.87A3.46,3.46,0,0,0,326.29,508.22Z" transform="translate(-6.49 -22.56)"/><path class="cls-7" d="M342.49,508.22a3.46,3.46,0,1,0-3.95,2.87A3.46,3.46,0,0,0,342.49,508.22Z" transform="translate(-6.49 -22.56)"/><path class="cls-7" d="M358.68,508.22a3.46,3.46,0,1,0-3.95,2.87A3.46,3.46,0,0,0,358.68,508.22Z" transform="translate(-6.49 -22.56)"/><path class="cls-7" d="M391.08,508.22a3.45,3.45,0,1,0-3.95,2.87A3.45,3.45,0,0,0,391.08,508.22Z" transform="translate(-6.49 -22.56)"/><path class="cls-5" d="M407.28,508.22a3.46,3.46,0,1,0-3.95,2.87A3.46,3.46,0,0,0,407.28,508.22Z" transform="translate(-6.49 -22.56)"/><path class="cls-7" d="M423.47,508.22a3.45,3.45,0,1,0-4,2.87A3.45,3.45,0,0,0,423.47,508.22Z" transform="translate(-6.49 -22.56)"/><path class="cls-7" d="M439.67,508.22a3.45,3.45,0,1,0-3.95,2.87A3.46,3.46,0,0,0,439.67,508.22Z" transform="translate(-6.49 -22.56)"/><path class="cls-7" d="M455.88,508.22a3.46,3.46,0,1,0-4,2.87A3.47,3.47,0,0,0,455.88,508.22Z" transform="translate(-6.49 -22.56)"/><path class="cls-8" d="M472.06,508.22a3.45,3.45,0,1,0-3.95,2.87A3.45,3.45,0,0,0,472.06,508.22Z" transform="translate(-6.49 -22.56)"/><path class="cls-7" d="M488.26,508.22a3.46,3.46,0,1,0-3.95,2.87A3.46,3.46,0,0,0,488.26,508.22Z" transform="translate(-6.49 -22.56)"/><path class="cls-5" d="M520.66,508.22a3.45,3.45,0,1,0-3.95,2.87A3.45,3.45,0,0,0,520.66,508.22Z" transform="translate(-6.49 -22.56)"/><path class="cls-7" d="M536.68,508.18a3.28,3.28,0,1,0-3.76,2.73A3.28,3.28,0,0,0,536.68,508.18Z" transform="translate(-6.49 -22.56)"/><path class="cls-7" d="M602.29,508.31a4.1,4.1,0,1,0-4.69,3.41A4.1,4.1,0,0,0,602.29,508.31Z" transform="translate(-6.49 -22.56)"/><path class="cls-7" d="M15.37,492a3.53,3.53,0,1,0-4,2.94A3.52,3.52,0,0,0,15.37,492Z" transform="translate(-6.49 -22.56)"/><path class="cls-7" d="M31.5,492a3.47,3.47,0,1,0-4,2.88A3.47,3.47,0,0,0,31.5,492Z" transform="translate(-6.49 -22.56)"/><path class="cls-7" d="M63.88,492a3.46,3.46,0,1,0-4,2.87A3.47,3.47,0,0,0,63.88,492Z" transform="translate(-6.49 -22.56)"/><path class="cls-7" d="M80.08,492a3.46,3.46,0,1,0-4,2.87A3.46,3.46,0,0,0,80.08,492Z" transform="translate(-6.49 -22.56)"/><path class="cls-7" d="M112.48,492a3.46,3.46,0,1,0-4,2.87A3.46,3.46,0,0,0,112.48,492Z" transform="translate(-6.49 -22.56)"/><path class="cls-7" d="M128.67,492a3.46,3.46,0,1,0-4,2.87A3.46,3.46,0,0,0,128.67,492Z" transform="translate(-6.49 -22.56)"/><path class="cls-7" d="M164.49,492a3.45,3.45,0,1,0-4,2.87A3.45,3.45,0,0,0,164.49,492Z" transform="translate(-6.49 -22.56)"/><path class="cls-7" d="M180.68,492a3.45,3.45,0,1,0-4,2.87A3.45,3.45,0,0,0,180.68,492Z" transform="translate(-6.49 -22.56)"/><path class="cls-7" d="M196.88,492a3.45,3.45,0,1,0-3.95,2.87A3.45,3.45,0,0,0,196.88,492Z" transform="translate(-6.49 -22.56)"/><path class="cls-7" d="M213.09,492a3.46,3.46,0,1,0-4,2.87A3.47,3.47,0,0,0,213.09,492Z" transform="translate(-6.49 -22.56)"/><path class="cls-7" d="M229.29,492a3.46,3.46,0,1,0-4,2.87A3.47,3.47,0,0,0,229.29,492Z" transform="translate(-6.49 -22.56)"/><path class="cls-5" d="M245.48,492a3.46,3.46,0,1,0-4,2.87A3.46,3.46,0,0,0,245.48,492Z" transform="translate(-6.49 -22.56)"/><path class="cls-5" d="M261.68,492a3.46,3.46,0,1,0-4,2.87A3.46,3.46,0,0,0,261.68,492Z" transform="translate(-6.49 -22.56)"/><path class="cls-7" d="M277.88,492a3.46,3.46,0,1,0-4,2.87A3.46,3.46,0,0,0,277.88,492Z" transform="translate(-6.49 -22.56)"/><path class="cls-7" d="M294.07,492a3.46,3.46,0,1,0-3.95,2.87A3.46,3.46,0,0,0,294.07,492Z" transform="translate(-6.49 -22.56)"/><path class="cls-7" d="M310.09,492a3.46,3.46,0,1,0-3.95,2.87A3.46,3.46,0,0,0,310.09,492Z" transform="translate(-6.49 -22.56)"/><path class="cls-7" d="M326.29,492a3.46,3.46,0,1,0-4,2.87A3.46,3.46,0,0,0,326.29,492Z" transform="translate(-6.49 -22.56)"/><path class="cls-6" d="M342.49,492a3.46,3.46,0,1,0-3.95,2.87A3.46,3.46,0,0,0,342.49,492Z" transform="translate(-6.49 -22.56)"/><path class="cls-7" d="M358.68,492a3.46,3.46,0,1,0-3.95,2.87A3.46,3.46,0,0,0,358.68,492Z" transform="translate(-6.49 -22.56)"/><path class="cls-7" d="M374.88,492a3.45,3.45,0,1,0-3.95,2.87A3.45,3.45,0,0,0,374.88,492Z" transform="translate(-6.49 -22.56)"/><path class="cls-8" d="M391.08,492a3.45,3.45,0,1,0-3.95,2.87A3.45,3.45,0,0,0,391.08,492Z" transform="translate(-6.49 -22.56)"/><path class="cls-7" d="M423.47,492a3.45,3.45,0,1,0-4,2.87A3.45,3.45,0,0,0,423.47,492Z" transform="translate(-6.49 -22.56)"/><path class="cls-7" d="M439.67,492a3.45,3.45,0,1,0-3.95,2.87A3.46,3.46,0,0,0,439.67,492Z" transform="translate(-6.49 -22.56)"/><path class="cls-7" d="M472.06,492a3.45,3.45,0,1,0-3.95,2.87A3.45,3.45,0,0,0,472.06,492Z" transform="translate(-6.49 -22.56)"/><path class="cls-7" d="M488.26,492a3.46,3.46,0,1,0-3.95,2.87A3.46,3.46,0,0,0,488.26,492Z" transform="translate(-6.49 -22.56)"/><path class="cls-7" d="M504.47,492a3.46,3.46,0,1,0-4,2.87A3.47,3.47,0,0,0,504.47,492Z" transform="translate(-6.49 -22.56)"/><path class="cls-7" d="M520.66,492a3.45,3.45,0,1,0-3.95,2.87A3.45,3.45,0,0,0,520.66,492Z" transform="translate(-6.49 -22.56)"/><path class="cls-6" d="M536.87,492a3.47,3.47,0,1,0-4,2.88A3.47,3.47,0,0,0,536.87,492Z" transform="translate(-6.49 -22.56)"/><path class="cls-7" d="M553.09,492a3.48,3.48,0,1,0-4,2.9A3.48,3.48,0,0,0,553.09,492Z" transform="translate(-6.49 -22.56)"/><path class="cls-6" d="M569.59,492.07a3.79,3.79,0,1,0-4.34,3.15A3.79,3.79,0,0,0,569.59,492.07Z" transform="translate(-6.49 -22.56)"/><path class="cls-7" d="M585.46,492a3.47,3.47,0,1,0-4,2.88A3.47,3.47,0,0,0,585.46,492Z" transform="translate(-6.49 -22.56)"/><path class="cls-7" d="M618.37,492.1a4,4,0,1,0-4.56,3.32A4,4,0,0,0,618.37,492.1Z" transform="translate(-6.49 -22.56)"/><path class="cls-7" d="M47.43,475.77a3.2,3.2,0,1,0-3.67,2.66A3.21,3.21,0,0,0,47.43,475.77Z" transform="translate(-6.49 -22.56)"/><path class="cls-7" d="M63.63,475.77A3.2,3.2,0,1,0,60,478.43,3.21,3.21,0,0,0,63.63,475.77Z" transform="translate(-6.49 -22.56)"/><path class="cls-7" d="M80.11,475.82a3.48,3.48,0,1,0-4,2.9A3.48,3.48,0,0,0,80.11,475.82Z" transform="translate(-6.49 -22.56)"/><path class="cls-7" d="M96.36,475.83a3.55,3.55,0,1,0-4.06,2.95A3.55,3.55,0,0,0,96.36,475.83Z" transform="translate(-6.49 -22.56)"/><path class="cls-7" d="M112.48,475.82a3.46,3.46,0,1,0-4,2.87A3.46,3.46,0,0,0,112.48,475.82Z" transform="translate(-6.49 -22.56)"/><path class="cls-7" d="M128.65,475.81a3.43,3.43,0,1,0-3.93,2.85A3.43,3.43,0,0,0,128.65,475.81Z" transform="translate(-6.49 -22.56)"/><path class="cls-7" d="M148.29,475.82a3.45,3.45,0,1,0-3.95,2.87A3.45,3.45,0,0,0,148.29,475.82Z" transform="translate(-6.49 -22.56)"/><path class="cls-7" d="M164.49,475.82a3.45,3.45,0,1,0-4,2.87A3.45,3.45,0,0,0,164.49,475.82Z" transform="translate(-6.49 -22.56)"/><path class="cls-7" d="M180.68,475.82a3.45,3.45,0,1,0-4,2.87A3.45,3.45,0,0,0,180.68,475.82Z" transform="translate(-6.49 -22.56)"/><path class="cls-7" d="M196.88,475.82a3.45,3.45,0,1,0-3.95,2.87A3.45,3.45,0,0,0,196.88,475.82Z" transform="translate(-6.49 -22.56)"/><path class="cls-7" d="M229.29,475.82a3.46,3.46,0,1,0-4,2.87A3.46,3.46,0,0,0,229.29,475.82Z" transform="translate(-6.49 -22.56)"/><path class="cls-5" d="M245.47,475.82a3.45,3.45,0,1,0-3.95,2.87A3.45,3.45,0,0,0,245.47,475.82Z" transform="translate(-6.49 -22.56)"/><path class="cls-7" d="M277.88,475.82a3.46,3.46,0,1,0-4,2.87A3.46,3.46,0,0,0,277.88,475.82Z" transform="translate(-6.49 -22.56)"/><path class="cls-7" d="M294.07,475.82a3.46,3.46,0,1,0-4,2.87A3.46,3.46,0,0,0,294.07,475.82Z" transform="translate(-6.49 -22.56)"/><path class="cls-7" d="M326.29,475.82a3.46,3.46,0,1,0-4,2.87A3.46,3.46,0,0,0,326.29,475.82Z" transform="translate(-6.49 -22.56)"/><path class="cls-7" d="M342.49,475.82a3.46,3.46,0,1,0-3.95,2.87A3.46,3.46,0,0,0,342.49,475.82Z" transform="translate(-6.49 -22.56)"/><path class="cls-7" d="M374.88,475.82a3.45,3.45,0,1,0-3.95,2.87A3.45,3.45,0,0,0,374.88,475.82Z" transform="translate(-6.49 -22.56)"/><path class="cls-7" d="M391.08,475.82a3.45,3.45,0,1,0-3.95,2.87A3.45,3.45,0,0,0,391.08,475.82Z" transform="translate(-6.49 -22.56)"/><path class="cls-7" d="M407.28,475.82a3.46,3.46,0,1,0-3.95,2.87A3.46,3.46,0,0,0,407.28,475.82Z" transform="translate(-6.49 -22.56)"/><path class="cls-7" d="M423.47,475.82a3.45,3.45,0,1,0-4,2.87A3.45,3.45,0,0,0,423.47,475.82Z" transform="translate(-6.49 -22.56)"/><path class="cls-5" d="M439.64,475.81a3.43,3.43,0,1,0-3.92,2.85A3.42,3.42,0,0,0,439.64,475.81Z" transform="translate(-6.49 -22.56)"/><path class="cls-7" d="M455.83,475.81a3.42,3.42,0,1,0-3.91,2.84A3.43,3.43,0,0,0,455.83,475.81Z" transform="translate(-6.49 -22.56)"/><path class="cls-7" d="M472.1,475.82a3.48,3.48,0,1,0-4,2.9A3.48,3.48,0,0,0,472.1,475.82Z" transform="translate(-6.49 -22.56)"/><path class="cls-7" d="M504.57,475.84a3.56,3.56,0,1,0-4.07,3A3.56,3.56,0,0,0,504.57,475.84Z" transform="translate(-6.49 -22.56)"/><path class="cls-7" d="M520.67,475.82a3.47,3.47,0,1,0-4,2.88A3.47,3.47,0,0,0,520.67,475.82Z" transform="translate(-6.49 -22.56)"/><path class="cls-8" d="M536.89,475.82a3.48,3.48,0,1,0-4,2.9A3.47,3.47,0,0,0,536.89,475.82Z" transform="translate(-6.49 -22.56)"/><path class="cls-8" d="M553,475.81a3.44,3.44,0,1,0-3.94,2.87A3.43,3.43,0,0,0,553,475.81Z" transform="translate(-6.49 -22.56)"/><path class="cls-7" d="M569.12,475.8a3.32,3.32,0,1,0-3.8,2.76A3.32,3.32,0,0,0,569.12,475.8Z" transform="translate(-6.49 -22.56)"/><path class="cls-7" d="M148.29,459.62a3.45,3.45,0,1,0-3.95,2.87A3.45,3.45,0,0,0,148.29,459.62Z" transform="translate(-6.49 -22.56)"/><path class="cls-7" d="M180.68,459.62a3.45,3.45,0,1,0-4,2.87A3.45,3.45,0,0,0,180.68,459.62Z" transform="translate(-6.49 -22.56)"/><path class="cls-7" d="M196.88,459.62a3.45,3.45,0,1,0-3.95,2.87A3.45,3.45,0,0,0,196.88,459.62Z" transform="translate(-6.49 -22.56)"/><path class="cls-7" d="M213.09,459.62a3.46,3.46,0,1,0-4,2.87A3.47,3.47,0,0,0,213.09,459.62Z" transform="translate(-6.49 -22.56)"/><path class="cls-5" d="M229.29,459.62a3.46,3.46,0,1,0-4,2.87A3.47,3.47,0,0,0,229.29,459.62Z" transform="translate(-6.49 -22.56)"/><path class="cls-7" d="M245.47,459.62a3.45,3.45,0,1,0-3.95,2.87A3.45,3.45,0,0,0,245.47,459.62Z" transform="translate(-6.49 -22.56)"/><path class="cls-7" d="M261.68,459.62a3.46,3.46,0,1,0-4,2.87A3.46,3.46,0,0,0,261.68,459.62Z" transform="translate(-6.49 -22.56)"/><path class="cls-7" d="M277.88,459.62a3.46,3.46,0,1,0-4,2.87A3.47,3.47,0,0,0,277.88,459.62Z" transform="translate(-6.49 -22.56)"/><path class="cls-7" d="M294.07,459.62a3.46,3.46,0,1,0-4,2.87A3.46,3.46,0,0,0,294.07,459.62Z" transform="translate(-6.49 -22.56)"/><path class="cls-7" d="M310.09,459.62a3.46,3.46,0,1,0-3.95,2.87A3.46,3.46,0,0,0,310.09,459.62Z" transform="translate(-6.49 -22.56)"/><path class="cls-7" d="M326.29,459.62a3.46,3.46,0,1,0-4,2.87A3.46,3.46,0,0,0,326.29,459.62Z" transform="translate(-6.49 -22.56)"/><path class="cls-7" d="M342.49,459.62a3.46,3.46,0,1,0-3.95,2.87A3.46,3.46,0,0,0,342.49,459.62Z" transform="translate(-6.49 -22.56)"/><path class="cls-8" d="M358.68,459.62a3.46,3.46,0,1,0-3.95,2.87A3.46,3.46,0,0,0,358.68,459.62Z" transform="translate(-6.49 -22.56)"/><path class="cls-7" d="M374.88,459.62a3.45,3.45,0,1,0-3.95,2.87A3.45,3.45,0,0,0,374.88,459.62Z" transform="translate(-6.49 -22.56)"/><path class="cls-7" d="M391.08,459.62a3.45,3.45,0,1,0-3.95,2.87A3.45,3.45,0,0,0,391.08,459.62Z" transform="translate(-6.49 -22.56)"/><path class="cls-7" d="M407.28,459.62a3.46,3.46,0,1,0-3.95,2.87A3.46,3.46,0,0,0,407.28,459.62Z" transform="translate(-6.49 -22.56)"/><path class="cls-7" d="M440.13,459.69a3.91,3.91,0,1,0-4.48,3.26A3.91,3.91,0,0,0,440.13,459.69Z" transform="translate(-6.49 -22.56)"/><path class="cls-6" d="M490.25,459.94a5.47,5.47,0,1,0-6.25,4.54A5.46,5.46,0,0,0,490.25,459.94Z" transform="translate(-6.49 -22.56)"/><path class="cls-7" d="M520.69,459.62a3.48,3.48,0,1,0-4,2.9A3.47,3.47,0,0,0,520.69,459.62Z" transform="translate(-6.49 -22.56)"/><path class="cls-7" d="M64,443.43a3.55,3.55,0,1,0-4.06,2.95A3.55,3.55,0,0,0,64,443.43Z" transform="translate(-6.49 -22.56)"/><path class="cls-7" d="M148.29,443.42a3.45,3.45,0,1,0-3.95,2.88A3.45,3.45,0,0,0,148.29,443.42Z" transform="translate(-6.49 -22.56)"/><path class="cls-7" d="M164.49,443.42a3.45,3.45,0,1,0-4,2.88A3.45,3.45,0,0,0,164.49,443.42Z" transform="translate(-6.49 -22.56)"/><path class="cls-7" d="M180.68,443.42a3.45,3.45,0,1,0-4,2.88A3.45,3.45,0,0,0,180.68,443.42Z" transform="translate(-6.49 -22.56)"/><path class="cls-7" d="M213.09,443.42a3.46,3.46,0,1,0-4,2.88A3.46,3.46,0,0,0,213.09,443.42Z" transform="translate(-6.49 -22.56)"/><path class="cls-7" d="M229.29,443.42a3.46,3.46,0,1,0-4,2.88A3.46,3.46,0,0,0,229.29,443.42Z" transform="translate(-6.49 -22.56)"/><path class="cls-7" d="M261.68,443.42a3.46,3.46,0,1,0-4,2.88A3.46,3.46,0,0,0,261.68,443.42Z" transform="translate(-6.49 -22.56)"/><path class="cls-7" d="M277.88,443.42a3.46,3.46,0,1,0-4,2.88A3.46,3.46,0,0,0,277.88,443.42Z" transform="translate(-6.49 -22.56)"/><path class="cls-7" d="M310,443.4a3.32,3.32,0,1,0-3.8,2.77A3.31,3.31,0,0,0,310,443.4Z" transform="translate(-6.49 -22.56)"/><path class="cls-7" d="M342.51,443.42a3.48,3.48,0,1,0-4,2.9A3.47,3.47,0,0,0,342.51,443.42Z" transform="translate(-6.49 -22.56)"/><path class="cls-7" d="M358.63,443.41a3.4,3.4,0,1,0-3.89,2.83A3.4,3.4,0,0,0,358.63,443.41Z" transform="translate(-6.49 -22.56)"/><path class="cls-7" d="M424.4,443.57a4.39,4.39,0,1,0-5,3.65A4.4,4.4,0,0,0,424.4,443.57Z" transform="translate(-6.49 -22.56)"/><path class="cls-7" d="M164.49,427.22a3.45,3.45,0,1,0-4,2.88A3.45,3.45,0,0,0,164.49,427.22Z" transform="translate(-6.49 -22.56)"/><path class="cls-7" d="M180.68,427.22a3.45,3.45,0,1,0-4,2.88A3.45,3.45,0,0,0,180.68,427.22Z" transform="translate(-6.49 -22.56)"/><path class="cls-7" d="M196.88,427.22a3.45,3.45,0,1,0-3.95,2.88A3.45,3.45,0,0,0,196.88,427.22Z" transform="translate(-6.49 -22.56)"/><path class="cls-7" d="M213.09,427.22a3.46,3.46,0,1,0-4,2.88A3.46,3.46,0,0,0,213.09,427.22Z" transform="translate(-6.49 -22.56)"/><path class="cls-7" d="M229.29,427.22a3.46,3.46,0,1,0-4,2.88A3.46,3.46,0,0,0,229.29,427.22Z" transform="translate(-6.49 -22.56)"/><path class="cls-7" d="M245.47,427.22a3.45,3.45,0,1,0-3.95,2.88A3.45,3.45,0,0,0,245.47,427.22Z" transform="translate(-6.49 -22.56)"/><path class="cls-7" d="M261.68,427.22a3.46,3.46,0,1,0-4,2.88A3.46,3.46,0,0,0,261.68,427.22Z" transform="translate(-6.49 -22.56)"/><path class="cls-7" d="M277.88,427.22a3.46,3.46,0,1,0-4,2.88A3.46,3.46,0,0,0,277.88,427.22Z" transform="translate(-6.49 -22.56)"/><path class="cls-7" d="M294.07,427.22a3.46,3.46,0,1,0-4,2.88A3.46,3.46,0,0,0,294.07,427.22Z" transform="translate(-6.49 -22.56)"/><path class="cls-7" d="M326.17,427.2a3.34,3.34,0,1,0-3.82,2.77A3.34,3.34,0,0,0,326.17,427.2Z" transform="translate(-6.49 -22.56)"/><path class="cls-8" d="M342.21,427.18a3.17,3.17,0,1,0-3.63,2.64A3.17,3.17,0,0,0,342.21,427.18Z" transform="translate(-6.49 -22.56)"/><path class="cls-7" d="M64,411A3.53,3.53,0,1,0,59.91,414,3.52,3.52,0,0,0,64,411Z" transform="translate(-6.49 -22.56)"/><path class="cls-7" d="M148.29,411a3.45,3.45,0,1,0-3.95,2.87A3.45,3.45,0,0,0,148.29,411Z" transform="translate(-6.49 -22.56)"/><path class="cls-7" d="M164.49,411a3.45,3.45,0,1,0-4,2.87A3.45,3.45,0,0,0,164.49,411Z" transform="translate(-6.49 -22.56)"/><path class="cls-7" d="M180.68,411a3.45,3.45,0,1,0-4,2.87A3.45,3.45,0,0,0,180.68,411Z" transform="translate(-6.49 -22.56)"/><path class="cls-7" d="M196.88,411a3.45,3.45,0,1,0-3.95,2.87A3.45,3.45,0,0,0,196.88,411Z" transform="translate(-6.49 -22.56)"/><path class="cls-7" d="M245.37,411a3.35,3.35,0,1,0-3.83,2.79A3.35,3.35,0,0,0,245.37,411Z" transform="translate(-6.49 -22.56)"/><path class="cls-6" d="M327.1,411.16a4.28,4.28,0,1,0-4.9,3.55A4.29,4.29,0,0,0,327.1,411.16Z" transform="translate(-6.49 -22.56)"/><path class="cls-7" d="M80.42,394.88a3.8,3.8,0,1,0-4.35,3.17A3.8,3.8,0,0,0,80.42,394.88Z" transform="translate(-6.49 -22.56)"/><path class="cls-7" d="M96.24,394.83a3.43,3.43,0,1,0-3.92,2.85A3.44,3.44,0,0,0,96.24,394.83Z" transform="translate(-6.49 -22.56)"/><path class="cls-7" d="M164.57,394.84a3.54,3.54,0,1,0-4,2.94A3.55,3.55,0,0,0,164.57,394.84Z" transform="translate(-6.49 -22.56)"/><path class="cls-7" d="M180.66,394.82a3.43,3.43,0,1,0-3.92,2.85A3.42,3.42,0,0,0,180.66,394.82Z" transform="translate(-6.49 -22.56)"/><path class="cls-7" d="M196.9,394.83a3.47,3.47,0,1,0-4,2.89A3.47,3.47,0,0,0,196.9,394.83Z" transform="translate(-6.49 -22.56)"/><path class="cls-7" d="M213.09,394.83a3.46,3.46,0,1,0-4,2.87A3.47,3.47,0,0,0,213.09,394.83Z" transform="translate(-6.49 -22.56)"/><path class="cls-7" d="M229.29,394.83a3.46,3.46,0,1,0-4,2.87A3.47,3.47,0,0,0,229.29,394.83Z" transform="translate(-6.49 -22.56)"/><path class="cls-7" d="M245.47,394.83a3.44,3.44,0,1,0-3.94,2.87A3.44,3.44,0,0,0,245.47,394.83Z" transform="translate(-6.49 -22.56)"/><path class="cls-7" d="M310.17,394.84a3.53,3.53,0,1,0-4,2.94A3.54,3.54,0,0,0,310.17,394.84Z" transform="translate(-6.49 -22.56)"/><path class="cls-7" d="M343.1,394.92a4.07,4.07,0,1,0-4.66,3.39A4.06,4.06,0,0,0,343.1,394.92Z" transform="translate(-6.49 -22.56)"/><path class="cls-8" d="M359.83,395a4.62,4.62,0,1,0-5.28,3.84A4.62,4.62,0,0,0,359.83,395Z" transform="translate(-6.49 -22.56)"/></g></svg>