<svg id="Layer_1" data-name="Layer 1" xmlns="http://www.w3.org/2000/svg" xmlns:xlink="http://www.w3.org/1999/xlink" viewBox="0 0 775 268.91"><defs><style>.cls-1{fill-rule:evenodd;fill:url(#radial-gradient);}.cls-2{fill:#452e66;}</style><radialGradient id="radial-gradient" cx="89.87" cy="555.71" r="1" gradientTransform="matrix(677.63, 0, 0, -1563.71, -60581.89, 868901.71)" gradientUnits="userSpaceOnUse"><stop offset="0" stop-color="#ebb9f2"/><stop offset="0.54" stop-color="#f6aaaa"/><stop offset="1" stop-color="#a566ff"/></radialGradient></defs><path class="cls-1" d="M12,0A12,12,0,0,0,0,12V79A12,12,0,0,0,12,91H97a12,12,0,0,1,12,12v62.91a12,12,0,0,1-12,12H85a12,12,0,0,0-12,12v67a12,12,0,0,0,12,12H691a12,12,0,0,0,12-12v-67a12,12,0,0,0-12-12H678a12,12,0,0,1-12-12V103a12,12,0,0,1,12-12h85a12,12,0,0,0,12-12V12A12,12,0,0,0,763,0Z" transform="translate(0 0)"/><path class="cls-2" d="M69.49,41.22v5.4H47.23V60.3H70.45V66H40.63V23.16H70.45v5.52H47.23V41.22Z" transform="translate(0 0)"/><path class="cls-2" d="M99.45,32.7h-.24l-8,33.3H83.55L72.63,23.16h6.78L87.27,57.3h.24l8.1-34.14h7.32L111,57.3h.24l7.92-34.14H126L115,66h-7.38Z" transform="translate(0 0)"/><path class="cls-2" d="M171.67,60.3V66H139.15V60.3l24.54-31.44h-23.1v-5.7h31.14v5.7L147.37,60.3Z" transform="translate(0 0)"/><path class="cls-2" d="M203.77,56.76A15.15,15.15,0,0,1,199,63.84c-2.33,1.92-5.6,2.88-9.85,2.88a14.89,14.89,0,0,1-7.79-2,14.11,14.11,0,0,1-5.22-5.82,19.32,19.32,0,0,1-1.86-8.64,20,20,0,0,1,1.79-8.7,13.83,13.83,0,0,1,5.16-5.82,14.54,14.54,0,0,1,7.86-2.1,15,15,0,0,1,7.75,2,13,13,0,0,1,5.28,5.58A18,18,0,0,1,204,49.74c0,.84,0,1.48,0,1.92H180.43a11.51,11.51,0,0,0,2.47,7.26,7.77,7.77,0,0,0,6.23,2.82,8.46,8.46,0,0,0,5.64-1.68,9.78,9.78,0,0,0,2.83-4Zm-14.7-18.18A7.64,7.64,0,0,0,183.13,41,10.61,10.61,0,0,0,180.55,47h17.22a10.28,10.28,0,0,0-2.64-6A7.85,7.85,0,0,0,189.07,38.58Z" transform="translate(0 0)"/><path class="cls-2" d="M213.91,39.12h.24a10.45,10.45,0,0,1,9.42-5.52,12.7,12.7,0,0,1,2.82.3v5.88a22.16,22.16,0,0,0-3.12-.24,9.18,9.18,0,0,0-6.6,2.34q-2.46,2.28-2.46,7.32V66h-6.12V34.32h5.82Z" transform="translate(0 0)"/><path class="cls-2" d="M243.76,33.6a15.37,15.37,0,0,1,8.1,2.1,13.46,13.46,0,0,1,5.34,5.82,18.58,18.58,0,0,1,1.92,8.64,19,19,0,0,1-1.92,8.7,13.91,13.91,0,0,1-5.34,5.82,17.1,17.1,0,0,1-16.2,0,14.32,14.32,0,0,1-5.4-5.82,19.46,19.46,0,0,1-1.86-8.7,19.08,19.08,0,0,1,1.86-8.64,13.83,13.83,0,0,1,5.4-5.82A15.37,15.37,0,0,1,243.76,33.6Zm0,28.14a7.93,7.93,0,0,0,6.6-3.06q2.46-3.12,2.46-8.52t-2.46-8.46a7.87,7.87,0,0,0-6.6-3.12,8,8,0,0,0-6.66,3.12q-2.46,3.06-2.46,8.46t2.46,8.52A8.09,8.09,0,0,0,243.76,61.74Z" transform="translate(0 0)"/><path class="cls-2" d="M280.89,34.32V66h-6.12V34.32Zm0-11.76v6.66h-6.12V22.56Z" transform="translate(0 0)"/><path class="cls-2" d="M305.33,43.8a6.62,6.62,0,0,0-2.69-4.08,8,8,0,0,0-4.75-1.44,7.64,7.64,0,0,0-4.5,1.2,4,4,0,0,0-1.68,3.42,2.86,2.86,0,0,0,1.5,2.7A16.28,16.28,0,0,0,297.89,47l3.13.48a19.19,19.19,0,0,1,7.8,2.88q2.82,1.92,2.82,6.48a8.34,8.34,0,0,1-3.78,7.32,16.63,16.63,0,0,1-9.66,2.58,15.93,15.93,0,0,1-9.6-2.7,11.28,11.28,0,0,1-4.56-7.2l5.57-1.2a8,8,0,0,0,2.94,4.92,10,10,0,0,0,5.77,1.56,8.87,8.87,0,0,0,5.1-1.32A4.4,4.4,0,0,0,305.33,57a3.16,3.16,0,0,0-1.68-2.94,14.57,14.57,0,0,0-4.92-1.5L295.49,52a18.13,18.13,0,0,1-7.32-2.7q-2.69-1.92-2.69-6.36a7.78,7.78,0,0,1,1.56-4.8,10.52,10.52,0,0,1,4.44-3.36A16.62,16.62,0,0,1,298,33.6a15,15,0,0,1,6.19,1.26,11.79,11.79,0,0,1,4.56,3.3,9.08,9.08,0,0,1,2.22,4.44Z" transform="translate(0 0)"/><path class="cls-2" d="M347.85,66a3.54,3.54,0,0,1-.72-1.56,12.92,12.92,0,0,1-.24-2.64,8.94,8.94,0,0,1-4.5,3.72,16.5,16.5,0,0,1-6.18,1.2A12,12,0,0,1,331,65.58a10,10,0,0,1-3.84-3.3,9.16,9.16,0,0,1-1.38-5q0-4.86,3.36-7.14T339.27,47a17.75,17.75,0,0,0,5.94-1.26,2.61,2.61,0,0,0,1.62-2.4q0-4.74-6.66-4.74A8.34,8.34,0,0,0,335.49,40a7,7,0,0,0-2.94,4L327,42.66a10.64,10.64,0,0,1,4.68-6.6,15.33,15.33,0,0,1,8.76-2.46q6.48,0,9.48,2.7a8.74,8.74,0,0,1,3.06,7v15.9q0,3,.12,4.44a7,7,0,0,0,.72,2.4Zm-1-16.32a5.67,5.67,0,0,1-2.82,1.2q-2.1.42-5.4.84a10.19,10.19,0,0,0-4.74,1.74A4.35,4.35,0,0,0,332,57.24a4.27,4.27,0,0,0,1.44,3.48,6.22,6.22,0,0,0,4,1.14,12.15,12.15,0,0,0,4.44-.84,8.3,8.3,0,0,0,3.54-2.76,7.68,7.68,0,0,0,1.44-4.74Z" transform="translate(0 0)"/><path class="cls-2" d="M397.9,63.78q0,7.2-4.08,10.56t-10.74,3.42a16.65,16.65,0,0,1-9.18-2.46,12.72,12.72,0,0,1-5.22-7.56l5.88-1.26a8.07,8.07,0,0,0,3,4.8,9.76,9.76,0,0,0,5.52,1.44q8.7,0,8.7-9.24V60.3h-.24a8.92,8.92,0,0,1-3.72,2.94,13.33,13.33,0,0,1-5.52,1.08A14.08,14.08,0,0,1,375,62.4a13.28,13.28,0,0,1-5-5.4,17.26,17.26,0,0,1-1.8-8,17.12,17.12,0,0,1,1.8-8,13.19,13.19,0,0,1,5-5.46,14.08,14.08,0,0,1,7.32-1.92,13.24,13.24,0,0,1,5.76,1.2A8.31,8.31,0,0,1,391.84,38h.24V34.32h5.82Zm-14.58-4.32a7.93,7.93,0,0,0,6.42-2.88,11.52,11.52,0,0,0,2.4-7.62,11.18,11.18,0,0,0-2.4-7.5,7.93,7.93,0,0,0-6.42-2.88,8.11,8.11,0,0,0-6.48,2.88,11.18,11.18,0,0,0-2.4,7.5,11.66,11.66,0,0,0,2.4,7.62A8.11,8.11,0,0,0,383.32,59.46Z" transform="translate(0 0)"/><path class="cls-2" d="M408.92,22.56V66H402.8V22.56Z" transform="translate(0 0)"/><path class="cls-2" d="M428.5,33.6a15.37,15.37,0,0,1,8.1,2.1,13.46,13.46,0,0,1,5.34,5.82,18.58,18.58,0,0,1,1.92,8.64,19,19,0,0,1-1.92,8.7,13.91,13.91,0,0,1-5.34,5.82,17.1,17.1,0,0,1-16.2,0,14.32,14.32,0,0,1-5.4-5.82,19.46,19.46,0,0,1-1.86-8.7A19.08,19.08,0,0,1,415,41.52a13.83,13.83,0,0,1,5.4-5.82A15.37,15.37,0,0,1,428.5,33.6Zm0,28.14a7.93,7.93,0,0,0,6.6-3.06q2.46-3.12,2.46-8.52T435.1,41.7a7.87,7.87,0,0,0-6.6-3.12,8,8,0,0,0-6.66,3.12q-2.46,3.06-2.46,8.46t2.46,8.52A8.09,8.09,0,0,0,428.5,61.74Z" transform="translate(0 0)"/><path class="cls-2" d="M463.87,33.6a13.61,13.61,0,0,1,12.54,7.92,19.08,19.08,0,0,1,1.86,8.64,19.46,19.46,0,0,1-1.86,8.7,13.91,13.91,0,0,1-5.1,5.82,14.73,14.73,0,0,1-13.44.78A9,9,0,0,1,454,61.92h-.24V66H448V22.56h6.12V38h.24a9.15,9.15,0,0,1,3.78-3.24A13.24,13.24,0,0,1,463.87,33.6Zm-1.08,28.14a8.16,8.16,0,0,0,6.72-3.06Q472,55.56,472,50.16t-2.52-8.46a8.73,8.73,0,0,0-13.38,0q-2.46,3.12-2.46,8.46t2.46,8.46A8.14,8.14,0,0,0,462.79,61.74Z" transform="translate(0 0)"/><path class="cls-2" d="M503.24,66a3.54,3.54,0,0,1-.72-1.56,12.92,12.92,0,0,1-.24-2.64,8.94,8.94,0,0,1-4.5,3.72,16.5,16.5,0,0,1-6.18,1.2,12,12,0,0,1-5.22-1.14,10,10,0,0,1-3.84-3.3,9.16,9.16,0,0,1-1.38-5q0-4.86,3.36-7.14T494.66,47a17.75,17.75,0,0,0,5.94-1.26,2.61,2.61,0,0,0,1.62-2.4q0-4.74-6.66-4.74A8.34,8.34,0,0,0,490.88,40a7,7,0,0,0-2.94,4l-5.58-1.32a10.64,10.64,0,0,1,4.68-6.6,15.33,15.33,0,0,1,8.76-2.46q6.48,0,9.48,2.7a8.74,8.74,0,0,1,3.06,7v15.9q0,3,.12,4.44a7,7,0,0,0,.72,2.4Zm-1-16.32a5.67,5.67,0,0,1-2.82,1.2q-2.1.42-5.4.84a10.19,10.19,0,0,0-4.74,1.74,4.35,4.35,0,0,0-1.86,3.78,4.27,4.27,0,0,0,1.44,3.48,6.22,6.22,0,0,0,4,1.14,12.15,12.15,0,0,0,4.44-.84,8.3,8.3,0,0,0,3.54-2.76,7.68,7.68,0,0,0,1.44-4.74Z" transform="translate(0 0)"/><path class="cls-2" d="M519.36,22.56V66h-6.12V22.56Z" transform="translate(0 0)"/><path class="cls-2" d="M555.24,43.8a6.6,6.6,0,0,0-2.7-4.08,8,8,0,0,0-4.74-1.44,7.59,7.59,0,0,0-4.5,1.2,4,4,0,0,0-1.68,3.42,2.86,2.86,0,0,0,1.5,2.7A16.08,16.08,0,0,0,547.8,47l3.12.48a19.19,19.19,0,0,1,7.8,2.88q2.82,1.92,2.82,6.48a8.34,8.34,0,0,1-3.78,7.32,16.6,16.6,0,0,1-9.66,2.58,16,16,0,0,1-9.6-2.7,11.32,11.32,0,0,1-4.56-7.2l5.58-1.2a7.89,7.89,0,0,0,2.94,4.92,10,10,0,0,0,5.76,1.56,8.85,8.85,0,0,0,5.1-1.32A4.41,4.41,0,0,0,555.24,57a3.16,3.16,0,0,0-1.68-2.94,14.64,14.64,0,0,0-4.92-1.5L545.4,52a18.07,18.07,0,0,1-7.32-2.7q-2.7-1.92-2.7-6.36a7.84,7.84,0,0,1,1.56-4.8,10.58,10.58,0,0,1,4.44-3.36,16.7,16.7,0,0,1,6.48-1.2A15,15,0,0,1,554,34.86a11.79,11.79,0,0,1,4.56,3.3,9,9,0,0,1,2.22,4.44Z" transform="translate(0 0)"/><path class="cls-2" d="M579.85,33.6a15.37,15.37,0,0,1,8.1,2.1,13.46,13.46,0,0,1,5.34,5.82,18.58,18.58,0,0,1,1.92,8.64,19,19,0,0,1-1.92,8.7A13.91,13.91,0,0,1,588,64.68a17.1,17.1,0,0,1-16.2,0,14.32,14.32,0,0,1-5.4-5.82,19.46,19.46,0,0,1-1.86-8.7,19.08,19.08,0,0,1,1.86-8.64,13.83,13.83,0,0,1,5.4-5.82A15.37,15.37,0,0,1,579.85,33.6Zm0,28.14a7.93,7.93,0,0,0,6.6-3.06q2.46-3.12,2.46-8.52t-2.46-8.46a7.87,7.87,0,0,0-6.6-3.12,8,8,0,0,0-6.66,3.12q-2.46,3.06-2.46,8.46t2.46,8.52A8.09,8.09,0,0,0,579.85,61.74Z" transform="translate(0 0)"/><path class="cls-2" d="M605.56,22.56V66h-6.12V22.56Z" transform="translate(0 0)"/><path class="cls-2" d="M631.8,61.8A11.16,11.16,0,0,1,622,66.72a11.58,11.58,0,0,1-8-2.88q-3.24-2.88-3.24-8.52v-21h6.12V53.46q0,4.38,1.74,6.24a7.79,7.79,0,0,0,9.12.72,8,8,0,0,0,2.88-3.36,11.57,11.57,0,0,0,1.14-5.34V34.32h6.12V66H632V61.8Z" transform="translate(0 0)"/><path class="cls-2" d="M658.58,60.72V66q-1.32.12-4.5.12-4.44,0-6.36-1.44t-1.86-5.52V38.94h-5.22V34.32h5.22V25.38H652v8.94h7v4.62h-7v18.6q0,2.1.78,2.7a4.83,4.83,0,0,0,2.82.6Z" transform="translate(0 0)"/><path class="cls-2" d="M668.66,34.32V66h-6.12V34.32Zm0-11.76v6.66h-6.12V22.56Z" transform="translate(0 0)"/><path class="cls-2" d="M688.25,33.6a15.37,15.37,0,0,1,8.1,2.1,13.46,13.46,0,0,1,5.34,5.82,18.58,18.58,0,0,1,1.92,8.64,19,19,0,0,1-1.92,8.7,13.91,13.91,0,0,1-5.34,5.82,17.1,17.1,0,0,1-16.2,0,14.32,14.32,0,0,1-5.4-5.82,19.46,19.46,0,0,1-1.86-8.7,19.08,19.08,0,0,1,1.86-8.64,13.83,13.83,0,0,1,5.4-5.82A15.37,15.37,0,0,1,688.25,33.6Zm0,28.14a7.93,7.93,0,0,0,6.6-3.06q2.46-3.12,2.46-8.52t-2.46-8.46a7.87,7.87,0,0,0-6.6-3.12,8,8,0,0,0-6.66,3.12q-2.46,3.06-2.46,8.46t2.46,8.52A8.09,8.09,0,0,0,688.25,61.74Z" transform="translate(0 0)"/><path class="cls-2" d="M713.78,38.52A10.7,10.7,0,0,1,718,34.8a12.88,12.88,0,0,1,5.58-1.2,12.21,12.21,0,0,1,5.53,1.26,9.52,9.52,0,0,1,4.14,3.78A11.89,11.89,0,0,1,734.84,45V66h-6.12V46.86q0-4.38-1.75-6.24a6.87,6.87,0,0,0-5.27-1.86,7.09,7.09,0,0,0-3.85,1.14,8.46,8.46,0,0,0-2.94,3.36,12.25,12.25,0,0,0-1.07,5.34V66h-6.12V34.32h5.81v4.2Z" transform="translate(0 0)"/><path class="cls-2" d="M146,118.6a13.61,13.61,0,0,1,12.54,7.92,19.08,19.08,0,0,1,1.86,8.64,19.46,19.46,0,0,1-1.86,8.7,13.91,13.91,0,0,1-5.1,5.82,14.73,14.73,0,0,1-13.44.78,9,9,0,0,1-3.84-3.54H136V151h-5.82V107.56h6.12V123h.24a9.15,9.15,0,0,1,3.78-3.24A13.24,13.24,0,0,1,146,118.6ZM145,146.74a8.16,8.16,0,0,0,6.72-3.06q2.52-3.12,2.52-8.52t-2.52-8.46a8.73,8.73,0,0,0-13.38,0q-2.46,3.12-2.46,8.46t2.46,8.46A8.14,8.14,0,0,0,145,146.74Z" transform="translate(0 0)"/><path class="cls-2" d="M185.58,146.8a11.16,11.16,0,0,1-9.84,4.92,11.58,11.58,0,0,1-8-2.88q-3.24-2.88-3.24-8.52v-21h6.12v19.14q0,4.38,1.74,6.24a7.79,7.79,0,0,0,9.12.72,8,8,0,0,0,2.88-3.36,11.57,11.57,0,0,0,1.14-5.34v-17.4h6.12V151h-5.82v-4.2Z" transform="translate(0 0)"/><path class="cls-2" d="M202.7,119.32V151h-6.12V119.32Zm0-11.76v6.66h-6.12v-6.66Z" transform="translate(0 0)"/><path class="cls-2" d="M214.12,107.56V151H208V107.56Z" transform="translate(0 0)"/><path class="cls-2" d="M235.21,145.72V151q-1.32.12-4.5.12-4.44,0-6.36-1.44t-1.86-5.52V123.94h-5.22v-4.62h5.22v-8.94h6.12v8.94h7v4.62h-7v18.6q0,2.1.78,2.7a4.83,4.83,0,0,0,2.82.6Z" transform="translate(0 0)"/><path class="cls-2" d="M286,151h-6.84l-7-23.46h-.24L264.82,151h-6.54L248,119.32h6.72l7,24.24h.24l6.84-24.24h7l6.84,24.24h.24l7-24.24h6.48Z" transform="translate(0 0)"/><path class="cls-2" d="M305,119.32V151h-6.12V119.32Zm0-11.76v6.66h-6.12v-6.66Z" transform="translate(0 0)"/><path class="cls-2" d="M326.09,145.72V151q-1.32.12-4.5.12-4.44,0-6.36-1.44t-1.86-5.52V123.94h-5.22v-4.62h5.22v-8.94h6.12v8.94h7v4.62h-7v18.6q0,2.1.78,2.7a4.83,4.83,0,0,0,2.82.6Z" transform="translate(0 0)"/><path class="cls-2" d="M336.29,123.52A11.14,11.14,0,0,1,346,118.6a12,12,0,0,1,5.46,1.26,9.14,9.14,0,0,1,4,3.78,12.09,12.09,0,0,1,1.56,6.36v21h-6.12V131.86q0-4.38-1.74-6.24a6.9,6.9,0,0,0-5.28-1.86,6.49,6.49,0,0,0-3.78,1.26,9.1,9.1,0,0,0-2.94,3.66,12.33,12.33,0,0,0-1.14,5.46V151h-6.12V107.56h6.12v16Z" transform="translate(0 0)"/><path class="cls-2" d="M389.19,118.6a13.61,13.61,0,0,1,12.54,7.92,19.08,19.08,0,0,1,1.86,8.64,19.46,19.46,0,0,1-1.86,8.7,13.91,13.91,0,0,1-5.1,5.82,14.73,14.73,0,0,1-13.44.78,9,9,0,0,1-3.84-3.54h-.24V151h-5.82V107.56h6.12V123h.24a9.15,9.15,0,0,1,3.78-3.24A13.24,13.24,0,0,1,389.19,118.6Zm-1.08,28.14a8.16,8.16,0,0,0,6.72-3.06q2.52-3.12,2.52-8.52t-2.52-8.46a8.73,8.73,0,0,0-13.38,0q-2.46,3.12-2.46,8.46t2.46,8.46A8.14,8.14,0,0,0,388.11,146.74Z" transform="translate(0 0)"/><path class="cls-2" d="M413.93,107.56V151h-6.12V107.56Z" transform="translate(0 0)"/><path class="cls-2" d="M433.51,118.6a15.37,15.37,0,0,1,8.1,2.1,13.46,13.46,0,0,1,5.34,5.82,18.58,18.58,0,0,1,1.92,8.64,19,19,0,0,1-1.92,8.7,13.91,13.91,0,0,1-5.34,5.82,17.1,17.1,0,0,1-16.2,0,14.32,14.32,0,0,1-5.4-5.82,19.46,19.46,0,0,1-1.86-8.7,19.08,19.08,0,0,1,1.86-8.64,13.83,13.83,0,0,1,5.4-5.82A15.37,15.37,0,0,1,433.51,118.6Zm0,28.14a7.93,7.93,0,0,0,6.6-3.06q2.46-3.12,2.46-8.52t-2.46-8.46a7.87,7.87,0,0,0-6.6-3.12,8,8,0,0,0-6.66,3.12q-2.46,3.06-2.46,8.46t2.46,8.52A8.09,8.09,0,0,0,433.51,146.74Z" transform="translate(0 0)"/><path class="cls-2" d="M467,146.74q6.36,0,8.28-6.78l6.18.9a15.83,15.83,0,0,1-4.68,7.56q-3.48,3.3-9.78,3.3a15,15,0,0,1-7.86-2,14.17,14.17,0,0,1-5.22-5.82,19.46,19.46,0,0,1-1.86-8.7,19.08,19.08,0,0,1,1.86-8.64,13.69,13.69,0,0,1,5.22-5.82,14.83,14.83,0,0,1,7.92-2.1q6,0,9.24,2.94a15.32,15.32,0,0,1,4.5,6.12L475,129.52a10.26,10.26,0,0,0-2.64-4.08,7.1,7.1,0,0,0-5.34-1.86,7.69,7.69,0,0,0-6.42,3.12q-2.34,3.06-2.34,8.46t2.34,8.46A7.63,7.63,0,0,0,467,146.74Z" transform="translate(0 0)"/><path class="cls-2" d="M490.92,151H484.8V107.56h6.12V132.1l12.9-12.78h7.67l-12.41,12.12L512.88,151h-7.33l-10.79-15.54-3.84,3.66Z" transform="translate(0 0)"/><path class="cls-2" d="M526,146.74q6.36,0,8.28-6.78l6.18.9a15.83,15.83,0,0,1-4.68,7.56q-3.48,3.3-9.78,3.3a15,15,0,0,1-7.86-2,14.17,14.17,0,0,1-5.22-5.82,19.46,19.46,0,0,1-1.86-8.7,19.08,19.08,0,0,1,1.86-8.64,13.69,13.69,0,0,1,5.22-5.82,14.83,14.83,0,0,1,7.92-2.1q6,0,9.24,2.94a15.32,15.32,0,0,1,4.5,6.12l-5.76,1.86a10.26,10.26,0,0,0-2.64-4.08,7.1,7.1,0,0,0-5.34-1.86,7.69,7.69,0,0,0-6.42,3.12q-2.34,3.06-2.34,8.46t2.34,8.46A7.63,7.63,0,0,0,526,146.74Z" transform="translate(0 0)"/><path class="cls-2" d="M550.22,123.52a11.14,11.14,0,0,1,9.72-4.92,12,12,0,0,1,5.46,1.26,9.14,9.14,0,0,1,4,3.78A12.09,12.09,0,0,1,571,130v21h-6.12V131.86q0-4.38-1.74-6.24a6.9,6.9,0,0,0-5.28-1.86,6.49,6.49,0,0,0-3.78,1.26,9.1,9.1,0,0,0-2.94,3.66,12.33,12.33,0,0,0-1.14,5.46V151h-6.12V107.56H550v16Z" transform="translate(0 0)"/><path class="cls-2" d="M596.67,151a3.54,3.54,0,0,1-.72-1.56,12.92,12.92,0,0,1-.24-2.64,8.94,8.94,0,0,1-4.5,3.72,16.5,16.5,0,0,1-6.18,1.2,12,12,0,0,1-5.22-1.14,10,10,0,0,1-3.84-3.3,9.16,9.16,0,0,1-1.38-5q0-4.86,3.36-7.14T588.09,132a17.75,17.75,0,0,0,5.94-1.26,2.61,2.61,0,0,0,1.62-2.4q0-4.74-6.66-4.74a8.34,8.34,0,0,0-4.68,1.38,7,7,0,0,0-2.94,4l-5.58-1.32a10.64,10.64,0,0,1,4.68-6.6,15.33,15.33,0,0,1,8.76-2.46q6.48,0,9.48,2.7a8.74,8.74,0,0,1,3.06,7v15.9q0,3,.12,4.44a7,7,0,0,0,.72,2.4Zm-1-16.32a5.67,5.67,0,0,1-2.82,1.2q-2.1.42-5.4.84a10.19,10.19,0,0,0-4.74,1.74,4.35,4.35,0,0,0-1.86,3.78,4.27,4.27,0,0,0,1.44,3.48,6.22,6.22,0,0,0,4,1.14,12.15,12.15,0,0,0,4.44-.84,8.3,8.3,0,0,0,3.54-2.76,7.68,7.68,0,0,0,1.44-4.74Z" transform="translate(0 0)"/><path class="cls-2" d="M612.79,119.32V151h-6.12V119.32Zm0-11.76v6.66h-6.12v-6.66Z" transform="translate(0 0)"/><path class="cls-2" d="M624,123.52a10.79,10.79,0,0,1,4.26-3.72,12.81,12.81,0,0,1,5.58-1.2,12.17,12.17,0,0,1,5.52,1.26,9.42,9.42,0,0,1,4.14,3.78A11.89,11.89,0,0,1,645.1,130v21H639V131.86q0-4.38-1.74-6.24a6.9,6.9,0,0,0-5.28-1.86,7.05,7.05,0,0,0-3.84,1.14,8.39,8.39,0,0,0-2.94,3.36,12.11,12.11,0,0,0-1.08,5.34V151H618V119.32h5.82v4.2Z" transform="translate(0 0)"/><path class="cls-2" d="M127.78,230.72V236q-1.34.12-4.5.12c-3,0-5.09-.48-6.36-1.44s-1.86-2.8-1.86-5.52V208.94h-5.23v-4.62h5.23v-8.94h6.12v8.94h6.95v4.62h-6.95v18.6c0,1.4.25,2.3.78,2.7a4.81,4.81,0,0,0,2.82.6Z" transform="translate(0 0)"/><path class="cls-2" d="M159.48,226.76a15.17,15.17,0,0,1-4.8,7.08q-3.48,2.88-9.84,2.88a14.93,14.93,0,0,1-7.8-2,14.17,14.17,0,0,1-5.22-5.82,19.32,19.32,0,0,1-1.86-8.64,20,20,0,0,1,1.8-8.7,13.83,13.83,0,0,1,5.16-5.82,14.52,14.52,0,0,1,7.86-2.1,15,15,0,0,1,7.74,2,13,13,0,0,1,5.28,5.58,18,18,0,0,1,1.92,8.58q0,1.26-.06,1.92H136.14a11.5,11.5,0,0,0,2.46,7.26,7.81,7.81,0,0,0,6.24,2.82,8.48,8.48,0,0,0,5.64-1.68,9.85,9.85,0,0,0,2.82-4Zm-14.7-18.18a7.61,7.61,0,0,0-5.94,2.46,10.48,10.48,0,0,0-2.58,5.94h17.22a10.34,10.34,0,0,0-2.64-6A7.85,7.85,0,0,0,144.78,208.58Z" transform="translate(0 0)"/><path class="cls-2" d="M177.77,231.74q6.36,0,8.28-6.78l6.18.9a15.83,15.83,0,0,1-4.68,7.56q-3.48,3.3-9.78,3.3a15,15,0,0,1-7.86-2,14.17,14.17,0,0,1-5.22-5.82,19.46,19.46,0,0,1-1.86-8.7,19.08,19.08,0,0,1,1.86-8.64,13.69,13.69,0,0,1,5.22-5.82,14.83,14.83,0,0,1,7.92-2.1q6,0,9.24,2.94a15.32,15.32,0,0,1,4.5,6.12l-5.76,1.86a10.26,10.26,0,0,0-2.64-4.08,7.1,7.1,0,0,0-5.34-1.86,7.69,7.69,0,0,0-6.42,3.12q-2.34,3.06-2.34,8.46t2.34,8.46A7.63,7.63,0,0,0,177.77,231.74Z" transform="translate(0 0)"/><path class="cls-2" d="M202,208.52a11.14,11.14,0,0,1,9.72-4.92,12,12,0,0,1,5.46,1.26,9.14,9.14,0,0,1,4,3.78,12.09,12.09,0,0,1,1.56,6.36v21h-6.12V216.86q0-4.38-1.74-6.24a6.9,6.9,0,0,0-5.28-1.86,6.49,6.49,0,0,0-3.78,1.26,9.1,9.1,0,0,0-2.94,3.66,12.33,12.33,0,0,0-1.14,5.46V236h-6.12V192.56h6.12v16Z" transform="translate(0 0)"/><path class="cls-2" d="M233.6,208.52a10.79,10.79,0,0,1,4.26-3.72,12.81,12.81,0,0,1,5.58-1.2,12.17,12.17,0,0,1,5.52,1.26,9.42,9.42,0,0,1,4.14,3.78,11.89,11.89,0,0,1,1.56,6.36v21h-6.12V216.86q0-4.38-1.74-6.24a6.9,6.9,0,0,0-5.28-1.86,7.05,7.05,0,0,0-3.84,1.14,8.39,8.39,0,0,0-2.94,3.36,12.11,12.11,0,0,0-1.08,5.34V236h-6.12V204.32h5.82v4.2Z" transform="translate(0 0)"/><path class="cls-2" d="M273.87,203.6a15.37,15.37,0,0,1,8.1,2.1,13.46,13.46,0,0,1,5.34,5.82,18.58,18.58,0,0,1,1.92,8.64,19,19,0,0,1-1.92,8.7,13.91,13.91,0,0,1-5.34,5.82,17.1,17.1,0,0,1-16.2,0,14.32,14.32,0,0,1-5.4-5.82,19.46,19.46,0,0,1-1.86-8.7,19.08,19.08,0,0,1,1.86-8.64,13.83,13.83,0,0,1,5.4-5.82A15.37,15.37,0,0,1,273.87,203.6Zm0,28.14a7.93,7.93,0,0,0,6.6-3.06q2.46-3.12,2.46-8.52t-2.46-8.46a7.87,7.87,0,0,0-6.6-3.12,8,8,0,0,0-6.66,3.12q-2.46,3.06-2.46,8.46t2.46,8.52A8.09,8.09,0,0,0,273.87,231.74Z" transform="translate(0 0)"/><path class="cls-2" d="M299.58,192.56V236h-6.12V192.56Z" transform="translate(0 0)"/><path class="cls-2" d="M319.17,203.6a15.37,15.37,0,0,1,8.1,2.1,13.46,13.46,0,0,1,5.34,5.82,18.58,18.58,0,0,1,1.92,8.64,19,19,0,0,1-1.92,8.7,13.91,13.91,0,0,1-5.34,5.82,17.1,17.1,0,0,1-16.2,0,14.32,14.32,0,0,1-5.4-5.82,19.46,19.46,0,0,1-1.86-8.7,19.08,19.08,0,0,1,1.86-8.64,13.83,13.83,0,0,1,5.4-5.82A15.37,15.37,0,0,1,319.17,203.6Zm0,28.14a7.93,7.93,0,0,0,6.6-3.06q2.46-3.12,2.46-8.52t-2.46-8.46a7.87,7.87,0,0,0-6.6-3.12,8,8,0,0,0-6.66,3.12q-2.46,3.06-2.46,8.46t2.46,8.52A8.09,8.09,0,0,0,319.17,231.74Z" transform="translate(0 0)"/><path class="cls-2" d="M367.37,233.78q0,7.2-4.08,10.56t-10.74,3.42a16.65,16.65,0,0,1-9.18-2.46,12.72,12.72,0,0,1-5.22-7.56l5.88-1.26a8.07,8.07,0,0,0,3,4.8,9.76,9.76,0,0,0,5.52,1.44q8.7,0,8.7-9.24V230.3H361a8.92,8.92,0,0,1-3.72,2.94,13.33,13.33,0,0,1-5.52,1.08,14.08,14.08,0,0,1-7.32-1.92,13.28,13.28,0,0,1-5-5.4,18.72,18.72,0,0,1,0-16,13.19,13.19,0,0,1,5-5.46,14.08,14.08,0,0,1,7.32-1.92,13.24,13.24,0,0,1,5.76,1.2,8.31,8.31,0,0,1,3.78,3.18h.24v-3.66h5.82Zm-14.58-4.32a7.93,7.93,0,0,0,6.42-2.88,11.52,11.52,0,0,0,2.4-7.62,11.18,11.18,0,0,0-2.4-7.5,7.93,7.93,0,0,0-6.42-2.88,8.11,8.11,0,0,0-6.48,2.88,11.18,11.18,0,0,0-2.4,7.5,11.66,11.66,0,0,0,2.4,7.62A8.11,8.11,0,0,0,352.79,229.46Z" transform="translate(0 0)"/><path class="cls-2" d="M388.41,236a33.72,33.72,0,0,1-3.66,7.44,9.44,9.44,0,0,1-3.72,3.42,10.66,10.66,0,0,1-4.56.9,27.62,27.62,0,0,1-3.72-.18v-5.4a6.48,6.48,0,0,1,.84.12,8.89,8.89,0,0,0,2,.18,4.89,4.89,0,0,0,3.6-1.2,15.48,15.48,0,0,0,2.64-4.5l.48-1.2-12.72-31.26h6.6l8.94,24h.24l8.4-24h6.6Z" transform="translate(0 0)"/><path class="cls-2" d="M435.22,236a3.54,3.54,0,0,1-.72-1.56,12.92,12.92,0,0,1-.24-2.64,8.94,8.94,0,0,1-4.5,3.72,16.5,16.5,0,0,1-6.18,1.2,12,12,0,0,1-5.22-1.14,10,10,0,0,1-3.84-3.3,9.16,9.16,0,0,1-1.38-5q0-4.86,3.36-7.14T426.64,217a17.75,17.75,0,0,0,5.94-1.26,2.61,2.61,0,0,0,1.62-2.4q0-4.74-6.66-4.74a8.34,8.34,0,0,0-4.68,1.38,7,7,0,0,0-2.94,4l-5.58-1.32a10.64,10.64,0,0,1,4.68-6.6,15.33,15.33,0,0,1,8.76-2.46q6.48,0,9.48,2.7a8.74,8.74,0,0,1,3.06,7v15.9q0,3,.12,4.44a7,7,0,0,0,.72,2.4Zm-1-16.32a5.67,5.67,0,0,1-2.82,1.2q-2.1.42-5.4.84a10.19,10.19,0,0,0-4.74,1.74,4.35,4.35,0,0,0-1.86,3.78,4.27,4.27,0,0,0,1.44,3.48,6.22,6.22,0,0,0,4,1.14,12.15,12.15,0,0,0,4.44-.84,8.3,8.3,0,0,0,3.54-2.76,7.68,7.68,0,0,0,1.44-4.74Z" transform="translate(0 0)"/><path class="cls-2" d="M461,230.72V236q-1.32.12-4.5.12-4.44,0-6.36-1.44t-1.86-5.52V208.94h-5.22v-4.62h5.22v-8.94h6.12v8.94h7v4.62h-7v18.6q0,2.1.78,2.7a4.83,4.83,0,0,0,2.82.6Z" transform="translate(0 0)"/><path class="cls-2" d="M482.51,204.32V236h-6.12V204.32Zm0-11.76v6.66h-6.12v-6.66Z" transform="translate(0 0)"/><path class="cls-2" d="M503.6,230.72V236q-1.32.12-4.5.12-4.44,0-6.36-1.44t-1.86-5.52V208.94h-5.22v-4.62h5.22v-8.94H497v8.94h7v4.62h-7v18.6q0,2.1.78,2.7a4.83,4.83,0,0,0,2.82.6Z" transform="translate(0 0)"/><path class="cls-2" d="M526.7,213.8a6.6,6.6,0,0,0-2.7-4.08,8,8,0,0,0-4.74-1.44,7.59,7.59,0,0,0-4.5,1.2,4,4,0,0,0-1.68,3.42,2.86,2.86,0,0,0,1.5,2.7,16.08,16.08,0,0,0,4.68,1.38l3.12.48a19.19,19.19,0,0,1,7.8,2.88q2.82,1.92,2.82,6.48a8.34,8.34,0,0,1-3.78,7.32,16.6,16.6,0,0,1-9.66,2.58A16,16,0,0,1,510,234a11.32,11.32,0,0,1-4.56-7.2l5.58-1.2a7.89,7.89,0,0,0,2.94,4.92,10,10,0,0,0,5.76,1.56,8.85,8.85,0,0,0,5.1-1.32A4.41,4.41,0,0,0,526.7,227a3.16,3.16,0,0,0-1.68-2.94,14.64,14.64,0,0,0-4.92-1.5l-3.24-.54a18.07,18.07,0,0,1-7.32-2.7q-2.7-1.92-2.7-6.36a7.84,7.84,0,0,1,1.56-4.8,10.58,10.58,0,0,1,4.44-3.36,16.7,16.7,0,0,1,6.48-1.2,15,15,0,0,1,6.18,1.26,11.79,11.79,0,0,1,4.56,3.3,9,9,0,0,1,2.22,4.44Z" transform="translate(0 0)"/><path class="cls-2" d="M562.32,231.74q6.36,0,8.28-6.78l6.18.9a15.83,15.83,0,0,1-4.68,7.56q-3.48,3.3-9.78,3.3a15,15,0,0,1-7.86-2,14.17,14.17,0,0,1-5.22-5.82,19.46,19.46,0,0,1-1.86-8.7,19.08,19.08,0,0,1,1.86-8.64,13.69,13.69,0,0,1,5.22-5.82,14.83,14.83,0,0,1,7.92-2.1q6,0,9.24,2.94a15.32,15.32,0,0,1,4.5,6.12l-5.76,1.86a10.26,10.26,0,0,0-2.64-4.08,7.1,7.1,0,0,0-5.34-1.86A7.69,7.69,0,0,0,556,211.7q-2.34,3.06-2.34,8.46t2.34,8.46A7.63,7.63,0,0,0,562.32,231.74Z" transform="translate(0 0)"/><path class="cls-2" d="M594.56,203.6a15.37,15.37,0,0,1,8.1,2.1,13.46,13.46,0,0,1,5.34,5.82,18.58,18.58,0,0,1,1.92,8.64,19,19,0,0,1-1.92,8.7,13.91,13.91,0,0,1-5.34,5.82,17.1,17.1,0,0,1-16.2,0,14.32,14.32,0,0,1-5.4-5.82,19.46,19.46,0,0,1-1.86-8.7,19.08,19.08,0,0,1,1.86-8.64,13.83,13.83,0,0,1,5.4-5.82A15.37,15.37,0,0,1,594.56,203.6Zm0,28.14a7.93,7.93,0,0,0,6.6-3.06q2.46-3.12,2.46-8.52t-2.46-8.46a7.87,7.87,0,0,0-6.6-3.12,8,8,0,0,0-6.66,3.12q-2.46,3.06-2.46,8.46t2.46,8.52A8.09,8.09,0,0,0,594.56,231.74Z" transform="translate(0 0)"/><path class="cls-2" d="M619.84,209.12h.24a10.45,10.45,0,0,1,9.42-5.52,12.7,12.7,0,0,1,2.82.3v5.88a22.16,22.16,0,0,0-3.12-.24,9.18,9.18,0,0,0-6.6,2.34q-2.46,2.28-2.46,7.32V236H614V204.32h5.82Z" transform="translate(0 0)"/><path class="cls-2" d="M663.85,226.76a15.17,15.17,0,0,1-4.8,7.08q-3.48,2.88-9.84,2.88a14.93,14.93,0,0,1-7.8-2,14.17,14.17,0,0,1-5.22-5.82,19.32,19.32,0,0,1-1.86-8.64,20,20,0,0,1,1.8-8.7,13.83,13.83,0,0,1,5.16-5.82,14.52,14.52,0,0,1,7.86-2.1,15,15,0,0,1,7.74,2,13,13,0,0,1,5.28,5.58,18,18,0,0,1,1.92,8.58q0,1.26-.06,1.92H640.51a11.5,11.5,0,0,0,2.46,7.26,7.81,7.81,0,0,0,6.24,2.82,8.48,8.48,0,0,0,5.64-1.68,9.85,9.85,0,0,0,2.82-4Zm-14.7-18.18a7.61,7.61,0,0,0-5.94,2.46,10.48,10.48,0,0,0-2.58,5.94h17.22a10.34,10.34,0,0,0-2.64-6A7.85,7.85,0,0,0,649.15,208.58Z" transform="translate(0 0)"/><path class="cls-2" d="M296.24,157H647.38v3H296.24ZM109.36,242H665.65v3H109.36Z" transform="translate(0 0)"/></svg>