<svg id="Layer_1" data-name="Layer 1" xmlns="http://www.w3.org/2000/svg" xmlns:xlink="http://www.w3.org/1999/xlink" viewBox="0 0 775 269"><defs><style>.cls-1{fill-rule:evenodd;fill:url(#radial-gradient);}.cls-2{fill:#452e66;}</style><radialGradient id="radial-gradient" cx="89.87" cy="555.71" r="1" gradientTransform="matrix(677.63, 0, 0, -1563.71, -60581.89, 868901.71)" gradientUnits="userSpaceOnUse"><stop offset="0" stop-color="#ebb9f2"/><stop offset="0.54" stop-color="#f6aaaa"/><stop offset="1" stop-color="#a566ff"/></radialGradient></defs><path class="cls-1" d="M12,0A12,12,0,0,0,0,12V79A12,12,0,0,0,12,91H151a12,12,0,0,1,12,12v63a12,12,0,0,1-12,12H93a12,12,0,0,0-12,12v67a12,12,0,0,0,12,12H682a12,12,0,0,0,12-12V190a12,12,0,0,0-12-12H624a12,12,0,0,1-12-12V103a12,12,0,0,1,12-12H763a12,12,0,0,0,12-12V12A12,12,0,0,0,763,0Z" transform="translate(0 0)"/><path class="cls-2" d="M61.52,60.3V66H29V60.3L53.54,28.86H30.44v-5.7H61.58v5.7L37.22,60.3Z" transform="translate(0 0)"/><path class="cls-2" d="M93.62,56.76a15.17,15.17,0,0,1-4.8,7.08Q85.34,66.72,79,66.72a14.93,14.93,0,0,1-7.8-2A14.17,14.17,0,0,1,66,58.86a19.32,19.32,0,0,1-1.86-8.64,20,20,0,0,1,1.8-8.7,13.83,13.83,0,0,1,5.16-5.82,14.52,14.52,0,0,1,7.86-2.1,15,15,0,0,1,7.74,2,13,13,0,0,1,5.28,5.58,18,18,0,0,1,1.92,8.58q0,1.26-.06,1.92H70.28a11.5,11.5,0,0,0,2.46,7.26A7.81,7.81,0,0,0,79,61.74a8.48,8.48,0,0,0,5.64-1.68,9.85,9.85,0,0,0,2.82-4ZM78.92,38.58A7.61,7.61,0,0,0,73,41,10.48,10.48,0,0,0,70.4,47H87.62A10.34,10.34,0,0,0,85,41,7.85,7.85,0,0,0,78.92,38.58Z" transform="translate(0 0)"/><path class="cls-2" d="M103.75,39.12H104a10.45,10.45,0,0,1,9.42-5.52,12.7,12.7,0,0,1,2.82.3v5.88a22.16,22.16,0,0,0-3.12-.24,9.18,9.18,0,0,0-6.6,2.34q-2.46,2.28-2.46,7.32V66H97.93V34.32h5.82Z" transform="translate(0 0)"/><path class="cls-2" d="M133.6,33.6a15.37,15.37,0,0,1,8.1,2.1A13.46,13.46,0,0,1,147,41.52,18.58,18.58,0,0,1,149,50.16a19,19,0,0,1-1.92,8.7,13.91,13.91,0,0,1-5.34,5.82,17.1,17.1,0,0,1-16.2,0,14.32,14.32,0,0,1-5.4-5.82,19.46,19.46,0,0,1-1.86-8.7,19.08,19.08,0,0,1,1.86-8.64,13.83,13.83,0,0,1,5.4-5.82A15.37,15.37,0,0,1,133.6,33.6Zm0,28.14a7.93,7.93,0,0,0,6.6-3.06q2.46-3.12,2.46-8.52T140.2,41.7a7.87,7.87,0,0,0-6.6-3.12,8,8,0,0,0-6.66,3.12q-2.46,3.06-2.46,8.46t2.46,8.52A8.09,8.09,0,0,0,133.6,61.74Z" transform="translate(0 0)"/><path class="cls-2" d="M170.73,34.32V66h-6.12V34.32Zm0-11.76v6.66h-6.12V22.56Z" transform="translate(0 0)"/><path class="cls-2" d="M195.18,43.8a6.6,6.6,0,0,0-2.7-4.08,8,8,0,0,0-4.74-1.44,7.59,7.59,0,0,0-4.5,1.2,4,4,0,0,0-1.68,3.42,2.86,2.86,0,0,0,1.5,2.7A16.08,16.08,0,0,0,187.74,47l3.12.48a19.19,19.19,0,0,1,7.8,2.88q2.82,1.92,2.82,6.48a8.34,8.34,0,0,1-3.78,7.32A16.6,16.6,0,0,1,188,66.72a16,16,0,0,1-9.6-2.7,11.32,11.32,0,0,1-4.56-7.2l5.58-1.2a7.89,7.89,0,0,0,2.94,4.92,10,10,0,0,0,5.76,1.56,8.85,8.85,0,0,0,5.1-1.32A4.41,4.41,0,0,0,195.18,57a3.16,3.16,0,0,0-1.68-2.94,14.64,14.64,0,0,0-4.92-1.5L185.34,52a18.07,18.07,0,0,1-7.32-2.7q-2.7-1.92-2.7-6.36a7.84,7.84,0,0,1,1.56-4.8,10.58,10.58,0,0,1,4.44-3.36,16.7,16.7,0,0,1,6.48-1.2A15,15,0,0,1,194,34.86a11.79,11.79,0,0,1,4.56,3.3,9,9,0,0,1,2.22,4.44Z" transform="translate(0 0)"/><path class="cls-2" d="M237.7,66a3.54,3.54,0,0,1-.72-1.56,12.92,12.92,0,0,1-.24-2.64,8.94,8.94,0,0,1-4.5,3.72,16.5,16.5,0,0,1-6.18,1.2,12,12,0,0,1-5.22-1.14,10,10,0,0,1-3.84-3.3,9.16,9.16,0,0,1-1.38-5q0-4.86,3.36-7.14T229.12,47a17.75,17.75,0,0,0,5.94-1.26,2.61,2.61,0,0,0,1.62-2.4q0-4.74-6.66-4.74A8.34,8.34,0,0,0,225.34,40a7,7,0,0,0-2.94,4l-5.58-1.32a10.64,10.64,0,0,1,4.68-6.6,15.33,15.33,0,0,1,8.76-2.46q6.48,0,9.48,2.7a8.74,8.74,0,0,1,3.06,7v15.9q0,3,.12,4.44a7,7,0,0,0,.72,2.4Zm-1-16.32a5.67,5.67,0,0,1-2.82,1.2q-2.1.42-5.4.84a10.19,10.19,0,0,0-4.74,1.74,4.35,4.35,0,0,0-1.86,3.78,4.27,4.27,0,0,0,1.44,3.48,6.22,6.22,0,0,0,4,1.14A12.15,12.15,0,0,0,231.7,61a8.3,8.3,0,0,0,3.54-2.76,7.68,7.68,0,0,0,1.44-4.74Z" transform="translate(0 0)"/><path class="cls-2" d="M287.74,63.78q0,7.2-4.08,10.56t-10.74,3.42a16.65,16.65,0,0,1-9.18-2.46,12.72,12.72,0,0,1-5.22-7.56l5.88-1.26a8.07,8.07,0,0,0,3,4.8,9.76,9.76,0,0,0,5.52,1.44q8.7,0,8.7-9.24V60.3h-.24a8.92,8.92,0,0,1-3.72,2.94,13.33,13.33,0,0,1-5.52,1.08,14.08,14.08,0,0,1-7.32-1.92,13.28,13.28,0,0,1-5-5.4,17.26,17.26,0,0,1-1.8-8,17.12,17.12,0,0,1,1.8-8,13.19,13.19,0,0,1,5-5.46,14.08,14.08,0,0,1,7.32-1.92,13.24,13.24,0,0,1,5.76,1.2A8.31,8.31,0,0,1,281.68,38h.24V34.32h5.82Zm-14.58-4.32a7.93,7.93,0,0,0,6.42-2.88A11.52,11.52,0,0,0,282,49a11.18,11.18,0,0,0-2.4-7.5,7.93,7.93,0,0,0-6.42-2.88,8.11,8.11,0,0,0-6.48,2.88,11.18,11.18,0,0,0-2.4,7.5,11.66,11.66,0,0,0,2.4,7.62A8.11,8.11,0,0,0,273.16,59.46Z" transform="translate(0 0)"/><path class="cls-2" d="M298.76,22.56V66h-6.12V22.56Z" transform="translate(0 0)"/><path class="cls-2" d="M318.35,33.6a15.37,15.37,0,0,1,8.1,2.1,13.46,13.46,0,0,1,5.34,5.82,18.58,18.58,0,0,1,1.92,8.64,19,19,0,0,1-1.92,8.7,13.91,13.91,0,0,1-5.34,5.82,17.1,17.1,0,0,1-16.2,0,14.32,14.32,0,0,1-5.4-5.82,19.46,19.46,0,0,1-1.86-8.7,19.08,19.08,0,0,1,1.86-8.64,13.83,13.83,0,0,1,5.4-5.82A15.37,15.37,0,0,1,318.35,33.6Zm0,28.14a7.93,7.93,0,0,0,6.6-3.06q2.46-3.12,2.46-8.52T325,41.7a7.87,7.87,0,0,0-6.6-3.12,8,8,0,0,0-6.66,3.12q-2.46,3.06-2.46,8.46t2.46,8.52A8.09,8.09,0,0,0,318.35,61.74Z" transform="translate(0 0)"/><path class="cls-2" d="M353.71,33.6a13.61,13.61,0,0,1,12.54,7.92,19.08,19.08,0,0,1,1.86,8.64,19.46,19.46,0,0,1-1.86,8.7,13.91,13.91,0,0,1-5.1,5.82,14.73,14.73,0,0,1-13.44.78,9,9,0,0,1-3.84-3.54h-.24V66h-5.82V22.56h6.12V38h.24A9.15,9.15,0,0,1,348,34.8,13.24,13.24,0,0,1,353.71,33.6Zm-1.08,28.14a8.16,8.16,0,0,0,6.72-3.06q2.52-3.12,2.52-8.52t-2.52-8.46a8.73,8.73,0,0,0-13.38,0q-2.46,3.12-2.46,8.46T346,58.62A8.14,8.14,0,0,0,352.63,61.74Z" transform="translate(0 0)"/><path class="cls-2" d="M393.09,66a3.54,3.54,0,0,1-.72-1.56,12.92,12.92,0,0,1-.24-2.64,8.94,8.94,0,0,1-4.5,3.72,16.5,16.5,0,0,1-6.18,1.2,12,12,0,0,1-5.22-1.14,10,10,0,0,1-3.84-3.3,9.16,9.16,0,0,1-1.38-5q0-4.86,3.36-7.14T384.51,47a17.75,17.75,0,0,0,5.94-1.26,2.61,2.61,0,0,0,1.62-2.4q0-4.74-6.66-4.74A8.34,8.34,0,0,0,380.73,40a7,7,0,0,0-2.94,4l-5.58-1.32a10.64,10.64,0,0,1,4.68-6.6,15.33,15.33,0,0,1,8.76-2.46q6.48,0,9.48,2.7a8.74,8.74,0,0,1,3.06,7v15.9q0,3,.12,4.44A7,7,0,0,0,399,66Zm-1-16.32a5.67,5.67,0,0,1-2.82,1.2q-2.1.42-5.4.84a10.19,10.19,0,0,0-4.74,1.74,4.35,4.35,0,0,0-1.86,3.78,4.27,4.27,0,0,0,1.44,3.48,6.22,6.22,0,0,0,4,1.14,12.15,12.15,0,0,0,4.44-.84,8.3,8.3,0,0,0,3.54-2.76,7.68,7.68,0,0,0,1.44-4.74Z" transform="translate(0 0)"/><path class="cls-2" d="M409.21,22.56V66h-6.12V22.56Z" transform="translate(0 0)"/><path class="cls-2" d="M445.08,43.8a6.6,6.6,0,0,0-2.7-4.08,8,8,0,0,0-4.74-1.44,7.59,7.59,0,0,0-4.5,1.2,4,4,0,0,0-1.68,3.42,2.86,2.86,0,0,0,1.5,2.7A16.08,16.08,0,0,0,437.64,47l3.12.48a19.19,19.19,0,0,1,7.8,2.88q2.82,1.92,2.82,6.48a8.34,8.34,0,0,1-3.78,7.32,16.6,16.6,0,0,1-9.66,2.58,16,16,0,0,1-9.6-2.7,11.32,11.32,0,0,1-4.56-7.2l5.58-1.2a7.89,7.89,0,0,0,2.94,4.92,10,10,0,0,0,5.76,1.56,8.85,8.85,0,0,0,5.1-1.32A4.41,4.41,0,0,0,445.08,57a3.16,3.16,0,0,0-1.68-2.94,14.64,14.64,0,0,0-4.92-1.5L435.24,52a18.07,18.07,0,0,1-7.32-2.7q-2.7-1.92-2.7-6.36a7.84,7.84,0,0,1,1.56-4.8,10.58,10.58,0,0,1,4.44-3.36,16.7,16.7,0,0,1,6.48-1.2,15,15,0,0,1,6.18,1.26,11.79,11.79,0,0,1,4.56,3.3,9,9,0,0,1,2.22,4.44Z" transform="translate(0 0)"/><path class="cls-2" d="M469.69,33.6a15.37,15.37,0,0,1,8.1,2.1,13.46,13.46,0,0,1,5.34,5.82,18.58,18.58,0,0,1,1.92,8.64,19,19,0,0,1-1.92,8.7,13.91,13.91,0,0,1-5.34,5.82,17.1,17.1,0,0,1-16.2,0,14.32,14.32,0,0,1-5.4-5.82,19.46,19.46,0,0,1-1.86-8.7,19.08,19.08,0,0,1,1.86-8.64,13.83,13.83,0,0,1,5.4-5.82A15.37,15.37,0,0,1,469.69,33.6Zm0,28.14a7.93,7.93,0,0,0,6.6-3.06q2.46-3.12,2.46-8.52t-2.46-8.46a7.87,7.87,0,0,0-6.6-3.12A8,8,0,0,0,463,41.7q-2.46,3.06-2.46,8.46T463,58.68A8.09,8.09,0,0,0,469.69,61.74Z" transform="translate(0 0)"/><path class="cls-2" d="M495.4,22.56V66h-6.12V22.56Z" transform="translate(0 0)"/><path class="cls-2" d="M521.65,61.8a11.16,11.16,0,0,1-9.84,4.92,11.58,11.58,0,0,1-8-2.88q-3.24-2.88-3.24-8.52v-21h6.12V53.46q0,4.38,1.74,6.24a7.79,7.79,0,0,0,9.12.72,8,8,0,0,0,2.88-3.36,11.57,11.57,0,0,0,1.14-5.34V34.32h6.12V66h-5.82V61.8Z" transform="translate(0 0)"/><path class="cls-2" d="M548.42,60.72V66q-1.32.12-4.5.12-4.44,0-6.36-1.44t-1.86-5.52V38.94h-5.22V34.32h5.22V25.38h6.12v8.94h7v4.62h-7v18.6q0,2.1.78,2.7a4.83,4.83,0,0,0,2.82.6Z" transform="translate(0 0)"/><path class="cls-2" d="M558.51,34.32V66h-6.12V34.32Zm0-11.76v6.66h-6.12V22.56Z" transform="translate(0 0)"/><path class="cls-2" d="M578.09,33.6a15.37,15.37,0,0,1,8.1,2.1,13.46,13.46,0,0,1,5.34,5.82,18.58,18.58,0,0,1,1.92,8.64,19,19,0,0,1-1.92,8.7,13.91,13.91,0,0,1-5.34,5.82,17.1,17.1,0,0,1-16.2,0,14.32,14.32,0,0,1-5.4-5.82,19.46,19.46,0,0,1-1.86-8.7,19.08,19.08,0,0,1,1.86-8.64A13.83,13.83,0,0,1,570,35.7,15.37,15.37,0,0,1,578.09,33.6Zm0,28.14a7.93,7.93,0,0,0,6.6-3.06q2.46-3.12,2.46-8.52t-2.46-8.46a7.87,7.87,0,0,0-6.6-3.12,8,8,0,0,0-6.66,3.12Q569,44.76,569,50.16t2.46,8.52A8.09,8.09,0,0,0,578.09,61.74Z" transform="translate(0 0)"/><path class="cls-2" d="M603.62,38.52a10.79,10.79,0,0,1,4.26-3.72,12.81,12.81,0,0,1,5.58-1.2A12.17,12.17,0,0,1,619,34.86a9.42,9.42,0,0,1,4.14,3.78A11.89,11.89,0,0,1,624.68,45V66h-6.12V46.86q0-4.38-1.74-6.24a6.9,6.9,0,0,0-5.28-1.86,7.05,7.05,0,0,0-3.84,1.14,8.39,8.39,0,0,0-2.94,3.36,12.11,12.11,0,0,0-1.08,5.34V66h-6.12V34.32h5.82v4.2Z" transform="translate(0 0)"/><path class="cls-2" d="M656.82,33.6a13.61,13.61,0,0,1,12.54,7.92,19.08,19.08,0,0,1,1.86,8.64,19.46,19.46,0,0,1-1.86,8.7,13.91,13.91,0,0,1-5.1,5.82,14.73,14.73,0,0,1-13.44.78A9,9,0,0,1,647,61.92h-.24V66h-5.82V22.56H647V38h.24a9.15,9.15,0,0,1,3.78-3.24A13.24,13.24,0,0,1,656.82,33.6Zm-1.08,28.14a8.16,8.16,0,0,0,6.72-3.06Q665,55.56,665,50.16t-2.52-8.46a8.73,8.73,0,0,0-13.38,0q-2.46,3.12-2.46,8.46t2.46,8.46A8.14,8.14,0,0,0,655.74,61.74Z" transform="translate(0 0)"/><path class="cls-2" d="M696.37,61.8a11.16,11.16,0,0,1-9.84,4.92,11.58,11.58,0,0,1-8-2.88q-3.24-2.88-3.24-8.52v-21h6.12V53.46q0,4.38,1.74,6.24a7.79,7.79,0,0,0,9.12.72,8,8,0,0,0,2.88-3.36,11.57,11.57,0,0,0,1.14-5.34V34.32h6.12V66h-5.82V61.8Z" transform="translate(0 0)"/><path class="cls-2" d="M713.49,34.32V66h-6.12V34.32Zm0-11.76v6.66h-6.12V22.56Z" transform="translate(0 0)"/><path class="cls-2" d="M724.91,22.56V66h-6.12V22.56Z" transform="translate(0 0)"/><path class="cls-2" d="M746,60.72V66q-1.32.12-4.5.12-4.44,0-6.36-1.44t-1.86-5.52V38.94h-5.22V34.32h5.22V25.38h6.12v8.94h7v4.62h-7v18.6q0,2.1.78,2.7a4.83,4.83,0,0,0,2.82.6Z" transform="translate(0 0)"/><path class="cls-2" d="M225.82,151H219l-7-23.46h-.24L204.64,151H198.1l-10.32-31.68h6.72l7,24.24h.24l6.84-24.24h7l6.84,24.24h.24l7-24.24h6.48Z" transform="translate(0 0)"/><path class="cls-2" d="M244.82,119.32V151H238.7V119.32Zm0-11.76v6.66H238.7v-6.66Z" transform="translate(0 0)"/><path class="cls-2" d="M265.91,145.72V151q-1.32.12-4.5.12-4.44,0-6.36-1.44t-1.86-5.52V123.94H248v-4.62h5.22v-8.94h6.12v8.94h7v4.62h-7v18.6q0,2.1.78,2.7a4.83,4.83,0,0,0,2.82.6Z" transform="translate(0 0)"/><path class="cls-2" d="M276.12,123.52a11.14,11.14,0,0,1,9.72-4.92,12,12,0,0,1,5.46,1.26,9.14,9.14,0,0,1,4,3.78,12.09,12.09,0,0,1,1.56,6.36v21h-6.12V131.86q0-4.38-1.74-6.24a6.9,6.9,0,0,0-5.28-1.86A6.49,6.49,0,0,0,280,125a9.1,9.1,0,0,0-2.94,3.66,12.33,12.33,0,0,0-1.14,5.46V151h-6.12V107.56h6.12v16Z" transform="translate(0 0)"/><path class="cls-2" d="M329,118.6a13.61,13.61,0,0,1,12.54,7.92,19.08,19.08,0,0,1,1.86,8.64,19.46,19.46,0,0,1-1.86,8.7,13.91,13.91,0,0,1-5.1,5.82,14.73,14.73,0,0,1-13.44.78,9,9,0,0,1-3.84-3.54h-.24V151h-5.82V107.56h6.12V123h.24a9.15,9.15,0,0,1,3.78-3.24A13.24,13.24,0,0,1,329,118.6Zm-1.08,28.14a8.16,8.16,0,0,0,6.72-3.06q2.52-3.12,2.52-8.52t-2.52-8.46a8.73,8.73,0,0,0-13.38,0q-2.46,3.12-2.46,8.46t2.46,8.46A8.14,8.14,0,0,0,327.94,146.74Z" transform="translate(0 0)"/><path class="cls-2" d="M353.75,107.56V151h-6.12V107.56Z" transform="translate(0 0)"/><path class="cls-2" d="M373.34,118.6a15.37,15.37,0,0,1,8.1,2.1,13.46,13.46,0,0,1,5.34,5.82,18.58,18.58,0,0,1,1.92,8.64,19,19,0,0,1-1.92,8.7,13.91,13.91,0,0,1-5.34,5.82,17.1,17.1,0,0,1-16.2,0,14.32,14.32,0,0,1-5.4-5.82,19.46,19.46,0,0,1-1.86-8.7,19.08,19.08,0,0,1,1.86-8.64,13.83,13.83,0,0,1,5.4-5.82A15.37,15.37,0,0,1,373.34,118.6Zm0,28.14a7.93,7.93,0,0,0,6.6-3.06q2.46-3.12,2.46-8.52t-2.46-8.46a7.87,7.87,0,0,0-6.6-3.12,8,8,0,0,0-6.66,3.12q-2.46,3.06-2.46,8.46t2.46,8.52A8.09,8.09,0,0,0,373.34,146.74Z" transform="translate(0 0)"/><path class="cls-2" d="M406.78,146.74q6.36,0,8.28-6.78l6.18.9a15.83,15.83,0,0,1-4.68,7.56q-3.48,3.3-9.78,3.3a15,15,0,0,1-7.86-2,14.17,14.17,0,0,1-5.22-5.82,19.46,19.46,0,0,1-1.86-8.7,19.08,19.08,0,0,1,1.86-8.64,13.69,13.69,0,0,1,5.22-5.82,14.83,14.83,0,0,1,7.92-2.1q6,0,9.24,2.94a15.32,15.32,0,0,1,4.5,6.12l-5.76,1.86a10.26,10.26,0,0,0-2.64-4.08,7.1,7.1,0,0,0-5.34-1.86,7.69,7.69,0,0,0-6.42,3.12q-2.34,3.06-2.34,8.46t2.34,8.46A7.63,7.63,0,0,0,406.78,146.74Z" transform="translate(0 0)"/><path class="cls-2" d="M430.74,151h-6.12V107.56h6.12V132.1l12.9-12.78h7.68L438.9,131.44,452.7,151h-7.32l-10.8-15.54-3.84,3.66Z" transform="translate(0 0)"/><path class="cls-2" d="M465.85,146.74q6.36,0,8.28-6.78l6.18.9a15.83,15.83,0,0,1-4.68,7.56q-3.48,3.3-9.78,3.3a15,15,0,0,1-7.86-2,14.17,14.17,0,0,1-5.22-5.82,19.46,19.46,0,0,1-1.86-8.7,19.08,19.08,0,0,1,1.86-8.64A13.69,13.69,0,0,1,458,120.7a14.83,14.83,0,0,1,7.92-2.1q6,0,9.24,2.94a15.32,15.32,0,0,1,4.5,6.12l-5.76,1.86a10.26,10.26,0,0,0-2.64-4.08,7.1,7.1,0,0,0-5.34-1.86,7.69,7.69,0,0,0-6.42,3.12q-2.34,3.06-2.34,8.46t2.34,8.46A7.63,7.63,0,0,0,465.85,146.74Z" transform="translate(0 0)"/><path class="cls-2" d="M490,123.52a11.14,11.14,0,0,1,9.72-4.92,12,12,0,0,1,5.46,1.26,9.14,9.14,0,0,1,4,3.78A12.09,12.09,0,0,1,510.8,130v21h-6.12V131.86q0-4.38-1.74-6.24a6.9,6.9,0,0,0-5.28-1.86,6.49,6.49,0,0,0-3.78,1.26,9.1,9.1,0,0,0-2.94,3.66,12.33,12.33,0,0,0-1.14,5.46V151h-6.12V107.56h6.12v16Z" transform="translate(0 0)"/><path class="cls-2" d="M536.5,151a3.54,3.54,0,0,1-.72-1.56,12.92,12.92,0,0,1-.24-2.64,8.94,8.94,0,0,1-4.5,3.72,16.5,16.5,0,0,1-6.18,1.2,12,12,0,0,1-5.22-1.14,10,10,0,0,1-3.84-3.3,9.16,9.16,0,0,1-1.38-5q0-4.86,3.36-7.14T527.92,132a17.75,17.75,0,0,0,5.94-1.26,2.61,2.61,0,0,0,1.62-2.4q0-4.74-6.66-4.74a8.32,8.32,0,0,0-4.68,1.38,6.94,6.94,0,0,0-2.94,4l-5.58-1.32a10.64,10.64,0,0,1,4.68-6.6,15.33,15.33,0,0,1,8.76-2.46q6.48,0,9.48,2.7a8.74,8.74,0,0,1,3.06,7v15.9q0,3,.12,4.44a7,7,0,0,0,.72,2.4Zm-1-16.32a5.67,5.67,0,0,1-2.82,1.2q-2.1.42-5.4.84a10.19,10.19,0,0,0-4.74,1.74,4.35,4.35,0,0,0-1.86,3.78,4.27,4.27,0,0,0,1.44,3.48,6.22,6.22,0,0,0,4,1.14,12.15,12.15,0,0,0,4.44-.84,8.3,8.3,0,0,0,3.54-2.76,7.68,7.68,0,0,0,1.44-4.74Z" transform="translate(0 0)"/><path class="cls-2" d="M552.62,119.32V151H546.5V119.32Zm0-11.76v6.66H546.5v-6.66Z" transform="translate(0 0)"/><path class="cls-2" d="M563.86,123.52a10.79,10.79,0,0,1,4.26-3.72,12.81,12.81,0,0,1,5.58-1.2,12.17,12.17,0,0,1,5.52,1.26,9.42,9.42,0,0,1,4.14,3.78,11.89,11.89,0,0,1,1.56,6.36v21H578.8V131.86q0-4.38-1.74-6.24a6.9,6.9,0,0,0-5.28-1.86,7.05,7.05,0,0,0-3.84,1.14,8.39,8.39,0,0,0-2.94,3.36,12.11,12.11,0,0,0-1.08,5.34V151H557.8V119.32h5.82v4.2Z" transform="translate(0 0)"/><path class="cls-2" d="M127.78,230.72V236q-1.34.12-4.5.12c-3,0-5.09-.48-6.36-1.44s-1.86-2.8-1.86-5.52V208.94h-5.23v-4.62h5.23v-8.94h6.12v8.94h6.95v4.62h-6.95v18.6c0,1.4.25,2.3.78,2.7a4.81,4.81,0,0,0,2.82.6Z" transform="translate(0 0)"/><path class="cls-2" d="M159.48,226.76a15.17,15.17,0,0,1-4.8,7.08q-3.48,2.88-9.84,2.88a14.93,14.93,0,0,1-7.8-2,14.17,14.17,0,0,1-5.22-5.82,19.32,19.32,0,0,1-1.86-8.64,20,20,0,0,1,1.8-8.7,13.83,13.83,0,0,1,5.16-5.82,14.52,14.52,0,0,1,7.86-2.1,15,15,0,0,1,7.74,2,13,13,0,0,1,5.28,5.58,18,18,0,0,1,1.92,8.58q0,1.26-.06,1.92H136.14a11.5,11.5,0,0,0,2.46,7.26,7.81,7.81,0,0,0,6.24,2.82,8.48,8.48,0,0,0,5.64-1.68,9.85,9.85,0,0,0,2.82-4Zm-14.7-18.18a7.61,7.61,0,0,0-5.94,2.46,10.48,10.48,0,0,0-2.58,5.94h17.22a10.34,10.34,0,0,0-2.64-6A7.85,7.85,0,0,0,144.78,208.58Z" transform="translate(0 0)"/><path class="cls-2" d="M177.77,231.74q6.36,0,8.28-6.78l6.18.9a15.83,15.83,0,0,1-4.68,7.56q-3.48,3.3-9.78,3.3a15,15,0,0,1-7.86-2,14.17,14.17,0,0,1-5.22-5.82,19.46,19.46,0,0,1-1.86-8.7,19.08,19.08,0,0,1,1.86-8.64,13.69,13.69,0,0,1,5.22-5.82,14.83,14.83,0,0,1,7.92-2.1q6,0,9.24,2.94a15.32,15.32,0,0,1,4.5,6.12l-5.76,1.86a10.26,10.26,0,0,0-2.64-4.08,7.1,7.1,0,0,0-5.34-1.86,7.69,7.69,0,0,0-6.42,3.12q-2.34,3.06-2.34,8.46t2.34,8.46A7.63,7.63,0,0,0,177.77,231.74Z" transform="translate(0 0)"/><path class="cls-2" d="M202,208.52a11.14,11.14,0,0,1,9.72-4.92,12,12,0,0,1,5.46,1.26,9.14,9.14,0,0,1,4,3.78,12.09,12.09,0,0,1,1.56,6.36v21h-6.12V216.86q0-4.38-1.74-6.24a6.9,6.9,0,0,0-5.28-1.86,6.49,6.49,0,0,0-3.78,1.26,9.1,9.1,0,0,0-2.94,3.66,12.33,12.33,0,0,0-1.14,5.46V236h-6.12V192.56h6.12v16Z" transform="translate(0 0)"/><path class="cls-2" d="M233.6,208.52a10.79,10.79,0,0,1,4.26-3.72,12.81,12.81,0,0,1,5.58-1.2,12.17,12.17,0,0,1,5.52,1.26,9.42,9.42,0,0,1,4.14,3.78,11.89,11.89,0,0,1,1.56,6.36v21h-6.12V216.86q0-4.38-1.74-6.24a6.9,6.9,0,0,0-5.28-1.86,7.05,7.05,0,0,0-3.84,1.14,8.39,8.39,0,0,0-2.94,3.36,12.11,12.11,0,0,0-1.08,5.34V236h-6.12V204.32h5.82v4.2Z" transform="translate(0 0)"/><path class="cls-2" d="M273.87,203.6a15.37,15.37,0,0,1,8.1,2.1,13.46,13.46,0,0,1,5.34,5.82,18.58,18.58,0,0,1,1.92,8.64,19,19,0,0,1-1.92,8.7,13.91,13.91,0,0,1-5.34,5.82,17.1,17.1,0,0,1-16.2,0,14.32,14.32,0,0,1-5.4-5.82,19.46,19.46,0,0,1-1.86-8.7,19.08,19.08,0,0,1,1.86-8.64,13.83,13.83,0,0,1,5.4-5.82A15.37,15.37,0,0,1,273.87,203.6Zm0,28.14a7.93,7.93,0,0,0,6.6-3.06q2.46-3.12,2.46-8.52t-2.46-8.46a7.87,7.87,0,0,0-6.6-3.12,8,8,0,0,0-6.66,3.12q-2.46,3.06-2.46,8.46t2.46,8.52A8.09,8.09,0,0,0,273.87,231.74Z" transform="translate(0 0)"/><path class="cls-2" d="M299.58,192.56V236h-6.12V192.56Z" transform="translate(0 0)"/><path class="cls-2" d="M319.17,203.6a15.37,15.37,0,0,1,8.1,2.1,13.46,13.46,0,0,1,5.34,5.82,18.58,18.58,0,0,1,1.92,8.64,19,19,0,0,1-1.92,8.7,13.91,13.91,0,0,1-5.34,5.82,17.1,17.1,0,0,1-16.2,0,14.32,14.32,0,0,1-5.4-5.82,19.46,19.46,0,0,1-1.86-8.7,19.08,19.08,0,0,1,1.86-8.64,13.83,13.83,0,0,1,5.4-5.82A15.37,15.37,0,0,1,319.17,203.6Zm0,28.14a7.93,7.93,0,0,0,6.6-3.06q2.46-3.12,2.46-8.52t-2.46-8.46a7.87,7.87,0,0,0-6.6-3.12,8,8,0,0,0-6.66,3.12q-2.46,3.06-2.46,8.46t2.46,8.52A8.09,8.09,0,0,0,319.17,231.74Z" transform="translate(0 0)"/><path class="cls-2" d="M367.37,233.78q0,7.2-4.08,10.56t-10.74,3.42a16.65,16.65,0,0,1-9.18-2.46,12.72,12.72,0,0,1-5.22-7.56l5.88-1.26a8.07,8.07,0,0,0,3,4.8,9.76,9.76,0,0,0,5.52,1.44q8.7,0,8.7-9.24V230.3H361a8.92,8.92,0,0,1-3.72,2.94,13.33,13.33,0,0,1-5.52,1.08,14.08,14.08,0,0,1-7.32-1.92,13.28,13.28,0,0,1-5-5.4,18.72,18.72,0,0,1,0-16,13.19,13.19,0,0,1,5-5.46,14.08,14.08,0,0,1,7.32-1.92,13.24,13.24,0,0,1,5.76,1.2,8.31,8.31,0,0,1,3.78,3.18h.24v-3.66h5.82Zm-14.58-4.32a7.93,7.93,0,0,0,6.42-2.88,11.52,11.52,0,0,0,2.4-7.62,11.18,11.18,0,0,0-2.4-7.5,7.93,7.93,0,0,0-6.42-2.88,8.11,8.11,0,0,0-6.48,2.88,11.18,11.18,0,0,0-2.4,7.5,11.66,11.66,0,0,0,2.4,7.62A8.11,8.11,0,0,0,352.79,229.46Z" transform="translate(0 0)"/><path class="cls-2" d="M388.41,236a33.72,33.72,0,0,1-3.66,7.44,9.44,9.44,0,0,1-3.72,3.42,10.66,10.66,0,0,1-4.56.9,27.62,27.62,0,0,1-3.72-.18v-5.4a6.48,6.48,0,0,1,.84.12,8.89,8.89,0,0,0,2,.18,4.89,4.89,0,0,0,3.6-1.2,15.48,15.48,0,0,0,2.64-4.5l.48-1.2-12.72-31.26h6.6l8.94,24h.24l8.4-24h6.6Z" transform="translate(0 0)"/><path class="cls-2" d="M435.22,236a3.54,3.54,0,0,1-.72-1.56,12.92,12.92,0,0,1-.24-2.64,8.94,8.94,0,0,1-4.5,3.72,16.5,16.5,0,0,1-6.18,1.2,12,12,0,0,1-5.22-1.14,10,10,0,0,1-3.84-3.3,9.16,9.16,0,0,1-1.38-5q0-4.86,3.36-7.14T426.64,217a17.75,17.75,0,0,0,5.94-1.26,2.61,2.61,0,0,0,1.62-2.4q0-4.74-6.66-4.74a8.34,8.34,0,0,0-4.68,1.38,7,7,0,0,0-2.94,4l-5.58-1.32a10.64,10.64,0,0,1,4.68-6.6,15.33,15.33,0,0,1,8.76-2.46q6.48,0,9.48,2.7a8.74,8.74,0,0,1,3.06,7v15.9q0,3,.12,4.44a7,7,0,0,0,.72,2.4Zm-1-16.32a5.67,5.67,0,0,1-2.82,1.2q-2.1.42-5.4.84a10.19,10.19,0,0,0-4.74,1.74,4.35,4.35,0,0,0-1.86,3.78,4.27,4.27,0,0,0,1.44,3.48,6.22,6.22,0,0,0,4,1.14,12.15,12.15,0,0,0,4.44-.84,8.3,8.3,0,0,0,3.54-2.76,7.68,7.68,0,0,0,1.44-4.74Z" transform="translate(0 0)"/><path class="cls-2" d="M461,230.72V236q-1.32.12-4.5.12-4.44,0-6.36-1.44t-1.86-5.52V208.94h-5.22v-4.62h5.22v-8.94h6.12v8.94h7v4.62h-7v18.6q0,2.1.78,2.7a4.83,4.83,0,0,0,2.82.6Z" transform="translate(0 0)"/><path class="cls-2" d="M482.51,204.32V236h-6.12V204.32Zm0-11.76v6.66h-6.12v-6.66Z" transform="translate(0 0)"/><path class="cls-2" d="M503.6,230.72V236q-1.32.12-4.5.12-4.44,0-6.36-1.44t-1.86-5.52V208.94h-5.22v-4.62h5.22v-8.94H497v8.94h7v4.62h-7v18.6q0,2.1.78,2.7a4.83,4.83,0,0,0,2.82.6Z" transform="translate(0 0)"/><path class="cls-2" d="M526.7,213.8a6.6,6.6,0,0,0-2.7-4.08,8,8,0,0,0-4.74-1.44,7.59,7.59,0,0,0-4.5,1.2,4,4,0,0,0-1.68,3.42,2.86,2.86,0,0,0,1.5,2.7,16.08,16.08,0,0,0,4.68,1.38l3.12.48a19.19,19.19,0,0,1,7.8,2.88q2.82,1.92,2.82,6.48a8.34,8.34,0,0,1-3.78,7.32,16.6,16.6,0,0,1-9.66,2.58A16,16,0,0,1,510,234a11.32,11.32,0,0,1-4.56-7.2l5.58-1.2a7.89,7.89,0,0,0,2.94,4.92,10,10,0,0,0,5.76,1.56,8.85,8.85,0,0,0,5.1-1.32A4.41,4.41,0,0,0,526.7,227a3.16,3.16,0,0,0-1.68-2.94,14.64,14.64,0,0,0-4.92-1.5l-3.24-.54a18.07,18.07,0,0,1-7.32-2.7q-2.7-1.92-2.7-6.36a7.84,7.84,0,0,1,1.56-4.8,10.58,10.58,0,0,1,4.44-3.36,16.7,16.7,0,0,1,6.48-1.2,15,15,0,0,1,6.18,1.26,11.79,11.79,0,0,1,4.56,3.3,9,9,0,0,1,2.22,4.44Z" transform="translate(0 0)"/><path class="cls-2" d="M562.32,231.74q6.36,0,8.28-6.78l6.18.9a15.83,15.83,0,0,1-4.68,7.56q-3.48,3.3-9.78,3.3a15,15,0,0,1-7.86-2,14.17,14.17,0,0,1-5.22-5.82,19.46,19.46,0,0,1-1.86-8.7,19.08,19.08,0,0,1,1.86-8.64,13.69,13.69,0,0,1,5.22-5.82,14.83,14.83,0,0,1,7.92-2.1q6,0,9.24,2.94a15.32,15.32,0,0,1,4.5,6.12l-5.76,1.86a10.26,10.26,0,0,0-2.64-4.08,7.1,7.1,0,0,0-5.34-1.86A7.69,7.69,0,0,0,556,211.7q-2.34,3.06-2.34,8.46t2.34,8.46A7.63,7.63,0,0,0,562.32,231.74Z" transform="translate(0 0)"/><path class="cls-2" d="M594.56,203.6a15.37,15.37,0,0,1,8.1,2.1,13.46,13.46,0,0,1,5.34,5.82,18.58,18.58,0,0,1,1.92,8.64,19,19,0,0,1-1.92,8.7,13.91,13.91,0,0,1-5.34,5.82,17.1,17.1,0,0,1-16.2,0,14.32,14.32,0,0,1-5.4-5.82,19.46,19.46,0,0,1-1.86-8.7,19.08,19.08,0,0,1,1.86-8.64,13.83,13.83,0,0,1,5.4-5.82A15.37,15.37,0,0,1,594.56,203.6Zm0,28.14a7.93,7.93,0,0,0,6.6-3.06q2.46-3.12,2.46-8.52t-2.46-8.46a7.87,7.87,0,0,0-6.6-3.12,8,8,0,0,0-6.66,3.12q-2.46,3.06-2.46,8.46t2.46,8.52A8.09,8.09,0,0,0,594.56,231.74Z" transform="translate(0 0)"/><path class="cls-2" d="M619.84,209.12h.24a10.45,10.45,0,0,1,9.42-5.52,12.7,12.7,0,0,1,2.82.3v5.88a22.16,22.16,0,0,0-3.12-.24,9.18,9.18,0,0,0-6.6,2.34q-2.46,2.28-2.46,7.32V236H614V204.32h5.82Z" transform="translate(0 0)"/><path class="cls-2" d="M663.85,226.76a15.17,15.17,0,0,1-4.8,7.08q-3.48,2.88-9.84,2.88a14.93,14.93,0,0,1-7.8-2,14.17,14.17,0,0,1-5.22-5.82,19.32,19.32,0,0,1-1.86-8.64,20,20,0,0,1,1.8-8.7,13.83,13.83,0,0,1,5.16-5.82,14.52,14.52,0,0,1,7.86-2.1,15,15,0,0,1,7.74,2,13,13,0,0,1,5.28,5.58,18,18,0,0,1,1.92,8.58q0,1.26-.06,1.92H640.51a11.5,11.5,0,0,0,2.46,7.26,7.81,7.81,0,0,0,6.24,2.82,8.48,8.48,0,0,0,5.64-1.68,9.85,9.85,0,0,0,2.82-4Zm-14.7-18.18a7.61,7.61,0,0,0-5.94,2.46,10.48,10.48,0,0,0-2.58,5.94h17.22a10.34,10.34,0,0,0-2.64-6A7.85,7.85,0,0,0,649.15,208.58Z" transform="translate(0 0)"/><path class="cls-2" d="M236.06,157H587.2v3H236.06Zm-126.7,85H665.65v3H109.36Z" transform="translate(0 0)"/></svg>