<svg width="846" height="270" viewBox="0 0 846 270" fill="none" xmlns="http://www.w3.org/2000/svg">
<mask id="mask0_474:30265" style="mask-type:alpha" maskUnits="userSpaceOnUse" x="0" y="0" width="846" height="270">
<path fill-rule="evenodd" clip-rule="evenodd" d="M59.5459 12.0869C59.5459 5.4595 64.9185 0.0869141 71.546 0.0869141H774.454C781.082 0.0869141 786.454 5.4595 786.454 12.0869V75.0869C786.454 81.7143 791.827 87.0869 798.454 87.0869H834C840.627 87.0869 846 92.4595 846 99.0869V166.087C846 172.714 840.627 178.087 834 178.087H646.781C640.153 178.087 634.781 183.46 634.781 190.087V257.087C634.781 263.714 629.408 269.087 622.781 269.087H223.219C216.592 269.087 211.219 263.714 211.219 257.087V190.087C211.219 183.46 205.846 178.087 199.219 178.087H12C5.37258 178.087 0 172.714 0 166.087V99.0869C0 92.4595 5.37259 87.0869 12 87.0869H47.5459C54.1734 87.0869 59.5459 81.7143 59.5459 75.0869V12.0869Z" fill="#C4C4C4"/>
</mask>
<g mask="url(#mask0_474:30265)">
<rect x="-232.625" y="670.087" width="1209" height="1259" rx="604.5" transform="rotate(-90 -232.625 670.087)" fill="url(#paint0_angular_474:30265)"/>
<path d="M113.124 41.3069V46.7069H90.8639V60.3869H114.084V66.0869H84.2639V23.2469H114.084V28.7669H90.8639V41.3069H113.124ZM143.078 32.7869H142.838L134.798 66.0869H127.178L116.258 23.2469H123.038L130.898 57.3869H131.138L139.238 23.2469H146.558L154.658 57.3869H154.898L162.818 23.2469H169.658L158.618 66.0869H151.238L143.078 32.7869ZM215.305 60.3869V66.0869H182.785V60.3869L207.325 28.9469H184.225V23.2469H215.365V28.9469L191.005 60.3869H215.305ZM247.408 56.8469C246.528 59.6069 244.928 61.9669 242.608 63.9269C240.288 65.8469 237.008 66.8069 232.768 66.8069C229.848 66.8069 227.248 66.1269 224.968 64.7669C222.728 63.3669 220.988 61.4269 219.748 58.9469C218.508 56.4269 217.888 53.5469 217.888 50.3069C217.888 47.0269 218.488 44.1269 219.688 41.6069C220.928 39.0869 222.648 37.1469 224.848 35.7869C227.088 34.3869 229.708 33.6869 232.708 33.6869C235.628 33.6869 238.208 34.3469 240.448 35.6669C242.728 36.9469 244.488 38.8069 245.728 41.2469C247.008 43.6469 247.648 46.5069 247.648 49.8269C247.648 50.6669 247.628 51.3069 247.588 51.7469H224.068C224.148 54.7069 224.968 57.1269 226.528 59.0069C228.128 60.8869 230.208 61.8269 232.768 61.8269C235.208 61.8269 237.088 61.2669 238.408 60.1469C239.728 58.9869 240.668 57.6469 241.228 56.1269L247.408 56.8469ZM232.708 38.6669C230.228 38.6669 228.248 39.4869 226.768 41.1269C225.328 42.7269 224.468 44.7069 224.188 47.0669H241.408C241.128 44.6669 240.248 42.6669 238.768 41.0669C237.288 39.4669 235.268 38.6669 232.708 38.6669ZM257.539 39.2069H257.779C258.619 37.6069 259.859 36.2869 261.499 35.2469C263.139 34.2069 265.039 33.6869 267.199 33.6869C268.199 33.6869 269.139 33.7869 270.019 33.9869V39.8669C268.899 39.7069 267.859 39.6269 266.899 39.6269C264.139 39.6269 261.939 40.4069 260.299 41.9669C258.659 43.4869 257.839 45.9269 257.839 49.2869V66.0869H251.719V34.4069H257.539V39.2069ZM287.389 33.6869C290.469 33.6869 293.169 34.3869 295.489 35.7869C297.809 37.1469 299.589 39.0869 300.829 41.6069C302.109 44.0869 302.749 46.9669 302.749 50.2469C302.749 53.5269 302.109 56.4269 300.829 58.9469C299.589 61.4269 297.809 63.3669 295.489 64.7669C293.169 66.1269 290.469 66.8069 287.389 66.8069C284.309 66.8069 281.609 66.1269 279.289 64.7669C276.969 63.3669 275.169 61.4269 273.889 58.9469C272.649 56.4269 272.029 53.5269 272.029 50.2469C272.029 46.9669 272.649 44.0869 273.889 41.6069C275.169 39.0869 276.969 37.1469 279.289 35.7869C281.609 34.3869 284.309 33.6869 287.389 33.6869ZM287.389 61.8269C290.189 61.8269 292.389 60.8069 293.989 58.7669C295.629 56.6869 296.449 53.8469 296.449 50.2469C296.449 46.6469 295.629 43.8269 293.989 41.7869C292.389 39.7069 290.189 38.6669 287.389 38.6669C284.589 38.6669 282.369 39.7069 280.729 41.7869C279.089 43.8269 278.269 46.6469 278.269 50.2469C278.269 53.8469 279.089 56.6869 280.729 58.7669C282.369 60.8069 284.589 61.8269 287.389 61.8269ZM334.182 33.6869C336.982 33.6869 339.462 34.3869 341.622 35.7869C343.822 37.1469 345.522 39.0869 346.722 41.6069C347.962 44.0869 348.582 46.9669 348.582 50.2469C348.582 53.5269 347.962 56.4269 346.722 58.9469C345.522 61.4269 343.822 63.3669 341.622 64.7669C339.462 66.1269 336.982 66.8069 334.182 66.8069C331.942 66.8069 329.942 66.3869 328.182 65.5469C326.462 64.6669 325.182 63.4869 324.342 62.0069H324.102V66.0869H318.282V22.6469H324.402V38.1269H324.642C325.522 36.7669 326.782 35.6869 328.422 34.8869C330.102 34.0869 332.022 33.6869 334.182 33.6869ZM333.102 61.8269C335.942 61.8269 338.182 60.8069 339.822 58.7669C341.502 56.6869 342.342 53.8469 342.342 50.2469C342.342 46.6469 341.502 43.8269 339.822 41.7869C338.182 39.7069 335.942 38.6669 333.102 38.6669C330.342 38.6669 328.122 39.7069 326.442 41.7869C324.802 43.8669 323.982 46.6869 323.982 50.2469C323.982 53.8069 324.802 56.6269 326.442 58.7069C328.122 60.7869 330.342 61.8269 333.102 61.8269ZM358.496 39.2069H358.736C359.576 37.6069 360.816 36.2869 362.456 35.2469C364.096 34.2069 365.996 33.6869 368.156 33.6869C369.156 33.6869 370.096 33.7869 370.976 33.9869V39.8669C369.856 39.7069 368.816 39.6269 367.856 39.6269C365.096 39.6269 362.896 40.4069 361.256 41.9669C359.616 43.4869 358.796 45.9269 358.796 49.2869V66.0869H352.676V34.4069H358.496V39.2069ZM380.362 34.4069V66.0869H374.242V34.4069H380.362ZM380.362 22.6469V29.3069H374.242V22.6469H380.362ZM391.607 38.6069C392.767 36.9269 394.187 35.6869 395.867 34.8869C397.547 34.0869 399.407 33.6869 401.447 33.6869C403.447 33.6869 405.287 34.1069 406.967 34.9469C408.687 35.7469 410.067 37.0069 411.107 38.7269C412.147 40.4069 412.667 42.5269 412.667 45.0869V66.0869H406.547V46.9469C406.547 44.0269 405.967 41.9469 404.807 40.7069C403.647 39.4669 401.887 38.8469 399.527 38.8469C398.167 38.8469 396.887 39.2269 395.687 39.9869C394.487 40.7469 393.507 41.8669 392.747 43.3469C392.027 44.8269 391.667 46.6069 391.667 48.6869V66.0869H385.547V34.4069H391.367V38.6069H391.607ZM446.221 63.8669C446.221 68.6669 444.861 72.1869 442.141 74.4269C439.421 76.7069 435.841 77.8469 431.401 77.8469C427.841 77.8469 424.781 77.0269 422.221 75.3869C419.701 73.7469 417.961 71.2269 417.001 67.8269L422.881 66.5669C423.481 68.8069 424.481 70.4069 425.881 71.3669C427.321 72.3269 429.161 72.8069 431.401 72.8069C437.201 72.8069 440.101 69.7269 440.101 63.5669V60.3869H439.861C438.981 61.6269 437.741 62.6069 436.141 63.3269C434.541 64.0469 432.701 64.4069 430.621 64.4069C427.901 64.4069 425.461 63.7669 423.301 62.4869C421.181 61.2069 419.521 59.4069 418.321 57.0869C417.121 54.7669 416.521 52.0869 416.521 49.0469C416.521 46.0469 417.121 43.3869 418.321 41.0669C419.521 38.7069 421.181 36.8869 423.301 35.6069C425.461 34.3269 427.901 33.6869 430.621 33.6869C432.781 33.6869 434.701 34.0869 436.381 34.8869C438.061 35.6469 439.321 36.7069 440.161 38.0669H440.401V34.4069H446.221V63.8669ZM431.641 59.5469C434.321 59.5469 436.461 58.5869 438.061 56.6669C439.661 54.7469 440.461 52.2069 440.461 49.0469C440.461 45.9269 439.661 43.4269 438.061 41.5469C436.461 39.6269 434.321 38.6669 431.641 38.6669C428.961 38.6669 426.801 39.6269 425.161 41.5469C423.561 43.4269 422.761 45.9269 422.761 49.0469C422.761 52.1669 423.561 54.7069 425.161 56.6669C426.801 58.5869 428.961 59.5469 431.641 59.5469ZM470.257 43.8869C469.817 42.0869 468.917 40.7269 467.557 39.8069C466.197 38.8469 464.617 38.3669 462.817 38.3669C460.937 38.3669 459.437 38.7669 458.317 39.5669C457.197 40.3669 456.637 41.5069 456.637 42.9869C456.637 44.2269 457.137 45.1269 458.137 45.6869C459.177 46.2469 460.737 46.7069 462.817 47.0669L465.937 47.5469C469.297 48.1469 471.897 49.1069 473.737 50.4269C475.617 51.7069 476.557 53.8669 476.557 56.9069C476.557 60.0669 475.297 62.5069 472.777 64.2269C470.297 65.9469 467.077 66.8069 463.117 66.8069C459.197 66.8069 455.997 65.9069 453.517 64.1069C451.037 62.2669 449.517 59.8669 448.957 56.9069L454.537 55.7069C455.017 57.9069 455.997 59.5469 457.477 60.6269C458.997 61.6669 460.917 62.1869 463.237 62.1869C465.357 62.1869 467.057 61.7469 468.337 60.8669C469.617 59.9469 470.257 58.6869 470.257 57.0869C470.257 55.7669 469.697 54.7869 468.577 54.1469C467.497 53.5069 465.857 53.0069 463.657 52.6469L460.417 52.1069C457.377 51.5869 454.937 50.6869 453.097 49.4069C451.297 48.1269 450.397 46.0069 450.397 43.0469C450.397 41.2469 450.917 39.6469 451.957 38.2469C453.037 36.8069 454.517 35.6869 456.397 34.8869C458.317 34.0869 460.477 33.6869 462.877 33.6869C465.117 33.6869 467.177 34.1069 469.057 34.9469C470.937 35.7469 472.457 36.8469 473.617 38.2469C474.817 39.6069 475.557 41.0869 475.837 42.6869L470.257 43.8869ZM497.715 39.2069H497.955C498.795 37.6069 500.035 36.2869 501.675 35.2469C503.315 34.2069 505.215 33.6869 507.375 33.6869C508.375 33.6869 509.315 33.7869 510.195 33.9869V39.8669C509.075 39.7069 508.035 39.6269 507.075 39.6269C504.315 39.6269 502.115 40.4069 500.475 41.9669C498.835 43.4869 498.015 45.9269 498.015 49.2869V66.0869H491.895V34.4069H497.715V39.2069ZM541.725 56.8469C540.845 59.6069 539.245 61.9669 536.925 63.9269C534.605 65.8469 531.325 66.8069 527.085 66.8069C524.165 66.8069 521.565 66.1269 519.285 64.7669C517.045 63.3669 515.305 61.4269 514.065 58.9469C512.825 56.4269 512.205 53.5469 512.205 50.3069C512.205 47.0269 512.805 44.1269 514.005 41.6069C515.245 39.0869 516.965 37.1469 519.165 35.7869C521.405 34.3869 524.025 33.6869 527.025 33.6869C529.945 33.6869 532.525 34.3469 534.765 35.6669C537.045 36.9469 538.805 38.8069 540.045 41.2469C541.325 43.6469 541.965 46.5069 541.965 49.8269C541.965 50.6669 541.945 51.3069 541.905 51.7469H518.385C518.465 54.7069 519.285 57.1269 520.845 59.0069C522.445 60.8869 524.525 61.8269 527.085 61.8269C529.525 61.8269 531.405 61.2669 532.725 60.1469C534.045 58.9869 534.985 57.6469 535.545 56.1269L541.725 56.8469ZM527.025 38.6669C524.545 38.6669 522.565 39.4869 521.085 41.1269C519.645 42.7269 518.785 44.7069 518.505 47.0669H535.725C535.445 44.6669 534.565 42.6669 533.085 41.0669C531.605 39.4669 529.585 38.6669 527.025 38.6669ZM552.096 38.6069C553.256 36.9269 554.676 35.6869 556.356 34.8869C558.036 34.0869 559.896 33.6869 561.936 33.6869C563.936 33.6869 565.776 34.1069 567.456 34.9469C569.176 35.7469 570.556 37.0069 571.596 38.7269C572.636 40.4069 573.156 42.5269 573.156 45.0869V66.0869H567.036V46.9469C567.036 44.0269 566.456 41.9469 565.296 40.7069C564.136 39.4669 562.376 38.8469 560.016 38.8469C558.656 38.8469 557.376 39.2269 556.176 39.9869C554.976 40.7469 553.996 41.8669 553.236 43.3469C552.516 44.8269 552.156 46.6069 552.156 48.6869V66.0869H546.036V34.4069H551.856V38.6069H552.096ZM606.529 56.8469C605.649 59.6069 604.049 61.9669 601.729 63.9269C599.409 65.8469 596.129 66.8069 591.889 66.8069C588.969 66.8069 586.369 66.1269 584.089 64.7669C581.849 63.3669 580.109 61.4269 578.869 58.9469C577.629 56.4269 577.009 53.5469 577.009 50.3069C577.009 47.0269 577.609 44.1269 578.809 41.6069C580.049 39.0869 581.769 37.1469 583.969 35.7869C586.209 34.3869 588.829 33.6869 591.829 33.6869C594.749 33.6869 597.329 34.3469 599.569 35.6669C601.849 36.9469 603.609 38.8069 604.849 41.2469C606.129 43.6469 606.769 46.5069 606.769 49.8269C606.769 50.6669 606.749 51.3069 606.709 51.7469H583.189C583.269 54.7069 584.089 57.1269 585.649 59.0069C587.249 60.8869 589.329 61.8269 591.889 61.8269C594.329 61.8269 596.209 61.2669 597.529 60.1469C598.849 58.9869 599.789 57.6469 600.349 56.1269L606.529 56.8469ZM591.829 38.6669C589.349 38.6669 587.369 39.4869 585.889 41.1269C584.449 42.7269 583.589 44.7069 583.309 47.0669H600.529C600.249 44.6669 599.369 42.6669 597.889 41.0669C596.409 39.4669 594.389 38.6669 591.829 38.6669ZM644.544 66.0869H637.704L630.684 42.6269H630.444L623.364 66.0869H616.824L606.504 34.4069H613.224L620.184 58.6469H620.424L627.264 34.4069H634.284L641.124 58.6469H641.364L648.324 34.4069H654.804L644.544 66.0869ZM676.193 66.0869C675.913 65.8069 675.673 65.2869 675.473 64.5269C675.313 63.7669 675.233 62.8869 675.233 61.8869C674.273 63.5269 672.773 64.7669 670.733 65.6069C668.733 66.4069 666.673 66.8069 664.553 66.8069C662.673 66.8069 660.933 66.4269 659.333 65.6669C657.733 64.8669 656.453 63.7669 655.493 62.3669C654.573 60.9269 654.113 59.2469 654.113 57.3269C654.113 54.0869 655.233 51.7069 657.473 50.1869C659.713 48.6269 663.093 47.6069 667.613 47.1269C670.533 46.8469 672.513 46.4269 673.553 45.8669C674.633 45.3069 675.173 44.5069 675.173 43.4669C675.173 40.3069 672.953 38.7269 668.513 38.7269C666.793 38.7269 665.233 39.1869 663.833 40.1069C662.433 40.9869 661.453 42.3069 660.893 44.0669L655.313 42.7469C655.993 39.9469 657.553 37.7469 659.993 36.1469C662.433 34.5069 665.353 33.6869 668.753 33.6869C673.073 33.6869 676.233 34.5869 678.233 36.3869C680.273 38.1469 681.293 40.4669 681.293 43.3469V59.2469C681.293 61.2469 681.333 62.7269 681.413 63.6869C681.533 64.6069 681.773 65.4069 682.133 66.0869H676.193ZM675.173 49.7669C674.733 50.2469 673.793 50.6469 672.353 50.9669C670.953 51.2469 669.153 51.5269 666.953 51.8069C665.073 52.0469 663.493 52.6269 662.213 53.5469C660.973 54.4269 660.353 55.6869 660.353 57.3269C660.353 58.8469 660.833 60.0069 661.793 60.8069C662.753 61.5669 664.073 61.9469 665.753 61.9469C667.273 61.9469 668.753 61.6669 670.193 61.1069C671.633 60.5069 672.813 59.5869 673.733 58.3469C674.693 57.0669 675.173 55.4869 675.173 53.6069V49.7669ZM701.975 33.6869C704.775 33.6869 707.255 34.3869 709.415 35.7869C711.615 37.1469 713.315 39.0869 714.515 41.6069C715.755 44.0869 716.375 46.9669 716.375 50.2469C716.375 53.5269 715.755 56.4269 714.515 58.9469C713.315 61.4269 711.615 63.3669 709.415 64.7669C707.255 66.1269 704.775 66.8069 701.975 66.8069C699.735 66.8069 697.735 66.3869 695.975 65.5469C694.255 64.6669 692.975 63.4869 692.135 62.0069H691.895V66.0869H686.075V22.6469H692.195V38.1269H692.435C693.315 36.7669 694.575 35.6869 696.215 34.8869C697.895 34.0869 699.815 33.6869 701.975 33.6869ZM700.895 61.8269C703.735 61.8269 705.975 60.8069 707.615 58.7669C709.295 56.6869 710.135 53.8469 710.135 50.2469C710.135 46.6469 709.295 43.8269 707.615 41.7869C705.975 39.7069 703.735 38.6669 700.895 38.6669C698.135 38.6669 695.915 39.7069 694.235 41.7869C692.595 43.8669 691.775 46.6869 691.775 50.2469C691.775 53.8069 692.595 56.6269 694.235 58.7069C695.915 60.7869 698.135 61.8269 700.895 61.8269ZM726.709 22.6469V66.0869H720.589V22.6469H726.709ZM760.455 56.8469C759.575 59.6069 757.975 61.9669 755.655 63.9269C753.335 65.8469 750.055 66.8069 745.815 66.8069C742.895 66.8069 740.295 66.1269 738.015 64.7669C735.775 63.3669 734.035 61.4269 732.795 58.9469C731.555 56.4269 730.935 53.5469 730.935 50.3069C730.935 47.0269 731.535 44.1269 732.735 41.6069C733.975 39.0869 735.695 37.1469 737.895 35.7869C740.135 34.3869 742.755 33.6869 745.755 33.6869C748.675 33.6869 751.255 34.3469 753.495 35.6669C755.775 36.9469 757.535 38.8069 758.775 41.2469C760.055 43.6469 760.695 46.5069 760.695 49.8269C760.695 50.6669 760.675 51.3069 760.635 51.7469H737.115C737.195 54.7069 738.015 57.1269 739.575 59.0069C741.175 60.8869 743.255 61.8269 745.815 61.8269C748.255 61.8269 750.135 61.2669 751.455 60.1469C752.775 58.9869 753.715 57.6469 754.275 56.1269L760.455 56.8469ZM745.755 38.6669C743.275 38.6669 741.295 39.4869 739.815 41.1269C738.375 42.7269 737.515 44.7069 737.235 47.0669H754.455C754.175 44.6669 753.295 42.6669 751.815 41.0669C750.335 39.4669 748.315 38.6669 745.755 38.6669ZM109.684 141.847C108.804 144.607 107.204 146.967 104.884 148.927C102.564 150.847 99.2835 151.807 95.0435 151.807C92.1235 151.807 89.5235 151.127 87.2435 149.767C85.0035 148.367 83.2635 146.427 82.0235 143.947C80.7835 141.427 80.1635 138.547 80.1635 135.307C80.1635 132.027 80.7635 129.127 81.9635 126.607C83.2035 124.087 84.9235 122.147 87.1235 120.787C89.3635 119.387 91.9835 118.687 94.9835 118.687C97.9035 118.687 100.484 119.347 102.724 120.667C105.004 121.947 106.764 123.807 108.004 126.247C109.284 128.647 109.924 131.507 109.924 134.827C109.924 135.667 109.904 136.307 109.864 136.747H86.3435C86.4235 139.707 87.2435 142.127 88.8035 144.007C90.4035 145.887 92.4835 146.827 95.0435 146.827C97.4835 146.827 99.3635 146.267 100.684 145.147C102.004 143.987 102.944 142.647 103.504 141.127L109.684 141.847ZM94.9835 123.667C92.5035 123.667 90.5235 124.487 89.0435 126.127C87.6035 127.727 86.7435 129.707 86.4635 132.067H103.684C103.404 129.667 102.524 127.667 101.044 126.067C99.5635 124.467 97.5435 123.667 94.9835 123.667ZM120.055 123.607C121.215 121.927 122.635 120.687 124.315 119.887C125.995 119.087 127.855 118.687 129.895 118.687C131.895 118.687 133.735 119.107 135.415 119.947C137.135 120.747 138.515 122.007 139.555 123.727C140.595 125.407 141.115 127.527 141.115 130.087V151.087H134.995V131.947C134.995 129.027 134.415 126.947 133.255 125.707C132.095 124.467 130.335 123.847 127.975 123.847C126.615 123.847 125.335 124.227 124.135 124.987C122.935 125.747 121.955 126.867 121.195 128.347C120.475 129.827 120.115 131.607 120.115 133.687V151.087H113.995V119.407H119.815V123.607H120.055ZM174.488 141.847C173.608 144.607 172.008 146.967 169.688 148.927C167.368 150.847 164.088 151.807 159.848 151.807C156.928 151.807 154.328 151.127 152.048 149.767C149.808 148.367 148.068 146.427 146.828 143.947C145.588 141.427 144.968 138.547 144.968 135.307C144.968 132.027 145.568 129.127 146.768 126.607C148.008 124.087 149.728 122.147 151.928 120.787C154.168 119.387 156.788 118.687 159.788 118.687C162.708 118.687 165.288 119.347 167.528 120.667C169.808 121.947 171.568 123.807 172.808 126.247C174.088 128.647 174.728 131.507 174.728 134.827C174.728 135.667 174.708 136.307 174.668 136.747H151.148C151.228 139.707 152.048 142.127 153.608 144.007C155.208 145.887 157.288 146.827 159.848 146.827C162.288 146.827 164.168 146.267 165.488 145.147C166.808 143.987 167.748 142.647 168.308 141.127L174.488 141.847ZM159.788 123.667C157.308 123.667 155.328 124.487 153.848 126.127C152.408 127.727 151.548 129.707 151.268 132.067H168.488C168.208 129.667 167.328 127.667 165.848 126.067C164.368 124.467 162.348 123.667 159.788 123.667ZM184.619 124.207H184.859C185.699 122.607 186.939 121.287 188.579 120.247C190.219 119.207 192.119 118.687 194.279 118.687C195.279 118.687 196.219 118.787 197.099 118.987V124.867C195.979 124.707 194.939 124.627 193.979 124.627C191.219 124.627 189.019 125.407 187.379 126.967C185.739 128.487 184.919 130.927 184.919 134.287V151.087H178.799V119.407H184.619V124.207ZM228.809 148.867C228.809 153.667 227.449 157.187 224.729 159.427C222.009 161.707 218.429 162.847 213.989 162.847C210.429 162.847 207.369 162.027 204.809 160.387C202.289 158.747 200.549 156.227 199.589 152.827L205.469 151.567C206.069 153.807 207.069 155.407 208.469 156.367C209.909 157.327 211.749 157.807 213.989 157.807C219.789 157.807 222.689 154.727 222.689 148.567V145.387H222.449C221.569 146.627 220.329 147.607 218.729 148.327C217.129 149.047 215.289 149.407 213.209 149.407C210.489 149.407 208.049 148.767 205.889 147.487C203.769 146.207 202.109 144.407 200.909 142.087C199.709 139.767 199.109 137.087 199.109 134.047C199.109 131.047 199.709 128.387 200.909 126.067C202.109 123.707 203.769 121.887 205.889 120.607C208.049 119.327 210.489 118.687 213.209 118.687C215.369 118.687 217.289 119.087 218.969 119.887C220.649 120.647 221.909 121.707 222.749 123.067H222.989V119.407H228.809V148.867ZM214.229 144.547C216.909 144.547 219.049 143.587 220.649 141.667C222.249 139.747 223.049 137.207 223.049 134.047C223.049 130.927 222.249 128.427 220.649 126.547C219.049 124.627 216.909 123.667 214.229 123.667C211.549 123.667 209.389 124.627 207.749 126.547C206.149 128.427 205.349 130.927 205.349 134.047C205.349 137.167 206.149 139.707 207.749 141.667C209.389 143.587 211.549 144.547 214.229 144.547ZM249.844 151.087C248.604 154.367 247.384 156.847 246.184 158.527C244.984 160.247 243.744 161.387 242.464 161.947C241.184 162.547 239.664 162.847 237.904 162.847C236.224 162.847 234.984 162.787 234.184 162.667V157.267C234.304 157.267 234.584 157.307 235.024 157.387C235.504 157.507 236.184 157.567 237.064 157.567C238.664 157.567 239.864 157.167 240.664 156.367C241.464 155.567 242.344 154.067 243.304 151.867L243.784 150.667L231.064 119.407H237.664L246.604 143.407H246.844L255.244 119.407H261.844L249.844 151.087ZM291.672 151.807C289.512 151.807 287.592 151.427 285.912 150.667C284.272 149.867 283.012 148.787 282.132 147.427H281.892V162.127H275.772V119.407H281.592V123.487H281.832C282.712 121.967 284.012 120.787 285.732 119.947C287.452 119.107 289.432 118.687 291.672 118.687C294.472 118.687 296.952 119.387 299.112 120.787C301.312 122.147 303.012 124.087 304.212 126.607C305.452 129.087 306.072 131.967 306.072 135.247C306.072 138.527 305.452 141.427 304.212 143.947C303.012 146.427 301.312 148.367 299.112 149.767C296.952 151.127 294.472 151.807 291.672 151.807ZM290.592 123.667C287.832 123.667 285.612 124.707 283.932 126.787C282.292 128.867 281.472 131.687 281.472 135.247C281.472 138.807 282.292 141.627 283.932 143.707C285.612 145.787 287.832 146.827 290.592 146.827C293.432 146.827 295.672 145.807 297.312 143.767C298.992 141.687 299.832 138.847 299.832 135.247C299.832 131.647 298.992 128.827 297.312 126.787C295.672 124.707 293.432 123.667 290.592 123.667ZM331.226 146.887C328.986 150.167 325.706 151.807 321.386 151.807C318.226 151.807 315.566 150.847 313.406 148.927C311.246 147.007 310.166 144.167 310.166 140.407V119.407H316.286V138.547C316.286 141.467 316.866 143.547 318.026 144.787C319.186 146.027 320.946 146.647 323.306 146.647C324.706 146.647 325.986 146.267 327.146 145.507C328.346 144.747 329.306 143.627 330.026 142.147C330.786 140.667 331.166 138.887 331.166 136.807V119.407H337.286V151.087H331.466V146.887H331.226ZM347.92 124.207H348.16C349 122.607 350.24 121.287 351.88 120.247C353.52 119.207 355.42 118.687 357.58 118.687C358.58 118.687 359.52 118.787 360.4 118.987V124.867C359.28 124.707 358.24 124.627 357.28 124.627C354.52 124.627 352.32 125.407 350.68 126.967C349.04 128.487 348.22 130.927 348.22 134.287V151.087H342.1V119.407H347.92V124.207ZM377.35 146.827C381.59 146.827 384.35 144.567 385.63 140.047L391.81 140.947C391.05 143.787 389.49 146.307 387.13 148.507C384.81 150.707 381.55 151.807 377.35 151.807C374.39 151.807 371.77 151.127 369.49 149.767C367.25 148.367 365.51 146.427 364.27 143.947C363.03 141.427 362.41 138.527 362.41 135.247C362.41 131.967 363.03 129.087 364.27 126.607C365.51 124.087 367.25 122.147 369.49 120.787C371.77 119.387 374.41 118.687 377.41 118.687C381.41 118.687 384.49 119.667 386.65 121.627C388.85 123.547 390.35 125.587 391.15 127.747L385.39 129.607C384.87 128.087 383.99 126.727 382.75 125.527C381.55 124.287 379.77 123.667 377.41 123.667C374.73 123.667 372.59 124.707 370.99 126.787C369.43 128.827 368.65 131.647 368.65 135.247C368.65 138.807 369.43 141.627 370.99 143.707C372.59 145.787 374.71 146.827 377.35 146.827ZM401.546 123.607C403.826 120.327 407.066 118.687 411.266 118.687C413.226 118.687 415.046 119.107 416.726 119.947C418.406 120.747 419.746 122.007 420.746 123.727C421.786 125.447 422.306 127.567 422.306 130.087V151.087H416.186V131.947C416.186 129.027 415.606 126.947 414.446 125.707C413.286 124.467 411.526 123.847 409.166 123.847C407.846 123.847 406.586 124.267 405.386 125.107C404.186 125.947 403.206 127.167 402.446 128.767C401.686 130.327 401.306 132.147 401.306 134.227V151.087H395.186V107.647H401.306V123.607H401.546ZM448 151.087C447.72 150.807 447.48 150.287 447.28 149.527C447.12 148.767 447.04 147.887 447.04 146.887C446.08 148.527 444.58 149.767 442.54 150.607C440.54 151.407 438.48 151.807 436.36 151.807C434.48 151.807 432.74 151.427 431.14 150.667C429.54 149.867 428.26 148.767 427.3 147.367C426.38 145.927 425.92 144.247 425.92 142.327C425.92 139.087 427.04 136.707 429.28 135.187C431.52 133.627 434.9 132.607 439.42 132.127C442.34 131.847 444.32 131.427 445.36 130.867C446.44 130.307 446.98 129.507 446.98 128.467C446.98 125.307 444.76 123.727 440.32 123.727C438.6 123.727 437.04 124.187 435.64 125.107C434.24 125.987 433.26 127.307 432.7 129.067L427.12 127.747C427.8 124.947 429.36 122.747 431.8 121.147C434.24 119.507 437.16 118.687 440.56 118.687C444.88 118.687 448.04 119.587 450.04 121.387C452.08 123.147 453.1 125.467 453.1 128.347V144.247C453.1 146.247 453.14 147.727 453.22 148.687C453.34 149.607 453.58 150.407 453.94 151.087H448ZM446.98 134.767C446.54 135.247 445.6 135.647 444.16 135.967C442.76 136.247 440.96 136.527 438.76 136.807C436.88 137.047 435.3 137.627 434.02 138.547C432.78 139.427 432.16 140.687 432.16 142.327C432.16 143.847 432.64 145.007 433.6 145.807C434.56 146.567 435.88 146.947 437.56 146.947C439.08 146.947 440.56 146.667 442 146.107C443.44 145.507 444.62 144.587 445.54 143.347C446.5 142.067 446.98 140.487 446.98 138.607V134.767ZM477.141 128.887C476.701 127.087 475.801 125.727 474.441 124.807C473.081 123.847 471.501 123.367 469.701 123.367C467.821 123.367 466.321 123.767 465.201 124.567C464.081 125.367 463.521 126.507 463.521 127.987C463.521 129.227 464.021 130.127 465.021 130.687C466.061 131.247 467.621 131.707 469.701 132.067L472.821 132.547C476.181 133.147 478.781 134.107 480.621 135.427C482.501 136.707 483.441 138.867 483.441 141.907C483.441 145.067 482.181 147.507 479.661 149.227C477.181 150.947 473.961 151.807 470.001 151.807C466.081 151.807 462.881 150.907 460.401 149.107C457.921 147.267 456.401 144.867 455.841 141.907L461.421 140.707C461.901 142.907 462.881 144.547 464.361 145.627C465.881 146.667 467.801 147.187 470.121 147.187C472.241 147.187 473.941 146.747 475.221 145.867C476.501 144.947 477.141 143.687 477.141 142.087C477.141 140.767 476.581 139.787 475.461 139.147C474.381 138.507 472.741 138.007 470.541 137.647L467.301 137.107C464.261 136.587 461.821 135.687 459.981 134.407C458.181 133.127 457.281 131.007 457.281 128.047C457.281 126.247 457.801 124.647 458.841 123.247C459.921 121.807 461.401 120.687 463.281 119.887C465.201 119.087 467.361 118.687 469.761 118.687C472.001 118.687 474.061 119.107 475.941 119.947C477.821 120.747 479.341 121.847 480.501 123.247C481.701 124.607 482.441 126.087 482.721 127.687L477.141 128.887ZM493.594 119.407V151.087H487.474V119.407H493.594ZM493.594 107.647V114.307H487.474V107.647H493.594ZM504.84 123.607C506 121.927 507.42 120.687 509.1 119.887C510.78 119.087 512.64 118.687 514.68 118.687C516.68 118.687 518.52 119.107 520.2 119.947C521.92 120.747 523.3 122.007 524.34 123.727C525.38 125.407 525.9 127.527 525.9 130.087V151.087H519.78V131.947C519.78 129.027 519.2 126.947 518.04 125.707C516.88 124.467 515.12 123.847 512.76 123.847C511.4 123.847 510.12 124.227 508.92 124.987C507.72 125.747 506.74 126.867 505.98 128.347C505.26 129.827 504.9 131.607 504.9 133.687V151.087H498.78V119.407H504.6V123.607H504.84ZM559.453 148.867C559.453 153.667 558.093 157.187 555.373 159.427C552.653 161.707 549.073 162.847 544.633 162.847C541.073 162.847 538.013 162.027 535.453 160.387C532.933 158.747 531.193 156.227 530.233 152.827L536.113 151.567C536.713 153.807 537.713 155.407 539.113 156.367C540.553 157.327 542.393 157.807 544.633 157.807C550.433 157.807 553.333 154.727 553.333 148.567V145.387H553.093C552.213 146.627 550.973 147.607 549.373 148.327C547.773 149.047 545.933 149.407 543.853 149.407C541.133 149.407 538.693 148.767 536.533 147.487C534.413 146.207 532.753 144.407 531.553 142.087C530.353 139.767 529.753 137.087 529.753 134.047C529.753 131.047 530.353 128.387 531.553 126.067C532.753 123.707 534.413 121.887 536.533 120.607C538.693 119.327 541.133 118.687 543.853 118.687C546.013 118.687 547.933 119.087 549.613 119.887C551.293 120.647 552.553 121.707 553.393 123.067H553.633V119.407H559.453V148.867ZM544.873 144.547C547.553 144.547 549.693 143.587 551.293 141.667C552.893 139.747 553.693 137.207 553.693 134.047C553.693 130.927 552.893 128.427 551.293 126.547C549.693 124.627 547.553 123.667 544.873 123.667C542.193 123.667 540.033 124.627 538.393 126.547C536.793 128.427 535.993 130.927 535.993 134.047C535.993 137.167 536.793 139.707 538.393 141.667C540.033 143.587 542.193 144.547 544.873 144.547ZM581.895 119.407V151.087H575.775V119.407H581.895ZM581.895 107.647V114.307H575.775V107.647H581.895ZM593.141 123.607C594.301 121.927 595.721 120.687 597.401 119.887C599.081 119.087 600.941 118.687 602.981 118.687C604.981 118.687 606.821 119.107 608.501 119.947C610.221 120.747 611.601 122.007 612.641 123.727C613.681 125.407 614.201 127.527 614.201 130.087V151.087H608.081V131.947C608.081 129.027 607.501 126.947 606.341 125.707C605.181 124.467 603.421 123.847 601.061 123.847C599.701 123.847 598.421 124.227 597.221 124.987C596.021 125.747 595.041 126.867 594.281 128.347C593.561 129.827 593.201 131.607 593.201 133.687V151.087H587.081V119.407H592.901V123.607H593.141ZM634.68 145.807V151.087C633.8 151.167 632.3 151.207 630.18 151.207C627.22 151.207 625.1 150.727 623.82 149.767C622.58 148.807 621.96 146.967 621.96 144.247V124.027H616.74V119.407H621.96V110.467H628.08V119.407H635.04V124.027H628.08V142.627C628.08 144.027 628.34 144.927 628.86 145.327C629.38 145.727 630.32 145.927 631.68 145.927L634.68 145.807ZM652.223 118.687C655.303 118.687 658.003 119.387 660.323 120.787C662.643 122.147 664.423 124.087 665.663 126.607C666.943 129.087 667.583 131.967 667.583 135.247C667.583 138.527 666.943 141.427 665.663 143.947C664.423 146.427 662.643 148.367 660.323 149.767C658.003 151.127 655.303 151.807 652.223 151.807C649.143 151.807 646.443 151.127 644.123 149.767C641.803 148.367 640.003 146.427 638.723 143.947C637.483 141.427 636.863 138.527 636.863 135.247C636.863 131.967 637.483 129.087 638.723 126.607C640.003 124.087 641.803 122.147 644.123 120.787C646.443 119.387 649.143 118.687 652.223 118.687ZM652.223 146.827C655.023 146.827 657.223 145.807 658.823 143.767C660.463 141.687 661.283 138.847 661.283 135.247C661.283 131.647 660.463 128.827 658.823 126.787C657.223 124.707 655.023 123.667 652.223 123.667C649.423 123.667 647.203 124.707 645.563 126.787C643.923 128.827 643.103 131.647 643.103 135.247C643.103 138.847 643.923 141.687 645.563 143.767C647.203 145.807 649.423 146.827 652.223 146.827ZM699.016 145.807V151.087C698.136 151.167 696.636 151.207 694.516 151.207C691.556 151.207 689.436 150.727 688.156 149.767C686.916 148.807 686.296 146.967 686.296 144.247V124.027H681.076V119.407H686.296V110.467H692.416V119.407H699.376V124.027H692.416V142.627C692.416 144.027 692.676 144.927 693.196 145.327C693.716 145.727 694.656 145.927 696.016 145.927L699.016 145.807ZM709.222 123.607C711.502 120.327 714.742 118.687 718.942 118.687C720.902 118.687 722.722 119.107 724.402 119.947C726.082 120.747 727.422 122.007 728.422 123.727C729.462 125.447 729.982 127.567 729.982 130.087V151.087H723.862V131.947C723.862 129.027 723.282 126.947 722.122 125.707C720.962 124.467 719.202 123.847 716.842 123.847C715.522 123.847 714.262 124.267 713.062 125.107C711.862 125.947 710.882 127.167 710.122 128.767C709.362 130.327 708.982 132.147 708.982 134.227V151.087H702.862V107.647H708.982V123.607H709.222ZM763.355 141.847C762.475 144.607 760.875 146.967 758.555 148.927C756.235 150.847 752.955 151.807 748.715 151.807C745.795 151.807 743.195 151.127 740.915 149.767C738.675 148.367 736.935 146.427 735.695 143.947C734.455 141.427 733.835 138.547 733.835 135.307C733.835 132.027 734.435 129.127 735.635 126.607C736.875 124.087 738.595 122.147 740.795 120.787C743.035 119.387 745.655 118.687 748.655 118.687C751.575 118.687 754.155 119.347 756.395 120.667C758.675 121.947 760.435 123.807 761.675 126.247C762.955 128.647 763.595 131.507 763.595 134.827C763.595 135.667 763.575 136.307 763.535 136.747H740.015C740.095 139.707 740.915 142.127 742.475 144.007C744.075 145.887 746.155 146.827 748.715 146.827C751.155 146.827 753.035 146.267 754.355 145.147C755.675 143.987 756.615 142.647 757.175 141.127L763.355 141.847ZM748.655 123.667C746.175 123.667 744.195 124.487 742.715 126.127C741.275 127.727 740.415 129.707 740.135 132.067H757.355C757.075 129.667 756.195 127.667 754.715 126.067C753.235 124.467 751.215 123.667 748.655 123.667ZM295.045 236.087H266.425V234.167C266.425 231.247 266.985 228.747 268.105 226.667C269.225 224.547 270.525 222.867 272.005 221.627C273.485 220.347 275.265 219.047 277.345 217.727L283.105 214.067C284.785 212.947 286.165 211.747 287.245 210.467C288.325 209.147 288.865 207.547 288.865 205.667C288.865 203.227 288.205 201.387 286.885 200.147C285.565 198.907 283.665 198.287 281.185 198.287C278.705 198.287 276.705 199.107 275.185 200.747C273.705 202.387 272.805 204.667 272.485 207.587L266.425 206.987C266.705 204.107 267.545 201.627 268.945 199.547C270.345 197.467 272.105 195.907 274.225 194.867C276.345 193.787 278.665 193.247 281.185 193.247C283.745 193.247 286.085 193.687 288.205 194.567C290.325 195.447 292.025 196.807 293.305 198.647C294.585 200.487 295.225 202.747 295.225 205.427C295.225 207.667 294.785 209.607 293.905 211.247C293.025 212.847 291.985 214.147 290.785 215.147C289.585 216.107 288.105 217.127 286.345 218.207L285.025 219.047L279.805 222.467C277.525 223.947 275.865 225.387 274.825 226.787C273.825 228.187 273.265 229.467 273.145 230.627H295.045V236.087ZM312.994 236.087H306.934V203.927H298.534V199.727H299.794C302.194 199.727 304.034 199.207 305.314 198.167C306.634 197.087 307.454 195.707 307.774 194.027H312.994V236.087ZM338.977 213.887C338.537 212.087 337.637 210.727 336.277 209.807C334.917 208.847 333.337 208.367 331.537 208.367C329.657 208.367 328.157 208.767 327.037 209.567C325.917 210.367 325.357 211.507 325.357 212.987C325.357 214.227 325.857 215.127 326.857 215.687C327.897 216.247 329.457 216.707 331.537 217.067L334.657 217.547C338.017 218.147 340.617 219.107 342.457 220.427C344.337 221.707 345.277 223.867 345.277 226.907C345.277 230.067 344.017 232.507 341.497 234.227C339.017 235.947 335.797 236.807 331.837 236.807C327.917 236.807 324.717 235.907 322.237 234.107C319.757 232.267 318.237 229.867 317.677 226.907L323.257 225.707C323.737 227.907 324.717 229.547 326.197 230.627C327.717 231.667 329.637 232.187 331.957 232.187C334.077 232.187 335.777 231.747 337.057 230.867C338.337 229.947 338.977 228.687 338.977 227.087C338.977 225.767 338.417 224.787 337.297 224.147C336.217 223.507 334.577 223.007 332.377 222.647L329.137 222.107C326.097 221.587 323.657 220.687 321.817 219.407C320.017 218.127 319.117 216.007 319.117 213.047C319.117 211.247 319.637 209.647 320.677 208.247C321.757 206.807 323.237 205.687 325.117 204.887C327.037 204.087 329.197 203.687 331.597 203.687C333.837 203.687 335.897 204.107 337.777 204.947C339.657 205.747 341.177 206.847 342.337 208.247C343.537 209.607 344.277 211.087 344.557 212.687L338.977 213.887ZM364.328 230.807V236.087C363.448 236.167 361.948 236.207 359.828 236.207C356.868 236.207 354.748 235.727 353.468 234.767C352.228 233.807 351.608 231.967 351.608 229.247V209.027H346.388V204.407H351.608V195.467H357.728V204.407H364.688V209.027H357.728V227.627C357.728 229.027 357.988 229.927 358.508 230.327C359.028 230.727 359.968 230.927 361.328 230.927L364.328 230.807ZM393.58 231.827C397.82 231.827 400.58 229.567 401.86 225.047L408.04 225.947C407.28 228.787 405.72 231.307 403.36 233.507C401.04 235.707 397.78 236.807 393.58 236.807C390.62 236.807 388 236.127 385.72 234.767C383.48 233.367 381.74 231.427 380.5 228.947C379.26 226.427 378.64 223.527 378.64 220.247C378.64 216.967 379.26 214.087 380.5 211.607C381.74 209.087 383.48 207.147 385.72 205.787C388 204.387 390.64 203.687 393.64 203.687C397.64 203.687 400.72 204.667 402.88 206.627C405.08 208.547 406.58 210.587 407.38 212.747L401.62 214.607C401.1 213.087 400.22 211.727 398.98 210.527C397.78 209.287 396 208.667 393.64 208.667C390.96 208.667 388.82 209.707 387.22 211.787C385.66 213.827 384.88 216.647 384.88 220.247C384.88 223.807 385.66 226.627 387.22 228.707C388.82 230.787 390.94 231.827 393.58 231.827ZM439.976 226.847C439.096 229.607 437.496 231.967 435.176 233.927C432.856 235.847 429.576 236.807 425.336 236.807C422.416 236.807 419.816 236.127 417.536 234.767C415.296 233.367 413.556 231.427 412.316 228.947C411.076 226.427 410.456 223.547 410.456 220.307C410.456 217.027 411.056 214.127 412.256 211.607C413.496 209.087 415.216 207.147 417.416 205.787C419.656 204.387 422.276 203.687 425.276 203.687C428.196 203.687 430.776 204.347 433.016 205.667C435.296 206.947 437.056 208.807 438.296 211.247C439.576 213.647 440.216 216.507 440.216 219.827C440.216 220.667 440.196 221.307 440.156 221.747H416.636C416.716 224.707 417.536 227.127 419.096 229.007C420.696 230.887 422.776 231.827 425.336 231.827C427.776 231.827 429.656 231.267 430.976 230.147C432.296 228.987 433.236 227.647 433.796 226.127L439.976 226.847ZM425.276 208.667C422.796 208.667 420.816 209.487 419.336 211.127C417.896 212.727 417.036 214.707 416.756 217.067H433.976C433.696 214.667 432.816 212.667 431.336 211.067C429.856 209.467 427.836 208.667 425.276 208.667ZM450.348 208.607C451.508 206.927 452.928 205.687 454.608 204.887C456.288 204.087 458.148 203.687 460.188 203.687C462.188 203.687 464.028 204.107 465.708 204.947C467.428 205.747 468.808 207.007 469.848 208.727C470.888 210.407 471.408 212.527 471.408 215.087V236.087H465.288V216.947C465.288 214.027 464.708 211.947 463.548 210.707C462.388 209.467 460.628 208.847 458.268 208.847C456.908 208.847 455.628 209.227 454.428 209.987C453.228 210.747 452.248 211.867 451.488 213.347C450.768 214.827 450.408 216.607 450.408 218.687V236.087H444.288V204.407H450.108V208.607H450.348ZM491.887 230.807V236.087C491.007 236.167 489.507 236.207 487.387 236.207C484.427 236.207 482.307 235.727 481.027 234.767C479.787 233.807 479.167 231.967 479.167 229.247V209.027H473.947V204.407H479.167V195.467H485.287V204.407H492.247V209.027H485.287V227.627C485.287 229.027 485.547 229.927 486.067 230.327C486.587 230.727 487.527 230.927 488.887 230.927L491.887 230.807ZM516.793 231.887C514.553 235.167 511.273 236.807 506.953 236.807C503.793 236.807 501.133 235.847 498.973 233.927C496.813 232.007 495.733 229.167 495.733 225.407V204.407H501.853V223.547C501.853 226.467 502.433 228.547 503.593 229.787C504.753 231.027 506.513 231.647 508.873 231.647C510.273 231.647 511.553 231.267 512.713 230.507C513.913 229.747 514.873 228.627 515.593 227.147C516.353 225.667 516.733 223.887 516.733 221.807V204.407H522.853V236.087H517.033V231.887H516.793ZM533.486 209.207H533.726C534.566 207.607 535.806 206.287 537.446 205.247C539.086 204.207 540.986 203.687 543.146 203.687C544.146 203.687 545.086 203.787 545.966 203.987V209.867C544.846 209.707 543.806 209.627 542.846 209.627C540.086 209.627 537.886 210.407 536.246 211.967C534.606 213.487 533.786 215.927 533.786 219.287V236.087H527.666V204.407H533.486V209.207ZM566.544 236.087C565.304 239.367 564.084 241.847 562.884 243.527C561.684 245.247 560.444 246.387 559.164 246.947C557.884 247.547 556.364 247.847 554.604 247.847C552.924 247.847 551.684 247.787 550.884 247.667V242.267C551.004 242.267 551.284 242.307 551.724 242.387C552.204 242.507 552.884 242.567 553.764 242.567C555.364 242.567 556.564 242.167 557.364 241.367C558.164 240.567 559.044 239.067 560.004 236.867L560.484 235.667L547.764 204.407H554.364L563.304 228.407H563.544L571.944 204.407H578.544L566.544 236.087Z" fill="#452E66"/>
</g>
<defs>
<radialGradient id="paint0_angular_474:30265" cx="0" cy="0" r="1" gradientUnits="userSpaceOnUse" gradientTransform="translate(500.132 1251.45) rotate(90) scale(677.625 1563.71)">
<stop stop-color="#EBB9F2"/>
<stop offset="0.541667" stop-color="#F6AAAA"/>
<stop offset="1" stop-color="#A566FF"/>
</radialGradient>
</defs>
</svg>
