<svg width="377" height="96" viewBox="0 0 377 96" fill="none" xmlns="http://www.w3.org/2000/svg">
<path d="M12.537 15.954V37H8.79695V15.954H0.670953V12.724H20.663V15.954H12.537ZM27.711 18.64C29.4564 18.64 30.9864 19.0367 32.301 19.83C33.6157 20.6007 34.6244 21.7 35.327 23.128C36.0524 24.5333 36.415 26.1653 36.415 28.024C36.415 29.8827 36.0524 31.526 35.327 32.954C34.6244 34.3593 33.6157 35.4587 32.301 36.252C30.9864 37.0227 29.4564 37.408 27.711 37.408C25.9657 37.408 24.4357 37.0227 23.121 36.252C21.8064 35.4587 20.7864 34.3593 20.061 32.954C19.3584 31.526 19.007 29.8827 19.007 28.024C19.007 26.1653 19.3584 24.5333 20.061 23.128C20.7864 21.7 21.8064 20.6007 23.121 19.83C24.4357 19.0367 25.9657 18.64 27.711 18.64ZM27.711 34.586C29.2977 34.586 30.5444 34.008 31.451 32.852C32.3804 31.6733 32.845 30.064 32.845 28.024C32.845 25.984 32.3804 24.386 31.451 23.23C30.5444 22.0513 29.2977 21.462 27.711 21.462C26.1244 21.462 24.8664 22.0513 23.937 23.23C23.0077 24.386 22.543 25.984 22.543 28.024C22.543 30.064 23.0077 31.6733 23.937 32.852C24.8664 34.008 26.1244 34.586 27.711 34.586ZM42.2105 37H38.7425V12.384H42.2105V26.29L49.5205 19.048H53.8725L46.8345 25.916L54.6545 37H50.5065L44.3865 28.194L42.2105 30.268V37ZM70.3659 31.764C69.8672 33.328 68.9606 34.6653 67.6459 35.776C66.3312 36.864 64.4726 37.408 62.0699 37.408C60.4152 37.408 58.9419 37.0227 57.6499 36.252C56.3806 35.4587 55.3946 34.3593 54.6919 32.954C53.9892 31.526 53.6379 29.894 53.6379 28.058C53.6379 26.1993 53.9779 24.556 54.6579 23.128C55.3606 21.7 56.3352 20.6007 57.5819 19.83C58.8512 19.0367 60.3359 18.64 62.0359 18.64C63.6906 18.64 65.1526 19.014 66.4219 19.762C67.7139 20.4873 68.7112 21.5413 69.4139 22.924C70.1392 24.284 70.5019 25.9047 70.5019 27.786C70.5019 28.262 70.4906 28.6247 70.4679 28.874H57.1399C57.1852 30.5513 57.6499 31.9227 58.5339 32.988C59.4406 34.0533 60.6192 34.586 62.0699 34.586C63.4526 34.586 64.5179 34.2687 65.2659 33.634C66.0139 32.9767 66.5466 32.2173 66.8639 31.356L70.3659 31.764ZM62.0359 21.462C60.6306 21.462 59.5086 21.9267 58.6699 22.856C57.8539 23.7627 57.3666 24.8847 57.2079 26.222H66.9659C66.8072 24.862 66.3086 23.7287 65.4699 22.822C64.6312 21.9153 63.4866 21.462 62.0359 21.462ZM76.2429 21.428C76.9002 20.476 77.7049 19.7733 78.6569 19.32C79.6089 18.8667 80.6629 18.64 81.8189 18.64C82.9522 18.64 83.9949 18.878 84.9469 19.354C85.9215 19.8073 86.7035 20.5213 87.2929 21.496C87.8822 22.448 88.1769 23.6493 88.1769 25.1V37H84.7089V26.154C84.7089 24.4993 84.3802 23.3207 83.7229 22.618C83.0655 21.9153 82.0682 21.564 80.7309 21.564C79.9602 21.564 79.2349 21.7793 78.5549 22.21C77.8749 22.6407 77.3195 23.2753 76.8889 24.114C76.4809 24.9527 76.2769 25.9613 76.2769 27.14V37H72.8089V19.048H76.1069V21.428H76.2429ZM94.4406 19.048V37H90.9726V19.048H94.4406ZM94.4406 12.384V16.158H90.9726V12.384H94.4406ZM96.5632 33.838L106.559 22.108H97.0732V19.048H110.809V22.244L100.813 34.008H110.809V37H96.5632V33.838ZM116.388 19.048V37H112.92V19.048H116.388ZM116.388 12.384V16.158H112.92V12.384H116.388ZM122.76 21.428C123.418 20.476 124.222 19.7733 125.174 19.32C126.126 18.8667 127.18 18.64 128.336 18.64C129.47 18.64 130.512 18.878 131.464 19.354C132.439 19.8073 133.221 20.5213 133.81 21.496C134.4 22.448 134.694 23.6493 134.694 25.1V37H131.226V26.154C131.226 24.4993 130.898 23.3207 130.24 22.618C129.583 21.9153 128.586 21.564 127.248 21.564C126.478 21.564 125.752 21.7793 125.072 22.21C124.392 22.6407 123.837 23.2753 123.406 24.114C122.998 24.9527 122.794 25.9613 122.794 27.14V37H119.326V19.048H122.624V21.428H122.76ZM153.708 35.742C153.708 38.462 152.937 40.4567 151.396 41.726C149.855 43.018 147.826 43.664 145.31 43.664C143.293 43.664 141.559 43.1993 140.108 42.27C138.68 41.3407 137.694 39.9127 137.15 37.986L140.482 37.272C140.822 38.5413 141.389 39.448 142.182 39.992C142.998 40.536 144.041 40.808 145.31 40.808C148.597 40.808 150.24 39.0627 150.24 35.572V33.77H150.104C149.605 34.4727 148.903 35.028 147.996 35.436C147.089 35.844 146.047 36.048 144.868 36.048C143.327 36.048 141.944 35.6853 140.72 34.96C139.519 34.2347 138.578 33.2147 137.898 31.9C137.218 30.5853 136.878 29.0667 136.878 27.344C136.878 25.644 137.218 24.1367 137.898 22.822C138.578 21.4847 139.519 20.4533 140.72 19.728C141.944 19.0027 143.327 18.64 144.868 18.64C146.092 18.64 147.18 18.8667 148.132 19.32C149.084 19.7507 149.798 20.3513 150.274 21.122H150.41V19.048H153.708V35.742ZM145.446 33.294C146.965 33.294 148.177 32.75 149.084 31.662C149.991 30.574 150.444 29.1347 150.444 27.344C150.444 25.576 149.991 24.1593 149.084 23.094C148.177 22.006 146.965 21.462 145.446 21.462C143.927 21.462 142.703 22.006 141.774 23.094C140.867 24.1593 140.414 25.576 140.414 27.344C140.414 29.112 140.867 30.5513 141.774 31.662C142.703 32.75 143.927 33.294 145.446 33.294ZM171.899 34.008V37C171.4 37.0453 170.55 37.068 169.349 37.068C167.672 37.068 166.47 36.796 165.745 36.252C165.042 35.708 164.691 34.6653 164.691 33.124V21.666H161.733V19.048H164.691V13.982H168.159V19.048H172.103V21.666H168.159V32.206C168.159 32.9993 168.306 33.5093 168.601 33.736C168.896 33.9627 169.428 34.076 170.199 34.076L171.899 34.008ZM177.682 21.428C178.974 19.5693 180.81 18.64 183.19 18.64C184.301 18.64 185.332 18.878 186.284 19.354C187.236 19.8073 187.996 20.5213 188.562 21.496C189.152 22.4707 189.446 23.672 189.446 25.1V37H185.978V26.154C185.978 24.4993 185.65 23.3207 184.992 22.618C184.335 21.9153 183.338 21.564 182 21.564C181.252 21.564 180.538 21.802 179.858 22.278C179.178 22.754 178.623 23.4453 178.192 24.352C177.762 25.236 177.546 26.2673 177.546 27.446V37H174.078V12.384H177.546V21.428H177.682ZM208.358 31.764C207.859 33.328 206.953 34.6653 205.638 35.776C204.323 36.864 202.465 37.408 200.062 37.408C198.407 37.408 196.934 37.0227 195.642 36.252C194.373 35.4587 193.387 34.3593 192.684 32.954C191.981 31.526 191.63 29.894 191.63 28.058C191.63 26.1993 191.97 24.556 192.65 23.128C193.353 21.7 194.327 20.6007 195.574 19.83C196.843 19.0367 198.328 18.64 200.028 18.64C201.683 18.64 203.145 19.014 204.414 19.762C205.706 20.4873 206.703 21.5413 207.406 22.924C208.131 24.284 208.494 25.9047 208.494 27.786C208.494 28.262 208.483 28.6247 208.46 28.874H195.132C195.177 30.5513 195.642 31.9227 196.526 32.988C197.433 34.0533 198.611 34.586 200.062 34.586C201.445 34.586 202.51 34.2687 203.258 33.634C204.006 32.9767 204.539 32.2173 204.856 31.356L208.358 31.764ZM200.028 21.462C198.623 21.462 197.501 21.9267 196.662 22.856C195.846 23.7627 195.359 24.8847 195.2 26.222H204.958C204.799 24.862 204.301 23.7287 203.462 22.822C202.623 21.9153 201.479 21.462 200.028 21.462ZM214.337 19.048V37H210.869V19.048H214.337ZM214.337 12.384V16.158H210.869V12.384H214.337ZM220.574 21.768H220.71C221.186 20.8613 221.888 20.1133 222.818 19.524C223.747 18.9347 224.824 18.64 226.048 18.64C226.614 18.64 227.147 18.6967 227.646 18.81V22.142C227.011 22.0513 226.422 22.006 225.878 22.006C224.314 22.006 223.067 22.448 222.138 23.332C221.208 24.1933 220.744 25.576 220.744 27.48V37H217.276V19.048H220.574V21.768ZM77.27 85.408C76.046 85.408 74.958 85.1927 74.006 84.762C73.0767 84.3087 72.3627 83.6967 71.864 82.926H71.728V91.256H68.26V67.048H71.558V69.36H71.694C72.1927 68.4987 72.9294 67.83 73.904 67.354C74.8787 66.878 76.0007 66.64 77.27 66.64C78.8567 66.64 80.262 67.0367 81.486 67.83C82.7327 68.6007 83.696 69.7 84.376 71.128C85.0787 72.5333 85.43 74.1653 85.43 76.024C85.43 77.8827 85.0787 79.526 84.376 80.954C83.696 82.3593 82.7327 83.4587 81.486 84.252C80.262 85.0227 78.8567 85.408 77.27 85.408ZM76.658 69.462C75.094 69.462 73.836 70.0513 72.884 71.23C71.9547 72.4087 71.49 74.0067 71.49 76.024C71.49 78.0413 71.9547 79.6393 72.884 80.818C73.836 81.9967 75.094 82.586 76.658 82.586C78.2674 82.586 79.5367 82.008 80.466 80.852C81.418 79.6733 81.894 78.064 81.894 76.024C81.894 73.984 81.418 72.386 80.466 71.23C79.5367 70.0513 78.2674 69.462 76.658 69.462ZM91.0483 69.768H91.1843C91.6603 68.8613 92.3629 68.1133 93.2923 67.524C94.2216 66.9347 95.2983 66.64 96.5223 66.64C97.0889 66.64 97.6216 66.6967 98.1203 66.81V70.142C97.4856 70.0513 96.8963 70.006 96.3523 70.006C94.7883 70.006 93.5416 70.448 92.6123 71.332C91.6829 72.1933 91.2183 73.576 91.2183 75.48V85H87.7503V67.048H91.0483V69.768ZM107.963 66.64C109.708 66.64 111.238 67.0367 112.553 67.83C113.868 68.6007 114.876 69.7 115.579 71.128C116.304 72.5333 116.667 74.1653 116.667 76.024C116.667 77.8827 116.304 79.526 115.579 80.954C114.876 82.3593 113.868 83.4587 112.553 84.252C111.238 85.0227 109.708 85.408 107.963 85.408C106.218 85.408 104.688 85.0227 103.373 84.252C102.058 83.4587 101.038 82.3593 100.313 80.954C99.6103 79.526 99.259 77.8827 99.259 76.024C99.259 74.1653 99.6103 72.5333 100.313 71.128C101.038 69.7 102.058 68.6007 103.373 67.83C104.688 67.0367 106.218 66.64 107.963 66.64ZM107.963 82.586C109.55 82.586 110.796 82.008 111.703 80.852C112.632 79.6733 113.097 78.064 113.097 76.024C113.097 73.984 112.632 72.386 111.703 71.23C110.796 70.0513 109.55 69.462 107.963 69.462C106.376 69.462 105.118 70.0513 104.189 71.23C103.26 72.386 102.795 73.984 102.795 76.024C102.795 78.064 103.26 79.6733 104.189 80.852C105.118 82.008 106.376 82.586 107.963 82.586ZM126.61 66.64C127.834 66.64 128.911 66.8667 129.84 67.32C130.792 67.7733 131.518 68.3853 132.016 69.156H132.152V60.384H135.62V85H132.322V82.688H132.186C131.71 83.5267 130.974 84.1953 129.976 84.694C129.002 85.17 127.88 85.408 126.61 85.408C125.024 85.408 123.607 85.0227 122.36 84.252C121.136 83.4587 120.173 82.3593 119.47 80.954C118.79 79.526 118.45 77.8827 118.45 76.024C118.45 74.1653 118.79 72.5333 119.47 71.128C120.173 69.7 121.136 68.6007 122.36 67.83C123.607 67.0367 125.024 66.64 126.61 66.64ZM127.188 82.586C128.775 82.586 130.033 82.008 130.962 80.852C131.892 79.6733 132.356 78.064 132.356 76.024C132.356 73.984 131.892 72.386 130.962 71.23C130.033 70.0513 128.775 69.462 127.188 69.462C125.602 69.462 124.332 70.0513 123.38 71.23C122.451 72.386 121.986 73.984 121.986 76.024C121.986 78.064 122.451 79.6733 123.38 80.852C124.332 82.008 125.602 82.586 127.188 82.586ZM150.286 82.62C149.016 84.4787 147.158 85.408 144.71 85.408C142.919 85.408 141.412 84.864 140.188 83.776C138.964 82.688 138.352 81.0787 138.352 78.948V67.048H141.82V77.894C141.82 79.5487 142.148 80.7273 142.806 81.43C143.463 82.1327 144.46 82.484 145.798 82.484C146.591 82.484 147.316 82.2687 147.974 81.838C148.654 81.4073 149.198 80.7727 149.606 79.934C150.036 79.0953 150.252 78.0867 150.252 76.908V67.048H153.72V85H150.422V82.62H150.286ZM164.37 82.586C166.772 82.586 168.336 81.3053 169.062 78.744L172.564 79.254C172.133 80.8633 171.249 82.2913 169.912 83.538C168.597 84.7847 166.75 85.408 164.37 85.408C162.692 85.408 161.208 85.0227 159.916 84.252C158.646 83.4587 157.66 82.3593 156.958 80.954C156.255 79.526 155.904 77.8827 155.904 76.024C155.904 74.1653 156.255 72.5333 156.958 71.128C157.66 69.7 158.646 68.6007 159.916 67.83C161.208 67.0367 162.704 66.64 164.404 66.64C166.67 66.64 168.416 67.1953 169.64 68.306C170.886 69.394 171.736 70.55 172.19 71.774L168.926 72.828C168.631 71.9667 168.132 71.196 167.43 70.516C166.75 69.8133 165.741 69.462 164.404 69.462C162.885 69.462 161.672 70.0513 160.766 71.23C159.882 72.386 159.44 73.984 159.44 76.024C159.44 78.0413 159.882 79.6393 160.766 80.818C161.672 81.9967 162.874 82.586 164.37 82.586ZM183.487 82.008V85C182.988 85.0453 182.138 85.068 180.937 85.068C179.259 85.068 178.058 84.796 177.333 84.252C176.63 83.708 176.279 82.6653 176.279 81.124V69.666H173.321V67.048H176.279V61.982H179.747V67.048H183.691V69.666H179.747V80.206C179.747 80.9993 179.894 81.5093 180.189 81.736C180.483 81.9627 181.016 82.076 181.787 82.076L183.487 82.008ZM189.202 67.048V85H185.734V67.048H189.202ZM189.202 60.384V64.158H185.734V60.384H189.202ZM200.301 66.64C202.046 66.64 203.576 67.0367 204.891 67.83C206.206 68.6007 207.214 69.7 207.917 71.128C208.642 72.5333 209.005 74.1653 209.005 76.024C209.005 77.8827 208.642 79.526 207.917 80.954C207.214 82.3593 206.206 83.4587 204.891 84.252C203.576 85.0227 202.046 85.408 200.301 85.408C198.556 85.408 197.026 85.0227 195.711 84.252C194.396 83.4587 193.376 82.3593 192.651 80.954C191.948 79.526 191.597 77.8827 191.597 76.024C191.597 74.1653 191.948 72.5333 192.651 71.128C193.376 69.7 194.396 68.6007 195.711 67.83C197.026 67.0367 198.556 66.64 200.301 66.64ZM200.301 82.586C201.888 82.586 203.134 82.008 204.041 80.852C204.97 79.6733 205.435 78.064 205.435 76.024C205.435 73.984 204.97 72.386 204.041 71.23C203.134 70.0513 201.888 69.462 200.301 69.462C198.714 69.462 197.456 70.0513 196.527 71.23C195.598 72.386 195.133 73.984 195.133 76.024C195.133 78.064 195.598 79.6733 196.527 80.852C197.456 82.008 198.714 82.586 200.301 82.586ZM214.766 69.428C215.424 68.476 216.228 67.7733 217.18 67.32C218.132 66.8667 219.186 66.64 220.342 66.64C221.476 66.64 222.518 66.878 223.47 67.354C224.445 67.8073 225.227 68.5213 225.816 69.496C226.406 70.448 226.7 71.6493 226.7 73.1V85H223.232V74.154C223.232 72.4993 222.904 71.3207 222.246 70.618C221.589 69.9153 220.592 69.564 219.254 69.564C218.484 69.564 217.758 69.7793 217.078 70.21C216.398 70.6407 215.843 71.2753 215.412 72.114C215.004 72.9527 214.8 73.9613 214.8 75.14V85H211.332V67.048H214.63V69.428H214.766Z" fill="white"/>
<line opacity="0.2" y1="-0.5" x2="121" y2="-0.5" transform="matrix(-1 0 0 1 376.375 25.0869)" stroke="white"/>
<rect width="17" height="17" rx="8.5" transform="matrix(-1 0 0 1 265.375 16.0869)" fill="#92EAEA"/>
</svg>
