<svg width="533" height="49" viewBox="0 0 533 49" fill="none" xmlns="http://www.w3.org/2000/svg">
<line opacity="0.2" x1="0.703125" y1="28.5869" x2="121.703" y2="28.5869" stroke="white"/>
<rect x="112.375" y="20.0869" width="17" height="17" rx="8.5" fill="#F6AAAA"/>
<path d="M175.649 12.8109C177.984 12.8109 179.797 13.4116 181.089 14.6129C182.381 15.8142 183.027 17.4236 183.027 19.4409C183.027 20.5516 182.778 21.5149 182.279 22.3309C181.78 23.1242 181.021 23.7249 180.001 24.1329V24.2689C182.562 25.1982 183.843 27.1362 183.843 30.0829C183.843 32.2362 183.163 33.9476 181.803 35.2169C180.443 36.4636 178.528 37.0869 176.057 37.0869H164.939V12.8109H175.649ZM175.105 23.1129C176.442 23.1129 177.462 22.8069 178.165 22.1949C178.868 21.5829 179.219 20.6989 179.219 19.5429C179.219 18.3869 178.868 17.5029 178.165 16.8909C177.462 16.2562 176.442 15.9389 175.105 15.9389H168.679V23.1129H175.105ZM175.513 33.8909C176.986 33.8909 178.108 33.5509 178.879 32.8709C179.65 32.1909 180.035 31.2162 180.035 29.9469C180.035 28.7002 179.65 27.7369 178.879 27.0569C178.108 26.3769 176.986 26.0369 175.513 26.0369H168.679V33.8909H175.513ZM195.367 37.0869C194.664 38.9456 193.973 40.3509 193.293 41.3029C192.613 42.2776 191.91 42.9236 191.185 43.2409C190.459 43.5809 189.598 43.7509 188.601 43.7509C187.649 43.7509 186.946 43.7169 186.493 43.6489V40.5889C186.561 40.5889 186.719 40.6116 186.969 40.6569C187.241 40.7249 187.626 40.7589 188.125 40.7589C189.031 40.7589 189.711 40.5322 190.165 40.0789C190.618 39.6256 191.117 38.7756 191.661 37.5289L191.933 36.8489L184.725 19.1349H188.465L193.531 32.7349H193.667L198.427 19.1349H202.167L195.367 37.0869ZM217.675 18.7269C218.899 18.7269 219.976 18.9536 220.905 19.4069C221.857 19.8602 222.582 20.4722 223.081 21.2429H223.217V12.4709H226.685V37.0869H223.387V34.7749H223.251C222.775 35.6136 222.038 36.2822 221.041 36.7809C220.066 37.2569 218.944 37.4949 217.675 37.4949C216.088 37.4949 214.672 37.1096 213.425 36.3389C212.201 35.5456 211.238 34.4462 210.535 33.0409C209.855 31.6129 209.515 29.9696 209.515 28.1109C209.515 26.2522 209.855 24.6202 210.535 23.2149C211.238 21.7869 212.201 20.6876 213.425 19.9169C214.672 19.1236 216.088 18.7269 217.675 18.7269ZM218.253 34.6729C219.84 34.6729 221.098 34.0949 222.027 32.9389C222.956 31.7602 223.421 30.1509 223.421 28.1109C223.421 26.0709 222.956 24.4729 222.027 23.3169C221.098 22.1382 219.84 21.5489 218.253 21.5489C216.666 21.5489 215.397 22.1382 214.445 23.3169C213.516 24.4729 213.051 26.0709 213.051 28.1109C213.051 30.1509 213.516 31.7602 214.445 32.9389C215.397 34.0949 216.666 34.6729 218.253 34.6729ZM232.952 19.1349V37.0869H229.484V19.1349H232.952ZM232.952 12.4709V16.2449H229.484V12.4709H232.952ZM252.177 35.8289C252.177 38.5489 251.406 40.5436 249.865 41.8129C248.324 43.1049 246.295 43.7509 243.779 43.7509C241.762 43.7509 240.028 43.2862 238.577 42.3569C237.149 41.4276 236.163 39.9996 235.619 38.0729L238.951 37.3589C239.291 38.6282 239.858 39.5349 240.651 40.0789C241.467 40.6229 242.51 40.8949 243.779 40.8949C247.066 40.8949 248.709 39.1496 248.709 35.6589V33.8569H248.573C248.074 34.5596 247.372 35.1149 246.465 35.5229C245.558 35.9309 244.516 36.1349 243.337 36.1349C241.796 36.1349 240.413 35.7722 239.189 35.0469C237.988 34.3216 237.047 33.3016 236.367 31.9869C235.687 30.6722 235.347 29.1536 235.347 27.4309C235.347 25.7309 235.687 24.2236 236.367 22.9089C237.047 21.5716 237.988 20.5402 239.189 19.8149C240.413 19.0896 241.796 18.7269 243.337 18.7269C244.561 18.7269 245.649 18.9536 246.601 19.4069C247.553 19.8376 248.267 20.4382 248.743 21.2089H248.879V19.1349H252.177V35.8289ZM243.915 33.3809C245.434 33.3809 246.646 32.8369 247.553 31.7489C248.46 30.6609 248.913 29.2216 248.913 27.4309C248.913 25.6629 248.46 24.2462 247.553 23.1809C246.646 22.0929 245.434 21.5489 243.915 21.5489C242.396 21.5489 241.172 22.0929 240.243 23.1809C239.336 24.2462 238.883 25.6629 238.883 27.4309C238.883 29.1989 239.336 30.6382 240.243 31.7489C241.172 32.8369 242.396 33.3809 243.915 33.3809ZM258.419 19.1349V37.0869H254.951V19.1349H258.419ZM258.419 12.4709V16.2449H254.951V12.4709H258.419ZM270.368 34.0949V37.0869C269.869 37.1322 269.019 37.1549 267.818 37.1549C266.14 37.1549 264.939 36.8829 264.214 36.3389C263.511 35.7949 263.16 34.7522 263.16 33.2109V21.7529H260.202V19.1349H263.16V14.0689H266.628V19.1349H270.572V21.7529H266.628V32.2929C266.628 33.0862 266.775 33.5962 267.07 33.8229C267.364 34.0496 267.897 34.1629 268.668 34.1629L270.368 34.0949ZM276.083 19.1349V37.0869H272.615V19.1349H276.083ZM276.083 12.4709V16.2449H272.615V12.4709H276.083ZM278.206 33.9249L288.202 22.1949H278.716V19.1349H292.452V22.3309L282.456 34.0949H292.452V37.0869H278.206V33.9249ZM298.03 19.1349V37.0869H294.562V19.1349H298.03ZM298.03 12.4709V16.2449H294.562V12.4709H298.03ZM304.403 21.5149C305.06 20.5629 305.865 19.8602 306.817 19.4069C307.769 18.9536 308.823 18.7269 309.979 18.7269C311.112 18.7269 312.155 18.9649 313.107 19.4409C314.082 19.8942 314.864 20.6082 315.453 21.5829C316.042 22.5349 316.337 23.7362 316.337 25.1869V37.0869H312.869V26.2409C312.869 24.5862 312.54 23.4076 311.883 22.7049C311.226 22.0022 310.228 21.6509 308.891 21.6509C308.12 21.6509 307.395 21.8662 306.715 22.2969C306.035 22.7276 305.48 23.3622 305.049 24.2009C304.641 25.0396 304.437 26.0482 304.437 27.2269V37.0869H300.969V19.1349H304.267V21.5149H304.403ZM335.351 35.8289C335.351 38.5489 334.58 40.5436 333.039 41.8129C331.497 43.1049 329.469 43.7509 326.953 43.7509C324.935 43.7509 323.201 43.2862 321.751 42.3569C320.323 41.4276 319.337 39.9996 318.793 38.0729L322.125 37.3589C322.465 38.6282 323.031 39.5349 323.825 40.0789C324.641 40.6229 325.683 40.8949 326.953 40.8949C330.239 40.8949 331.883 39.1496 331.883 35.6589V33.8569H331.747C331.248 34.5596 330.545 35.1149 329.639 35.5229C328.732 35.9309 327.689 36.1349 326.511 36.1349C324.969 36.1349 323.587 35.7722 322.363 35.0469C321.161 34.3216 320.221 33.3016 319.541 31.9869C318.861 30.6722 318.521 29.1536 318.521 27.4309C318.521 25.7309 318.861 24.2236 319.541 22.9089C320.221 21.5716 321.161 20.5402 322.363 19.8149C323.587 19.0896 324.969 18.7269 326.511 18.7269C327.735 18.7269 328.823 18.9536 329.775 19.4069C330.727 19.8376 331.441 20.4382 331.917 21.2089H332.053V19.1349H335.351V35.8289ZM327.089 33.3809C328.607 33.3809 329.82 32.8369 330.727 31.7489C331.633 30.6609 332.087 29.2216 332.087 27.4309C332.087 25.6629 331.633 24.2462 330.727 23.1809C329.82 22.0929 328.607 21.5489 327.089 21.5489C325.57 21.5489 324.346 22.0929 323.417 23.1809C322.51 24.2462 322.057 25.6629 322.057 27.4309C322.057 29.1989 322.51 30.6382 323.417 31.7489C324.346 32.8369 325.57 33.3809 327.089 33.3809ZM354.426 27.5329H348.408V37.0869H344.668V12.8109H355.922C358.596 12.8109 360.659 13.4796 362.11 14.8169C363.583 16.1316 364.32 17.9222 364.32 20.1889C364.32 22.0476 363.821 23.6002 362.824 24.8469C361.826 26.0709 360.398 26.8756 358.54 27.2609L364.694 37.0869H360.308L354.426 27.5329ZM355.446 24.4049C357.1 24.4049 358.358 24.0422 359.22 23.3169C360.081 22.5916 360.512 21.5489 360.512 20.1889C360.512 18.8289 360.081 17.7862 359.22 17.0609C358.358 16.3129 357.1 15.9389 355.446 15.9389H348.408V24.4049H355.446ZM383.201 23.0449V26.1049H370.587V33.8569H383.745V37.0869H366.847V12.8109H383.745V15.9389H370.587V23.0449H383.201ZM400.02 14.9869C399.385 14.9869 398.875 15.1229 398.49 15.3949C398.127 15.6669 397.946 16.2109 397.946 17.0269V19.1349H401.89V21.7529H397.946V37.0869H394.478V21.7529H391.52V19.1349H394.478V16.6869C394.478 13.6042 396.155 12.0629 399.51 12.0629C400.53 12.0629 401.459 12.1422 402.298 12.3009V15.1229C401.573 15.0322 400.813 14.9869 400.02 14.9869ZM414.701 37.0869C414.543 36.9282 414.407 36.6336 414.293 36.2029C414.203 35.7722 414.157 35.2736 414.157 34.7069C413.613 35.6362 412.763 36.3389 411.607 36.8149C410.474 37.2682 409.307 37.4949 408.105 37.4949C407.04 37.4949 406.054 37.2796 405.147 36.8489C404.241 36.3956 403.515 35.7722 402.971 34.9789C402.45 34.1629 402.189 33.2109 402.189 32.1229C402.189 30.2869 402.824 28.9382 404.093 28.0769C405.363 27.1929 407.278 26.6149 409.839 26.3429C411.494 26.1842 412.616 25.9462 413.205 25.6289C413.817 25.3116 414.123 24.8582 414.123 24.2689C414.123 22.4782 412.865 21.5829 410.349 21.5829C409.375 21.5829 408.491 21.8436 407.697 22.3649C406.904 22.8636 406.349 23.6116 406.031 24.6089L402.869 23.8609C403.255 22.2742 404.139 21.0276 405.521 20.1209C406.904 19.1916 408.559 18.7269 410.485 18.7269C412.933 18.7269 414.724 19.2369 415.857 20.2569C417.013 21.2542 417.591 22.5689 417.591 24.2009V33.2109C417.591 34.3442 417.614 35.1829 417.659 35.7269C417.727 36.2482 417.863 36.7016 418.067 37.0869H414.701ZM414.123 27.8389C413.874 28.1109 413.341 28.3376 412.525 28.5189C411.732 28.6776 410.712 28.8362 409.465 28.9949C408.4 29.1309 407.505 29.4596 406.779 29.9809C406.077 30.4796 405.725 31.1936 405.725 32.1229C405.725 32.9842 405.997 33.6416 406.541 34.0949C407.085 34.5256 407.833 34.7409 408.785 34.7409C409.647 34.7409 410.485 34.5822 411.301 34.2649C412.117 33.9249 412.786 33.4036 413.307 32.7009C413.851 31.9756 414.123 31.0802 414.123 30.0149V27.8389ZM428.223 34.6729C430.626 34.6729 432.19 33.3922 432.915 30.8309L436.417 31.3409C435.986 32.9502 435.102 34.3782 433.765 35.6249C432.45 36.8716 430.603 37.4949 428.223 37.4949C426.546 37.4949 425.061 37.1096 423.769 36.3389C422.5 35.5456 421.514 34.4462 420.811 33.0409C420.108 31.6129 419.757 29.9696 419.757 28.1109C419.757 26.2522 420.108 24.6202 420.811 23.2149C421.514 21.7869 422.5 20.6876 423.769 19.9169C425.061 19.1236 426.557 18.7269 428.257 18.7269C430.524 18.7269 432.269 19.2822 433.493 20.3929C434.74 21.4809 435.59 22.6369 436.043 23.8609L432.779 24.9149C432.484 24.0536 431.986 23.2829 431.283 22.6029C430.603 21.9002 429.594 21.5489 428.257 21.5489C426.738 21.5489 425.526 22.1382 424.619 23.3169C423.735 24.4729 423.293 26.0709 423.293 28.1109C423.293 30.1282 423.735 31.7262 424.619 32.9049C425.526 34.0836 426.727 34.6729 428.223 34.6729ZM441.866 19.1349V37.0869H438.398V19.1349H441.866ZM441.866 12.4709V16.2449H438.398V12.4709H441.866ZM448.341 12.4709V37.0869H444.873V12.4709H448.341ZM454.816 19.1349V37.0869H451.348V19.1349H454.816ZM454.816 12.4709V16.2449H451.348V12.4709H454.816ZM466.764 34.0949V37.0869C466.266 37.1322 465.416 37.1549 464.214 37.1549C462.537 37.1549 461.336 36.8829 460.61 36.3389C459.908 35.7949 459.556 34.7522 459.556 33.2109V21.7529H456.598V19.1349H459.556V14.0689H463.024V19.1349H466.968V21.7529H463.024V32.2929C463.024 33.0862 463.172 33.5962 463.466 33.8229C463.761 34.0496 464.294 34.1629 465.064 34.1629L466.764 34.0949ZM472.48 19.1349V37.0869H469.012V19.1349H472.48ZM472.48 12.4709V16.2449H469.012V12.4709H472.48ZM491.602 31.8509C491.104 33.4149 490.197 34.7522 488.882 35.8629C487.568 36.9509 485.709 37.4949 483.306 37.4949C481.652 37.4949 480.178 37.1096 478.886 36.3389C477.617 35.5456 476.631 34.4462 475.928 33.0409C475.226 31.6129 474.874 29.9809 474.874 28.1449C474.874 26.2862 475.214 24.6429 475.894 23.2149C476.597 21.7869 477.572 20.6876 478.818 19.9169C480.088 19.1236 481.572 18.7269 483.272 18.7269C484.927 18.7269 486.389 19.1009 487.658 19.8489C488.95 20.5742 489.948 21.6282 490.65 23.0109C491.376 24.3709 491.738 25.9916 491.738 27.8729C491.738 28.3489 491.727 28.7116 491.704 28.9609H478.376C478.422 30.6382 478.886 32.0096 479.77 33.0749C480.677 34.1402 481.856 34.6729 483.306 34.6729C484.689 34.6729 485.754 34.3556 486.502 33.7209C487.25 33.0636 487.783 32.3042 488.1 31.4429L491.602 31.8509ZM483.272 21.5489C481.867 21.5489 480.745 22.0136 479.906 22.9429C479.09 23.8496 478.603 24.9716 478.444 26.3089H488.202C488.044 24.9489 487.545 23.8156 486.706 22.9089C485.868 22.0022 484.723 21.5489 483.272 21.5489ZM504.959 24.5069C504.71 23.4869 504.2 22.7162 503.429 22.1949C502.659 21.6509 501.763 21.3789 500.743 21.3789C499.678 21.3789 498.828 21.6056 498.193 22.0589C497.559 22.5122 497.241 23.1582 497.241 23.9969C497.241 24.6996 497.525 25.2096 498.091 25.5269C498.681 25.8442 499.565 26.1049 500.743 26.3089L502.511 26.5809C504.415 26.9209 505.889 27.4649 506.931 28.2129C507.997 28.9382 508.529 30.1622 508.529 31.8849C508.529 33.6756 507.815 35.0582 506.387 36.0329C504.982 37.0076 503.157 37.4949 500.913 37.4949C498.692 37.4949 496.879 36.9849 495.473 35.9649C494.068 34.9222 493.207 33.5622 492.889 31.8849L496.051 31.2049C496.323 32.4516 496.879 33.3809 497.717 33.9929C498.579 34.5822 499.667 34.8769 500.981 34.8769C502.183 34.8769 503.146 34.6276 503.871 34.1289C504.597 33.6076 504.959 32.8936 504.959 31.9869C504.959 31.2389 504.642 30.6836 504.007 30.3209C503.395 29.9582 502.466 29.6749 501.219 29.4709L499.383 29.1649C497.661 28.8702 496.278 28.3602 495.235 27.6349C494.215 26.9096 493.705 25.7082 493.705 24.0309C493.705 23.0109 494 22.1042 494.589 21.3109C495.201 20.4949 496.04 19.8602 497.105 19.4069C498.193 18.9536 499.417 18.7269 500.777 18.7269C502.047 18.7269 503.214 18.9649 504.279 19.4409C505.345 19.8942 506.206 20.5176 506.863 21.3109C507.543 22.0816 507.963 22.9202 508.121 23.8269L504.959 24.5069Z" fill="white"/>
</svg>
